# Made in Blockbench 5.1.4
mtllib casa.mtl

o mesh
v 0 1.4374999978124998 0.7500437499997815
v 0 1.4374999978124998 -0.7499562500002185
v 0 -0.1875 -0.75
v 0 -0.1875 0.75
v 4.016591449433129e-18 1.4999999978124998 0.7500437499997815
v 4.016591449433129e-18 1.4999999978124998 -0.7499562500002185
v 4.016167932959128e-18 1.5000015290624882 -0.8124562499814607
v -4.235164740006917e-22 1.4375015290624882 -0.8124562499814607
v 4.015744416484547e-18 1.4999999978124998 0.8125437499997815
v -8.470329485816259e-22 1.4374999978124998 0.8125437499997815
v 4.016167932959128e-18 1.5312515290624837 -0.8124562334302186
v 4.016591449433129e-18 1.5312499978124954 -0.7499562334489763
v 4.015744416484547e-18 1.5312499977965495 0.8125427515518127
v 4.016591449433129e-18 1.5312499977965495 0.7500427515518127
v 0.75 1 0.75
v 0.75 1 -0.75
v 0.75 -0.1875 0.75
v 0.75 -0.1875 -0.75
v 0.7814919389777725 1.0539861813746838 -0.75
v 0.7814919389777725 1.0539861813746838 0.75
v 0.7814893139777818 1.0539877126246706 -0.8124999999261172
v 0.7499973750000093 1.0000015312499868 -0.8124999999261172
v 0.7814954378941984 1.0539861813746838 0.8124999999020607
v 0.7500034989164259 1 0.8124999999020607
v 0.8354781203366763 1.0224942424061163 0.7499984888549047
v 0.8354781203365017 1.0224942424062182 -0.7500015194860544
v 0.8039861813589039 0.9685080610314325 0.7499984888549047
v 0.8039861813587292 0.9685080610315344 -0.7500015194860544
v 0.80398968022799 0.9685080610590474 0.8124969776118709
v 0.8354816192057625 1.022494242433731 0.8124969776118709
v 0.8354754952886472 1.0224957736841256 -0.8125030388982252
v 0.8039835563108747 0.9685095923094418 -0.8125030388982252
v 0.8512214647775334 1.0494888643714675 -0.8125030388982252
v 0.8512240898253879 1.0494873330935601 -0.7500015194860544
v 0.7971100488314914 1.0810534521014696 -0.7499999928124844
v 0.7971074238315007 1.0810549833514564 -0.8124999927386016
v 0.7971135020495768 1.081053478455737 0.8124991255505829
v 0.7971100031331508 1.081053478455737 0.7499991256485222
v 0.8512240897824771 1.0494873331041974 0.7499976073322915
v 0.8512275886515632 1.0494873331318122 0.8124960960892577
v -0.75 1 0.75
v -0.75 1 -0.75
v -0.75 -0.1875 0.75
v -0.75 -0.1875 -0.75
v -0.7814919389777725 1.0539861813746838 -0.75
v -0.7814919389777725 1.0539861813746838 0.75
v -0.7814893139777818 1.0539877126246706 -0.8124999999261172
v -0.7499973750000093 1.0000015312499868 -0.8124999999261172
v -0.7814954378941984 1.0539861813746838 0.8124999999020607
v -0.7500034989164259 1 0.8124999999020607
v -0.8354781203366763 1.0224942424061163 0.7499984888549047
v -0.8354781203365017 1.0224942424062182 -0.7500015194860544
v -0.8039861813589039 0.9685080610314325 0.7499984888549047
v -0.8039861813587292 0.9685080610315344 -0.7500015194860544
v -0.80398968022799 0.9685080610590474 0.8124969776118709
v -0.8354816192057625 1.022494242433731 0.8124969776118709
v -0.8354754952886472 1.0224957736841256 -0.8125030388982252
v -0.8039835563108747 0.9685095923094418 -0.8125030388982252
v -0.8512214647775334 1.0494888643714675 -0.8125030388982252
v -0.8512240898253879 1.0494873330935601 -0.7500015194860544
v -0.7971100488314914 1.0810534521014696 -0.7499999928124844
v -0.7971074238315007 1.0810549833514564 -0.8124999927386016
v -0.7971135020495768 1.081053478455737 0.8124991255505829
v -0.7971100031331508 1.081053478455737 0.7499991256485222
v -0.8512240897824771 1.0494873331041974 0.7499976073322915
v -0.8512275886515632 1.0494873331318122 0.8124960960892577
vt 0.5546875 0.8046875
vt 0.3671875 0.8046875
vt 0.3671875 0.65625
vt 0.5546875 0.65625
vt 0.410158984375 0.37971171875
vt 0.410153515625 0.4921875
vt 0.222653515625 0.4921875
vt 0.22265898437499998 0.37971171875
vt 0.5078125 1
vt 0.4140625 1
vt 0.4140625 0.8125
vt 0.5078125 0.8125
vt 0.359375 0.7734375
vt 0.265625 0.828125
vt 0.265625 0.625
vt 0.359375 0.625
vt 0 0.796875
vt 0.09375 0.796875
vt 0.09375 1
vt 0 0.9453125
vt 0.6250001938836622 0.95703125
vt 0.5273132831859613 0.9012800238280815
vt 0.5312499787015942 0.894531572774306
vt 0.6250001669858343 0.9492187500000463
vt 0.72268671875 0.9403421875
vt 0.625 0.99609375
vt 0.625 0.98828125
vt 0.71875 0.93359375
vt 0.7578125 0.5625
vt 0.5703125 0.5625
vt 0.5703125 0.5546875
vt 0.7578125 0.5546875
vt 0.7578125 0.5546875
vt 0.765625 0.5546875
vt 0.765625 0.5625
vt 0.7578125 0.5625
vt 0.613283984375 0.74494296875
vt 0.621096484375 0.74494296875
vt 0.621091015625 0.859375
vt 0.613278515625 0.859375
vt 0.011725390624999998 0.49134687499999996
vt 0.003912890624999998 0.49134687499999996
vt 0.0039035156249999925 0.3828125
vt 0.011716015624999992 0.3828125
vt 0 0.3671875
vt 0 0.25275546875
vt 0.0078125 0.25275546875
vt 0.0078125 0.3671875
vt 0.207028515625 0.3828125
vt 0.207033984375 0.49134765625
vt 0.199221484375 0.49134765625
vt 0.199216015625 0.3828125
vt 0.5625 0.5625
vt 0.5625 0.5546875
vt 0.5703125 0.5546875
vt 0.5703125 0.5625
vt 0.22265898437499998 0.37971171875
vt 0.22265898437499998 0.37189921875
vt 0.410158984375 0.37189921875
vt 0.410158984375 0.37971171875
vt 0.011716015624999992 0.3828125
vt 0.011716015624999992 0.375
vt 0.199216015625 0.375
vt 0.199216015625 0.3828125
vt 0.199216015625 0.3828125
vt 0.199216015625 0.375
vt 0.207028515625 0.375
vt 0.207028515625 0.3828125
vt 0.7187489871599166 0.9335935575129687
vt 0.7254970310839453 0.929656164161094
vt 0.72943442443582 0.9364042080851226
vt 0.7226863805117913 0.9403416014369974
vt 0 0.25275546875
vt 0 0.24492500000000006
vt 0.0078125 0.24492500000000006
vt 0.0078125 0.25275546875
vt 0.5273132831859613 0.9012800238280815
vt 0.5205648321321859 0.8973433283124487
vt 0.5245015276478187 0.8905948772586731
vt 0.5312499787015942 0.894531572774306
vt 0.0039035156249999925 0.3828125
vt 0.0039035156249999925 0.375
vt 0.011716015624999992 0.375
vt 0.011716015624999992 0.3828125
vt 0.6132839843359374 0.74494296875
vt 0.6132832012890664 0.7371125000391523
vt 0.6210957012500039 0.7371117187891563
vt 0.621096484375 0.74494296875
vt 0.765625 0.5625
vt 0.765625 0.56640625
vt 0.7578125 0.56640625
vt 0.7578125 0.5625
vt 0.72943515625 0.828125
vt 0.731403125 0.8314984375
vt 0.7246390625 0.8354445312500001
vt 0.72268671875 0.8320609375
vt 0.5273138724894183 0.9012803601514443
vt 0.5253615520383632 0.9046639673448985
vt 0.5185974623663377 0.900717920171271
vt 0.5205654078819473 0.8973436878702252
vt 0.6250001938836622 0.95703125
vt 0.6250002207814902 0.9609374999999074
vt 0.5253615520383632 0.9046639673448985
vt 0.5273138724894183 0.9012803601514443
vt 0.72268671875 0.8320609375
vt 0.7246390625 0.8354445312500001
vt 0.6250000000000002 0.8917187500000003
vt 0.6250000000000002 0.8878125000000003
vt 0.72268671875 0.9403421875
vt 0.7246390625 0.943725
vt 0.625 1
vt 0.625 0.99609375
vt 0.6249999999999998 0.9190625000000003
vt 0.6249999999999998 0.9229687500000003
vt 0.5253609375 0.8666945312500001
vt 0.52731328125 0.8633109375
vt 0.5703125 0.5625
vt 0.5703125 0.56640625
vt 0.5625 0.56640625
vt 0.5625 0.5625
vt 0.72943442443582 0.9364042080851226
vt 0.7314027304867593 0.9397782300861866
vt 0.7246390625 0.943725
vt 0.7226863805117913 0.9403416014369974
vt 0.52731328125 0.8633109375
vt 0.5253609375 0.8666945312500001
vt 0.5185960937499999 0.86274921875
vt 0.52056484375 0.859375
vt 0.5546875 0.5
vt 0.5546875 0.6484375
vt 0.3671875 0.6484375
vt 0.3671875 0.5
vt 0.613283984375 0.4921875
vt 0.425783984375 0.4921875
vt 0.425778515625 0.37971171875
vt 0.613278515625 0.37971171875
vt 0.4140625 0.8125
vt 0.4140625 1
vt 0.3203125 1
vt 0.3203125 0.8125
vt 0.265625 0.625
vt 0.265625 0.828125
vt 0.171875 0.7734375
vt 0.171875 0.625
vt 0.09375 1
vt 0.09375 0.796875
vt 0.1875 0.796875
vt 0.1875 0.9453125
vt 0.718749978700483 0.8945309272264348
vt 0.7226867206848033 0.9012793511725793
vt 0.6250001938836622 0.95703125
vt 0.6250001669858343 0.9492187500000463
vt 0.625 0.98828125
vt 0.625 0.99609375
vt 0.52731328125 0.9403421875
vt 0.53125 0.93359375
vt 0.7578125 0.53125
vt 0.7578125 0.5390625
vt 0.5703125 0.5390625
vt 0.5703125 0.53125
vt 0.5625 0.5390625
vt 0.5625 0.53125
vt 0.5703125 0.53125
vt 0.5703125 0.5390625
vt 0.628908984375 0.5234375
vt 0.628903515625 0.40900546875
vt 0.636716015625 0.40900546875
vt 0.636721484375 0.5234375
vt 0.207033984375 0.5078125
vt 0.20702460937499997 0.616346875
vt 0.19921210937499997 0.616346875
vt 0.199221484375 0.5078125
vt 0.625 0.27619296875
vt 0.6328125 0.27619296875
vt 0.6328125 0.390625
vt 0.625 0.390625
vt 0.011716015624999992 0.61634765625
vt 0.0039035156249999925 0.61634765625
vt 0.003908984374999994 0.5078125
vt 0.011721484374999994 0.5078125
vt 0.7578125 0.53125
vt 0.765625 0.53125
vt 0.765625 0.5390625
vt 0.7578125 0.5390625
vt 0.425778515625 0.37189921875
vt 0.613278515625 0.37189921875
vt 0.613278515625 0.37971171875
vt 0.425778515625 0.37971171875
vt 0.011721484374999994 0.5
vt 0.199221484375 0.5
vt 0.199221484375 0.5078125
vt 0.011721484374999994 0.5078125
vt 0.003908984374999994 0.5
vt 0.011721484374999994 0.5
vt 0.011721484374999994 0.5078125
vt 0.003908984374999994 0.5078125
vt 0.52056484375 0.93640546875
vt 0.5245015625 0.92965703125
vt 0.53125 0.93359375
vt 0.52731328125 0.9403421875
vt 0.625 0.26836250000000006
vt 0.6328125 0.26836250000000006
vt 0.6328125 0.27619296875
vt 0.625 0.27619296875
vt 0.7254984026466273 0.8905941852421144
vt 0.7294351446309478 0.8973426091882588
vt 0.7226867206848033 0.9012793511725793
vt 0.718749978700483 0.8945309272264348
vt 0.199221484375 0.5
vt 0.207033984375 0.5
vt 0.207033984375 0.5078125
vt 0.199221484375 0.5078125
vt 0.6289042987499961 0.40117421878915627
vt 0.6367167987109336 0.4011750000391523
vt 0.6367160156640626 0.40900546875
vt 0.628903515625 0.40900546875
vt 0.5703125 0.54296875
vt 0.5625 0.54296875
vt 0.5625 0.5390625
vt 0.5703125 0.5390625
vt 0.5253609375 0.8354445312500007
vt 0.518596875 0.8314984375000007
vt 0.52056484375 0.8281250000000008
vt 0.52731328125 0.8320609375000008
vt 0.7314025376336623 0.9007171875
vt 0.7246384751336623 0.90466328125
vt 0.7226861313836622 0.9012796875
vt 0.7294345688836622 0.89734296875
vt 0.7246384751336623 0.90466328125
vt 0.6250001938836622 0.9609375
vt 0.6250001938836622 0.95703125
vt 0.7226861313836623 0.9012796875
vt 0.6250000000000002 0.8917187500000003
vt 0.5253609375 0.8354445312500007
vt 0.52731328125 0.8320609375000008
vt 0.6250000000000002 0.8878125000000003
vt 0.625 1
vt 0.5253609375 0.943725
vt 0.52731328125 0.9403421875
vt 0.625 0.99609375
vt 0.7246390625 0.8666945312500007
vt 0.6249999999999998 0.9229687500000003
vt 0.6249999999999998 0.9190625000000003
vt 0.72268671875 0.8633109375000008
vt 0.765625 0.54296875
vt 0.7578125 0.54296875
vt 0.7578125 0.5390625
vt 0.765625 0.5390625
vt 0.5253609375 0.943725
vt 0.5185972695132407 0.9397782300861866
vt 0.52056557556418 0.9364042080851226
vt 0.5273136194882087 0.9403416014369974
vt 0.73140390625 0.8627492187500008
vt 0.7246390625 0.8666945312500007
vt 0.72268671875 0.8633109375000008
vt 0.7294351562500001 0.8593750000000008
vn 1 0 0
vn 0.49567556842895416 0.868507760968567 0
vn 0 -1 0
vn 0.00004262820491852776 -0.000026923076790649112 0.999999998728992
vn 0 0.000026923076815110936 -0.999999999637574
vn -0.0000420000527709749 0.000024500030660568488 -0.9999999988178722
vn 0.0000559825374926964 0 0.9999999984329779
vn 0.8637789019949407 -0.5038710236443594 -1.34801636698737e-13
vn 0.8637789009738585 -0.5038710230487281 -0.00004862325820441547
vn 0.4917737397829834 0.8707230264897092 6.782169682435062e-7
vn -0.5038723402637152 -0.8637781337064008 -0.000021162564121321408
vn 0.4917708735487005 0.8707246448626637 -0.000027530643039575674
vn -0.503869269781549 -0.8637799250791888 0
vn 0.8637789009850131 -0.503871023055236 -0.00004835693533815143
vn 0.5038710236443593 0.8637789019949408 2.5442610846952753e-17
vn -0.5038710236443588 -0.8637789019949412 -2.5442610847035066e-17
vn -0.5038710228547548 -0.8637789019949327 0.000028208723658801944
vn 0.000041769448026215946 -0.000024365511226798427 0.9999999988308176
vn 0.5038661984215214 0.863781716229585 -0.00002820845357101084
vn -0.00004199999984971722 0.000024499999789834994 -0.9999999988178752
vn -0.503871023644359 -0.8637789019949411 1.7208038523696944e-15
vn 0.5038662032345758 0.8637817138826065 2.7134510875564877e-10
vn 0.8637789009738592 -0.5038710230487268 -0.000048623258204416044
vn 0.000021049550133423775 -0.000012278904183102617 0.9999999997030725
vn -0.000041999999849796255 0.000024499999788610157 -0.9999999988178752
vn -0.000054598495800676374 5.296397481579488e-7 -0.999999998509362
vn 0.000041291239240457836 -0.0000240910372017248 0.9999999988573278
vn 0.00005503803593587155 5.4545158957991e-7 0.9999999984852586
vn -0.00007277519099857064 -0.00003195033491886406 -0.9999999968414739
vn 0.8637789009850098 -0.5038710230552418 -0.000048356935339034946
vn 0.00005598315340383482 5.034207083237053e-10 0.9999999984329434
vn -0.00003509004193467891 -0.00001205561641584135 -0.9999999993116756
vn -1 0 0
vn -0.4956755684289542 0.868507760968567 0
vn 0 -1 0
vn -0.00004262820491852776 -0.000026923076790649112 0.999999998728992
vn 0 0.000026923076815110936 -0.999999999637574
vn 0.000042000052770974864 0.000024500030660568478 -0.999999998817872
vn -0.00005598253749269636 3.59774370257174e-21 0.9999999984329779
vn -0.8637789019949407 -0.5038710236443594 -1.34801891121621e-13
vn -0.8637789009738585 -0.5038710230487281 -0.000048623258204416004
vn -0.4917737397829835 0.8707230264897092 6.782169683710847e-7
vn 0.5038723402637152 -0.8637781337064008 -0.000021162564120745456
vn -0.4917708735487005 0.8707246448626637 -0.00002753064303916427
vn 0.503869269781549 -0.8637799250791888 6.82870197252378e-21
vn -0.8637789009850131 -0.503871023055236 -0.00004835693533814091
vn -0.5038710236443593 0.8637789019949408 2.6638827201665022e-17
vn 0.5038710236443589 -0.8637789019949412 -2.6638827201759624e-17
vn 0.5038710228547549 -0.8637789019949326 0.000028208723658812746
vn -0.000041769448026215946 -0.00002436551122679842 0.9999999988308176
vn -0.5038661984215214 0.8637817162295851 -0.00002820845357102632
vn 0.00004199999984971721 0.000024499999789834994 -0.9999999988178752
vn 0.503871023644359 -0.8637789019949411 1.7194825130960832e-15
vn -0.5038662032345758 0.8637817138826065 2.713450890262665e-10
vn -0.8637789009738592 -0.5038710230487268 -0.000048623258204415455
vn -0.000021049550133423775 -0.000012278904183102617 0.9999999997030725
vn 0.00004199999984979625 0.000024499999788610168 -0.9999999988178752
vn 0.000054598495800676395 5.296397481578669e-7 -0.999999998509362
vn -0.00004129123924045783 -0.000024091037201724696 0.9999999988573278
vn -0.00005503803593587156 5.454515895798952e-7 0.9999999984852586
vn 0.00007277519099857056 -0.0000319503349188642 -0.999999996841474
vn -0.8637789009850095 -0.5038710230552418 -0.000048356935339035786
vn -0.00005598315340383481 5.03420708320325e-10 0.9999999984329434
vn 0.00003509004193467891 -0.000012055616415841353 -0.9999999993116756
usemtl m_bba95871-72a7-0400-8330-f5510d46c6be
f 16/1/1 15/2/1 17/3/1 18/4/1
f 19/5/2 6/6/2 5/7/2 20/8/2
f 17/9/3 4/10/3 3/11/3 18/12/3
f 15/13/4 1/14/4 4/15/4 17/16/4
f 18/17/5 3/18/5 2/19/5 16/20/5
f 7/21/6 21/22/6 22/23/6 8/24/6
f 23/25/7 9/26/7 10/27/7 24/28/7
f 26/29/8 25/30/8 27/31/8 28/32/8
f 28/33/9 32/34/9 31/35/9 26/36/9
f 35/37/10 36/38/10 11/39/10 12/40/10
f 2/41/11 8/42/11 22/43/11 16/44/11
f 13/45/12 37/46/12 38/47/12 14/48/12
f 24/49/13 10/50/13 1/51/13 15/52/13
f 30/53/14 29/54/14 27/55/14 25/56/14
f 20/57/15 25/58/15 26/59/15 19/60/15
f 16/61/16 28/62/16 27/63/16 15/64/16
f 15/65/17 27/66/17 29/67/17 24/68/17
f 24/69/18 29/70/18 30/71/18 23/72/18
f 37/73/19 40/74/19 39/75/19 38/76/19
f 21/77/20 31/78/20 32/79/20 22/80/20
f 22/81/21 32/82/21 28/83/21 16/84/21
f 35/85/22 34/86/22 33/87/22 36/88/22
f 31/89/23 33/90/23 34/91/23 26/92/23
f 26/93/24 34/94/24 35/95/24 19/96/24
f 21/97/25 36/98/25 33/99/25 31/100/25
f 7/101/26 11/102/26 36/103/26 21/104/26
f 19/105/27 35/106/27 12/107/27 6/108/27
f 23/109/28 37/110/28 13/111/28 9/112/28
f 5/113/29 14/114/29 38/115/29 20/116/29
f 25/117/30 39/118/30 40/119/30 30/120/30
f 30/121/31 40/122/31 37/123/31 23/124/31
f 20/125/32 38/126/32 39/127/32 25/128/32
f 43/129/33 41/130/33 42/131/33 44/132/33
f 5/133/34 6/134/34 45/135/34 46/136/34
f 3/137/35 4/138/35 43/139/35 44/140/35
f 4/141/36 1/142/36 41/143/36 43/144/36
f 2/145/37 3/146/37 44/147/37 42/148/37
f 48/149/38 47/150/38 7/151/38 8/152/38
f 10/153/39 9/154/39 49/155/39 50/156/39
f 53/157/40 51/158/40 52/159/40 54/160/40
f 57/161/41 58/162/41 54/163/41 52/164/41
f 11/165/42 62/166/42 61/167/42 12/168/42
f 48/169/43 8/170/43 2/171/43 42/172/43
f 64/173/44 63/174/44 13/175/44 14/176/44
f 1/177/45 10/178/45 50/179/45 41/180/45
f 53/181/46 55/182/46 56/183/46 51/184/46
f 52/185/47 51/186/47 46/187/47 45/188/47
f 53/189/48 54/190/48 42/191/48 41/192/48
f 55/193/49 53/194/49 41/195/49 50/196/49
f 56/197/50 55/198/50 50/199/50 49/200/50
f 65/201/51 66/202/51 63/203/51 64/204/51
f 58/205/52 57/206/52 47/207/52 48/208/52
f 54/209/53 58/210/53 48/211/53 42/212/53
f 59/213/54 60/214/54 61/215/54 62/216/54
f 60/217/55 59/218/55 57/219/55 52/220/55
f 61/221/56 60/222/56 52/223/56 45/224/56
f 59/225/57 62/226/57 47/227/57 57/228/57
f 62/229/58 11/230/58 7/231/58 47/232/58
f 12/233/59 61/234/59 45/235/59 6/236/59
f 13/237/60 63/238/60 49/239/60 9/240/60
f 64/241/61 14/242/61 5/243/61 46/244/61
f 66/245/62 65/246/62 51/247/62 56/248/62
f 63/249/63 66/250/63 56/251/63 49/252/63
f 65/253/64 64/254/64 46/255/64 51/256/64
o mesh
v 0.0625 1.546875 0.8437500000000001
v 0.0625 1.546875 -0.8437500000000001
v 0.0625 1.453125 0.8437500000000001
v 0.0625 1.453125 -0.8437500000000001
v -0.0625 1.546875 0.8437500000000001
v -0.0625 1.546875 -0.8437500000000001
v -0.0625 1.453125 0.8437500000000001
v -0.0625 1.453125 -0.8437500000000001
vt 0.1484375 0.578125
vt 0.1640625 0.578125
vt 0.1640625 0.7890625
vt 0.1484375 0.7890625
vt 0.578125 0.625
vt 0.578125 0.8359375
vt 0.5625 0.8359375
vt 0.5625 0.625
vt 0.015625 0.625
vt 0.015625 0.640625
vt 0 0.640625
vt 0 0.625
vt 0.3359375 0.5859375
vt 0.3203125 0.5859375
vt 0.3203125 0.5703125
vt 0.3359375 0.5703125
vt 0.7734375 0.6171875
vt 0.5625 0.6171875
vt 0.5625 0.6015625
vt 0.7734375 0.6015625
vt 0.7734375 0.578125
vt 0.7734375 0.59375
vt 0.5625 0.59375
vt 0.5625 0.578125
vn 0 1 0
vn 0 -1 0
vn 0 0 1
vn 0 0 -1
vn 1 0 0
vn -1 0 0
usemtl m_bba95871-72a7-0400-8330-f5510d46c6be
f 71/257/65 67/258/65 68/259/65 72/260/65
f 70/261/66 69/262/66 73/263/66 74/264/66
f 69/265/67 67/266/67 71/267/67 73/268/67
f 72/269/68 68/270/68 70/271/68 74/272/68
f 68/273/69 67/274/69 69/275/69 70/276/69
f 73/277/70 71/278/70 72/279/70 74/280/70
o mesh
v -0.75 0.875 -0.53125
v -0.75 0.875 -0.59375
v -0.75 0.4375 -0.53125
v -0.75 0.4375 -0.59375
v -0.78125 0.875 -0.53125
v -0.78125 0.875 -0.59375
v -0.78125 0.4375 -0.53125
v -0.78125 0.4375 -0.59375
vt 0.59375 0.703125
vt 0.5859375 0.703125
vt 0.5859375 0.6484375
vt 0.59375 0.6484375
vt 0.1328125 0.9921875
vt 0.140625 0.9921875
vt 0.140625 1
vt 0.1328125 1
vt 0.203125 0.8046875
vt 0.203125 0.8125
vt 0.1953125 0.8125
vt 0.1953125 0.8046875
vt 0.21875 0.3046875
vt 0.21875 0.359375
vt 0.2109375 0.359375
vt 0.2109375 0.3046875
vt 0.234375 0.359375
vt 0.2265625 0.359375
vt 0.2265625 0.3046875
vt 0.234375 0.3046875
vt 0.6484375 0.71875
vt 0.6484375 0.7734375
vt 0.640625 0.7734375
vt 0.640625 0.71875
vn 1 0 0
vn 0 1 0
vn 0 -1 0
vn 0 0 1
vn 0 0 -1
vn -1 0 0
usemtl m_bba95871-72a7-0400-8330-f5510d46c6be
f 76/281/71 75/282/71 77/283/71 78/284/71
f 79/285/72 75/286/72 76/287/72 80/288/72
f 78/289/73 77/290/73 81/291/73 82/292/73
f 77/293/74 75/294/74 79/295/74 81/296/74
f 80/297/75 76/298/75 78/299/75 82/300/75
f 81/301/76 79/302/76 80/303/76 82/304/76
o mesh
v 0.7502495960376878 0.9426103185206062 0.15625
v 0.7502495960376878 0.9426103185206062 -0.59375
v 0.7080252080617091 0.8965304849699735 0.15625
v 0.7080252080617091 0.8965304849699735 -0.59375
v 0.8654491799142697 0.8370493485806593 0.15625
v 0.8654491799142697 0.8370493485806593 -0.59375
v 0.8232247919382909 0.7909695150300265 0.15625
v 0.8232247919382909 0.7909695150300265 -0.59375
vt 0.3125 0.5
vt 0.3125 0.5078125
vt 0.21875 0.5078125
vt 0.21875 0.5
vt 0.1953125 1
vt 0.1953125 0.90625
vt 0.21875 0.90625
vt 0.21875 1
vt 0.25 1
vt 0.2265625 1
vt 0.2265625 0.90625
vt 0.25 0.90625
vt 0.0546875 1
vt 0.03125 1
vt 0.03125 0.9921875
vt 0.0546875 0.9921875
vt 0.34375 0.5
vt 0.34375 0.5078125
vt 0.3203125 0.5078125
vt 0.3203125 0.5
vt 0.140625 0.4921875
vt 0.046875 0.4921875
vt 0.046875 0.484375
vt 0.140625 0.484375
vn -0.7372773368101242 0.6755902076156601 0
vn 0.6755902076156601 0.7372773368101242 0
vn -0.6755902076156601 -0.7372773368101242 0
vn 0 0 1
vn 0 0 -1
vn 0.7372773368101242 -0.6755902076156601 0
usemtl m_bba95871-72a7-0400-8330-f5510d46c6be
f 85/305/77 83/306/77 84/307/77 86/308/77
f 84/309/78 83/310/78 87/311/78 88/312/78
f 89/313/79 85/314/79 86/315/79 90/316/79
f 87/317/80 83/318/80 85/319/80 89/320/80
f 86/321/81 84/322/81 88/323/81 90/324/81
f 88/325/82 87/326/82 89/327/82 90/328/82
o mesh
v -0.75 0.875 0.15625
v -0.75 0.875 0.09375
v -0.75 0.4375 0.15625
v -0.75 0.4375 0.09375
v -0.78125 0.875 0.15625
v -0.78125 0.875 0.09375
v -0.78125 0.4375 0.15625
v -0.78125 0.4375 0.09375
vt 0.25 0.359375
vt 0.2421875 0.359375
vt 0.2421875 0.3046875
vt 0.25 0.3046875
vt 0.0234375 0.78125
vt 0.03125 0.78125
vt 0.03125 0.7890625
vt 0.0234375 0.7890625
vt 0.140625 0.78125
vt 0.140625 0.7890625
vt 0.1328125 0.7890625
vt 0.1328125 0.78125
vt 0.265625 0.3046875
vt 0.265625 0.359375
vt 0.2578125 0.359375
vt 0.2578125 0.3046875
vt 0.28125 0.359375
vt 0.2734375 0.359375
vt 0.2734375 0.3046875
vt 0.28125 0.3046875
vt 0.296875 0.3046875
vt 0.296875 0.359375
vt 0.2890625 0.359375
vt 0.2890625 0.3046875
vn 1 0 0
vn 0 1 0
vn 0 -1 0
vn 0 0 1
vn 0 0 -1
vn -1 0 0
usemtl m_bba95871-72a7-0400-8330-f5510d46c6be
f 92/329/83 91/330/83 93/331/83 94/332/83
f 95/333/84 91/334/84 92/335/84 96/336/84
f 94/337/85 93/338/85 97/339/85 98/340/85
f 93/341/86 91/342/86 95/343/86 97/344/86
f 96/345/87 92/346/87 94/347/87 98/348/87
f 97/349/88 95/350/88 96/351/88 98/352/88
o mesh
v 0.75 0.875 -0.53125
v 0.75 0.875 -0.59375
v 0.75 0.4375 -0.53125
v 0.75 0.4375 -0.59375
v 0.78125 0.875 -0.53125
v 0.78125 0.875 -0.59375
v 0.78125 0.4375 -0.53125
v 0.78125 0.4375 -0.59375
vt 0.6484375 0.65625
vt 0.6484375 0.7109375
vt 0.640625 0.7109375
vt 0.640625 0.65625
vt 0.0234375 0.7734375
vt 0.0234375 0.765625
vt 0.03125 0.765625
vt 0.03125 0.7734375
vt 0.140625 0.7734375
vt 0.1328125 0.7734375
vt 0.1328125 0.765625
vt 0.140625 0.765625
vt 0.3125 0.359375
vt 0.3046875 0.359375
vt 0.3046875 0.3046875
vt 0.3125 0.3046875
vt 0.328125 0.3046875
vt 0.328125 0.359375
vt 0.3203125 0.359375
vt 0.3203125 0.3046875
vt 0.34375 0.359375
vt 0.3359375 0.359375
vt 0.3359375 0.3046875
vt 0.34375 0.3046875
vn -1 0 0
vn 0 1 0
vn 0 -1 0
vn 0 0 1
vn 0 0 -1
vn 1 0 0
usemtl m_bba95871-72a7-0400-8330-f5510d46c6be
f 101/353/89 99/354/89 100/355/89 102/356/89
f 100/357/90 99/358/90 103/359/90 104/360/90
f 105/361/91 101/362/91 102/363/91 106/364/91
f 103/365/92 99/366/92 101/367/92 105/368/92
f 102/369/93 100/370/93 104/371/93 106/372/93
f 104/373/94 103/374/94 105/375/94 106/376/94
o mesh
v -0.7502495960376878 0.9426103185206062 0.15625
v -0.7502495960376878 0.9426103185206062 -0.59375
v -0.7080252080617091 0.8965304849699735 0.15625
v -0.7080252080617091 0.8965304849699735 -0.59375
v -0.8654491799142697 0.8370493485806593 0.15625
v -0.8654491799142697 0.8370493485806593 -0.59375
v -0.8232247919382909 0.7909695150300265 0.15625
v -0.8232247919382909 0.7909695150300265 -0.59375
vt 0.140625 0.4765625
vt 0.046875 0.4765625
vt 0.046875 0.46875
vt 0.140625 0.46875
vt 0.2578125 0.90625
vt 0.28125 0.90625
vt 0.28125 1
vt 0.2578125 1
vt 0.3125 0.90625
vt 0.3125 1
vt 0.2890625 1
vt 0.2890625 0.90625
vt 0.5390625 0.8125
vt 0.5390625 0.8203125
vt 0.515625 0.8203125
vt 0.515625 0.8125
vt 0.5625 1
vt 0.5390625 1
vt 0.5390625 0.9921875
vt 0.5625 0.9921875
vt 0.140625 0.453125
vt 0.140625 0.4609375
vt 0.046875 0.4609375
vt 0.046875 0.453125
vn 0.7372773368101242 0.6755902076156601 0
vn -0.6755902076156601 0.7372773368101242 0
vn 0.6755902076156601 -0.7372773368101242 0
vn 0 0 1
vn 0 0 -1
vn -0.7372773368101242 -0.6755902076156601 0
usemtl m_bba95871-72a7-0400-8330-f5510d46c6be
f 108/377/95 107/378/95 109/379/95 110/380/95
f 111/381/96 107/382/96 108/383/96 112/384/96
f 110/385/97 109/386/97 113/387/97 114/388/97
f 109/389/98 107/390/98 111/391/98 113/392/98
f 112/393/99 108/394/99 110/395/99 114/396/99
f 113/397/100 111/398/100 112/399/100 114/400/100
o mesh
v 0.75 0.4375 0.15625
v 0.75 0.4375 -0.59375
v 0.75 0.375 0.15625
v 0.75 0.375 -0.59375
v 0.8125 0.4375 0.15625
v 0.8125 0.4375 -0.59375
v 0.8125 0.375 0.15625
v 0.8125 0.375 -0.59375
vt 0.140625 0.4375
vt 0.140625 0.4453125
vt 0.046875 0.4453125
vt 0.046875 0.4375
vt 0.1484375 0.4921875
vt 0.1484375 0.3984375
vt 0.15625 0.3984375
vt 0.15625 0.4921875
vt 0.171875 0.4921875
vt 0.1640625 0.4921875
vt 0.1640625 0.3984375
vt 0.171875 0.3984375
vt 0.2421875 0.8359375
vt 0.234375 0.8359375
vt 0.234375 0.828125
vt 0.2421875 0.828125
vt 0.03125 0.75
vt 0.03125 0.7578125
vt 0.0234375 0.7578125
vt 0.0234375 0.75
vt 0.1171875 0.4296875
vt 0.0234375 0.4296875
vt 0.0234375 0.421875
vt 0.1171875 0.421875
vn -1 0 0
vn 0 1 0
vn 0 -1 0
vn 0 0 1
vn 0 0 -1
vn 1 0 0
usemtl m_bba95871-72a7-0400-8330-f5510d46c6be
f 117/401/101 115/402/101 116/403/101 118/404/101
f 116/405/102 115/406/102 119/407/102 120/408/102
f 121/409/103 117/410/103 118/411/103 122/412/103
f 119/413/104 115/414/104 117/415/104 121/416/104
f 118/417/105 116/418/105 120/419/105 122/420/105
f 120/421/106 119/422/106 121/423/106 122/424/106
o mesh
v -0.75 0.4375 0.15625
v -0.75 0.4375 -0.59375
v -0.75 0.375 0.15625
v -0.75 0.375 -0.59375
v -0.8125 0.4375 0.15625
v -0.8125 0.4375 -0.59375
v -0.8125 0.375 0.15625
v -0.8125 0.375 -0.59375
vt 0.1171875 0.4140625
vt 0.0234375 0.4140625
vt 0.0234375 0.40625
vt 0.1171875 0.40625
vt 0.1796875 0.3984375
vt 0.1875 0.3984375
vt 0.1875 0.4921875
vt 0.1796875 0.4921875
vt 0.6171875 0.6328125
vt 0.6171875 0.7265625
vt 0.609375 0.7265625
vt 0.609375 0.6328125
vt 0.140625 0.75
vt 0.140625 0.7578125
vt 0.1328125 0.7578125
vt 0.1328125 0.75
vt 0.0859375 0.75
vt 0.078125 0.75
vt 0.078125 0.7421875
vt 0.0859375 0.7421875
vt 0.1171875 0.390625
vt 0.1171875 0.3984375
vt 0.0234375 0.3984375
vt 0.0234375 0.390625
vn 1 0 0
vn 0 1 0
vn 0 -1 0
vn 0 0 1
vn 0 0 -1
vn -1 0 0
usemtl m_bba95871-72a7-0400-8330-f5510d46c6be
f 124/425/107 123/426/107 125/427/107 126/428/107
f 127/429/108 123/430/108 124/431/108 128/432/108
f 126/433/109 125/434/109 129/435/109 130/436/109
f 125/437/110 123/438/110 127/439/110 129/440/110
f 128/441/111 124/442/111 126/443/111 130/444/111
f 129/445/112 127/446/112 128/447/112 130/448/112
o mesh
v 0.75 0.875 0.15625
v 0.75 0.875 0.09375
v 0.75 0.4375 0.15625
v 0.75 0.4375 0.09375
v 0.78125 0.875 0.15625
v 0.78125 0.875 0.09375
v 0.78125 0.4375 0.15625
v 0.78125 0.4375 0.09375
vt 0.359375 0.3046875
vt 0.359375 0.359375
vt 0.3515625 0.359375
vt 0.3515625 0.3046875
vt 0.2890625 0.8359375
vt 0.2890625 0.828125
vt 0.296875 0.828125
vt 0.296875 0.8359375
vt 0.3125 0.828125
vt 0.3046875 0.828125
vt 0.3046875 0.8203125
vt 0.3125 0.8203125
vt 0.375 0.359375
vt 0.3671875 0.359375
vt 0.3671875 0.3046875
vt 0.375 0.3046875
vt 0.390625 0.3046875
vt 0.390625 0.359375
vt 0.3828125 0.359375
vt 0.3828125 0.3046875
vt 0.40625 0.359375
vt 0.3984375 0.359375
vt 0.3984375 0.3046875
vt 0.40625 0.3046875
vn -1 0 0
vn 0 1 0
vn 0 -1 0
vn 0 0 1
vn 0 0 -1
vn 1 0 0
usemtl m_bba95871-72a7-0400-8330-f5510d46c6be
f 133/449/113 131/450/113 132/451/113 134/452/113
f 132/453/114 131/454/114 135/455/114 136/456/114
f 137/457/115 133/458/115 134/459/115 138/460/115
f 135/461/116 131/462/116 133/463/116 137/464/116
f 134/465/117 132/466/117 136/467/117 138/468/117
f 136/469/118 135/470/118 137/471/118 138/472/118
o cube
v 0.875 0.875 0.6875
v 0.875 0.875 0.25
v 0.875 -0.1875 0.6875
v 0.875 -0.1875 0.25
v 0.75 0.9375 0.6875
v 0.75 0.9375 0.25
v 0.75 -0.1875 0.6875
v 0.75 -0.1875 0.25
v 0.875 1 0.5416666666666667
v 0.75 1.0625 0.5416666666666667
v 0.875 1 0.39583333333333337
v 0.75 1.0625 0.39583333333333337
v 0.75 -0.1875 0.5416666666666667
v 0.75 -0.1875 0.39583333333333337
v 0.875 -0.1875 0.5416666666666667
v 0.875 -0.1875 0.39583333333333337
v 0.8404508497187474 1.4375 0.5416666666666667
v 0.8404508497187474 1.4375 0.39583333333333337
v 0.7154508497187474 1.4375 0.39583333333333337
v 0.7154508497187474 1.4375 0.5416666666666667
vt 0.140625 0.7185796875
vt 0.12239609375 0.7342046875
vt 0.12239609375 0.5857671875
vt 0.140625 0.5857671875
vt 0.0234375 0.5857390625
vt 0.041666406249999996 0.5857390625
vt 0.041666406249999996 0.7419890625
vt 0.0234375 0.7263640625
vt 0.0859375 0.7650532462476013
vt 0.0859375 0.7890625
vt 0.0703125 0.7839783070174853
vt 0.0703125 0.7599690532650867
vt 0.0390625 0.4375
vt 0.0390625 0.45572890624999995
vt 0.0234375 0.45572890624999995
vt 0.0234375 0.4375
vt 0.015625 0.6484375
vt 0.015625 0.78125
vt 0 0.7890625
vt 0 0.6484375
vt 0.6015625 0.7109375
vt 0.6015625 0.8515625
vt 0.5859375 0.84375
vt 0.5859375 0.7109375
vt 0.19746905326508668 0.8203125
vt 0.22147830701748536 0.8203125
vt 0.2265625 0.8359375
vt 0.20255354512833262 0.8359375
vt 0.359375 0.5390625
vt 0.359375 0.5546875
vt 0.34375 0.5546875
vt 0.34375 0.5390625
vt 0.078125 0.7263640625
vt 0.059896093750000004 0.7419890625
vt 0.059896093750000004 0.5857390625
vt 0.078125 0.5857390625
vt 0.059896093750000004 0.7419890625
vt 0.041666406249999996 0.7419890625
vt 0.041666406249999996 0.5857390625
vt 0.059896093750000004 0.5857390625
vt 0.0234375 0.4921875
vt 0.0234375 0.47395859375000005
vt 0.0390625 0.47395859375000005
vt 0.0390625 0.4921875
vt 0.0234375 0.47395859375000005
vt 0.0234375 0.45572890624999995
vt 0.0390625 0.45572890624999995
vt 0.0390625 0.47395859375000005
vt 0.0859375 0.5857671875
vt 0.10416640625 0.5857671875
vt 0.10416640625 0.7342046875
vt 0.0859375 0.7185796875
vt 0.10416640625 0.5857671875
vt 0.12239609375 0.5857671875
vt 0.12239609375 0.7342046875
vt 0.10416640625 0.7342046875
vt 0.12239609375 0.7890625
vt 0.10416640625 0.7890625
vt 0.10416640625 0.7342046875
vt 0.12239609375 0.7342046875
vt 0.35616893133253524 0.5156734958358207
vt 0.3549388325465412 0.53125
vt 0.30008106866746476 0.53125
vt 0.3090994195355485 0.5162885452288177
vt 0.059896093750000004 0.7890625
vt 0.041666406249999996 0.7890625
vt 0.041666406249999996 0.7419890625
vt 0.059896093750000004 0.7419890625
vt 0.3124670512150487 0.8970039880294404
vt 0.2969079487849513 0.8984375
vt 0.2969079487849513 0.8513639700010451
vt 0.3117502952297689 0.8421509068154369
vn 1 0 0
vn -1 0 0
vn 0.35491408859437573 0.7098281771887515 -0.6084241518760726
vn 0 -1 0
vn 0 0 1
vn 0 0 -1
vn 0.3549140885943757 0.7098281771887514 0.6084241518760727
vn 0 1 0
vn -1 0 0
vn -1 0 0
vn 0 -1 0
vn 0 -1 0
vn 1 0 0
vn 1 0 0
vn 0.9968964184613608 0.078724398117175 0
vn 0 0 -1
vn -0.9957827616599579 -0.0917425287468551 0
vn 0 0 1
usemtl m_bba95871-72a7-0400-8330-f5510d46c6be
f 140/473/119 149/474/119 154/475/119 142/476/119
f 146/477/120 152/478/120 150/479/120 144/480/120
f 144/481/121 150/482/121 149/483/121 140/484/121
f 142/485/122 154/486/122 152/487/122 146/488/122
f 141/489/123 139/490/123 143/491/123 145/492/123
f 146/493/124 144/494/124 140/495/124 142/496/124
f 139/497/125 147/498/125 148/499/125 143/500/125
f 155/501/126 156/502/126 157/503/126 158/504/126
f 143/505/127 148/506/127 151/507/127 145/508/127
f 148/509/128 150/510/128 152/511/128 151/512/128
f 145/513/129 151/514/129 153/515/129 141/516/129
f 151/517/130 152/518/130 154/519/130 153/520/130
f 141/521/131 153/522/131 147/523/131 139/524/131
f 153/525/132 154/526/132 149/527/132 147/528/132
f 156/529/133 155/530/133 147/531/133 149/532/133
f 157/533/134 156/534/134 149/535/134 150/536/134
f 158/537/135 157/538/135 150/539/135 148/540/135
f 155/541/136 158/542/136 148/543/136 147/544/136
o cube
v 0.0625 0 -0.75
v 0.0625 0 -0.875
v 0.0625 -0.1875 -0.75
v 0.0625 -0.1875 -0.875
v -0.6875 0 -0.875
v -0.6875 0 -0.75
v -0.6875 -0.1875 -0.875
v -0.6875 -0.1875 -0.75
vt 0.1953125 0.8984375
vt 0.2890625 0.8984375
vt 0.2890625 0.875
vt 0.1953125 0.875
vt 0.171875 0.6171875
vt 0.1875 0.6171875
vt 0.1875 0.59375
vt 0.171875 0.59375
vt 0.1953125 0.8671875
vt 0.2890625 0.8671875
vt 0.2890625 0.84375
vt 0.1953125 0.84375
vt 0.34375 0.5859375
vt 0.359375 0.5859375
vt 0.359375 0.5625
vt 0.34375 0.5625
vt 0.3125 0.5703125
vt 0.21875 0.5703125
vt 0.21875 0.5859375
vt 0.3125 0.5859375
vt 0.1171875 0.5703125
vt 0.0234375 0.5703125
vt 0.0234375 0.5546875
vt 0.1171875 0.5546875
vn 0 0 -1
vn 1 0 0
vn 0 0 1
vn -1 0 0
vn 0 1 0
vn 0 -1 0
usemtl m_bba95871-72a7-0400-8330-f5510d46c6be
f 162/548/137 165/547/137 163/546/137 160/545/137
f 161/552/138 162/551/138 160/550/138 159/549/138
f 166/556/139 161/555/139 159/554/139 164/553/139
f 165/560/140 166/559/140 164/558/140 163/557/140
f 164/564/141 159/563/141 160/562/141 163/561/141
f 165/568/142 162/567/142 161/566/142 166/565/142
o cube
v -0.5625 0.75 -0.75
v -0.5625 0.75 -0.8125
v -0.5625 0 -0.75
v -0.5625 0 -0.8125
v -0.625 0.75 -0.8125
v -0.625 0.75 -0.75
v -0.625 0 -0.8125
v -0.625 0 -0.75
vt 0.625 0.7265625
vt 0.6328125 0.7265625
vt 0.6328125 0.6328125
vt 0.625 0.6328125
vt 0.015625 0.3671875
vt 0.0234375 0.3671875
vt 0.0234375 0.2734375
vt 0.015625 0.2734375
vt 0.03125 0.3671875
vt 0.0390625 0.3671875
vt 0.0390625 0.2734375
vt 0.03125 0.2734375
vt 0.046875 0.3671875
vt 0.0546875 0.3671875
vt 0.0546875 0.2734375
vt 0.046875 0.2734375
vt 0.3515625 0.796875
vt 0.34375 0.796875
vt 0.34375 0.8046875
vt 0.3515625 0.8046875
vt 0.1796875 0.5859375
vt 0.171875 0.5859375
vt 0.171875 0.578125
vt 0.1796875 0.578125
vn 0 0 -1
vn 1 0 0
vn 0 0 1
vn -1 0 0
vn 0 1 0
vn 0 -1 0
usemtl m_bba95871-72a7-0400-8330-f5510d46c6be
f 170/572/143 173/571/143 171/570/143 168/569/143
f 169/576/144 170/575/144 168/574/144 167/573/144
f 174/580/145 169/579/145 167/578/145 172/577/145
f 173/584/146 174/583/146 172/582/146 171/581/146
f 172/588/147 167/587/147 168/586/147 171/585/147
f 173/592/148 170/591/148 169/590/148 174/589/148
o cube
v 0 0.75 -0.75
v 0 0.75 -0.8125
v 0 0 -0.75
v 0 0 -0.8125
v -0.0625 0.75 -0.8125
v -0.0625 0.75 -0.75
v -0.0625 0 -0.8125
v -0.0625 0 -0.75
vt 0.0625 0.3671875
vt 0.0703125 0.3671875
vt 0.0703125 0.2734375
vt 0.0625 0.2734375
vt 0.078125 0.3671875
vt 0.0859375 0.3671875
vt 0.0859375 0.2734375
vt 0.078125 0.2734375
vt 0.09375 0.3671875
vt 0.1015625 0.3671875
vt 0.1015625 0.2734375
vt 0.09375 0.2734375
vt 0.109375 0.3671875
vt 0.1171875 0.3671875
vt 0.1171875 0.2734375
vt 0.109375 0.2734375
vt 0.359375 0.5
vt 0.3515625 0.5
vt 0.3515625 0.5078125
vt 0.359375 0.5078125
vt 0.5234375 0.96875
vt 0.515625 0.96875
vt 0.515625 0.9609375
vt 0.5234375 0.9609375
vn 0 0 -1
vn 1 0 0
vn 0 0 1
vn -1 0 0
vn 0 1 0
vn 0 -1 0
usemtl m_bba95871-72a7-0400-8330-f5510d46c6be
f 178/596/149 181/595/149 179/594/149 176/593/149
f 177/600/150 178/599/150 176/598/150 175/597/150
f 182/604/151 177/603/151 175/602/151 180/601/151
f 181/608/152 182/607/152 180/606/152 179/605/152
f 180/612/153 175/611/153 176/610/153 179/609/153
f 181/616/154 178/615/154 177/614/154 182/613/154
o cube
v 0 0.8125 -0.75
v 0 0.8125 -0.8125
v 0 0.75 -0.75
v 0 0.75 -0.8125
v -0.625 0.8125 -0.8125
v -0.625 0.8125 -0.75
v -0.625 0.75 -0.8125
v -0.625 0.75 -0.75
vt 0.125 0.3671875
vt 0.203125 0.3671875
vt 0.203125 0.359375
vt 0.125 0.359375
vt 0.5390625 0.984375
vt 0.546875 0.984375
vt 0.546875 0.9765625
vt 0.5390625 0.9765625
vt 0.6328125 0.8203125
vt 0.7109375 0.8203125
vt 0.7109375 0.8125
vt 0.6328125 0.8125
vt 0.546875 0.828125
vt 0.5546875 0.828125
vt 0.5546875 0.8203125
vt 0.546875 0.8203125
vt 0.7109375 0.796875
vt 0.6328125 0.796875
vt 0.6328125 0.8046875
vt 0.7109375 0.8046875
vt 0.7109375 0.7890625
vt 0.6328125 0.7890625
vt 0.6328125 0.78125
vt 0.7109375 0.78125
vn 0 0 -1
vn 1 0 0
vn 0 0 1
vn -1 0 0
vn 0 1 0
vn 0 -1 0
usemtl m_bba95871-72a7-0400-8330-f5510d46c6be
f 186/620/155 189/619/155 187/618/155 184/617/155
f 185/624/156 186/623/156 184/622/156 183/621/156
f 190/628/157 185/627/157 183/626/157 188/625/157
f 189/632/158 190/631/158 188/630/158 187/629/158
f 188/636/159 183/635/159 184/634/159 187/633/159
f 189/640/160 186/639/160 185/638/160 190/637/160
o cube
v 0.625 0.25 -0.75
v 0.5625 0.25 -0.84375
v 0.625 0.0625 -0.75
v 0.5625 0.0625 -0.84375
v 0.0625 0.25 -0.75
v 0.125 0.25 -0.84375
v 0.0625 0.0625 -0.75
v 0.125 0.0625 -0.84375
vt 0.1796875 0.515625
vt 0.1796875 0.5390625
vt 0.1640625 0.5390625
vt 0.1640625 0.515625
vt 0.53125 0.9765625
vt 0.53125 1
vt 0.515625 1
vt 0.515625 0.9765625
vt 0.15625 0.5234375
vt 0.1484375 0.5390625
vt 0.09375 0.5390625
vt 0.0859375 0.5234375
vt 0.28125 0.515625
vt 0.2890625 0.53125
vt 0.21875 0.53125
vt 0.2265625 0.515625
vt 0.2890625 0.59375
vt 0.2890625 0.6171875
vt 0.21875 0.6171875
vt 0.21875 0.59375
vt 0.078125 0.5234375
vt 0.078125 0.546875
vt 0.0234375 0.546875
vt 0.0234375 0.5234375
vn 0.8320502943378438 0 -0.5547001962252291
vn -0.8320502943378438 0 -0.5547001962252291
vn 0 1 0
vn 0 -1 0
vn 0 0 1
vn 0 0 -1
usemtl m_bba95871-72a7-0400-8330-f5510d46c6be
f 194/641/161 192/642/161 191/643/161 193/644/161
f 197/645/162 195/646/162 196/647/162 198/648/162
f 191/649/163 192/650/163 196/651/163 195/652/163
f 194/653/164 193/654/164 197/655/164 198/656/164
f 193/657/165 191/658/165 195/659/165 197/660/165
f 198/661/166 196/662/166 192/663/166 194/664/166
o cube
v 0.5625 0.4375 -0.75
v 0.5625 0.4375 -0.90625
v 0.5625 0.25 -0.75
v 0.5625 0.25 -0.90625
v 0.125 0.4375 -0.90625
v 0.125 0.4375 -0.75
v 0.125 0.25 -0.90625
v 0.125 0.25 -0.75
vt 0.296875 0.6171875
vt 0.3515625 0.6171875
vt 0.3515625 0.59375
vt 0.296875 0.59375
vt 0 1
vt 0.0234375 1
vt 0.0234375 0.9765625
vt 0 0.9765625
vt 0.125 0.5703125
vt 0.1796875 0.5703125
vt 0.1796875 0.546875
vt 0.125 0.546875
vt 0.15625 1
vt 0.1796875 1
vt 0.1796875 0.9765625
vt 0.15625 0.9765625
vt 0.2734375 0.5390625
vt 0.21875 0.5390625
vt 0.21875 0.5625
vt 0.2734375 0.5625
vt 0.3359375 0.5625
vt 0.28125 0.5625
vt 0.28125 0.5390625
vt 0.3359375 0.5390625
vn 0 0 -1
vn 1 0 0
vn 0 0 1
vn -1 0 0
vn 0 1 0
vn 0 -1 0
usemtl m_bba95871-72a7-0400-8330-f5510d46c6be
f 202/668/167 205/667/167 203/666/167 200/665/167
f 201/672/168 202/671/168 200/670/168 199/669/168
f 206/676/169 201/675/169 199/674/169 204/673/169
f 205/680/170 206/679/170 204/678/170 203/677/170
f 204/684/171 199/683/171 200/682/171 203/681/171
f 205/688/172 202/687/172 201/686/172 206/685/172