# Made in Blockbench 5.1.4
mtllib cacto.mtl

o sphere
v 0 0.6875 0
v 0.01674682452694516 0.6707531754730548 0.062499999999999986
v 0.029006350946109656 0.625 0.10825317547305482
v 0.03349364905389033 0.5625 0.12499999999999999
v 0.04575317547305481 0.6707531754730548 0.04575317547305482
v 0.07924682452694516 0.625 0.07924682452694516
v 0.09150635094610965 0.5625 0.09150635094610966
v 0.062499999999999986 0.6707531754730548 0.01674682452694516
v 0.10825317547305482 0.625 0.029006350946109656
v 0.12499999999999999 0.5625 0.03349364905389033
v 0.062499999999999986 0.6707531754730548 -0.01674682452694517
v 0.10825317547305482 0.625 -0.02900635094610967
v 0.12499999999999999 0.5625 -0.033493649053890344
v 0.04575317547305482 0.6707531754730548 -0.04575317547305481
v 0.07924682452694516 0.625 -0.07924682452694516
v 0.09150635094610966 0.5625 -0.09150635094610965
v 0.01674682452694518 0.6707531754730548 -0.06249999999999997
v 0.029006350946109687 0.625 -0.10825317547305481
v 0.03349364905389037 0.5625 -0.12499999999999997
v -0.016746824526945137 0.6707531754730548 -0.06249999999999999
v -0.029006350946109614 0.625 -0.10825317547305484
v -0.03349364905389028 0.5625 -0.125
v -0.04575317547305481 0.6707531754730548 -0.045753175473054825
v -0.07924682452694516 0.625 -0.07924682452694518
v -0.09150635094610965 0.5625 -0.09150635094610968
v -0.062499999999999986 0.6707531754730548 -0.016746824526945155
v -0.10825317547305482 0.625 -0.029006350946109646
v -0.12499999999999999 0.5625 -0.033493649053890316
v -0.06249999999999999 0.6707531754730548 0.016746824526945134
v -0.10825317547305484 0.625 0.029006350946109608
v -0.125 0.5625 0.033493649053890275
v -0.045753175473054825 0.6707531754730548 0.045753175473054804
v -0.07924682452694518 0.625 0.07924682452694515
v -0.09150635094610968 0.5625 0.09150635094610964
v -0.016746824526945158 0.6707531754730548 0.062499999999999986
v -0.02900635094610965 0.625 0.10825317547305482
v -0.03349364905389032 0.5625 0.12499999999999999
v 0.03349364905389033 -0.0625 0.12499999999999999
v 0.03349364905389033 0.5625 0.12499999999999999
v 0.09150635094610965 -0.0625 0.09150635094610966
v 0.09150635094610965 0.5625 0.09150635094610966
v 0.12499999999999999 -0.0625 0.03349364905389033
v 0.12499999999999999 0.5625 0.03349364905389033
v 0.12499999999999999 -0.0625 -0.033493649053890344
v 0.12499999999999999 0.5625 -0.033493649053890344
v 0.09150635094610966 -0.0625 -0.09150635094610965
v 0.09150635094610966 0.5625 -0.09150635094610965
v 0.03349364905389037 -0.0625 -0.12499999999999997
v 0.03349364905389037 0.5625 -0.12499999999999997
v -0.03349364905389028 -0.0625 -0.125
v -0.03349364905389028 0.5625 -0.125
v -0.09150635094610965 -0.0625 -0.09150635094610968
v -0.09150635094610965 0.5625 -0.09150635094610968
v -0.12499999999999999 -0.0625 -0.033493649053890316
v -0.12499999999999999 0.5625 -0.033493649053890316
v -0.125 -0.0625 0.033493649053890275
v -0.125 0.5625 0.033493649053890275
v -0.09150635094610968 -0.0625 0.09150635094610964
v -0.09150635094610968 0.5625 0.09150635094610964
v -0.03349364905389032 -0.0625 0.12499999999999999
v -0.03349364905389032 0.5625 0.12499999999999999
vt 0.242746875 0.5908618002184371
vt 0.257388655661829 0.5989840796468606
vt 0.234375 0.6232118002184373
vt 0.42235965155653965 0.6523331246763995
vt 0.420753125 0.6194464434971495
vt 0.44948163544839315 0.6234508443860547
vt 0.4389430774326968 0.654644650205677
vt 0.420753125 0.6194464434971495
vt 0.422996875 0.5870964434971495
vt 0.4561699169075499 0.5917203573871824
vt 0.44948163544839315 0.6234508443860547
vt 0.257388655661829 0.5989840796468606
vt 0.26625228046724697 0.6131893363981933
vt 0.234375 0.6232118002184373
vt 0.257388655661829 0.5989840796468606
vt 0.2815884290887727 0.5766572864904961
vt 0.2969434431693792 0.6012659451627373
vt 0.26625228046724697 0.6131893363981933
vt 0.48801836455160685 0.8422008443860547
vt 0.4813300830924501 0.8104703573871824
vt 0.514503125 0.8058464434971495
vt 0.516746875 0.8381964434971495
vt 0.26625228046724697 0.6131893363981932
vt 0.26711231394737267 0.6299109842379117
vt 0.234375 0.6232118002184373
vt 0.5310804853689897 0.875
vt 0.5175517027243676 0.8449818926859625
vt 0.5457531250000001 0.8381964434971495
vt 0.5473596515565397 0.8710831246763995
vt 0.516746875 0.8381964434971495
vt 0.514503125 0.8058464434971495
vt 0.5479968749999999 0.8058464434971495
vt 0.5457531250000001 0.8381964434971495
vt 0.26711231394737267 0.6299109842379117
vt 0.2597528231116843 0.6449506337917383
vt 0.234375 0.6232118002184373
vt 0.5473596515565397 0.8710831246763995
vt 0.5457531250000001 0.8381964434971495
vt 0.5744816354483931 0.8422008443860547
vt 0.5639430774326968 0.873394650205677
vt 0.5457531250000001 0.8381964434971495
vt 0.5479968749999999 0.8058464434971495
vt 0.5811699169075499 0.8104703573871824
vt 0.5744816354483931 0.8422008443860547
vt 0.2597528231116843 0.6449506337917383
vt 0.24602159284483044 0.6545322035702839
vt 0.234375 0.6232118002184373
vt 0.4985569225673032 0.998394650205677
vt 0.48801836455160685 0.9672008443860547
vt 0.516746875 0.9631964434971495
vt 0.5151403484434603 0.9960831246763995
vt 0.48801836455160685 0.9672008443860547
vt 0.4813300830924501 0.9354703573871824
vt 0.514503125 0.9308464434971495
vt 0.516746875 0.9631964434971495
vt 0.23938380686482996 0.65625
vt 0.22272840715516956 0.6545322035702839
vt 0.234375 0.6232118002184373
vt 0.5310804853689897 1
vt 0.5175517027243676 0.9699818926859625
vt 0.5457531250000001 0.9631964434971495
vt 0.5473596515565397 0.9960831246763995
vt 0.516746875 0.9631964434971495
vt 0.514503125 0.9308464434971495
vt 0.5479968749999999 0.9308464434971495
vt 0.5457531250000001 0.9631964434971495
vt 0.22272840715516956 0.6545322035702839
vt 0.2089971768883157 0.6449506337917383
vt 0.234375 0.6232118002184373
vt 0.5473596515565397 0.9960831246763995
vt 0.5457531250000001 0.9631964434971495
vt 0.5744816354483931 0.9672008443860547
vt 0.5639430774326968 0.998394650205677
vt 0.5457531250000001 0.9631964434971495
vt 0.5479968749999999 0.9308464434971495
vt 0.5811699169075499 0.9354703573871824
vt 0.5744816354483931 0.9672008443860547
vt 0.2089971768883157 0.6449506337917383
vt 0.20163768605262733 0.6299109842379117
vt 0.234375 0.6232118002184373
vt 0.18605692256730322 0.5296446502056771
vt 0.17551836455160683 0.4984508443860547
vt 0.204246875 0.4944464434971496
vt 0.20264034844346035 0.5273331246763995
vt 0.17551836455160683 0.4984508443860547
vt 0.16883008309245012 0.46672035738718254
vt 0.202003125 0.4620964434971495
vt 0.204246875 0.4944464434971496
vt 0.20163768605262733 0.6299109842379117
vt 0.20249771953275303 0.6131893363981932
vt 0.234375 0.6232118002184373
vt 0.20264034844346035 0.5273331246763995
vt 0.204246875 0.4944464434971496
vt 0.23244829727563243 0.5012318926859625
vt 0.2189195146310103 0.53125
vt 0.204246875 0.4944464434971496
vt 0.202003125 0.4620964434971495
vt 0.235496875 0.4620964434971495
vt 0.233253125 0.4944464434971496
vt 0.20249771953275303 0.6131893363981933
vt 0.21136134433817103 0.5989840796468606
vt 0.234375 0.6232118002184373
vt 0.20249771953275303 0.6131893363981933
vt 0.1718065568306208 0.6012659451627373
vt 0.18716157091122732 0.5766572864904961
vt 0.21136134433817103 0.5989840796468606
vt 0.233253125 0.4944464434971496
vt 0.235496875 0.4620964434971495
vt 0.2686699169075499 0.46672035738718254
vt 0.26198163544839315 0.4984508443860547
vt 0.21136134433817103 0.5989840796468606
vt 0.226003125 0.5908618002184371
vt 0.234375 0.6232118002184373
vt 0.3735569225673032 0.654644650205677
vt 0.36301836455160685 0.6234508443860547
vt 0.391746875 0.6194464434971495
vt 0.39014034844346035 0.6523331246763995
vt 0.36301836455160685 0.6234508443860547
vt 0.3563300830924501 0.5917203573871824
vt 0.389503125 0.5870964434971495
vt 0.391746875 0.6194464434971495
vt 0.226003125 0.5908618002184371
vt 0.242746875 0.5908618002184371
vt 0.234375 0.6232118002184373
vt 0.4060804853689897 0.65625
vt 0.39255170272436757 0.6262318926859625
vt 0.420753125 0.6194464434971495
vt 0.42235965155653965 0.6523331246763995
vt 0.391746875 0.6194464434971495
vt 0.389503125 0.5870964434971495
vt 0.422996875 0.5870964434971495
vt 0.420753125 0.6194464434971495
vt 0.235496875 0.6875
vt 0.26899062500000004 0.6875
vt 0.26899062500000004 1
vt 0.235496875 1
vt 0.012259374999999996 0.6875
vt 0.045753125 0.6875
vt 0.045753125 1
vt 0.012259374999999996 1
vt 0.045753125 0.6875
vt 0.079246875 0.6875
vt 0.079246875 1
vt 0.045753125 1
vt 0.079246875 0.6875
vt 0.11274062500000001 0.6875
vt 0.11274062500000001 1
vt 0.079246875 1
vt 0.012259374999999996 0.34375
vt 0.045753125 0.34375
vt 0.045753125 0.65625
vt 0.012259374999999996 0.65625
vt 0.045753125 0.34375
vt 0.079246875 0.34375
vt 0.079246875 0.65625
vt 0.045753125 0.65625
vt 0.079246875 0.34375
vt 0.11274062500000001 0.34375
vt 0.11274062500000001 0.65625
vt 0.079246875 0.65625
vt 0.324759375 0.6875
vt 0.358253125 0.6875
vt 0.358253125 1
vt 0.324759375 1
vt 0.358253125 0.6875
vt 0.391746875 0.6875
vt 0.391746875 1
vt 0.358253125 1
vt 0.391746875 0.6875
vt 0.42524062500000004 0.6875
vt 0.42524062500000004 1
vt 0.391746875 1
vt 0.168509375 0.6875
vt 0.202003125 0.6875
vt 0.202003125 1
vt 0.168509375 1
vt 0.202003125 0.6875
vt 0.235496875 0.6875
vt 0.235496875 1
vt 0.202003125 1
vn 0.12940952255126043 0.9659258262890683 0.22414386804201333
vn 0.35355339059327373 0.7071067811865477 0.6123724356957945
vn 0.48296291314453405 0.2588190451025207 0.836516303737808
vn 0.22414386804201336 0.9659258262890683 0.12940952255126045
vn 0.6123724356957944 0.7071067811865478 0.3535533905932736
vn 0.8365163037378079 0.2588190451025208 0.48296291314453405
vn 0.2588190451025207 0.9659258262890683 0
vn 0.7071067811865475 0.7071067811865476 0
vn 0.9659258262890683 0.25881904510252063 0
vn 0.22414386804201333 0.9659258262890683 -0.12940952255126045
vn 0.6123724356957944 0.7071067811865477 -0.3535533905932738
vn 0.836516303737808 0.25881904510252063 -0.48296291314453416
vn 0.1294095225512604 0.9659258262890683 -0.22414386804201333
vn 0.35355339059327373 0.7071067811865477 -0.6123724356957944
vn 0.48296291314453427 0.2588190451025208 -0.836516303737808
vn 1.608589638639305e-16 0.9659258262890683 -0.2588190451025207
vn 3.466028960407396e-16 0.7071067811865477 -0.7071067811865475
vn 4.0022255066204975e-16 0.2588190451025207 -0.9659258262890683
vn -0.12940952255126034 0.9659258262890683 -0.2241438680420134
vn -0.3535533905932735 0.7071067811865477 -0.6123724356957946
vn -0.48296291314453377 0.25881904510252063 -0.8365163037378082
vn -0.22414386804201336 0.9659258262890683 -0.1294095225512604
vn -0.6123724356957945 0.7071067811865477 -0.3535533905932735
vn -0.836516303737808 0.25881904510252074 -0.4829629131445339
vn -0.2588190451025207 0.9659258262890683 -5.361965462131021e-17
vn -0.7071067811865474 0.7071067811865477 -2.310685973604933e-16
vn -0.9659258262890683 0.2588190451025207 -2.0011127533102507e-16
vn -0.22414386804201336 0.9659258262890683 0.12940952255126034
vn -0.6123724356957946 0.7071067811865477 0.3535533905932736
vn -0.8365163037378082 0.25881904510252063 0.48296291314453377
vn -0.12940952255126045 0.9659258262890683 0.22414386804201333
vn -0.3535533905932738 0.7071067811865477 0.6123724356957944
vn -0.4829629131445341 0.2588190451025208 0.8365163037378079
vn 0 0.9659258262890683 0.2588190451025207
vn 0 0.7071067811865477 0.7071067811865475
vn 0 0.25881904510252063 0.9659258262890683
vn 0.49999999999999983 0 0.8660254037844387
vn 0.8660254037844388 0 0.5
vn 1 0 0
vn 0.8660254037844387 0 -0.49999999999999994
vn 0.5000000000000001 0 -0.8660254037844386
vn 4.143408735633879e-16 0 -1
vn -0.4999999999999996 0 -0.8660254037844389
vn -0.8660254037844388 0 -0.4999999999999998
vn -1 0 -2.0717043678169412e-16
vn -0.8660254037844389 0 0.4999999999999996
vn -0.4999999999999999 0 0.8660254037844386
vn 0 0 1
usemtl m_ea398e33-a62f-341d-7d6f-44b47ec51f09
f 2/1/1 5/2/1 1/3/1
f 2/4/2 3/5/2 6/6/2 5/7/2
f 3/8/3 4/9/3 7/10/3 6/11/3
f 5/12/4 8/13/4 1/14/4
f 5/15/5 6/16/5 9/17/5 8/18/5
f 6/19/6 7/20/6 10/21/6 9/22/6
f 8/23/7 11/24/7 1/25/7
f 8/26/8 9/27/8 12/28/8 11/29/8
f 9/30/9 10/31/9 13/32/9 12/33/9
f 11/34/10 14/35/10 1/36/10
f 11/37/11 12/38/11 15/39/11 14/40/11
f 12/41/12 13/42/12 16/43/12 15/44/12
f 14/45/13 17/46/13 1/47/13
f 14/48/14 15/49/14 18/50/14 17/51/14
f 15/52/15 16/53/15 19/54/15 18/55/15
f 17/56/16 20/57/16 1/58/16
f 17/59/17 18/60/17 21/61/17 20/62/17
f 18/63/18 19/64/18 22/65/18 21/66/18
f 20/67/19 23/68/19 1/69/19
f 20/70/20 21/71/20 24/72/20 23/73/20
f 21/74/21 22/75/21 25/76/21 24/77/21
f 23/78/22 26/79/22 1/80/22
f 23/81/23 24/82/23 27/83/23 26/84/23
f 24/85/24 25/86/24 28/87/24 27/88/24
f 26/89/25 29/90/25 1/91/25
f 26/92/26 27/93/26 30/94/26 29/95/26
f 27/96/27 28/97/27 31/98/27 30/99/27
f 29/100/28 32/101/28 1/102/28
f 29/103/29 30/104/29 33/105/29 32/106/29
f 30/107/30 31/108/30 34/109/30 33/110/30
f 32/111/31 35/112/31 1/113/31
f 32/114/32 33/115/32 36/116/32 35/117/32
f 33/118/33 34/119/33 37/120/33 36/121/33
f 35/122/34 2/123/34 1/124/34
f 35/125/35 36/126/35 3/127/35 2/128/35
f 36/129/36 37/130/36 4/131/36 3/132/36
f 38/133/37 40/134/37 41/135/37 39/136/37
f 40/137/38 42/138/38 43/139/38 41/140/38
f 42/141/39 44/142/39 45/143/39 43/144/39
f 44/145/40 46/146/40 47/147/40 45/148/40
f 46/149/41 48/150/41 49/151/41 47/152/41
f 48/153/42 50/154/42 51/155/42 49/156/42
f 50/157/43 52/158/43 53/159/43 51/160/43
f 52/161/44 54/162/44 55/163/44 53/164/44
f 54/165/45 56/166/45 57/167/45 55/168/45
f 56/169/46 58/170/46 59/171/46 57/172/46
f 58/173/47 60/174/47 61/175/47 59/176/47
f 60/177/48 38/178/48 39/179/48 61/180/48
o sphere
v -0.21875 0.5625 9.62964972193618e-35
v -0.19073201649474833 0.5513354503153699 0.016176190318907543
v -0.17022142904327736 0.5208333333333333 0.02801798350525167
v -0.16271403298949666 0.47916666666666663 0.03235238063781509
v -0.1863976193621849 0.5513354503153699 0
v -0.16271403298949666 0.5208333333333333 -3.469446951953614e-18
v -0.15404523872436982 0.47916666666666663 6.938893903907228e-18
v -0.19073201649474833 0.5513354503153699 -0.016176190318907546
v -0.17022142904327736 0.5208333333333333 -0.02801798350525168
v -0.16271403298949666 0.47916666666666663 -0.032352380637815106
v -0.20257380968109245 0.5513354503153699 -0.028017983505251667
v -0.19073201649474833 0.5208333333333333 -0.04852857095672265
v -0.1863976193621849 0.47916666666666663 -0.05603596701050335
v -0.21875 0.5513354503153699 -0.03235238063781508
v -0.21875 0.5208333333333333 -0.05603596701050333
v -0.21875 0.47916666666666663 -0.06470476127563018
v -0.23492619031890755 0.5513354503153699 -0.028017983505251663
v -0.24676798350525164 0.5208333333333333 -0.04852857095672263
v -0.2511023806378151 0.47916666666666663 -0.05603596701050334
v -0.24676798350525167 0.5513354503153699 -0.016176190318907553
v -0.26727857095672264 0.5208333333333333 -0.028017983505251684
v -0.27478596701050334 0.47916666666666663 -0.03235238063781511
v -0.2511023806378151 0.5513354503153699 0
v -0.27478596701050334 0.5208333333333333 -6.938893903907228e-18
v -0.2834547612756302 0.47916666666666663 6.938893903907228e-18
v -0.24676798350525167 0.5513354503153699 0.016176190318907553
v -0.26727857095672264 0.5208333333333333 0.028017983505251684
v -0.27478596701050334 0.47916666666666663 0.03235238063781509
v -0.23492619031890755 0.5513354503153699 0.028017983505251656
v -0.2467679835052517 0.5208333333333333 0.048528570956722625
v -0.2511023806378151 0.47916666666666663 0.056035967010503326
v -0.21875 0.5513354503153699 0.03235238063781508
v -0.21875 0.5208333333333333 0.05603596701050333
v -0.21875 0.47916666666666663 0.06470476127563018
v -0.20257380968109245 0.5513354503153699 0.028017983505251663
v -0.1907320164947483 0.5208333333333333 0.04852857095672264
v -0.1863976193621849 0.47916666666666663 0.05603596701050334
v -0.16271403298949666 0.25 0.03235238063781509
v -0.16271403298949666 0.47916666666666663 0.03235238063781509
v -0.15404523872436982 0.25 6.938893903907228e-18
v -0.15404523872436982 0.47916666666666663 6.938893903907228e-18
v -0.16271403298949666 0.25 -0.032352380637815106
v -0.16271403298949666 0.47916666666666663 -0.032352380637815106
v -0.1863976193621849 0.25 -0.05603596701050335
v -0.1863976193621849 0.47916666666666663 -0.05603596701050335
v -0.21875 0.25 -0.06470476127563018
v -0.21875 0.47916666666666663 -0.06470476127563018
v -0.2511023806378151 0.25 -0.05603596701050334
v -0.2511023806378151 0.47916666666666663 -0.05603596701050334
v -0.27478596701050334 0.25 -0.03235238063781511
v -0.27478596701050334 0.47916666666666663 -0.03235238063781511
v -0.2834547612756302 0.25 6.938893903907228e-18
v -0.2834547612756302 0.47916666666666663 6.938893903907228e-18
v -0.27478596701050334 0.25 0.03235238063781509
v -0.27478596701050334 0.47916666666666663 0.03235238063781509
v -0.2511023806378151 0.25 0.056035967010503326
v -0.2511023806378151 0.47916666666666663 0.056035967010503326
v -0.21875 0.25 0.06470476127563018
v -0.21875 0.47916666666666663 0.06470476127563018
v -0.1863976193621849 0.25 0.05603596701050334
v -0.1863976193621849 0.47916666666666663 0.05603596701050334
vt 0.8166875 0.37258652543636295
vt 0.8240596792195841 0.3765603898721901
vt 0.8125 0.3891802754363629
vt 0.7583001817098042 0.31072375748358494
vt 0.757253125 0.29144473688768646
vt 0.7716791829516368 0.2929679378063167
vt 0.7666288838447431 0.3116031582724538
vt 0.757253125 0.29144473688768646
vt 0.758371875 0.27019473688768647
vt 0.7750230638205236 0.27195288219617875
vt 0.7716791829516368 0.2929679378063167
vt 0.8240596792195841 0.3765603898721901
vt 0.8286635512066092 0.383556459320608
vt 0.8125 0.3891802754363629
vt 0.29587111615525685 0.24910315827245377
vt 0.29082081704836316 0.2304679378063167
vt 0.305246875 0.22894473688768646
vt 0.3041998182901958 0.24822375748358494
vt 0.29082081704836316 0.2304679378063167
vt 0.2874769361794765 0.20945288219617875
vt 0.30412812499999997 0.20769473688768647
vt 0.30524687500000003 0.22894473688768646
vt 0.8286635512066092 0.383556459320608
vt 0.8293965825881884 0.3918993179430239
vt 0.8125 0.3891802754363629
vt 0.3126157093674427 0.25
vt 0.30557688596520827 0.23202134799261132
vt 0.31975312499999997 0.22894473688768646
vt 0.3208001817098042 0.24822375748358494
vt 0.30524687500000003 0.22894473688768646
vt 0.30412812499999997 0.20769473688768647
vt 0.32087187500000003 0.20769473688768647
vt 0.31975312499999997 0.22894473688768646
vt 0.8293965825881884 0.3918993179430239
vt 0.8260832273100782 0.39959102138251124
vt 0.8125 0.3891802754363629
vt 0.3208001817098042 0.24822375748358494
vt 0.31975312499999997 0.22894473688768646
vt 0.33417918295163684 0.2304679378063167
vt 0.32912888384474315 0.24910315827245377
vt 0.31975312499999997 0.22894473688768646
vt 0.32087187500000003 0.20769473688768647
vt 0.3375230638205235 0.20945288219617875
vt 0.33417918295163684 0.2304679378063167
vt 0.8260832273100782 0.39959102138251124
vt 0.8195169663336614 0.40478956365795593
vt 0.8125 0.3891802754363629
vt 0.10837111615525688 0.24910315827245377
vt 0.10332081704836318 0.2304679378063167
vt 0.117746875 0.22894473688768646
vt 0.11669981829019584 0.24822375748358494
vt 0.10332081704836318 0.2304679378063167
vt 0.0999769361794765 0.20945288219617875
vt 0.116628125 0.20769473688768647
vt 0.117746875 0.22894473688768646
vt 0.8137297148588448 0.40625
vt 0.8054830336663386 0.40478956365795593
vt 0.8125 0.3891802754363629
vt 0.1251157093674427 0.25
vt 0.11807688596520827 0.23202134799261132
vt 0.132253125 0.22894473688768646
vt 0.13330018170980418 0.24822375748358494
vt 0.117746875 0.22894473688768646
vt 0.116628125 0.20769473688768647
vt 0.133371875 0.20769473688768647
vt 0.132253125 0.22894473688768646
vt 0.8054830336663386 0.40478956365795593
vt 0.7989167726899217 0.39959102138251124
vt 0.8125 0.3891802754363629
vt 0.13330018170980418 0.24822375748358494
vt 0.132253125 0.22894473688768646
vt 0.14667918295163682 0.2304679378063167
vt 0.14162888384474315 0.24910315827245377
vt 0.132253125 0.22894473688768646
vt 0.133371875 0.20769473688768647
vt 0.1500230638205235 0.20945288219617875
vt 0.14667918295163682 0.2304679378063167
vt 0.7989167726899217 0.39959102138251124
vt 0.7956034174118116 0.3918993179430239
vt 0.8125 0.3891802754363629
vt 0.20212111615525688 0.24910315827245377
vt 0.19707081704836318 0.2304679378063167
vt 0.211496875 0.22894473688768646
vt 0.21044981829019585 0.24822375748358494
vt 0.19707081704836318 0.2304679378063167
vt 0.1937269361794765 0.20945288219617875
vt 0.210378125 0.20769473688768647
vt 0.211496875 0.22894473688768646
vt 0.7956034174118116 0.3918993179430239
vt 0.7963364487933908 0.383556459320608
vt 0.8125 0.3891802754363629
vt 0.2188657093674427 0.25
vt 0.21182688596520827 0.23202134799261132
vt 0.226003125 0.22894473688768646
vt 0.22705018170980418 0.24822375748358494
vt 0.211496875 0.22894473688768646
vt 0.210378125 0.20769473688768647
vt 0.227121875 0.20769473688768647
vt 0.226003125 0.22894473688768646
vt 0.7963364487933908 0.383556459320608
vt 0.8009403207804159 0.3765603898721901
vt 0.8125 0.3891802754363629
vt 0.22705018170980418 0.24822375748358494
vt 0.226003125 0.22894473688768646
vt 0.24042918295163682 0.2304679378063167
vt 0.23537888384474315 0.24910315827245377
vt 0.226003125 0.22894473688768646
vt 0.227121875 0.20769473688768647
vt 0.2437730638205235 0.20945288219617875
vt 0.24042918295163682 0.2304679378063167
vt 0.8009403207804159 0.3765603898721901
vt 0.8083125 0.37258652543636295
vt 0.8125 0.3891802754363629
vt 0.7333711161552569 0.3116031582724538
vt 0.7283208170483632 0.2929679378063167
vt 0.742746875 0.29144473688768646
vt 0.7416998182901958 0.31072375748358494
vt 0.7283208170483632 0.2929679378063167
vt 0.7249769361794764 0.27195288219617875
vt 0.741628125 0.27019473688768647
vt 0.742746875 0.29144473688768646
vt 0.8083125 0.37258652543636295
vt 0.8166875 0.37258652543636295
vt 0.8125 0.3891802754363629
vt 0.7501157093674427 0.3125
vt 0.7430768859652083 0.2945213479926113
vt 0.757253125 0.29144473688768646
vt 0.7583001817098042 0.31072375748358494
vt 0.742746875 0.29144473688768646
vt 0.741628125 0.27019473688768647
vt 0.758371875 0.27019473688768647
vt 0.757253125 0.29144473688768646
vt 0.195871875 0.29166562500000004
vt 0.212615625 0.29166562500000004
vt 0.212615625 0.40625
vt 0.195871875 0.40625
vt 0.506134375 0.32291562500000004
vt 0.522878125 0.32291562500000004
vt 0.522878125 0.4375
vt 0.506134375 0.4375
vt 0.522878125 0.32291562500000004
vt 0.539621875 0.32291562500000004
vt 0.539621875 0.4375
vt 0.522878125 0.4375
vt 0.539621875 0.32291562500000004
vt 0.556365625 0.32291562500000004
vt 0.556365625 0.4375
vt 0.539621875 0.4375
vt 0.599884375 0.47916562500000004
vt 0.616628125 0.47916562500000004
vt 0.616628125 0.59375
vt 0.599884375 0.59375
vt 0.616628125 0.47916562500000004
vt 0.633371875 0.47916562500000004
vt 0.633371875 0.59375
vt 0.616628125 0.59375
vt 0.633371875 0.47916562500000004
vt 0.650115625 0.47916562500000004
vt 0.650115625 0.59375
vt 0.633371875 0.59375
vt 0.599884375 0.635415625
vt 0.616628125 0.635415625
vt 0.616628125 0.75
vt 0.599884375 0.75
vt 0.616628125 0.635415625
vt 0.633371875 0.635415625
vt 0.633371875 0.75
vt 0.616628125 0.75
vt 0.633371875 0.635415625
vt 0.650115625 0.635415625
vt 0.650115625 0.75
vt 0.633371875 0.75
vt 0.162384375 0.29166562500000004
vt 0.179128125 0.29166562500000004
vt 0.179128125 0.40625
vt 0.162384375 0.40625
vt 0.179128125 0.29166562500000004
vt 0.195871875 0.29166562500000004
vt 0.195871875 0.40625
vt 0.179128125 0.40625
vn 0.32497502118002813 0.9417052975698791 0.08707679448547545
vn 0.7727406610312549 0.5999999999999998 0.20705523608201654
vn 0.946992620049053 0.1970228206511683 0.2537459077803766
vn 0.32497502118002813 0.9417052975698793 -0.08707679448547544
vn 0.7727406610312548 0.5999999999999999 -0.20705523608201654
vn 0.9469926200490532 0.19702282065116805 -0.2537459077803766
vn 0.23789822669455257 0.9417052975698793 -0.2378982266945526
vn 0.5656854249492381 0.5999999999999996 -0.5656854249492382
vn 0.6932467122686762 0.1970228206511684 -0.6932467122686763
vn 0.08707679448547541 0.9417052975698793 -0.32497502118002813
vn 0.20705523608201648 0.5999999999999999 -0.772740661031255
vn 0.25374590778037676 0.19702282065116836 -0.946992620049053
vn -0.08707679448547548 0.9417052975698793 -0.32497502118002813
vn -0.20705523608201665 0.5999999999999996 -0.7727406610312549
vn -0.25374590778037714 0.1970228206511685 -0.9469926200490528
vn -0.23789822669455246 0.9417052975698793 -0.23789822669455266
vn -0.5656854249492381 0.5999999999999996 -0.5656854249492385
vn -0.6932467122686758 0.19702282065116822 -0.6932467122686766
vn -0.32497502118002813 0.9417052975698793 -0.08707679448547562
vn -0.7727406610312549 0.5999999999999996 -0.20705523608201698
vn -0.946992620049053 0.19702282065116838 -0.25374590778037726
vn -0.32497502118002813 0.9417052975698793 0.08707679448547556
vn -0.772740661031255 0.5999999999999998 0.2070552360820166
vn -0.9469926200490528 0.19702282065116844 0.2537459077803776
vn -0.23789822669455252 0.9417052975698792 0.23789822669455254
vn -0.5656854249492381 0.5999999999999996 0.5656854249492382
vn -0.6932467122686767 0.19702282065116794 0.693246712268676
vn -0.08707679448547562 0.9417052975698793 0.32497502118002813
vn -0.20705523608201698 0.5999999999999996 0.772740661031255
vn -0.25374590778037703 0.1970228206511683 0.946992620049053
vn 0.08707679448547548 0.9417052975698793 0.32497502118002813
vn 0.20705523608201631 0.5999999999999996 0.7727406610312549
vn 0.2537459077803766 0.19702282065116822 0.9469926200490532
vn 0.23789822669455254 0.9417052975698791 0.23789822669455252
vn 0.5656854249492382 0.5999999999999999 0.5656854249492381
vn 0.6932467122686763 0.19702282065116838 0.6932467122686762
vn 0.9659258262890684 0 0.2588190451025205
vn 0.9659258262890684 0 -0.25881904510252046
vn 0.7071067811865475 0 -0.7071067811865476
vn 0.25881904510252063 0 -0.9659258262890684
vn -0.2588190451025212 0 -0.9659258262890682
vn -0.7071067811865471 0 -0.7071067811865479
vn -0.9659258262890682 0 -0.2588190451025211
vn -0.9659258262890682 0 0.25881904510252157
vn -0.7071067811865479 0 0.7071067811865471
vn -0.2588190451025209 0 0.9659258262890683
vn 0.25881904510252046 0 0.9659258262890684
vn 0.7071067811865476 0 0.7071067811865475
usemtl m_ea398e33-a62f-341d-7d6f-44b47ec51f09
f 63/181/49 66/182/49 62/183/49
f 63/184/50 64/185/50 67/186/50 66/187/50
f 64/188/51 65/189/51 68/190/51 67/191/51
f 66/192/52 69/193/52 62/194/52
f 66/195/53 67/196/53 70/197/53 69/198/53
f 67/199/54 68/200/54 71/201/54 70/202/54
f 69/203/55 72/204/55 62/205/55
f 69/206/56 70/207/56 73/208/56 72/209/56
f 70/210/57 71/211/57 74/212/57 73/213/57
f 72/214/58 75/215/58 62/216/58
f 72/217/59 73/218/59 76/219/59 75/220/59
f 73/221/60 74/222/60 77/223/60 76/224/60
f 75/225/61 78/226/61 62/227/61
f 75/228/62 76/229/62 79/230/62 78/231/62
f 76/232/63 77/233/63 80/234/63 79/235/63
f 78/236/64 81/237/64 62/238/64
f 78/239/65 79/240/65 82/241/65 81/242/65
f 79/243/66 80/244/66 83/245/66 82/246/66
f 81/247/67 84/248/67 62/249/67
f 81/250/68 82/251/68 85/252/68 84/253/68
f 82/254/69 83/255/69 86/256/69 85/257/69
f 84/258/70 87/259/70 62/260/70
f 84/261/71 85/262/71 88/263/71 87/264/71
f 85/265/72 86/266/72 89/267/72 88/268/72
f 87/269/73 90/270/73 62/271/73
f 87/272/74 88/273/74 91/274/74 90/275/74
f 88/276/75 89/277/75 92/278/75 91/279/75
f 90/280/76 93/281/76 62/282/76
f 90/283/77 91/284/77 94/285/77 93/286/77
f 91/287/78 92/288/78 95/289/78 94/290/78
f 93/291/79 96/292/79 62/293/79
f 93/294/80 94/295/80 97/296/80 96/297/80
f 94/298/81 95/299/81 98/300/81 97/301/81
f 96/302/82 63/303/82 62/304/82
f 96/305/83 97/306/83 64/307/83 63/308/83
f 97/309/84 98/310/84 65/311/84 64/312/84
f 99/313/85 101/314/85 102/315/85 100/316/85
f 101/317/86 103/318/86 104/319/86 102/320/86
f 103/321/87 105/322/87 106/323/87 104/324/87
f 105/325/88 107/326/88 108/327/88 106/328/88
f 107/329/89 109/330/89 110/331/89 108/332/89
f 109/333/90 111/334/90 112/335/90 110/336/90
f 111/337/91 113/338/91 114/339/91 112/340/91
f 113/341/92 115/342/92 116/343/92 114/344/92
f 115/345/93 117/346/93 118/347/93 116/348/93
f 117/349/94 119/350/94 120/351/94 118/352/94
f 119/353/95 121/354/95 122/355/95 120/356/95
f 121/357/96 99/358/96 100/359/96 122/360/96
o sphere
v -0.2845571419134453 0.25 7.75665039280503e-18
v -0.2778584121026672 0.23382380968109245 0.028017983505251674
v -0.25955714191344526 0.2219820164947483 0.048528570956722646
v -0.23455714191344526 0.21764761936218488 0.05603596701050334
v -0.2778584121026672 0.24999999999999997 0.032352380637815085
v -0.25955714191344526 0.24999999999999997 0.05603596701050334
v -0.23455714191344523 0.24999999999999994 0.06470476127563017
v -0.2778584121026672 0.26617619031890755 0.02801798350525167
v -0.25955714191344526 0.27801798350525164 0.048528570956722646
v -0.23455714191344523 0.2823523806378151 0.05603596701050334
v -0.2778584121026672 0.27801798350525164 0.01617619031890755
v -0.25955714191344526 0.29852857095672264 0.028017983505251674
v -0.23455714191344523 0.3060359670105033 0.03235238063781509
v -0.2778584121026672 0.2823523806378151 5.922716418647014e-18
v -0.25955714191344526 0.3060359670105033 5.922716418647014e-18
v -0.23455714191344523 0.3147047612756302 -4.4856244372138285e-18
v -0.2778584121026672 0.27801798350525164 -0.01617619031890753
v -0.25955714191344526 0.2985285709567226 -0.028017983505251646
v -0.23455714191344526 0.3060359670105033 -0.03235238063781508
v -0.2778584121026672 0.26617619031890755 -0.02801798350525165
v -0.25955714191344526 0.27801798350525164 -0.048528570956722625
v -0.23455714191344526 0.2823523806378151 -0.056035967010503326
v -0.27785841210266726 0.25 -0.03235238063781508
v -0.25955714191344526 0.25 -0.05603596701050334
v -0.2345571419134453 0.24999999999999997 -0.0647047612756302
v -0.27785841210266726 0.23382380968109245 -0.028017983505251653
v -0.25955714191344526 0.2219820164947483 -0.048528570956722625
v -0.2345571419134453 0.21764761936218488 -0.05603596701050332
v -0.27785841210266726 0.22198201649474833 -0.016176190318907546
v -0.25955714191344526 0.20147142904327736 -0.02801798350525168
v -0.2345571419134453 0.19396403298949666 -0.03235238063781511
v -0.27785841210266726 0.2176476193621849 5.922716418647014e-18
v -0.25955714191344526 0.19396403298949666 -4.4856244372138285e-18
v -0.2345571419134453 0.18529523872436982 -4.4856244372138285e-18
v -0.2778584121026672 0.22198201649474833 0.016176190318907557
v -0.25955714191344526 0.20147142904327736 0.028017983505251687
v -0.23455714191344526 0.19396403298949663 0.032352380637815106
v -0.09705714191344528 0.21764761936218485 0.056035967010503326
v -0.23455714191344526 0.21764761936218488 0.05603596701050334
v -0.09705714191344528 0.24999999999999994 0.06470476127563017
v -0.23455714191344523 0.24999999999999994 0.06470476127563017
v -0.09705714191344528 0.28235238063781504 0.056035967010503326
v -0.23455714191344523 0.2823523806378151 0.05603596701050334
v -0.09705714191344528 0.3060359670105033 0.03235238063781508
v -0.23455714191344523 0.3060359670105033 0.03235238063781509
v -0.09705714191344528 0.31470476127563013 -1.8363412245028285e-17
v -0.23455714191344523 0.3147047612756302 -4.4856244372138285e-18
v -0.09705714191344528 0.3060359670105033 -0.03235238063781509
v -0.23455714191344526 0.3060359670105033 -0.03235238063781508
v -0.09705714191344528 0.28235238063781504 -0.05603596701050334
v -0.23455714191344526 0.2823523806378151 -0.056035967010503326
v -0.0970571419134453 0.24999999999999994 -0.0647047612756302
v -0.2345571419134453 0.24999999999999997 -0.0647047612756302
v -0.0970571419134453 0.21764761936218485 -0.05603596701050333
v -0.2345571419134453 0.21764761936218488 -0.05603596701050332
v -0.0970571419134453 0.19396403298949663 -0.03235238063781513
v -0.2345571419134453 0.19396403298949666 -0.03235238063781511
v -0.0970571419134453 0.18529523872436976 -1.8363412245028285e-17
v -0.2345571419134453 0.18529523872436982 -4.4856244372138285e-18
v -0.09705714191344528 0.1939640329894966 0.03235238063781509
v -0.23455714191344526 0.19396403298949663 0.032352380637815106
vt 0.6426776784067177 0.2802948194500692
vt 0.6503496991321064 0.28365349820654584
vt 0.640104627888583 0.29661397748115725
vt 0.6426776784067177 0.2802948194500692
vt 0.6457433034067177 0.2656479444500691
vt 0.659031930349723 0.27146547683348876
vt 0.6503496991321064 0.28365349820654584
vt 0.038503125 0.18505519451287322
vt 0.039621875 0.1718739445128732
vt 0.056126117931015324 0.17469584623627377
vt 0.05280187372821446 0.1875
vt 0.6503496991321064 0.28365349820654584
vt 0.6560307951346835 0.2898070153479456
vt 0.6414480506180523 0.2975709750448502
vt 0.6503496991321064 0.28365349820654584
vt 0.659031930349723 0.27146547683348876
vt 0.6688720973810526 0.2821239195836298
vt 0.6560307951346835 0.2898070153479456
vt 0.5409481262717856 0.2048293017866717
vt 0.5376238820689847 0.19202514802294546
vt 0.554128125 0.189203246299545
vt 0.555246875 0.2023844962995449
vt 0.6560307951346835 0.2898070153479456
vt 0.6587672487435505 0.29772234519871743
vt 0.6422949186343234 0.2989864055553261
vt 0.6560307951346835 0.2898070153479456
vt 0.6688720973810526 0.2821239195836298
vt 0.6736118800871572 0.2958339797206755
vt 0.6587672487435505 0.29772234519871743
vt 0.555246875 0.2023844962995449
vt 0.554128125 0.189203246299545
vt 0.570871875 0.189203246299545
vt 0.569753125 0.2023844962995449
vt 0.6587672487435505 0.29772234519871743
vt 0.6572705428843528 0.30596252095964893
vt 0.6422949186343234 0.2989864055553261
vt 0.5703063928121963 0.21733852246757868
vt 0.569753125 0.2023844962995449
vt 0.5840518737282144 0.2048293017866717
vt 0.5785615945768698 0.21875
vt 0.569753125 0.2023844962995449
vt 0.570871875 0.189203246299545
vt 0.5873761179310153 0.19202514802294546
vt 0.5840518737282144 0.2048293017866717
vt 0.6491631521080246 0.3088865071975747
vt 0.6416078033558609 0.3125
vt 0.6384901784067177 0.2962760694500691
vt 0.7339384054231302 0.8118938433932833
vt 0.7284481262717856 0.797973145179955
vt 0.742746875 0.7955283396928282
vt 0.7421936071878037 0.810482365860862
vt 0.7284481262717856 0.797973145179955
vt 0.7251238820689847 0.7851689914162288
vt 0.741628125 0.7823470896928282
vt 0.742746875 0.7955283396928282
vt 0.6416078033558609 0.3125
vt 0.633251268403334 0.3119441685622444
vt 0.6384901784067177 0.2962760694500691
vt 0.749678061034975 0.8125
vt 0.7431741264515443 0.7990230627054695
vt 0.757253125 0.7955283396928282
vt 0.7578063928121963 0.810482365860862
vt 0.742746875 0.7955283396928282
vt 0.741628125 0.7823470896928282
vt 0.758371875 0.7823470896928282
vt 0.757253125 0.7955283396928282
vt 0.633251268403334 0.3119441685622444
vt 0.6262410603721418 0.30736185382410086
vt 0.6384901784067177 0.2962760694500691
vt 0.7578063928121963 0.810482365860862
vt 0.757253125 0.7955283396928282
vt 0.7715518737282144 0.797973145179955
vt 0.7660615945768698 0.8118938433932833
vt 0.757253125 0.7955283396928282
vt 0.758371875 0.7823470896928282
vt 0.7748761179310153 0.7851689914162288
vt 0.7715518737282144 0.797973145179955
vt 0.6262410603721418 0.30736185382410086
vt 0.6223787051122135 0.2999306468665397
vt 0.6384901784067177 0.2962760694500691
vt 0.7964384054231302 0.5625
vt 0.7909481262717856 0.5485793017866718
vt 0.805246875 0.5461344962995449
vt 0.8046936071878037 0.5610885224675787
vt 0.7909481262717856 0.5485793017866718
vt 0.7876238820689847 0.5357751480229456
vt 0.804128125 0.532953246299545
vt 0.805246875 0.5461344962995449
vt 0.6223787051122135 0.2999306468665398
vt 0.6226567741437398 0.2915602644013411
vt 0.6384901784067177 0.2962760694500691
vt 0.6223787051122135 0.2999306468665398
vt 0.6076381199128428 0.3025082721081803
vt 0.6081197603771504 0.28801002009196675
vt 0.6226567741437398 0.2915602644013411
vt 0.805246875 0.5461344962995449
vt 0.804128125 0.532953246299545
vt 0.820871875 0.532953246299545
vt 0.819753125 0.5461344962995449
vt 0.6226567741437398 0.2915602644013411
vt 0.6270038075976081 0.2844017781681385
vt 0.6384901784067177 0.2962760694500691
vt 0.6226567741437398 0.2915602644013411
vt 0.6085462275790886 0.2865781484298824
vt 0.6160756788077666 0.274179009215507
vt 0.6270038075976081 0.2844017781681385
vt 0.819753125 0.5461344962995449
vt 0.820871875 0.532953246299545
vt 0.8373761179310153 0.5357751480229456
vt 0.8340518737282144 0.5485793017866718
vt 0.6270038075976081 0.2844017781681385
vt 0.6343026784067177 0.2802948194500692
vt 0.6384901784067177 0.2962760694500691
vt 0.6270038075976081 0.2844017781681385
vt 0.6171495136515901 0.2731402554144553
vt 0.6297918115231899 0.2660266351274112
vt 0.6343026784067177 0.2802948194500692
vt 0.00969812627178554 0.1875
vt 0.00637388206898468 0.17469584623627377
vt 0.022878125 0.1718739445128732
vt 0.023996875 0.18505519451287322
vt 0.6343026784067177 0.2802948194500692
vt 0.6426776784067177 0.2802948194500692
vt 0.6384901784067177 0.2962760694500691
vt 0.6343026784067177 0.2802948194500692
vt 0.6312370534067178 0.2656479444500691
vt 0.6457433034067177 0.2656479444500691
vt 0.6426776784067177 0.2802948194500692
vt 0.023996875 0.18505519451287322
vt 0.022878125 0.1718739445128732
vt 0.039621875 0.1718739445128732
vt 0.038503125 0.18505519451287322
vt 0.039621875 0.24375000000000002
vt 0.056365625 0.24375000000000002
vt 0.056365625 0.3125
vt 0.039621875 0.3125
vt 0.349884375 0.30625
vt 0.36662812499999997 0.30625
vt 0.36662812499999997 0.375
vt 0.349884375 0.375
vt 0.36662812499999997 0.30625
vt 0.38337187500000003 0.30625
vt 0.38337187500000003 0.375
vt 0.36662812499999997 0.375
vt 0.38337187500000003 0.30625
vt 0.400115625 0.30625
vt 0.400115625 0.375
vt 0.38337187500000003 0.375
vt 0.693634375 0.55625
vt 0.710378125 0.55625
vt 0.710378125 0.625
vt 0.693634375 0.625
vt 0.710378125 0.55625
vt 0.727121875 0.55625
vt 0.727121875 0.625
vt 0.710378125 0.625
vt 0.727121875 0.55625
vt 0.743865625 0.55625
vt 0.743865625 0.625
vt 0.727121875 0.625
vt 0.693634375 0.68125
vt 0.710378125 0.68125
vt 0.710378125 0.75
vt 0.693634375 0.75
vt 0.710378125 0.68125
vt 0.727121875 0.68125
vt 0.727121875 0.75
vt 0.710378125 0.75
vt 0.727121875 0.68125
vt 0.743865625 0.68125
vt 0.743865625 0.75
vt 0.727121875 0.75
vt 0.0061343749999999975 0.24375000000000002
vt 0.022878125 0.24375000000000002
vt 0.022878125 0.3125
vt 0.0061343749999999975 0.3125
vt 0.022878125 0.24375000000000002
vt 0.039621875 0.24375000000000002
vt 0.039621875 0.3125
vt 0.022878125 0.3125
vn -0.9777876596251667 -0.05424793636013049 0.2024560547017714
vn -0.7808688094430299 -0.1616829756883097 0.6034090799876966
vn -0.3175955773656121 -0.24541901639410602 0.9159162383263837
vn -0.9777876596251664 0.05424793636013096 0.20245605470177133
vn -0.78086880944303 0.1616829756883101 0.6034090799876964
vn -0.31759557736561167 0.24541901639410602 0.9159162383263839
vn -0.9777876596251667 0.1482081183416406 0.14820811834164058
vn -0.7808688094430299 0.44172610429938663 0.4417261042993865
vn -0.31759557736561206 0.6704972219322776 0.6704972219322775
vn -0.9777876596251667 0.20245605470177136 0.05424793636013096
vn -0.7808688094430299 0.6034090799876967 0.16168297568830997
vn -0.317595577365612 0.9159162383263837 0.2454190163941063
vn -0.9777876596251667 0.20245605470177136 -0.05424793636013049
vn -0.7808688094430299 0.6034090799876968 -0.16168297568830978
vn -0.31759557736561245 0.9159162383263837 -0.24541901639410646
vn -0.9777876596251667 0.14820811834164063 -0.14820811834164002
vn -0.7808688094430299 0.4417261042993869 -0.44172610429938614
vn -0.31759557736561206 0.670497221932278 -0.6704972219322771
vn -0.9777876596251667 0.05424793636013109 -0.20245605470177092
vn -0.7808688094430303 0.16168297568831042 -0.6034090799876962
vn -0.31759557736561234 0.24541901639410663 -0.9159162383263836
vn -0.9777876596251667 -0.054247936360130575 -0.20245605470177092
vn -0.7808688094430303 -0.16168297568830986 -0.6034090799876963
vn -0.3175955773656126 -0.2454190163941069 -0.9159162383263835
vn -0.9777876596251667 -0.14820811834164013 -0.1482081183416401
vn -0.7808688094430302 -0.44172610429938636 -0.4417261042993863
vn -0.3175955773656119 -0.6704972219322772 -0.670497221932278
vn -0.9777876596251667 -0.20245605470177094 -0.054247936360130644
vn -0.78086880944303 -0.6034090799876964 -0.1616829756883101
vn -0.31759557736561245 -0.9159162383263837 -0.2454190163941063
vn -0.9777876596251667 -0.20245605470177092 0.05424793636013099
vn -0.7808688094430302 -0.6034090799876963 0.16168297568830997
vn -0.3175955773656122 -0.9159162383263837 0.24541901639410607
vn -0.9777876596251667 -0.14820811834164013 0.14820811834164058
vn -0.7808688094430302 -0.4417261042993862 0.4417261042993865
vn -0.3175955773656124 -0.6704972219322773 0.6704972219322776
vn 4.976993662575727e-17 -0.2588190451025207 0.9659258262890684
vn 1.6470868185948339e-16 0.2588190451025206 0.9659258262890684
vn 2.355138688025663e-16 0.7071067811865476 0.7071067811865475
vn 2.432133047936722e-16 0.9659258262890684 0.2588190451025208
vn 1.8574393217680898e-16 0.9659258262890682 -0.2588190451025212
vn 7.850462293418891e-17 0.707106781186548 -0.7071067811865471
vn -4.976993662575711e-17 0.2588190451025212 -0.9659258262890681
vn -1.6470868185948356e-16 -0.2588190451025215 -0.9659258262890682
vn -2.355138688025663e-16 -0.7071067811865472 -0.707106781186548
vn -2.4321330479367216e-16 -0.9659258262890682 -0.25881904510252096
vn -1.857439321768091e-16 -0.9659258262890683 0.2588190451025204
vn -7.850462293418876e-17 -0.7071067811865476 0.7071067811865476
usemtl m_ea398e33-a62f-341d-7d6f-44b47ec51f09
f 124/361/97 127/362/97 123/363/97
f 124/364/98 125/365/98 128/366/98 127/367/98
f 125/368/99 126/369/99 129/370/99 128/371/99
f 127/372/100 130/373/100 123/374/100
f 127/375/101 128/376/101 131/377/101 130/378/101
f 128/379/102 129/380/102 132/381/102 131/382/102
f 130/383/103 133/384/103 123/385/103
f 130/386/104 131/387/104 134/388/104 133/389/104
f 131/390/105 132/391/105 135/392/105 134/393/105
f 133/394/106 136/395/106 123/396/106
f 133/397/107 134/398/107 137/399/107 136/400/107
f 134/401/108 135/402/108 138/403/108 137/404/108
f 136/405/109 139/406/109 123/407/109
f 136/408/110 137/409/110 140/410/110 139/411/110
f 137/412/111 138/413/111 141/414/111 140/415/111
f 139/416/112 142/417/112 123/418/112
f 139/419/113 140/420/113 143/421/113 142/422/113
f 140/423/114 141/424/114 144/425/114 143/426/114
f 142/427/115 145/428/115 123/429/115
f 142/430/116 143/431/116 146/432/116 145/433/116
f 143/434/117 144/435/117 147/436/117 146/437/117
f 145/438/118 148/439/118 123/440/118
f 145/441/119 146/442/119 149/443/119 148/444/119
f 146/445/120 147/446/120 150/447/120 149/448/120
f 148/449/121 151/450/121 123/451/121
f 148/452/122 149/453/122 152/454/122 151/455/122
f 149/456/123 150/457/123 153/458/123 152/459/123
f 151/460/124 154/461/124 123/462/124
f 151/463/125 152/464/125 155/465/125 154/466/125
f 152/467/126 153/468/126 156/469/126 155/470/126
f 154/471/127 157/472/127 123/473/127
f 154/474/128 155/475/128 158/476/128 157/477/128
f 155/478/129 156/479/129 159/480/129 158/481/129
f 157/482/130 124/483/130 123/484/130
f 157/485/131 158/486/131 125/487/131 124/488/131
f 158/489/132 159/490/132 126/491/132 125/492/132
f 160/493/133 162/494/133 163/495/133 161/496/133
f 162/497/134 164/498/134 165/499/134 163/500/134
f 164/501/135 166/502/135 167/503/135 165/504/135
f 166/505/136 168/506/136 169/507/136 167/508/136
f 168/509/137 170/510/137 171/511/137 169/512/137
f 170/513/138 172/514/138 173/515/138 171/516/138
f 172/517/139 174/518/139 175/519/139 173/520/139
f 174/521/140 176/522/140 177/523/140 175/524/140
f 176/525/141 178/526/141 179/527/141 177/528/141
f 178/529/142 180/530/142 181/531/142 179/532/142
f 180/533/143 182/534/143 183/535/143 181/536/143
f 182/537/144 160/538/144 161/539/144 183/540/144
o sphere
v 0.21777508154476122 0.12500000000000033 0.1684405633972462
v 0.23176493516314534 0.10882380968109272 0.14325794287207955
v 0.2321285754524517 0.09698201649474847 0.1157717926526812
v 0.21876856529082528 0.09264761936218491 0.09334700449337946
v 0.23469321142182253 0.12500000000000025 0.14006229009750568
v 0.23720049871107832 0.1250000000000001 0.11023675968377078
v 0.22462511780817968 0.12499999999999994 0.08695569894423169
v 0.23176493516314522 0.14117619031890782 0.1432579428720794
v 0.23212857545245152 0.1530179835052518 0.11577179265268092
v 0.21876856529082508 0.1573523806378151 0.09334700449337913
v 0.22376473564584126 0.15301798350525195 0.15198862861556342
v 0.21827182341779305 0.1735285709567228 0.1308937839453125
v 0.20276816625621713 0.18103596701050337 0.11080837598034717
v 0.21283625986986007 0.1573523806378154 0.16391496713362128
v 0.19934314812450793 0.18103596701050356 0.1515508082068544
v 0.18091121470425478 0.18970476127563027 0.13466105301646286
v 0.2019077840938789 0.153017983505252 0.17584130565167916
v 0.18041447283122283 0.1735285709567229 0.17220783246839638
v 0.15905426315229246 0.18103596701050345 0.15851373005257866
v 0.19390758457657503 0.1411761903189079 0.18457199139516328
v 0.1665577207965645 0.15301798350525198 0.18732982376102816
v 0.14305386411768467 0.15735238063781526 0.17597510153954693
v 0.19097930831789783 0.12500000000000036 0.18776764416973718
v 0.16148579753793788 0.1250000000000003 0.19286485672993858
v 0.13719731160033027 0.1250000000000002 0.18236640708869467
v 0.19390758457657511 0.10882380968109279 0.18457199139516345
v 0.16655772079656467 0.09698201649474864 0.18732982376102844
v 0.14305386411768486 0.09264761936218507 0.1759751015395472
v 0.20190778409387908 0.09698201649474869 0.17584130565167944
v 0.18041447283122314 0.07647142904327764 0.17220783246839688
v 0.15905426315229276 0.0689640329894968 0.15851373005257924
v 0.21283625986986027 0.09264761936218524 0.16391496713362158
v 0.19934314812450826 0.06896403298949688 0.15155080820685496
v 0.18091121470425517 0.0602952387243699 0.1346610530164635
v 0.22376473564584143 0.09698201649474864 0.15198862861556367
v 0.21827182341779336 0.07647142904327753 0.13089378394531298
v 0.2027681662562175 0.06896403298949672 0.1108083759803477
v 0.11739293147943317 0.09264761936218413 0.0004533509462262414
v 0.21876856529082528 0.09264761936218491 0.09334700449337946
v 0.12324948399678756 0.12499999999999918 -0.0059379546029215136
v 0.22462511780817968 0.12499999999999994 0.08695569894423169
v 0.11739293147943297 0.15735238063781432 0.0004533509462259222
v 0.21876856529082508 0.1573523806378151 0.09334700449337913
v 0.10139253244482503 0.18103596701050262 0.01791472243319396
v 0.20276816625621713 0.18103596701050337 0.11080837598034717
v 0.07953558089286265 0.18970476127562952 0.04176739946930966
v 0.18091121470425478 0.18970476127563027 0.13466105301646286
v 0.05767862934090036 0.1810359670105027 0.06562007650542544
v 0.15905426315229246 0.18103596701050345 0.15851373005257866
v 0.04167823030629256 0.1573523806378145 0.08308144799239371
v 0.14305386411768467 0.15735238063781526 0.17597510153954693
v 0.03582167778893816 0.12499999999999942 0.08947275354154147
v 0.13719731160033027 0.1250000000000002 0.18236640708869467
v 0.04167823030629275 0.09264761936218432 0.08308144799239402
v 0.14305386411768486 0.09264761936218507 0.1759751015395472
v 0.057678629340900664 0.06896403298949605 0.06562007650542602
v 0.15905426315229276 0.0689640329894968 0.15851373005257924
v 0.07953558089286306 0.06029523872436915 0.041767399469310296
v 0.18091121470425517 0.0602952387243699 0.1346610530164635
v 0.10139253244482539 0.06896403298949594 0.017914722433194502
v 0.2027681662562175 0.06896403298949672 0.1108083759803477
vt 0.7269936051425766 0.49943833556829076
vt 0.7199860931295677 0.4948518990008087
vt 0.7322400171097796 0.48377593485077575
vt 0.8203031036542907 0.7479848685436672
vt 0.8197530562125165 0.7330307235758649
vt 0.8340512781189936 0.7354786082495448
vt 0.8285580012650962 0.7493981238055074
vt 0.8197530562125165 0.7330307235758649
vt 0.8208746447758649 0.719849714804926
vt 0.8373782796261244 0.7226751706605006
vt 0.8340512781189936 0.7354786082495448
vt 0.7199860931295679 0.4948518990008087
vt 0.7161288216905694 0.4874180519452199
vt 0.7322400171097796 0.48377593485077575
vt 0.7964425559567176 0.6875
vt 0.7909492783373828 0.673580484746114
vt 0.8052475001092502 0.6711325992861715
vt 0.8046974534898078 0.6860867442842211
vt 0.7909492783373828 0.673580484746114
vt 0.7876217487919658 0.6607739671543758
vt 0.8041253834868527 0.6579485103912625
vt 0.8052475001092502 0.6711325992861715
vt 0.7161288216905694 0.4874180519452199
vt 0.7164129113070693 0.4790509984551661
vt 0.732242965637656 0.48377526830285666
vt 0.7161288216905694 0.4874180519452199
vt 0.701386353746684 0.4899848871229756
vt 0.7018785000364102 0.475490114727552
vt 0.7164129113070693 0.4790509984551661
vt 0.8052472584868527 0.6711297603912625
vt 0.8041253834868527 0.6579485103912625
vt 0.8208722584868527 0.6579485103912625
vt 0.8197503834868527 0.6711297603912625
vt 0.7164129113070693 0.4790509984551661
vt 0.7207609412926506 0.471896774090491
vt 0.732242965637656 0.48377526830285666
vt 0.7164129113070693 0.4790509984551661
vt 0.7023015185345974 0.47406209570389357
vt 0.7098338840303358 0.46166838339465244
vt 0.7207609412926506 0.471896774090491
vt 0.8197503834868527 0.6711297603912625
vt 0.8208722584868527 0.6579485103912625
vt 0.8373782512080342 0.6607787094220601
vt 0.8340448996687903 0.6735807687327313
vt 0.7207609412926506 0.471896774090491
vt 0.728058590637656 0.4677940183028566
vt 0.732242965637656 0.48377526830285655
vt 0.7207609412926506 0.471896774090491
vt 0.7109092379929566 0.4606289216449083
vt 0.7235514144058607 0.45352146005087657
vt 0.728058590637656 0.4677940183028566
vt 0.7284551003312097 0.21875
vt 0.7251217487919658 0.20594794068932876
vt 0.7416277415131473 0.20311774165853114
vt 0.7427496165131473 0.21629899165853117
vt 0.728058590637656 0.4677940183028566
vt 0.736430465637656 0.4677940183028566
vt 0.732242965637656 0.48377526830285655
vt 0.728058590637656 0.4677940183028566
vt 0.724992965637656 0.45314714330285666
vt 0.739496090637656 0.45314714330285666
vt 0.736430465637656 0.4677940183028566
vt 0.7427496165131473 0.21629899165853117
vt 0.7416277415131473 0.20311774165853114
vt 0.7583746165131473 0.20311774165853114
vt 0.7572527415131473 0.21629899165853117
vt 0.736430465637656 0.4677940183028566
vt 0.7441024863630445 0.47115269705933327
vt 0.7338586683578633 0.4841103136396442
vt 0.736430465637656 0.4677940183028566
vt 0.739496090637656 0.45314714330285666
vt 0.7527847175806611 0.4589646756862763
vt 0.7441024863630445 0.47115269705933327
vt 0.7572524998907498 0.2163018305534402
vt 0.7583746165131473 0.20311774165853114
vt 0.7748782512080342 0.20594319842164444
vt 0.7715507216626172 0.21874971601338267
vt 0.7441024863630445 0.47115269705933327
vt 0.7497835823656218 0.47730621420073305
vt 0.7352031339374762 0.4850680540856964
vt 0.7441024863630445 0.47115269705933327
vt 0.7527847175806611 0.4589646756862763
vt 0.7626248846119908 0.46962311843641724
vt 0.7497835823656218 0.47730621420073305
vt 0.7909487218810064 0.6110786767629338
vt 0.7876217203738756 0.5982752391738897
vt 0.8041253552241351 0.595449783318315
vt 0.8052469437874835 0.6086307920892537
vt 0.7497835823656218 0.47730621420073305
vt 0.7525190149097093 0.4852185905702173
vt 0.7360466848004822 0.48648265092682597
vt 0.7497835823656218 0.47730621420073305
vt 0.7626248846119908 0.46962311843641724
vt 0.767363646253316 0.4833302250921754
vt 0.7525190149097093 0.4852185905702172
vt 0.805247230224135 0.608634158318315
vt 0.8041253552241351 0.595449783318315
vt 0.820872230224135 0.595449783318315
vt 0.8197503552241351 0.608634158318315
vt 0.7525190149097093 0.4852185905702173
vt 0.7510224725231349 0.49345561988307096
vt 0.7360496988684138 0.4864824196320571
vt 0.8202971467596288 0.6235853298080223
vt 0.8197506192225903 0.6086310557849375
vt 0.8340451844912286 0.6110817778308384
vt 0.82854863142989 0.625
vt 0.8197506192225903 0.6086310557849375
vt 0.820872230224135 0.595449783318315
vt 0.8373782796261244 0.5982796517613194
vt 0.8340451844912286 0.6110817778308384
vt 0.7429015846922796 0.4963929555655091
vt 0.7353466180170896 0.5
vt 0.7322412940720363 0.48377678829695225
vt 0.79645136857011 0.749399931486611
vt 0.7909548155087714 0.7354817093174495
vt 0.8052493807774097 0.7330309872715484
vt 0.8047028532403712 0.7479852612946332
vt 0.7909548155087714 0.7354817093174495
vt 0.7876217203738756 0.7226795832479305
vt 0.804127769775865 0.719849714804926
vt 0.8052493807774097 0.7330309872715484
vt 0.7353466180170896 0.5
vt 0.7269936051425766 0.49943833556829076
vt 0.7322407257632313 0.48377381926885066
vt 0.8121773706886241 0.75
vt 0.8056763385217143 0.7365216623921548
vt 0.8197530562125165 0.7330307235758649
vt 0.8203031036542907 0.7479848685436672
vt 0.8052496447758649 0.7330340898049259
vt 0.804127769775865 0.719849714804926
vt 0.8208746447758649 0.719849714804926
vt 0.819752769775865 0.7330340898049259
vt 0.664625 0.93125
vt 0.68136875 0.93125
vt 0.68136875 1
vt 0.664625 1
vt 0.59988125 0.36875
vt 0.616625 0.36875
vt 0.616625 0.4375
vt 0.59988125 0.4375
vt 0.616625 0.36875
vt 0.633371875 0.36875
vt 0.633371875 0.4375
vt 0.616625 0.4375
vt 0.633371875 0.36875
vt 0.65011875 0.36875
vt 0.65011875 0.4375
vt 0.633371875 0.4375
vt 0.25613125 0.30625
vt 0.27287812499999997 0.30625
vt 0.27287812499999997 0.375
vt 0.25613125 0.375
vt 0.27287812499999997 0.30625
vt 0.289625 0.30625
vt 0.289625 0.375
vt 0.27287812499999997 0.375
vt 0.289625 0.30625
vt 0.30636875 0.30625
vt 0.30636875 0.375
vt 0.289625 0.375
vt 0.63113125 0.80625
vt 0.647875 0.80625
vt 0.647875 0.875
vt 0.63113125 0.875
vt 0.647875 0.80625
vt 0.664621875 0.80625
vt 0.664621875 0.875
vt 0.647875 0.875
vt 0.664621875 0.80625
vt 0.68136875 0.80625
vt 0.68136875 0.875
vt 0.664621875 0.875
vt 0.63113125 0.93125
vt 0.647878125 0.93125
vt 0.647878125 1
vt 0.63113125 1
vt 0.647878125 0.93125
vt 0.664625 0.93125
vt 0.664625 1
vt 0.647878125 1
vn 0.8576780096832645 -0.054247936360125676 0.51131750713859
vn 0.9833741418503124 -0.16168297568830656 0.08266748159183462
vn 0.8529400630722687 -0.24541901639410624 -0.4607198228841733
vn 0.8576780096832641 0.054247936360136015 0.5113175071385895
vn 0.9833741418503114 0.16168297568831358 0.08266748159183301
vn 0.8529400630722673 0.2454190163941064 -0.46071982288417584
vn 0.821028635095002 0.14820811834164563 0.5513132811856314
vn 0.8741427067371276 0.4417261042993901 0.20187267531484476
vn 0.6871373788337409 0.6704972219322782 -0.27977794407457046
vn 0.7575500562425084 0.20245605470177652 0.6205879939231531
vn 0.684948311337431 0.6034090799877005 0.4083421273691937
vn 0.399958705701315 0.9159162383263852 0.033622583240637945
vn 0.6842513070659849 0.2024560547017767 0.7005795420172378
vn 0.46648544111106494 0.603409079987701 0.64675251481522
vn 0.06835333722426458 0.9159162383263857 0.3955063408598522
vn 0.6207727282134918 0.14820811834164607 0.7698542547547601
vn 0.2772910457113694 0.4417261042993918 0.8532219668695704
vn -0.21882533590815983 0.6704972219322808 0.7089068681750622
vn 0.5841233536252303 0.054247936360136584 0.8098500288018029
vn 0.16805961059818725 0.16168297568831547 0.972427160592585
vn -0.38462802014668396 0.24541901639410968 0.8898487469846716
vn 0.5841233536252306 -0.05424793636012486 0.8098500288018035
vn 0.1680596105981885 -0.16168297568830486 0.9724271605925866
vn -0.3846280201466824 -0.24541901639410374 0.889848746984674
vn 0.6207727282134928 -0.14820811834163458 0.7698542547547615
vn 0.27729104571137175 -0.44172610429938164 0.8532219668695749
vn -0.2188253359081565 -0.6704972219322741 0.7089068681750694
vn 0.6842513070659861 -0.20245605470176553 0.7005795420172398
vn 0.4664854411110682 -0.603409079987692 0.6467525148152262
vn 0.0683533372242703 -0.9159162383263815 0.39550634085986125
vn 0.7575500562425098 -0.20245605470176575 0.6205879939231551
vn 0.6849483113374344 -0.6034090799876923 0.4083421273691997
vn 0.39995870570132036 -0.9159162383263825 0.03362258324064705
vn 0.821028635095003 -0.14820811834163505 0.5513132811856327
vn 0.8741427067371302 -0.44172610429938264 0.20187267531484915
vn 0.6871373788337447 -0.6704972219322769 -0.27977794407456424
vn 0.65257002952396 -0.25881904510252257 -0.7121552207625219
vn 0.6525700295239586 0.25881904510251896 -0.7121552207625246
vn 0.47771441710825835 0.7071067811865465 -0.5213338044736007
vn 0.17485561241569586 0.9659258262890681 -0.1908214162889308
vn -0.174855612415702 0.9659258262890686 0.19082141628892152
vn -0.47771441710826246 0.7071067811865491 0.5213338044735935
vn -0.65257002952396 0.25881904510252246 0.7121552207625219
vn -0.6525700295239585 -0.25881904510251996 0.7121552207625245
vn -0.47771441710825874 -0.7071067811865459 0.5213338044736011
vn -0.17485561241569594 -0.965925826289068 0.19082141628893085
vn 0.17485561241570166 -0.9659258262890689 -0.1908214162889212
vn 0.47771441710826273 -0.7071067811865487 -0.5213338044735938
usemtl m_ea398e33-a62f-341d-7d6f-44b47ec51f09
f 185/541/145 188/542/145 184/543/145
f 185/544/146 186/545/146 189/546/146 188/547/146
f 186/548/147 187/549/147 190/550/147 189/551/147
f 188/552/148 191/553/148 184/554/148
f 188/555/149 189/556/149 192/557/149 191/558/149
f 189/559/150 190/560/150 193/561/150 192/562/150
f 191/563/151 194/564/151 184/565/151
f 191/566/152 192/567/152 195/568/152 194/569/152
f 192/570/153 193/571/153 196/572/153 195/573/153
f 194/574/154 197/575/154 184/576/154
f 194/577/155 195/578/155 198/579/155 197/580/155
f 195/581/156 196/582/156 199/583/156 198/584/156
f 197/585/157 200/586/157 184/587/157
f 197/588/158 198/589/158 201/590/158 200/591/158
f 198/592/159 199/593/159 202/594/159 201/595/159
f 200/596/160 203/597/160 184/598/160
f 200/599/161 201/600/161 204/601/161 203/602/161
f 201/603/162 202/604/162 205/605/162 204/606/162
f 203/607/163 206/608/163 184/609/163
f 203/610/164 204/611/164 207/612/164 206/613/164
f 204/614/165 205/615/165 208/616/165 207/617/165
f 206/618/166 209/619/166 184/620/166
f 206/621/167 207/622/167 210/623/167 209/624/167
f 207/625/168 208/626/168 211/627/168 210/628/168
f 209/629/169 212/630/169 184/631/169
f 209/632/170 210/633/170 213/634/170 212/635/170
f 210/636/171 211/637/171 214/638/171 213/639/171
f 212/640/172 215/641/172 184/642/172
f 212/643/173 213/644/173 216/645/173 215/646/173
f 213/647/174 214/648/174 217/649/174 216/650/174
f 215/651/175 218/652/175 184/653/175
f 215/654/176 216/655/176 219/656/176 218/657/176
f 216/658/177 217/659/177 220/660/177 219/661/177
f 218/662/178 185/663/178 184/664/178
f 218/665/179 219/666/179 186/667/179 185/668/179
f 219/669/180 220/670/180 187/671/180 186/672/180
f 221/673/181 223/674/181 224/675/181 222/676/181
f 223/677/182 225/678/182 226/679/182 224/680/182
f 225/681/183 227/682/183 228/683/183 226/684/183
f 227/685/184 229/686/184 230/687/184 228/688/184
f 229/689/185 231/690/185 232/691/185 230/692/185
f 231/693/186 233/694/186 234/695/186 232/696/186
f 233/697/187 235/698/187 236/699/187 234/700/187
f 235/701/188 237/702/188 238/703/188 236/704/188
f 237/705/189 239/706/189 240/707/189 238/708/189
f 239/709/190 241/710/190 242/711/190 240/712/190
f 241/713/191 243/714/191 244/715/191 242/716/191
f 243/717/192 221/718/192 222/719/192 244/720/192
o sphere
v 0.16925696721173009 0.4375 0.12398190272934807
v 0.15952841872616924 0.4263354503153699 0.09312688891800511
v 0.15240662695084145 0.39583333333333326 0.07053945113986262
v 0.1497998702406084 0.35416666666666663 0.062271875106662156
v 0.14540429017561432 0.4263354503153699 0.10212495117738579
v 0.1279429186886461 0.39583333333333326 0.08612455214277795
v 0.12155161313949851 0.35416666666666663 0.08026799962542347
v 0.13767146717420697 0.4263354503153699 0.11697956595412091
v 0.11454927636427134 0.39583333333333326 0.11185349966294661
v 0.1060859671366838 0.35416666666666663 0.10997722917889374
v 0.13840195340038713 0.4263354503153699 0.1337104512149089
v 0.11581451562224467 0.39583333333333326 0.1408322429902367
v 0.10754693958904417 0.35416666666666663 0.14343899970046975
v 0.14740001565976782 0.4263354503153699 0.14783457976546385
v 0.13139961662515998 0.39583333333333326 0.16529595125243202
v 0.1255430641078055 0.35416666666666663 0.17168725680157965
v 0.16225463043650293 0.4263354503153699 0.1555674027668712
v 0.15712856414532864 0.39583333333333326 0.1786895935768068
v 0.15525229366127574 0.35416666666666663 0.1871529028043943
v 0.17898551569729093 0.4263354503153699 0.154836916540691
v 0.1861073074726187 0.39583333333333326 0.1774243543188335
v 0.18871406418285175 0.35416666666666663 0.18569193035203396
v 0.19310964424784588 0.4263354503153699 0.14583885428131035
v 0.21057101573481407 0.39583333333333326 0.16183925331591817
v 0.21696232128396167 0.35416666666666663 0.16769580583327265
v 0.20084246724925323 0.4263354503153699 0.13098423950457522
v 0.22396465805918883 0.39583333333333326 0.1361103057957495
v 0.23242796728677634 0.35416666666666663 0.13798657627980238
v 0.20011198102307304 0.4263354503153699 0.11425335424378724
v 0.22269941880121552 0.39583333333333326 0.10713156246845945
v 0.230966994834416 0.35416666666666663 0.1045248057582264
v 0.19111391876369238 0.4263354503153699 0.10012922569323228
v 0.2071143177983002 0.39583333333333326 0.0826678542062641
v 0.21297087031565468 0.35416666666666663 0.07627654865711647
v 0.17625930398695724 0.4263354503153699 0.09239640269182493
v 0.18138537027813154 0.39583333333333326 0.06927421188188931
v 0.18326164076218437 0.35416666666666663 0.06081090265430179
v 0.14979987024060837 0.12499999999999999 0.06227187510666213
v 0.1497998702406084 0.35416666666666663 0.062271875106662156
v 0.12155161313949849 0.12499999999999997 0.08026799962542344
v 0.12155161313949851 0.35416666666666663 0.08026799962542347
v 0.10608596713668378 0.12499999999999999 0.10997722917889372
v 0.1060859671366838 0.35416666666666663 0.10997722917889374
v 0.10754693958904414 0.12499999999999999 0.14343899970046972
v 0.10754693958904417 0.35416666666666663 0.14343899970046975
v 0.12554306410780547 0.12499999999999997 0.17168725680157962
v 0.1255430641078055 0.35416666666666663 0.17168725680157965
v 0.15525229366127571 0.12499999999999996 0.18715290280439428
v 0.15525229366127574 0.35416666666666663 0.1871529028043943
v 0.18871406418285172 0.12499999999999996 0.18569193035203393
v 0.18871406418285175 0.35416666666666663 0.18569193035203396
v 0.21696232128396165 0.12499999999999997 0.16769580583327262
v 0.21696232128396167 0.35416666666666663 0.16769580583327265
v 0.2324279672867763 0.12499999999999996 0.13798657627980235
v 0.23242796728677634 0.35416666666666663 0.13798657627980238
v 0.23096699483441596 0.12499999999999996 0.10452480575822637
v 0.230966994834416 0.35416666666666663 0.1045248057582264
v 0.21297087031565465 0.12499999999999997 0.07627654865711644
v 0.21297087031565468 0.35416666666666663 0.07627654865711647
v 0.18326164076218437 0.12499999999999999 0.060810902654301766
v 0.18326164076218437 0.35416666666666663 0.06081090265430179
vt 0.6604387365300045 0.18508882135835658
vt 0.6678085133351152 0.1890605566036213
vt 0.6562514236240442 0.20167870510294106
vt 0.7270429645813739 0.40447394933185576
vt 0.7260015625 0.38519462246094205
vt 0.7404240654443104 0.386721725465649
vt 0.7353683007993888 0.40535546386527743
vt 0.7260015625 0.38519462246094205
vt 0.7271234375 0.36394462246094206
vt 0.7437772175643308 0.3657079805738972
vt 0.7404240654443103 0.386721725465649
vt 0.6678085133351152 0.1890605566036213
vt 0.6724106558397691 0.19605402322486742
vt 0.6562514236240442 0.20167870510294106
vt 0.7333816992006112 0.9991066052125152
vt 0.7283259345556897 0.9804728668128868
vt 0.7427484375 0.9789457638081798
vt 0.7417070354186261 0.9982250906790935
vt 0.7283259345556897 0.9804728668128868
vt 0.7249727824356692 0.9594591219211349
vt 0.7416265625 0.9576957638081798
vt 0.7427484375 0.9789457638081798
vt 0.6724106558397691 0.19605402322486742
vt 0.6731441313417834 0.20439370575501026
vt 0.6562507016106429 0.2016789564203081
vt 0.7501077818993885 1
vt 0.7430769062237813 0.9820149256182966
vt 0.7572515625 0.9789457638081798
vt 0.7582900495494618 0.9982283377527897
vt 0.7427484375 0.9789457638081798
vt 0.7416265625 0.9576957638081798
vt 0.7583734375 0.9576957638081798
vt 0.7572515625 0.9789457638081798
vt 0.6731441313417834 0.20439370575501026
vt 0.6698324563966891 0.21208613281401023
vt 0.6562469551814416 0.20167835437464043
vt 0.7582898569530729 0.9982247616329818
vt 0.7572515625 0.9789457638081798
vt 0.7716740654443103 0.9804728668128868
vt 0.7666183007993888 0.9991066052125152
vt 0.7572515625 0.9789457638081798
vt 0.7583734375 0.9576957638081798
vt 0.7750272175643308 0.9594591219211349
vt 0.7716740654443103 0.9804728668128868
vt 0.6698324563966891 0.21208613281401023
vt 0.663267331199412 0.21728610936627224
vt 0.6562469551814416 0.20167835437464043
vt 0.4521285915723104 0.2803588470302485
vt 0.44707593455568967 0.26172477958450835
vt 0.4614984375 0.2601976765798013
vt 0.4604570354186262 0.279477003450715
vt 0.44707593455568967 0.26172477958450835
vt 0.44372278243566926 0.24071103469275645
vt 0.46037656250000003 0.23894767657980132
vt 0.4614984375 0.2601976765798013
vt 0.6574709935194093 0.21875
vt 0.6492281613243746 0.21728575670733186
vt 0.6562497439857881 0.2016827054365007
vt 0.4688604847724189 0.28125
vt 0.46182739687399177 0.26326910354004496
vt 0.47600156250000003 0.2601976765798013
vt 0.4770424691964818 0.2794770302032983
vt 0.4614984375 0.2601976765798013
vt 0.46037656250000003 0.23894767657980132
vt 0.47712343749999997 0.23894767657980132
vt 0.47600156250000003 0.2601976765798013
vt 0.6492281613243746 0.21728575670733186
vt 0.6426666387471438 0.21208626514717754
vt 0.6562500577183165 0.20168200827391458
vt 0.47704263553526205 0.27948011107901594
vt 0.47600156250000003 0.2601976765798013
vt 0.49042406544431033 0.26172477958450835
vt 0.485367971753277 0.2803616256124376
vt 0.47600156250000003 0.2601976765798013
vt 0.47712343749999997 0.23894767657980132
vt 0.49377721756433074 0.24071103469275645
vt 0.49042406544431033 0.26172477958450835
vt 0.6426666387471438 0.21208626514717754
vt 0.6393558686582166 0.20439685083697878
vt 0.6562500577183165 0.20168200827391458
vt 0.733382028246723 0.9053614421285638
vt 0.7283259345556897 0.8867245961006346
vt 0.7427484375 0.8851974930959277
vt 0.741707364464738 0.9044799275951422
vt 0.7283259345556897 0.8867245961006346
vt 0.7249727824356692 0.8657108512088827
vt 0.7416265625 0.8639474930959277
vt 0.7427484375 0.8851974930959277
vt 0.6393558686582166 0.20439685083697878
vt 0.6400893580166732 0.19605716952552232
vt 0.6562493028999096 0.20168212957083698
vt 0.7501110257166772 0.90625
vt 0.7430774757993442 0.888269284261993
vt 0.7572515625 0.8851974930959277
vt 0.7582929645813739 0.9044768199668414
vt 0.7427484375 0.8851974930959277
vt 0.7416265625 0.8639474930959277
vt 0.7583734375 0.8639474930959277
vt 0.7572515625 0.8851974930959277
vt 0.6400893580166732 0.19605716952552232
vt 0.6446941562381221 0.18906170968790326
vt 0.6562521644922323 0.20168312563503132
vt 0.7582929645813739 0.9044768199668414
vt 0.7572515625 0.8851974930959277
vt 0.7716740654443104 0.8867245961006346
vt 0.7666214084276897 0.9053586635463748
vt 0.7572515625 0.8851974930959277
vt 0.7583734375 0.8639474930959277
vt 0.7750272175643308 0.8657108512088827
vt 0.7716740654443103 0.8867245961006346
vt 0.6446941562381221 0.18906170968790326
vt 0.6520668615300045 0.18508882135835658
vt 0.6562521644922323 0.20168312563503132
vt 0.7021316992006112 0.40535546386527743
vt 0.6970759345556897 0.386721725465649
vt 0.7114984375 0.38519462246094205
vt 0.7104601430469271 0.40447362028574396
vt 0.6970759345556897 0.386721725465649
vt 0.6937227824356692 0.3657079805738972
vt 0.7103765625 0.36394462246094206
vt 0.7114984375 0.38519462246094205
vt 0.6520668615300045 0.18508882135835658
vt 0.6604387365300045 0.18508882135835658
vt 0.6562512365300045 0.20167944635835655
vt 0.7188611465752546 0.40625
vt 0.7118273968739918 0.3882660494211857
vt 0.7260015625 0.38519462246094205
vt 0.7270431309993175 0.4044770302032983
vt 0.7114984375 0.38519462246094205
vt 0.7103765625 0.36394462246094206
vt 0.7271234375 0.36394462246094206
vt 0.7260015625 0.38519462246094205
vt 0.4458734375 0.41666562500000004
vt 0.4626203125 0.41666562500000004
vt 0.4626203125 0.53125
vt 0.4458734375 0.53125
vt 0.3186296875 0.41666562500000004
vt 0.33537656250000003 0.41666562500000004
vt 0.33537656250000003 0.53125
vt 0.3186296875 0.53125
vt 0.33537656250000003 0.41666562500000004
vt 0.3521234375 0.41666562500000004
vt 0.3521234375 0.53125
vt 0.33537656250000003 0.53125
vt 0.3521234375 0.41666562500000004
vt 0.3688703125 0.41666562500000004
vt 0.3688703125 0.53125
vt 0.3521234375 0.53125
vt 0.5061296875 0.47916562500000004
vt 0.5228765625 0.47916562500000004
vt 0.5228765625 0.59375
vt 0.5061296875 0.59375
vt 0.5228765625 0.47916562500000004
vt 0.5396234375 0.47916562500000004
vt 0.5396234375 0.59375
vt 0.5228765625 0.59375
vt 0.5396234375 0.47916562500000004
vt 0.5563703125 0.47916562500000004
vt 0.5563703125 0.59375
vt 0.5396234375 0.59375
vt 0.5061296875 0.635415625
vt 0.5228765625 0.635415625
vt 0.5228765625 0.75
vt 0.5061296875 0.75
vt 0.5228765625 0.635415625
vt 0.5396234375 0.635415625
vt 0.5396234375 0.75
vt 0.5228765625 0.75
vt 0.5396234375 0.635415625
vt 0.5563703125 0.635415625
vt 0.5563703125 0.75
vt 0.5396234375 0.75
vt 0.4123796875 0.41666562500000004
vt 0.42912656250000003 0.41666562500000004
vt 0.42912656250000003 0.53125
vt 0.4123796875 0.53125
vt 0.42912656250000003 0.41666562500000004
vt 0.4458734375 0.41666562500000004
vt 0.4458734375 0.53125
vt 0.42912656250000003 0.53125
vn -0.18076848848047705 0.9417052975698793 -0.28374968916513216
vn -0.42983968667746125 0.5999999999999998 -0.6747131566503075
vn -0.5267679463696411 0.19702282065116825 -0.8268600479042197
vn -0.29842494781037376 0.9417052975698793 -0.15535019489270405
vn -0.7096086665425787 0.5999999999999998 -0.36939889058802516
vn -0.8696244474075775 0.19702282065116813 -0.45269783367465216
vn -0.336118683373181 0.9417052975698793 0.014675258645241817
vn -0.7992385772654865 0.5999999999999996 0.03489550989227127
vn -0.9794657800442926 0.19702282065116855 0.04276439950335804
vn -0.28374968916513205 0.9417052975698791 0.18076848848047725
vn -0.6747131566503074 0.5999999999999996 0.4298396866774616
vn -0.8268600479042195 0.19702282065116844 0.5267679463696412
vn -0.15535019489270396 0.9417052975698791 0.29842494781037393
vn -0.36939889058802533 0.5999999999999993 0.7096086665425789
vn -0.45269783367465144 0.1970228206511684 0.8696244474075778
vn 0.014675258645241676 0.9417052975698791 0.3361186833731811
vn 0.03489550989227088 0.5999999999999993 0.7992385772654866
vn 0.04276439950335744 0.19702282065116805 0.9794657800442927
vn 0.18076848848047708 0.9417052975698791 0.2837496891651324
vn 0.4298396866774611 0.5999999999999993 0.674713156650308
vn 0.5267679463696406 0.1970228206511681 0.8268600479042201
vn 0.298424947810374 0.9417052975698791 0.15535019489270416
vn 0.7096086665425788 0.5999999999999994 0.3693988905880255
vn 0.869624447407578 0.19702282065116822 0.4526978336746511
vn 0.3361186833731812 0.9417052975698792 -0.014675258645241591
vn 0.7992385772654866 0.5999999999999995 -0.03489550989227112
vn 0.9794657800442929 0.19702282065116777 -0.04276439950335739
vn 0.2837496891651324 0.9417052975698791 -0.18076848848047686
vn 0.6747131566503081 0.5999999999999994 -0.42983968667746086
vn 0.8268600479042201 0.1970228206511682 -0.5267679463696407
vn 0.15535019489270419 0.9417052975698791 -0.2984249478103737
vn 0.36939889058802544 0.5999999999999996 -0.7096086665425786
vn 0.4526978336746518 0.1970228206511682 -0.8696244474075777
vn -0.014675258645241588 0.9417052975698791 -0.33611868337318096
vn -0.03489550989227111 0.5999999999999999 -0.7992385772654863
vn -0.042764399503358 0.19702282065116825 -0.9794657800442927
vn -0.5372996083468264 1.6451800341166838e-16 -0.8433914458128842
vn -0.8870108331782228 1.6260541999339174e-16 -0.46174861323503175
vn -0.9990482215818577 1.1712284560296223e-16 0.04361938736533898
vn -0.8433914458128839 4.0257299317983906e-17 0.5372996083468266
vn -0.461748613235031 -4.739515780870617e-17 0.8870108331782233
vn 0.04361938736533836 -1.223481206754077e-16 0.9990482215818577
vn 0.537299608346826 -1.6451800341166835e-16 0.8433914458128844
vn 0.8870108331782234 -1.6260541999339167e-16 0.46174861323503075
vn 0.9990482215818577 -1.171228456029623e-16 -0.04361938736533836
vn 0.8433914458128843 -4.025729931798399e-17 -0.5372996083468261
vn 0.4617486132350315 4.73951578087061e-17 -0.8870108331782232
vn -0.04361938736533898 1.2234812067540777e-16 -0.9990482215818577
usemtl m_ea398e33-a62f-341d-7d6f-44b47ec51f09
f 246/721/193 249/722/193 245/723/193
f 246/724/194 247/725/194 250/726/194 249/727/194
f 247/728/195 248/729/195 251/730/195 250/731/195
f 249/732/196 252/733/196 245/734/196
f 249/735/197 250/736/197 253/737/197 252/738/197
f 250/739/198 251/740/198 254/741/198 253/742/198
f 252/743/199 255/744/199 245/745/199
f 252/746/200 253/747/200 256/748/200 255/749/200
f 253/750/201 254/751/201 257/752/201 256/753/201
f 255/754/202 258/755/202 245/756/202
f 255/757/203 256/758/203 259/759/203 258/760/203
f 256/761/204 257/762/204 260/763/204 259/764/204
f 258/765/205 261/766/205 245/767/205
f 258/768/206 259/769/206 262/770/206 261/771/206
f 259/772/207 260/773/207 263/774/207 262/775/207
f 261/776/208 264/777/208 245/778/208
f 261/779/209 262/780/209 265/781/209 264/782/209
f 262/783/210 263/784/210 266/785/210 265/786/210
f 264/787/211 267/788/211 245/789/211
f 264/790/212 265/791/212 268/792/212 267/793/212
f 265/794/213 266/795/213 269/796/213 268/797/213
f 267/798/214 270/799/214 245/800/214
f 267/801/215 268/802/215 271/803/215 270/804/215
f 268/805/216 269/806/216 272/807/216 271/808/216
f 270/809/217 273/810/217 245/811/217
f 270/812/218 271/813/218 274/814/218 273/815/218
f 271/816/219 272/817/219 275/818/219 274/819/219
f 273/820/220 276/821/220 245/822/220
f 273/823/221 274/824/221 277/825/221 276/826/221
f 274/827/222 275/828/222 278/829/222 277/830/222
f 276/831/223 279/832/223 245/833/223
f 276/834/224 277/835/224 280/836/224 279/837/224
f 277/838/225 278/839/225 281/840/225 280/841/225
f 279/842/226 246/843/226 245/844/226
f 279/845/227 280/846/227 247/847/227 246/848/227
f 280/849/228 281/850/228 248/851/228 247/852/228
f 282/853/229 284/854/229 285/855/229 283/856/229
f 284/857/230 286/858/230 287/859/230 285/860/230
f 286/861/231 288/862/231 289/863/231 287/864/231
f 288/865/232 290/866/232 291/867/232 289/868/232
f 290/869/233 292/870/233 293/871/233 291/872/233
f 292/873/234 294/874/234 295/875/234 293/876/234
f 294/877/235 296/878/235 297/879/235 295/880/235
f 296/881/236 298/882/236 299/883/236 297/884/236
f 298/885/237 300/886/237 301/887/237 299/888/237
f 300/889/238 302/890/238 303/891/238 301/892/238
f 302/893/239 304/894/239 305/895/239 303/896/239
f 304/897/240 282/898/240 283/899/240 305/900/240