# Made in Blockbench 5.1.4
mtllib pedra.mtl

o Cube
v 0.5750239707478113 0.7070103124008114 -0.45089804301219083
v 0.09096390969033473 0.7195973204297832 -0.4062728877135817
v 0.2565208269205704 0.958357 0.07650102786693902
v 0.5436719236945713 0.7038817894739471 0.029784741112245897
v 0.5891265003636624 -0.3392364057472217 0.5734693524259962
v 0.5727775988848349 -0.0657506720006712 0.6129609850128068
v -0.6704603709724761 0.26514290714197963 0.6614520000000002
v -0.5510863785889899 -0.27926204341177874 0.6115217945400901
v -0.688636 0.14278588019164062 -0.022987626349576885
v -0.6431249194987727 -0.390375511162558 0.06425492469928347
v -0.5822709813591921 -0.32259222352681505 -0.6170124688989398
v 0.13992034580962395 -0.4191410000000001 -0.6782484517475602
v 0.6059708439803673 -0.3350760480819457 -0.5974467222586972
v 0.6073414064452323 -0.36667701878054315 -0.4544167475440132
v 0.690289032021197 0.07952821971857146 -0.6875
v 0.6143919821820342 -0.3551321638373671 -0.44870235498330246
v -0.6878532152035763 0.014254354166645833 -0.6875
v 0.023363965250588762 0.497876671839872 -0.6875
v 0.606941745193537 -0.36354712007402756 -0.4360004398283241
v 0.6964699999999999 0.34528619916424386 -0.08708763924148104
v 0.057883672259074884 0.7230973038624757 0.4852946761137049
v -0.3552365166225065 0.764171893239344 0.45958195971938537
v 0.4904963050854035 0.5597379159669573 0.450079612367474
v -0.3209049260307666 0.7596029290176569 -0.009851767248646365
v -0.4567566761931959 0.6607538489676394 -0.4851515963143988
v -0.5567284929491281 0.4822381845445039 0.026825038387964864
vt 0.062478468230700995 0.8568197510341058
vt 0.183834718230701 0.8639900635341058
vt 0.14717065573070098 0.9999994385341058
vt 0.074983155730701 0.9641010010341058
vt 0.8527671875 0.171875
vt 0.848675 0.24095468749999993
vt 0.5378578125 0.3245359375
vt 0.5677078125 0.18805000000000005
vt 0.5481188067504053 0.41388160188712964
vt 0.5593998208343987 0.5533194778935506
vt 0.38818784469336226 0.5229671446938391
vt 0.4099333354715121 0.390625
vt 0.5538291066943415 0.679406751295458
vt 0.7324636815540391 0.640625
vt 0.8504860679443105 0.6628875185816212
vt 0.8524208933056585 0.679406751295458
vt 0.7407541563068194 0.705497072756547
vt 0.78125 0.8057719052873735
vt 0.7032289448262754 0.7075634563919659
vt 0.7041695427581803 0.704149266657033
vt 0.31538935004286367 0.18995873857591583
vt 0.3434597955935454 0.27546159653632973
vt 0.16658191384768306 0.3977187287508528
vt 0.1378948919064546 0.171875
vt 0.7041695427581803 0.704149266657033
vt 0.7031944563287021 0.7076886430103857
vt 0.6996556897180785 0.7053519385968666
vt 0.6996556897180785 0.7053519385968666
vt 0.7031941867982366 0.7076884650350916
vt 0.6186575168292132 0.886879063330489
vt 0.4610988123654697 0.7255603382055693
vt 0.5901737341904827 0.9910851469833769
vt 0.6283206873654696 0.8967728382055694
vt 0.7102728250739843 1
vt 0.5378587115118248 0.3245356957484653
vt 0.7230077506803085 0.4425279078465022
vt 0.6200430192575069 0.4570785293774404
vt 0.125 0.4553485130298818
vt 0.125 0.5519767188557834
vt 0 0.5625
vt 0.02140150576457844 0.454198522556981
vt 0.14992433592092663 0.5858441893012734
vt 0.20106239623178762 0.703125
vt 0.046875 0.703125
vt 0.05563828762271425 0.5939747790322566
vt 0.2945989920757488 0.9548493601668598
vt 0.1471705043762768 1
vt 0.183834718230701 0.8639900635341058
vt 0.316622798323535 0.8341614868267919
vt 0.1378948919064546 0.171875
vt 0.1670167669064546 0.40114218749999997
vt 0.0002902044064546083 0.29655
vt 0.021524579406454608 0.19265937499999997
vt 0.4099333354715121 0.390625
vt 0.3879567729715121 0.5243734375
vt 0.2218505229715121 0.4921296875000001
vt 0.23986146047151208 0.40604687500000003
vt 0.00016782440947404886 0.7084626071031386
vt 0.18596532307605998 0.7734011876063738
vt 0.17061379543764926 0.8632089076565589
vt 0.062478468230700995 0.8568197510341058
vt 0.2218501791656013 0.4921296207620426
vt 0.3879567729715121 0.5243734375
vt 0.3990822389704368 0.6155905132835938
vt 0.2702032765884852 0.6643911619647245
vt 0.34375 1
vt 0.34375000000000006 0.8621644835245619
vt 0.4251921950426829 0.9038207349537712
vt 0.18596532307605998 0.7734011876063738
vt 0.3070997408135553 0.8362543890691834
vt 0.17061394781234293 0.8632080162518625
vt 0.3071018299395721 0.8362554730572098
vt 0.18596532307605998 0.7734011876063738
vt 0.37483217559052595 0.6706292702986809
vt 0.3881860277514194 0.5229668225877079
vt 0.5593998208343987 0.5533194778935506
vt 0.4005271038643881 0.6140267904930652
vt 0.40052584815997505 0.614027270313904
vt 0.5593998208343987 0.5533194778935506
vt 0.5086235524742 0.7007765657576289
vt 0.3916142831655179 0.7042707475635501
vt 0.76878936516891 0.9708850585206089
vt 0.6553982626090027 0.903695846759024
vt 0.7070931069028106 0.7124274429526704
vt 0.78125 0.8057719052873735
vt 0.4610988123654697 0.7255603382055693
vt 0.6283206873654696 0.8967728382055694
vt 0.45062693736546966 0.7939650257055694
vt 0.5378587115118248 0.3245356957484653
vt 0.848675 0.24095468749999993
vt 0.8316373205767719 0.40295313422133494
vt 0.7228979349792441 0.4424579242400526
vt 0.45062563635057884 0.7939642729807552
vt 0.6283206873654696 0.8967728382055694
vt 0.5901742722959056 0.9910838166028205
vt 0.48582324090818163 0.9525586159387243
vn -0.017063162548971975 0.8985522518062442 -0.4385347184177732
vn 0.0005740672128530769 -0.14288507048807744 0.9897391207174002
vn -0.973457105806014 -0.21942261099929405 0.06507673115662395
vn -0.019388003213374496 -0.6348911720403595 0.7723582750230731
vn 0.9727295254532481 -0.2161151726656175 -0.08421105898401446
vn 0.11482200522487665 -0.16885776322942253 -0.9789294984386233
vn 0.8222224717484629 -0.5579047870576216 0.11266079855050884
vn 0.897395472467683 -0.2808517281475383 0.3402993869977513
vn 0.9253670055133623 0.37383608303736976 0.06278923575350899
vn -0.019115269111503762 0.3852891659776309 0.9225978891516371
vn 0.5834322491930961 0.5483692159316823 0.5990809741762436
vn -0.351033299926514 0.8751259182052017 0.33306193061982503
vn -0.25594721281837374 0.8985154658071761 -0.3565963852253966
vn -0.006876160615577976 -0.010961876049537977 -0.9999162743393386
vn -0.9964697422526136 -0.08263607870142753 0.014809836996446434
vn 0.4158319407543673 0.6629132806556822 -0.6225992124784427
vn -0.9259781773922566 0.37050137265962485 -0.07275402291728093
vn -0.7541656325360186 0.6517926429749229 0.08000343283454588
vn 0.004963870298531871 0.7847008989172938 -0.6198547081615582
vn -0.25148782080351056 0.36983913333645796 -0.894412036726049
vn -0.9292736046781297 0.3671151369035578 -0.04095172651790718
vn -0.8382917071799487 0.5440403487275413 0.03587635195700407
vn 0.9578789221161821 0.03491426601707101 -0.28504204004678063
vn 0.9809979153790059 0.030986964691646843 0.19152779965645603
vn 0.10759144551920559 0.2637703626694552 0.9585662609482518
vn 0.9038522907779059 0.27958120232064476 0.3238601361150746
usemtl m_9e7c59e9-3f3e-f360-ecd6-b86a8072ab5e
f 1/1/1 2/2/1 3/3/1 4/4/1
f 5/5/2 6/6/2 7/7/2 8/8/2
f 8/9/3 7/10/3 9/11/3 10/12/3
f 11/13/4 12/14/4 13/15/4 14/16/4
f 13/17/5 15/18/5 16/19/5 14/20/5
f 11/21/6 17/22/6 18/23/6 12/24/6
f 14/25/7 16/26/7 19/27/7
f 19/28/8 16/29/8 20/30/8 5/31/8
f 4/32/9 20/33/9 1/34/9
f 7/35/10 21/36/10 22/37/10
f 4/38/11 3/39/11 21/40/11 23/41/11
f 21/42/12 3/43/12 24/44/12 22/45/12
f 24/46/13 3/47/13 2/48/13 25/49/13
f 12/50/14 18/51/14 15/52/14 13/53/14
f 10/54/15 9/55/15 17/56/15 11/57/15
f 15/58/16 18/59/16 2/60/16 1/61/16
f 17/62/17 9/63/17 26/64/17 25/65/17
f 25/66/18 26/67/18 24/68/18
f 18/69/19 25/70/19 2/71/19
f 25/72/20 18/73/20 17/74/20
f 9/75/21 7/76/21 26/77/21
f 26/78/22 7/79/22 22/80/22 24/81/22
f 1/82/23 20/83/23 16/84/23 15/85/23
f 5/86/24 20/87/24 6/88/24
f 7/89/25 6/90/25 23/91/25 21/92/25
f 6/93/26 20/94/26 4/95/26 23/96/26