# Blender 3.6.2
# www.blender.org
mtllib untitled.mtl
o Cube
v 0.832724 0.655469 -0.653775
v 0.877635 -0.859434 -0.868223
v 0.710055 0.441376 0.664646
v 0.853190 -0.865482 0.845205
v -0.664626 0.588225 -0.703899
v -0.846776 -0.841286 -0.896854
v -0.517297 0.738566 0.678551
v -0.801520 -0.778296 0.900888
v 0.879044 -0.900823 -0.631975
v 0.879624 -0.905373 -0.658924
v 0.787225 0.650921 0.049619
v 0.130242 0.673767 -0.588474
v -0.974759 0.013117 0.973952
v 0.082235 0.678855 0.716177
v -0.467474 0.731924 -0.008382
v 1.000000 -0.256715 -1.000000
v 0.889856 -0.888590 -0.650562
v 0.370503 1.020857 0.117980
v 0.201289 -0.981641 -0.986462
v -0.935089 -0.939824 0.100060
v -1.000000 -0.351605 -1.000000
v -0.809708 0.328713 0.045288
v -1.001136 -0.164756 -0.027604
v 0.032139 0.351447 -1.000000
v 1.008970 0.129623 -0.121403
v 0.829464 -0.467910 0.902994
vn 0.2879 0.9207 -0.2635
vn 0.0189 -0.1063 0.9942
vn -0.9826 -0.1461 0.1147
vn -0.0034 -0.9987 0.0506
vn 0.9708 -0.2246 -0.0846
vn -0.0245 -0.0682 -0.9974
vn 0.8227 -0.5573 0.1118
vn 0.9901 -0.1379 0.0264
vn 0.9256 0.3733 0.0623
vn -0.0193 0.3875 0.9217
vn 0.4818 0.7340 0.4788
vn -0.1769 0.9627 0.2047
vn -0.1759 0.9450 -0.2759
vn 0.0499 -0.0736 -0.9960
vn -0.9835 -0.1772 -0.0367
vn 0.1633 0.5227 -0.8367
vn -0.9312 0.3587 -0.0640
vn -0.7548 0.6512 0.0794
vn 0.0050 0.7867 -0.6173
vn -0.2532 0.3717 -0.8931
vn -0.9295 0.3666 -0.0406
vn -0.8156 0.5786 0.0022
vn 0.9990 0.0369 -0.0264
vn 0.9813 0.0309 0.1900
vn 0.1177 0.2339 0.9651
vn 0.9358 0.2355 0.2624
vt 0.625000 0.500000
vt 0.756244 0.500000
vt 0.705063 0.638473
vt 0.625000 0.653357
vt 0.375000 0.750000
vt 0.448852 0.750000
vt 0.504034 1.000000
vt 0.375000 1.000000
vt 0.375000 0.000000
vt 0.504034 0.000000
vt 0.479379 0.128445
vt 0.375000 0.117692
vt 0.125000 0.500000
vt 0.275399 0.500000
vt 0.375000 0.500000
vt 0.375000 0.551796
vt 0.375000 0.556150
vt 0.125000 0.750000
vt 0.125000 0.632308
vt 0.467911 0.500000
vt 0.379299 0.553551
vt 0.375000 0.250000
vt 0.456049 0.250000
vt 0.543931 0.379017
vt 0.375000 0.400399
vt 0.515088 0.608710
vt 0.625000 0.788664
vt 0.625000 1.000000
vt 0.663664 0.750000
vt 0.625000 0.750000
vt 0.875000 0.606553
vt 0.875000 0.750000
vt 0.875000 0.500000
vt 0.625000 0.368756
vt 0.570738 0.137857
vt 0.625000 0.250000
vt 0.625000 0.143447
vt 0.625000 0.000000
s 0
usemtl Material
f 1/1/1 12/2/1 18/3/1 11/4/1
f 4/5/2 26/6/2 13/7/2 8/8/2
f 8/9/3 13/10/3 23/11/3 20/12/3
f 6/13/4 19/14/4 2/15/4 10/16/4 9/17/4 4/5/4 8/18/4 20/19/4
f 2/15/5 16/20/5 17/21/5 10/16/5
f 6/22/6 21/23/6 24/24/6 19/25/6
f 10/16/7 17/21/7 9/17/7
f 9/17/8 17/21/8 25/26/8 4/5/8
f 11/4/9 25/26/9 1/1/9
f 13/7/10 14/27/10 7/28/10
f 11/4/11 18/3/11 14/29/11 3/30/11
f 14/29/12 18/3/12 15/31/12 7/32/12
f 15/31/13 18/3/13 12/2/13 5/33/13
f 19/25/14 24/24/14 16/20/14 2/15/14
f 20/12/15 23/11/15 21/23/15 6/22/15
f 16/20/16 24/24/16 12/34/16 1/1/16
f 21/23/17 23/11/17 22/35/17 5/36/17
f 5/36/18 22/35/18 15/37/18
f 24/24/19 5/36/19 12/34/19
f 5/36/20 24/24/20 21/23/20
f 23/11/21 13/10/21 22/35/21
f 22/35/22 13/10/22 7/38/22 15/37/22
f 1/1/23 25/26/23 17/21/23 16/20/23
f 4/5/24 25/26/24 26/6/24
f 13/7/25 26/6/25 3/30/25 14/27/25
f 26/6/26 25/26/26 11/4/26 3/30/26
