# Made in Blockbench 5.1.4
mtllib torre.mtl

o cylinder
v 0 -0.25 0
v 0 2 0
v 0.200961875 -0.25 0.75
v 0.2512025 2 0.9375
v 0.549038125 -0.25 0.549038125
v 0.6862975 2 0.6862975
v 0.75 -0.25 0.200961875
v 0.9375 2 0.2512025
v 0.75 -0.25 -0.200961875
v 0.9375 2 -0.2512025
v 0.549038125 -0.25 -0.549038125
v 0.6862975 2 -0.6862975
v 0.200961875 -0.25 -0.75
v 0.2512025 2 -0.9375
v -0.200961875 -0.25 -0.75
v -0.2512025 2 -0.9375
v -0.549038125 -0.25 -0.549038125
v -0.6862975 2 -0.6862975
v -0.75 -0.25 -0.200961875
v -0.9375 2 -0.2512025
v -0.75 -0.25 0.200961875
v -0.9375 2 0.2512025
v -0.549038125 -0.25 0.549038125
v -0.6862975 2 0.6862975
v -0.200961875 -0.25 0.75
v -0.2512025 2 0.9375
v -0.200961875 1.5 -0.75
v 0.200961875 1.5 -0.75
v -0.2512025 1.75 -0.9375
v 0.2512025 1.75 -0.9375
v 0.549038125 1.5 -0.549038125
v 0.6862975 1.75 -0.6862975
v 0.75 1.5 -0.200961875
v 0.9375 1.75 -0.2512025
v 0.75 1.5 0.200961875
v 0.9375 1.75 0.2512025
v 0.549038125 1.5 0.549038125
v 0.6862975 1.75 0.6862975
v 0.200961875 1.5 0.75
v 0.2512025 1.75 0.9375
v -0.200961875 1.5 0.75
v -0.2512025 1.75 0.9375
v -0.549038125 1.5 0.549038125
v -0.6862975 1.75 0.6862975
v -0.75 1.5 0.200961875
v -0.9375 1.75 0.2512025
v -0.75 1.5 -0.200961875
v -0.9375 1.75 -0.2512025
v -0.549038125 1.5 -0.549038125
v -0.6862975 1.75 -0.6862975
v 0.75 2 0.200961875
v 0.549038125 2 0.549038125
v 0.200961875 2 0.75
v -0.200961875 2 0.75
v -0.549038125 2 0.549038125
v -0.75 2 0.200961875
v -0.75 2 -0.200961875
v -0.549038125 2 -0.549038125
v -0.200961875 2 -0.75
v 0.200961875 2 -0.75
v 0.549038125 2 -0.549038125
v 0.75 2 -0.200961875
v 0.75 2.25 0.200961875
v 0.6862975 2.25 0.6862975
v 0.549038125 2.25 0.549038125
v 0.9375 2.25 0.2512025
v 0.200961875 2.25 0.75
v -0.2512025 2.25 0.9375
v -0.200961875 2.25 0.75
v 0.2512025 2.25 0.9375
v -0.549038125 2.25 0.549038125
v -0.9375 2.25 0.2512025
v -0.75 2.25 0.200961875
v -0.6862975 2.25 0.6862975
v -0.75 2.25 -0.200961875
v -0.6862975 2.25 -0.6862975
v -0.549038125 2.25 -0.549038125
v -0.9375 2.25 -0.2512025
v -0.200961875 2.25 -0.75
v 0.2512025 2.25 -0.9375
v 0.200961875 2.25 -0.75
v -0.2512025 2.25 -0.9375
v 0.549038125 2.25 -0.549038125
v 0.9375 2.25 -0.2512025
v 0.75 2.25 -0.200961875
v 0.6862975 2.25 -0.6862975
vt 0.3576921875 0.7951921875
vt 0.3141828125 0.8203125
vt 0.2890625 0.7265625
vt 0.64468125 0.671875
vt 0.64468125 0.640625
vt 0.70748125 0.640625
vt 0.70748125 0.671875
vt 0.1858171875 0.8141828125
vt 0.1423078125 0.7890625
vt 0.1485875 0.765625
vt 0.202975 0.797025
vt 0.3828125 0.7516828125
vt 0.3576921875 0.7951921875
vt 0.2890625 0.7265625
vt 0.39408125 0.7421875
vt 0.39408125 0.7109375
vt 0.45688125 0.7109375
vt 0.45688125 0.7421875
vt 0.27121375 1
vt 0.2209734375 1
vt 0.21469328125 0.9765625
vt 0.27749421875 0.9765625
vt 0.3828125 0.7014421875
vt 0.3828125 0.7516828125
vt 0.2890625 0.7265625
vt 0.45688125 0.7421875
vt 0.45688125 0.7109375
vt 0.51968125 0.7109375
vt 0.51968125 0.7421875
vt 0.2109375 0.9079328125
vt 0.2109375 0.8576921875
vt 0.234375 0.8514125
vt 0.234375 0.9142125
vt 0.3576921875 0.6579328125
vt 0.3828125 0.7014421875
vt 0.2890625 0.7265625
vt 0.51968125 0.7421875
vt 0.51968125 0.7109375
vt 0.58248125 0.7109375
vt 0.58248125 0.7421875
vt 0 0.99371984375
vt 0 0.943479453125
vt 0.0234375 0.9371990625
vt 0.0234375 1
vt 0.3141828125 0.6328125
vt 0.3576921875 0.6579328125
vt 0.2890625 0.7265625
vt 0.51908125 0.53125
vt 0.51908125 0.5
vt 0.58188125 0.5
vt 0.58188125 0.53125
vt 0.1423078125 0.9765625
vt 0.1858171875 0.9514421875
vt 0.202975 0.9686
vt 0.1485875 1
vt 0.2639421875 0.6328125
vt 0.3141828125 0.6328125
vt 0.2890625 0.7265625
vt 0.58188125 0.53125
vt 0.58188125 0.5
vt 0.64468125 0.5
vt 0.64468125 0.53125
vt 0.2522234375 0.9140625
vt 0.3024640625 0.9140625
vt 0.30874375 0.9375
vt 0.24594375 0.9375
vt 0.2204328125 0.6579328125
vt 0.2639421875 0.6328125
vt 0.2890625 0.7265625
vt 0.64468125 0.53125
vt 0.64468125 0.5
vt 0.70748125 0.5
vt 0.70748125 0.53125
vt 0.0485578125 0.9514421875
vt 0.0920671875 0.9765625
vt 0.0857875 1
vt 0.0314 0.9686
vt 0.1953125 0.7014421875
vt 0.2204328125 0.6579328125
vt 0.2890625 0.7265625
vt 0.51908125 0.6015625
vt 0.51908125 0.5703125
vt 0.58188125 0.5703125
vt 0.58188125 0.6015625
vt 0.22097375 0.9453125
vt 0.2712140625 0.9453125
vt 0.27749421875 0.96875
vt 0.21469328125 0.96875
vt 0.1953125 0.7516828125
vt 0.1953125 0.7014421875
vt 0.2890625 0.7265625
vt 0.58188125 0.6015625
vt 0.58188125 0.5703125
vt 0.64468125 0.5703125
vt 0.64468125 0.6015625
vt 0.0234375 0.8576921875
vt 0.0234375 0.9079328125
vt 0 0.9142125
vt 0 0.8514125
vt 0.2204328125 0.7951921875
vt 0.1953125 0.7516828125
vt 0.2890625 0.7265625
vt 0.64468125 0.6015625
vt 0.64468125 0.5703125
vt 0.70748125 0.5703125
vt 0.70748125 0.6015625
vt 0.0234375 0.779416640625
vt 0.0234375 0.82965703125
vt 0 0.8359375
vt 0 0.7731365625
vt 0.2639421875 0.8203125
vt 0.2204328125 0.7951921875
vt 0.2890625 0.7265625
vt 0.51908125 0.671875
vt 0.51908125 0.640625
vt 0.58188125 0.640625
vt 0.58188125 0.671875
vt 0.0920671875 0.7890625
vt 0.0485578125 0.8141828125
vt 0.0314 0.797025
vt 0.0857875 0.765625
vt 0.3141828125 0.8203125
vt 0.2639421875 0.8203125
vt 0.2890625 0.7265625
vt 0.58188125 0.671875
vt 0.58188125 0.640625
vt 0.64468125 0.640625
vt 0.64468125 0.671875
vt 0.3024640625 0.90625
vt 0.2522234375 0.90625
vt 0.24594375 0.8828125
vt 0.30874375 0.8828125
vt 0.4860578125 0.78125
vt 0.4860578125 1
vt 0.4358171875 1
vt 0.4358171875 0.78125
vt 0.6657453125 0.95324640625
vt 0.672025 0.99230890625
vt 0.609225 0.99230890625
vt 0.6155046875 0.95324640625
vt 0.4358171875 0.78125
vt 0.4358171875 1
vt 0.3855765625 1
vt 0.3855765625 0.78125
vt 0.6155046875 0.95324640625
vt 0.609225 0.99230890625
vt 0.54958921875 0.972626171875
vt 0.56779546875 0.9375
vt 0.1534859375 0.5390625
vt 0.1534859375 0.7578125
vt 0.1032453125 0.7578125
vt 0.1032453125 0.5390625
vt 0.71345453125 0.875
vt 0.73166078125 0.910126171875
vt 0.672025 0.92980890625
vt 0.6657453125 0.89074640625
vt 0.1032453125 0.5390625
vt 0.1032453125 0.7578125
vt 0.0530046875 0.7578125
vt 0.0530046875 0.5390625
vt 0.6657453125 0.89074640625
vt 0.672025 0.92980890625
vt 0.609225 0.92980890625
vt 0.6155046875 0.89074640625
vt 0.0530046875 0.5390625
vt 0.0530046875 0.7578125
vt 0.0027640625 0.7578125
vt 0.0027640625 0.5390625
vt 0.6155046875 0.89074640625
vt 0.609225 0.92980890625
vt 0.54958921875 0.910126171875
vt 0.56779546875 0.875
vt 0.5050484375 0.421875
vt 0.5050484375 0.640625
vt 0.4548078125 0.640625
vt 0.4548078125 0.421875
vt 0.68220453125 0.4296875
vt 0.70041078125 0.464813671875
vt 0.640775 0.48449640625
vt 0.6344953125 0.44543390625
vt 0.4548078125 0.421875
vt 0.4548078125 0.640625
vt 0.4045671875 0.640625
vt 0.4045671875 0.421875
vt 0.6344953125 0.44543390625
vt 0.640775 0.48449640625
vt 0.577975 0.48449640625
vt 0.5842546875 0.44543390625
vt 0.4045671875 0.421875
vt 0.4045671875 0.640625
vt 0.3543265625 0.640625
vt 0.3543265625 0.421875
vt 0.5842546875 0.44543390625
vt 0.577975 0.48449640625
vt 0.51833921875 0.464813671875
vt 0.53654546875 0.4296875
vt 0.3175484375 0.40625
vt 0.3175484375 0.625
vt 0.2673078125 0.625
vt 0.2673078125 0.40625
vt 0.71345453125 0.8125
vt 0.73166078125 0.847626171875
vt 0.672025 0.86730890625
vt 0.6657453125 0.82824640625
vt 0.2673078125 0.40625
vt 0.2673078125 0.625
vt 0.2170671875 0.625
vt 0.2170671875 0.40625
vt 0.6657453125 0.82824640625
vt 0.672025 0.86730890625
vt 0.609225 0.86730890625
vt 0.6155046875 0.82824640625
vt 0.2170671875 0.40625
vt 0.2170671875 0.625
vt 0.1668265625 0.625
vt 0.1668265625 0.40625
vt 0.6155046875 0.82824640625
vt 0.609225 0.86730890625
vt 0.54958921875 0.847626171875
vt 0.56779546875 0.8125
vt 0.5362984375 0.78125
vt 0.5362984375 1
vt 0.4860578125 1
vt 0.4860578125 0.78125
vt 0.71345453125 0.9375
vt 0.73166078125 0.972626171875
vt 0.672025 0.99230890625
vt 0.6657453125 0.95324640625
vt 0.2109375 0.8576921875
vt 0.1171875 0.8828125
vt 0.1858171875 0.8141828125
vt 0.1858171875 0.8141828125
vt 0.1171875 0.8828125
vt 0.1423078125 0.7890625
vt 0.1423078125 0.7890625
vt 0.1171875 0.8828125
vt 0.0920671875 0.7890625
vt 0.0920671875 0.7890625
vt 0.1171875 0.8828125
vt 0.0485578125 0.8141828125
vt 0.0485578125 0.8141828125
vt 0.1171875 0.8828125
vt 0.0234375 0.8576921875
vt 0.0234375 0.8576921875
vt 0.1171875 0.8828125
vt 0.0234375 0.9079328125
vt 0.0234375 0.9079328125
vt 0.1171875 0.8828125
vt 0.0485578125 0.9514421875
vt 0.0485578125 0.9514421875
vt 0.1171875 0.8828125
vt 0.0920671875 0.9765625
vt 0.0920671875 0.9765625
vt 0.1171875 0.8828125
vt 0.1423078125 0.9765625
vt 0.1423078125 0.9765625
vt 0.1171875 0.8828125
vt 0.1858171875 0.9514421875
vt 0.1858171875 0.9514421875
vt 0.1171875 0.8828125
vt 0.2109375 0.9079328125
vt 0.2109375 0.9079328125
vt 0.1171875 0.8828125
vt 0.2109375 0.8576921875
vt 0.4296875 0.6796875
vt 0.3828125 0.6796875
vt 0.3828125 0.6484375
vt 0.4296875 0.6484375
vt 0.0546875 0.53125
vt 0.03125 0.53125
vt 0.03125 0.5
vt 0.0546875 0.5
vt 0.45688125 0.7734375
vt 0.39408125 0.7734375
vt 0.39408125 0.7421875
vt 0.45688125 0.7421875
vt 0.375 0.84375
vt 0.3515625 0.84375
vt 0.3515625 0.8125
vt 0.375 0.8125
vt 0.2890625 0.875
vt 0.2421875 0.875
vt 0.2421875 0.84375
vt 0.2890625 0.84375
vt 0.1875 0.6796875
vt 0.1640625 0.6796875
vt 0.1640625 0.6484375
vt 0.1875 0.6484375
vt 0.64468125 0.703125
vt 0.58188125 0.703125
vt 0.58188125 0.671875
vt 0.64468125 0.671875
vt 0.1875 0.71875
vt 0.1640625 0.71875
vt 0.1640625 0.6875
vt 0.1875 0.6875
vt 0.34375 0.875
vt 0.296875 0.875
vt 0.296875 0.84375
vt 0.34375 0.84375
vt 0.375 0.8828125
vt 0.3515625 0.8828125
vt 0.3515625 0.8515625
vt 0.375 0.8515625
vt 0.70748125 0.6328125
vt 0.64468125 0.6328125
vt 0.64468125 0.6015625
vt 0.70748125 0.6015625
vt 0.0859375 0.53125
vt 0.0625 0.53125
vt 0.0625 0.5
vt 0.0859375 0.5
vt 0.3671875 0.9609375
vt 0.3203125 0.9609375
vt 0.3203125 0.9296875
vt 0.3671875 0.9296875
vt 0.1171875 0.53125
vt 0.09375 0.53125
vt 0.09375 0.5
vt 0.1171875 0.5
vt 0.58188125 0.6328125
vt 0.51908125 0.6328125
vt 0.51908125 0.6015625
vt 0.58188125 0.6015625
vt 0.4609375 0.703125
vt 0.4375 0.703125
vt 0.4375 0.671875
vt 0.4609375 0.671875
vt 0.3359375 1
vt 0.2890625 1
vt 0.2890625 0.96875
vt 0.3359375 0.96875
vt 0.3671875 1
vt 0.34375 1
vt 0.34375 0.96875
vt 0.3671875 0.96875
vt 0.64468125 0.5625
vt 0.58188125 0.5625
vt 0.58188125 0.53125
vt 0.64468125 0.53125
vt 0.1875 0.7578125
vt 0.1640625 0.7578125
vt 0.1640625 0.7265625
vt 0.1875 0.7265625
vt 0.3671875 0.921875
vt 0.3203125 0.921875
vt 0.3203125 0.890625
vt 0.3671875 0.890625
vt 0.0234375 0.53125
vt 0 0.53125
vt 0 0.5
vt 0.0234375 0.5
vt 0.58248125 0.7734375
vt 0.51968125 0.7734375
vt 0.51968125 0.7421875
vt 0.58248125 0.7421875
vt 0.1484375 0.53125
vt 0.125 0.53125
vt 0.125 0.5
vt 0.1484375 0.5
vn 0 -1 0
vn 0.5000004248969577 0 0.866025158469927
vn 0 1 0
vn 0 -1 0
vn 0.866025158469927 0 0.5000004248969577
vn 0 1 0
vn 0 -1 0
vn 1 0 0
vn 0 1 0
vn 0 -1 0
vn 0.866025158469927 0 -0.5000004248969577
vn 0 1 0
vn 0 -1 0
vn 0.5000004248969577 0 -0.866025158469927
vn 0 1 0
vn 0 -1 0
vn 0 0 -1
vn 0 1 0
vn 0 -1 0
vn -0.5000004248969577 0 -0.866025158469927
vn 0 1 0
vn 0 -1 0
vn -0.866025158469927 0 -0.5000004248969577
vn 0 1 0
vn 0 -1 0
vn -1 0 0
vn 0 1 0
vn 0 -1 0
vn -0.866025158469927 0 0.5000004248969577
vn 0 1 0
vn 0 -1 0
vn -0.5000004248969577 0 0.866025158469927
vn 0 1 0
vn 0 -1 0
vn 0 0 1
vn 0 1 0
vn 0 0 -1
vn 0 -0.6 -0.8
vn 0.4999999223061399 0 -0.8660254486410051
vn 0.4000003007032997 -0.6000001045712742 -0.6928200588549165
vn 0.8660254486410051 0 -0.4999999223061399
vn 0.6928203691318154 -0.5999996268684357 -0.4000004798419538
vn 1 0 0
vn 0.8 -0.6 0
vn 0.8660254486410051 0 0.4999999223061399
vn 0.6928200588549165 -0.6000001045712742 0.4000003007032997
vn 0.4999999223061399 0 0.8660254486410051
vn 0.4000004798419537 -0.5999996268684356 0.6928203691318153
vn 0 0 1
vn 0 -0.6 0.8
vn -0.4999999223061399 0 0.8660254486410051
vn -0.4000003007032997 -0.6000001045712742 0.6928200588549165
vn -0.8660254486410051 0 0.4999999223061399
vn -0.6928203691318154 -0.5999996268684357 0.4000004798419538
vn -1 0 0
vn -0.8 -0.6 0
vn -0.8660254486410051 0 -0.4999999223061399
vn -0.6928200588549165 -0.6000001045712742 -0.4000003007032997
vn -0.4999999223061399 0 -0.8660254486410051
vn -0.4000004798419537 -0.5999996268684356 -0.6928203691318153
vn 0 1 0
vn 0 1 0
vn 0 1 0
vn 0 1 0
vn 0 1 0
vn 0 1 0
vn 0 1 0
vn 0 1 0
vn 0 1 0
vn 0 1 0
vn 0 1 0
vn 0 1 0
vn -0.8660254486410052 0 -0.49999992230614
vn -0.7071067811865476 0 0.7071067811865476
vn 0.866025158469927 0 0.5000004248969577
vn 0.258819772900384 0 -0.9659256312759249
vn 0 0 -1
vn -0.9659256312759249 0 -0.258819772900384
vn 0 0 1
vn 0.9659256312759249 0 -0.258819772900384
vn 0.8660254486410052 0 -0.49999992230614
vn -0.258819772900384 0 -0.9659256312759249
vn -0.866025158469927 0 0.5000004248969577
vn 0.7071067811865476 0 0.7071067811865476
vn 0.8660254486410052 0 0.49999992230614
vn 0.7071067811865476 0 -0.7071067811865476
vn -0.866025158469927 0 -0.5000004248969577
vn -0.258819772900384 0 0.9659256312759249
vn 0 0 1
vn 0.9659256312759249 0 0.258819772900384
vn 0 0 -1
vn -0.9659256312759249 0 0.258819772900384
vn -0.8660254486410052 0 0.49999992230614
vn 0.258819772900384 0 0.9659256312759249
vn 0.866025158469927 0 -0.5000004248969577
vn -0.7071067811865476 0 -0.7071067811865476
usemtl m_203d39a2-7c46-bc4b-649c-666e7be75d17
f 5/1/1 3/2/1 1/3/1
f 4/4/2 40/5/2 38/6/2 6/7/2
f 52/8/3 53/9/3 4/10/3 6/11/3
f 7/12/4 5/13/4 1/14/4
f 6/15/5 38/16/5 36/17/5 8/18/5
f 63/19/6 65/20/6 64/21/6 66/22/6
f 9/23/7 7/24/7 1/25/7
f 8/26/8 36/27/8 34/28/8 10/29/8
f 62/30/9 51/31/9 8/32/9 10/33/9
f 11/34/10 9/35/10 1/36/10
f 10/37/11 34/38/11 32/39/11 12/40/11
f 83/41/12 85/42/12 84/43/12 86/44/12
f 13/45/13 11/46/13 1/47/13
f 12/48/14 32/49/14 30/50/14 14/51/14
f 60/52/15 61/53/15 12/54/15 14/55/15
f 15/56/16 13/57/16 1/58/16
f 14/59/17 30/60/17 29/61/17 16/62/17
f 79/63/18 81/64/18 80/65/18 82/66/18
f 17/67/19 15/68/19 1/69/19
f 16/70/20 29/71/20 50/72/20 18/73/20
f 58/74/21 59/75/21 16/76/21 18/77/21
f 19/78/22 17/79/22 1/80/22
f 18/81/23 50/82/23 48/83/23 20/84/23
f 75/85/24 77/86/24 76/87/24 78/88/24
f 21/89/25 19/90/25 1/91/25
f 20/92/26 48/93/26 46/94/26 22/95/26
f 56/96/27 57/97/27 20/98/27 22/99/27
f 23/100/28 21/101/28 1/102/28
f 22/103/29 46/104/29 44/105/29 24/106/29
f 71/107/30 73/108/30 72/109/30 74/110/30
f 25/111/31 23/112/31 1/113/31
f 24/114/32 44/115/32 42/116/32 26/117/32
f 54/118/33 55/119/33 24/120/33 26/121/33
f 3/122/34 25/123/34 1/124/34
f 26/125/35 42/126/35 40/127/35 4/128/35
f 67/129/36 69/130/36 68/131/36 70/132/36
f 15/133/37 27/134/37 28/135/37 13/136/37
f 27/137/38 29/138/38 30/139/38 28/140/38
f 13/141/39 28/142/39 31/143/39 11/144/39
f 28/145/40 30/146/40 32/147/40 31/148/40
f 11/149/41 31/150/41 33/151/41 9/152/41
f 31/153/42 32/154/42 34/155/42 33/156/42
f 9/157/43 33/158/43 35/159/43 7/160/43
f 33/161/44 34/162/44 36/163/44 35/164/44
f 7/165/45 35/166/45 37/167/45 5/168/45
f 35/169/46 36/170/46 38/171/46 37/172/46
f 5/173/47 37/174/47 39/175/47 3/176/47
f 37/177/48 38/178/48 40/179/48 39/180/48
f 3/181/49 39/182/49 41/183/49 25/184/49
f 39/185/50 40/186/50 42/187/50 41/188/50
f 25/189/51 41/190/51 43/191/51 23/192/51
f 41/193/52 42/194/52 44/195/52 43/196/52
f 23/197/53 43/198/53 45/199/53 21/200/53
f 43/201/54 44/202/54 46/203/54 45/204/54
f 21/205/55 45/206/55 47/207/55 19/208/55
f 45/209/56 46/210/56 48/211/56 47/212/56
f 19/213/57 47/214/57 49/215/57 17/216/57
f 47/217/58 48/218/58 50/219/58 49/220/58
f 17/221/59 49/222/59 27/223/59 15/224/59
f 49/225/60 50/226/60 29/227/60 27/228/60
f 51/229/61 2/230/61 52/231/61
f 52/232/62 2/233/62 53/234/62
f 53/235/63 2/236/63 54/237/63
f 54/238/64 2/239/64 55/240/64
f 55/241/65 2/242/65 56/243/65
f 56/244/66 2/245/66 57/246/66
f 57/247/67 2/248/67 58/249/67
f 58/250/68 2/251/68 59/252/68
f 59/253/69 2/254/69 60/255/69
f 60/256/70 2/257/70 61/258/70
f 61/259/71 2/260/71 62/261/71
f 62/262/72 2/263/72 51/264/72
f 65/265/73 63/266/73 51/267/73 52/268/73
f 64/269/74 65/270/74 52/271/74 6/272/74
f 66/273/75 64/274/75 6/275/75 8/276/75
f 63/277/76 66/278/76 8/279/76 51/280/76
f 69/281/77 67/282/77 53/283/77 54/284/77
f 68/285/78 69/286/78 54/287/78 26/288/78
f 70/289/79 68/290/79 26/291/79 4/292/79
f 67/293/80 70/294/80 4/295/80 53/296/80
f 73/297/81 71/298/81 55/299/81 56/300/81
f 72/301/82 73/302/82 56/303/82 22/304/82
f 74/305/83 72/306/83 22/307/83 24/308/83
f 71/309/84 74/310/84 24/311/84 55/312/84
f 77/313/85 75/314/85 57/315/85 58/316/85
f 76/317/86 77/318/86 58/319/86 18/320/86
f 78/321/87 76/322/87 18/323/87 20/324/87
f 75/325/88 78/326/88 20/327/88 57/328/88
f 81/329/89 79/330/89 59/331/89 60/332/89
f 80/333/90 81/334/90 60/335/90 14/336/90
f 82/337/91 80/338/91 14/339/91 16/340/91
f 79/341/92 82/342/92 16/343/92 59/344/92
f 85/345/93 83/346/93 61/347/93 62/348/93
f 84/349/94 85/350/94 62/351/94 10/352/94
f 86/353/95 84/354/95 10/355/95 12/356/95
f 83/357/96 86/358/96 12/359/96 61/360/96