# Made in Blockbench 5.1.4
mtllib Barco.mtl

o casco
v -2.220446049250313e-16 6.245004513516506e-17 -1.5
v 0.4999999999999999 0 -0.9375000000000001
v -0.5000000000000002 1.249000902703301e-16 -0.9375
v -0.5 1.249000902703301e-16 -0.49999999999999994
v 0 -0.4999999999999999 0.5
v 1.6653345369377348e-16 6.245004513516506e-17 1.5
v -2.220446049250313e-16 -0.4999999999999999 -0.5
v -0.4999999999999999 1.249000902703301e-16 0.9375
v -0.4999999999999999 1.249000902703301e-16 0.5
v 0.5000000000000001 0 0.9374999999999999
v 0.5 0 0.49999999999999994
v 0.49999999999999994 0 -0.5000000000000001
v -2.220446049250313e-16 0.12500000000000006 -1.5
v -0.5000000000000002 0.1250000000000001 -0.9375
v 0.4999999999999999 0.125 -0.9375000000000001
v -0.5 0.1250000000000001 -0.49999999999999994
v 0.49999999999999994 0.125 -0.5000000000000001
v -0.4999999999999999 0.1250000000000001 0.5
v 0.5000000000000001 0.125 0.49999999999999994
v -0.4999999999999999 0.1250000000000001 0.9375
v 0.5000000000000001 0.125 0.9374999999999999
v 1.6653345369377348e-16 0.12500000000000006 1.5
v -0.5292100000000002 0.1250000000000001 -0.948605625
v -2.220446049250313e-16 0.12500000000000006 -1.53125
v -2.220446049250313e-16 6.245004513516506e-17 -1.53125
v -0.5292100000000002 1.249000902703301e-16 -0.948605625
v 0.5292099999999998 0.125 -0.9486056250000001
v 0.5292099999999998 0 -0.9486056250000001
v -0.53125 0.1250000000000001 -0.49999999999999994
v -0.53125 1.249000902703301e-16 -0.49999999999999994
v 0.53125 0.125 -0.5000000000000001
v 0.5312499999999999 0 -0.5000000000000001
v -0.53125 0.1250000000000001 0.5
v -0.53125 1.249000902703301e-16 0.5
v 0.5312500000000001 0.125 0.49999999999999994
v 0.53125 0 0.49999999999999994
v -0.5292099999999997 0.1250000000000001 0.948605625
v -0.5292099999999997 1.249000902703301e-16 0.948605625
v 0.5292100000000001 0.125 0.9486056249999999
v 0.5292100000000001 0 0.9486056249999999
v 1.6653345369377348e-16 0.12500000000000006 1.53125
v 1.6653345369377348e-16 6.245004513516506e-17 1.53125
v -0.5 0.1250000000000001 -0.16666687499999994
v 0.5 0.125 -0.16666687500000005
v -0.5 0.1250000000000001 0.16666687500000005
v 0.5 0.125 0.16666687499999994
v 0.53125 0.125 -0.16666687500000005
v 0.53125 0.125 0.16666687499999994
v 0.53125 0 -0.16666687500000005
v 0.53125 0 0.16666687499999994
v 0.49999999999999994 0 -0.16666687500000005
v 0.5 0 0.16666687499999994
v -1.1102230246251565e-16 -0.4999999999999999 -0.166666875
v -1.1102230246251565e-16 -0.4999999999999999 0.166666875
v -0.5 1.249000902703301e-16 -0.16666687499999994
v -0.5 1.249000902703301e-16 0.16666687500000005
v -0.53125 1.249000902703301e-16 -0.1666668749999999
v -0.53125 1.249000902703301e-16 0.16666687500000008
v -0.53125 0.1250000000000001 -0.1666668749999999
v -0.53125 0.1250000000000001 0.16666687500000008
v 0.5000000000000001 0.0625 0.49999999999999994
v -0.5 0.06250000000000012 0.16666687500000005
v 0.5 0.0625 0.16666687499999994
v -0.4999999999999999 0.06250000000000012 0.5
v -0.4999999999999999 0.06250000000000012 0.9375
v 0.5000000000000001 0.0625 0.9374999999999999
v -0.5 0.06250000000000012 -0.49999999999999994
v -0.5 0.06250000000000012 -0.16666687499999994
v 0.5 0.0625 -0.16666687500000005
v 0.49999999999999994 0.0625 -0.5000000000000001
v -0.5000000000000002 0.06250000000000012 -0.9375
v 0.4999999999999999 0.0625 -0.9375000000000001
v -1.1102230246251565e-16 -0.24999999999999994 -1.125
v -0.3750000000000001 -0.2499999999999999 -0.755306875
v -0.3750000000000001 -0.2499999999999999 -0.49999999999999994
v 1.1102230246251565e-16 -0.24999999999999994 0.9999999999999999
v -0.3749999999999999 -0.2499999999999999 0.78054
v -0.3749999999999999 -0.2499999999999999 0.5
v 0.37500000000000006 -0.25 0.7417068749999999
v 0.375 -0.25 0.49999999999999994
v 0.3749999999999999 -0.25 -0.7645550000000001
v 0.3749999999999999 -0.25 -0.5000000000000001
v 0.375 -0.25 0.16666687499999996
v -0.375 -0.2499999999999999 0.16666687500000005
v 0.37499999999999994 -0.25 -0.16666687500000002
v -0.375 -0.2499999999999999 -0.16666687499999994
v -2.220446049250313e-16 0.09375000000000006 -1.5
v -0.5000000000000002 0.09375000000000012 -0.9375
v 0.4999999999999999 0.09375 -0.9375000000000001
v -0.4999999999999999 0.09375000000000012 0.9375
v 1.6653345369377348e-16 0.09375000000000006 1.5
v 0.5000000000000001 0.09375 0.9374999999999999
vt 0.332031484375 0.812499765625
vt 0.261718515625 0.750000078125
vt 0.332031484375 0.6875
vt 0.488281328125 0.609375
vt 0.363281328125 0.609375
vt 0.363281328125 0.5546875
vt 0.488281328125 0.5546875
vt 0.488281328125 0.609375
vt 0.488281171875 0.651041328125
vt 0.363281171875 0.651041328125
vt 0.363281328125 0.609375
vt 0.363281328125 0.5546875
vt 0.488281328125 0.5546875
vt 0.488281328125 0.609375
vt 0.363281328125 0.609375
vt 0.453125 1
vt 0.390625 0.9296875
vt 0.515625 0.9296875
vt 0.4765625 0.6953125
vt 0.578125 0.6953125
vt 0.578125 0.7109375
vt 0.4765625 0.7109375
vt 0.4765625 0.671875
vt 0.578125 0.671875
vt 0.578125 0.6875
vt 0.4765625 0.6875
vt 0.58203125 0.90625
vt 0.6381078125 0.90625
vt 0.6381078125 0.921875
vt 0.58203125 0.921875
vt 0.4790796875 0.765625
vt 0.53515625 0.765625
vt 0.53515625 0.78125
vt 0.4790796875 0.78125
vt 0.45703125 0.90625
vt 0.49869765625 0.90625
vt 0.49869765625 0.921875
vt 0.45703125 0.921875
vt 0.66015625 0.78125
vt 0.61848984375 0.78125
vt 0.61848984375 0.765625
vt 0.66015625 0.765625
vt 0.4009546875 0.90625
vt 0.45703125 0.90625
vt 0.45703125 0.921875
vt 0.4009546875 0.921875
vt 0.66015625 0.765625
vt 0.7162328125 0.765625
vt 0.7162328125 0.78125
vt 0.66015625 0.78125
vt 0.484375 0.984375
vt 0.5859375 0.984375
vt 0.5859375 1
vt 0.484375 1
vt 0 0.4921875
vt 0.1015625 0.4921875
vt 0.1015625 0.5078125
vt 0 0.5078125
vt 0.345352890625 0.8422010156249999
vt 0.257640390625 0.797628046875
vt 0.26056046875 0.795033359375
vt 0.34396515625 0.838549765625
vt 0.12517265625 0.955440078125
vt 0.037453125 1
vt 0.038841484375 0.996348828125
vt 0.122253046875 0.952844765625
vt 0.38130703125 0.7506174999999999
vt 0.345352890625 0.8422010156249999
vt 0.343965 0.838549375
vt 0.37740078125 0.7506174999999999
vt 0.037453125 1
vt 0.001503125 0.90841484375
vt 0.005409375 0.90841484375
vt 0.03884140625 0.99634921875
vt 0.257640390625 0.797628046875
vt 0.23748546875 0.7452988281249999
vt 0.241137265625 0.74391109375
vt 0.260560859375 0.79503296875
vt 0.14534 0.903115625
vt 0.12517265625 0.955440078125
vt 0.122253359375 0.952845078125
vt 0.141688359375 0.901727734375
vt 0.3616171875 0.69811203125
vt 0.38130703125 0.7506174999999999
vt 0.37740078125 0.7506174999999999
vt 0.357965625 0.6995003125
vt 0.001503125 0.90841484375
vt 0.021190703125 0.855908359375
vt 0.024842421875 0.8572961718750001
vt 0.005409296875 0.90841484375
vt 0.196712890625 0.627059140625
vt 0.211514609375 0.666008046875
vt 0.207863203125 0.66739546875
vt 0.193061484375 0.628446484375
vt 0.189756171875 0.786273125
vt 0.17495078125 0.825220625
vt 0.17129953125 0.823832890625
vt 0.186104921875 0.784885390625
vt 0.31721 0.5812659375
vt 0.332011796875 0.620215
vt 0.3283609375 0.6216021875
vt 0.313558359375 0.58265390625
vt 0.06922328125 0.740439453125
vt 0.054434609375 0.77939328125
vt 0.050783046875 0.778006875
vt 0.0655709375 0.7390530468750001
vt 0.193061328125 0.6284465625
vt 0.17338046875 0.5759378125
vt 0.1772865625 0.57593828125
vt 0.196712890625 0.627059140625
vt 0.209434375 0.733763046875
vt 0.189756171875 0.786273125
vt 0.18610421875 0.784885078125
vt 0.205528125 0.7337633593749999
vt 0.29705125 0.528937890625
vt 0.31721 0.5812659375
vt 0.313558984375 0.582653671875
vt 0.294131640625 0.53153328125
vt 0.06557109375 0.739053125
vt 0.085703125 0.6867153125000001
vt 0.088624453125 0.6893084375
vt 0.06922328125 0.740439453125
vt 0.173391953125 0.575964453125
vt 0.209332890625 0.484375
vt 0.2107215625 0.48802648437499996
vt 0.17729859375 0.575963515625
vt 0.1734703125 0.6421831250000001
vt 0.209434375 0.733763046875
vt 0.205528671875 0.7337633593749999
vt 0.172083515625 0.6458340625
vt 0.209332890625 0.484375
vt 0.29705125 0.528937890625
vt 0.29413171875 0.531533203125
vt 0.2107215625 0.48802648437499996
vt 0.085703125 0.6867153125000001
vt 0.173383359375 0.64207765625
vt 0.171998046875 0.6457303125
vt 0.088624765625 0.689308671875
vt 0.488281328125 0.609375
vt 0.488281171875 0.651041328125
vt 0.363281171875 0.651041328125
vt 0.363281328125 0.609375
vt 0.7057296875 0.7109375
vt 0.6640628125 0.7109375
vt 0.6640625 0.5859377343750001
vt 0.7057296875 0.5859370312500001
vt 0.35796546875 0.699500390625
vt 0.34316359375 0.6605517187500001
vt 0.34681453125 0.6591633593749999
vt 0.3616171875 0.69811203125
vt 0.34316359375 0.6605517187500001
vt 0.3283609375 0.6216021875
vt 0.33201265625 0.6202146875
vt 0.34681453125 0.6591633593749999
vt 0.53515625 0.765625
vt 0.57682265625 0.765625
vt 0.57682265625 0.78125
vt 0.53515625 0.78125
vt 0.57682265625 0.765625
vt 0.61848984375 0.765625
vt 0.61848984375 0.78125
vt 0.57682265625 0.78125
vt 0.021190703125 0.855908359375
vt 0.03599140625 0.816959453125
vt 0.039643359375 0.81834703125
vt 0.024841875 0.857296015625
vt 0.03599140625 0.816959453125
vt 0.050783046875 0.778006875
vt 0.054435078125 0.7793934375
vt 0.039642734375 0.818346796875
vt 0.14168875 0.901727890625
vt 0.156494140625 0.862780390625
vt 0.160145390625 0.864168125
vt 0.14534 0.903115625
vt 0.156494140625 0.862780390625
vt 0.17129953125 0.823832890625
vt 0.17495078125 0.825220625
vt 0.160145390625 0.864168125
vt 0.58203125 0.921875
vt 0.54036484375 0.921875
vt 0.54036484375 0.90625
vt 0.58203125 0.90625
vt 0.54036484375 0.921875
vt 0.49869765625 0.921875
vt 0.49869765625 0.90625
vt 0.54036484375 0.90625
vt 0.23748546875 0.7452988281249999
vt 0.2226821875 0.70635046875
vt 0.226333515625 0.70496296875
vt 0.241136796875 0.74391125
vt 0.222664921875 0.706344375
vt 0.207863203125 0.66739546875
vt 0.211514609375 0.666008046875
vt 0.226316328125 0.704956953125
vt 0.177083203125 1
vt 0.135416796875 1
vt 0.135416796875 0.9921875
vt 0.177083203125 0.9921875
vt 0.625 0.9765625
vt 0.5 0.9765625
vt 0.5 0.96875
vt 0.625 0.96875
vt 0.544270703125 0.6015625
vt 0.502604296875 0.6015625
vt 0.502604296875 0.59375
vt 0.544270703125 0.59375
vt 0.598958203125 0.6015625
vt 0.544270703125 0.6015625
vt 0.544270703125 0.59375
vt 0.598958203125 0.59375
vt 0.135416796875 1
vt 0.080729296875 1
vt 0.080729296875 0.9921875
vt 0.135416796875 0.9921875
vt 0.598958203125 0.6171875
vt 0.557291796875 0.6171875
vt 0.557291796875 0.609375
vt 0.598958203125 0.609375
vt 0.625 0.6640625
vt 0.5 0.6640625
vt 0.5 0.65625
vt 0.625 0.65625
vt 0.317708203125 0.8671875
vt 0.276041796875 0.8671875
vt 0.276041796875 0.859375
vt 0.317708203125 0.859375
vt 0.557291796875 0.6171875
vt 0.502604296875 0.6171875
vt 0.502604296875 0.609375
vt 0.557291796875 0.609375
vt 0.372395703125 0.8671875
vt 0.317708203125 0.8671875
vt 0.317708203125 0.859375
vt 0.372395703125 0.859375
vt 0.1534203125 0.17302421874999996
vt 0.12051171875 0.21875
vt 0.0546875 0.21875
vt 0.05954921875 0.17754531250000005
vt 0.32671125 0.20272765625
vt 0.334573828125 0.11895250000000002
vt 0.380420625 0.16467335937500005
vt 0.6171875 0.51193671875
vt 0.671875 0.51193671875
vt 0.64910078125 0.546875
vt 0.6171875 0.546875
vt 0.36785078125 0.94366328125
vt 0.3359375 1
vt 0.3359375 0.94366328125
vt 0.352124140625 0.33437296875
vt 0.38340015625 0.27188609374999995
vt 0.41574765625 0.315515078125
vt 0.26556796875 0.15625
vt 0.21125546875 0.15625
vt 0.1796875 0.09391015624999999
vt 0.26914296875 0.11910390625
vt 0.4571203125 0.546875
vt 0.4375 0.51193671875
vt 0.4921875 0.51193671875
vt 0.4921875 0.546875
vt 0.2147546875 0.94366328125
vt 0.2147546875 1
vt 0.1796875 0.94366328125
vt 0.0547859375 0.09646953125000002
vt 0.1488609375 0.09646953125000002
vt 0.1021484375 0.1484375
vt 0.046875 0.13758359374999996
vt 0.35215015625 0.27188609374999995
vt 0.320874140625 0.33437296875
vt 0.29536390625 0.27575625000000004
vt 0.625 0.42434921875
vt 0.6796875 0.42434921875
vt 0.65521328125 0.45928828125
vt 0.625 0.45928828125
vt 0.36615078125 0.94366328125
vt 0.3359375 1
vt 0.3359375 0.94366328125
vt 0.45787109375 0.78125
vt 0.40373203125 0.71683671875
vt 0.46875 0.71683671875
vt 0.27718828125 0.21875
vt 0.2121703125 0.21875
vt 0.1796875 0.17272109375
vt 0.273471875 0.17814062500000005
vt 0.46693046875 0.45928828125
vt 0.4453125 0.42434921875
vt 0.5 0.42434921875
vt 0.5 0.45928828125
vt 0.2109375 0.94366328125
vt 0.2109375 1
vt 0.17786796875 0.94366328125
vt 0.3359375 0.94366328125
vt 0.3359375 1
vt 0.29427109375 1
vt 0.29427109375 0.94366328125
vt 0.58333359375 0.45928828125
vt 0.58333359375 0.42434921875
vt 0.625 0.42434921875
vt 0.625 0.45928828125
vt 0.4921875 0.546875
vt 0.4921875 0.51193671875
vt 0.53385390625 0.51193671875
vt 0.53385390625 0.546875
vt 0.3359375 0.94366328125
vt 0.3359375 1
vt 0.29427109375 1
vt 0.29427109375 0.94366328125
vt 0.5 0.42434921875
vt 0.54166640625 0.42434921875
vt 0.54166640625 0.45928828125
vt 0.5 0.45928828125
vt 0.2109375 0.94366328125
vt 0.25260390625 0.94366328125
vt 0.25260390625 1
vt 0.2109375 1
vt 0.54166640625 0.42434921875
vt 0.58333359375 0.42434921875
vt 0.58333359375 0.45928828125
vt 0.54166640625 0.45928828125
vt 0.25260390625 0.94366328125
vt 0.29427109375 0.94366328125
vt 0.29427109375 1
vt 0.25260390625 1
vt 0.25260390625 0.94366328125
vt 0.25260390625 1
vt 0.2109375 1
vt 0.2109375 0.94366328125
vt 0.57552109375 0.546875
vt 0.57552109375 0.51193671875
vt 0.6171875 0.51193671875
vt 0.6171875 0.546875
vt 0.25260390625 1
vt 0.29427109375 1
vt 0.29427109375 0.94366328125
vt 0.25260390625 0.94366328125
vt 0.57552109375 0.546875
vt 0.53385390625 0.546875
vt 0.53385390625 0.51193671875
vt 0.57552109375 0.51193671875
vt 0.6015625 0.8984375
vt 0.5078125 0.8984375
vt 0.5078125 0.890625
vt 0.6015625 0.890625
vt 0.59375 0.5859375
vt 0.5 0.5859375
vt 0.5 0.578125
vt 0.59375 0.578125
vt 0.53125 0.5
vt 0.4375 0.5
vt 0.4375 0.4921875
vt 0.53125 0.4921875
vt 0.59375 0.5703125
vt 0.5 0.5703125
vt 0.5 0.5625
vt 0.59375 0.5625
vt 0.625 0.625
vt 0.625 0.6328125
vt 0.5 0.6328125
vt 0.5 0.625
vt 0.5 0.6484375
vt 0.5 0.640625
vt 0.625 0.640625
vt 0.625 0.6484375
vn 1.2246467991473532e-16 1 -1.4997597826618576e-32
vn 1.2246467991473532e-16 1 -1.4997597826618576e-32
vn 1.2246467991473532e-16 1 -1.4997597826618576e-32
vn 1.2246467991473532e-16 1 -1.4997597826618576e-32
vn 1.2246467991473532e-16 1 -1.4997597826618576e-32
vn -0.7402351289303174 9.065265812609414e-17 -0.6723480898296034
vn 0.7402351289303172 -9.065265812609414e-17 -0.6723480898296036
vn -0.9999896606276929 1.2246341370681521e-16 -0.004547377014455582
vn 0.9999896606276929 -1.2246341370681521e-16 -0.0045473770144557335
vn -1 1.2246467991473532e-16 1.2246467991473532e-16
vn 1 -1.2246467991473532e-16 -1.2246467991473532e-16
vn -0.9999896606276929 1.2246341370681521e-16 0.004547377014455826
vn 0.9999896606276929 -1.2246341370681521e-16 0.004547377014455489
vn -0.7402351289303172 9.065265812609414e-17 0.6723480898296036
vn 0.7402351289303174 -9.065265812609414e-17 0.6723480898296034
vn 1.2246467991473532e-16 1 -1.4997597826618576e-32
vn -1.2246467991473532e-16 -1 1.4997597826618576e-32
vn 1.2246467991473532e-16 1 -1.4997597826618576e-32
vn -1.2246467991473532e-16 -1 1.4997597826618576e-32
vn 1.2246467991473532e-16 1 -1.4997597826618576e-32
vn -1.2246467991473532e-16 -1 1.4997597826618576e-32
vn 1.2246467991473532e-16 1 -1.4997597826618576e-32
vn -1.2246467991473532e-16 -1 1.4997597826618576e-32
vn 1.2246467991473532e-16 1 -1.4997597826618576e-32
vn -1.2246467991473532e-16 -1 1.4997597826618576e-32
vn 1.2246467991473532e-16 1 -1.4997597826618576e-32
vn -1.2246467991473532e-16 -1 1.4997597826618576e-32
vn 1.2246467991473532e-16 1 -1.4997597826618576e-32
vn -1.2246467991473532e-16 -1 1.4997597826618576e-32
vn 1.2246467991473532e-16 1 -1.4997597826618576e-32
vn -1.2246467991473532e-16 -1 1.4997597826618576e-32
vn 1.2246467991473532e-16 1 -1.4997597826618576e-32
vn -1.2246467991473532e-16 -1 1.4997597826618576e-32
vn 1.2246467991473532e-16 1 -1.4997597826618576e-32
vn -1.2246467991473532e-16 -1 1.4997597826618576e-32
vn 1.2246467991473532e-16 1 -1.4997597826618576e-32
vn 1.2246467991473532e-16 1 -1.4997597826618576e-32
vn 1.2246467991473532e-16 1 -1.4997597826618576e-32
vn 1.2246467991473532e-16 1 -1.4997597826618576e-32
vn 1 -1.2246467991473532e-16 -1.2246467991473532e-16
vn 1 -1.2246467991473532e-16 -1.2246467991473532e-16
vn -1.2246467991473532e-16 -1 1.4997597826618576e-32
vn -1.2246467991473532e-16 -1 1.4997597826618576e-32
vn -1.2246467991473532e-16 -1 1.4997597826618576e-32
vn -1.2246467991473532e-16 -1 1.4997597826618576e-32
vn -1 1.2246467991473532e-16 1.2246467991473532e-16
vn -1 1.2246467991473532e-16 1.2246467991473532e-16
vn 1.2246467991473532e-16 1 -1.4997597826618576e-32
vn 1.2246467991473532e-16 1 -1.4997597826618576e-32
vn -1 1.2246467991473532e-16 1.2246467991473532e-16
vn 1.2246467991473532e-16 0 1
vn 1 -1.2246467991473532e-16 -1.2246467991473532e-16
vn 1 -1.2246467991473532e-16 -1.2246467991473532e-16
vn -1 1.2246467991473532e-16 1.2246467991473532e-16
vn 1 -1.2246467991473532e-16 -1.2246467991473532e-16
vn -1.2246467991473532e-16 0 -1
vn -1 1.2246467991473532e-16 1.2246467991473532e-16
vn 1 -1.2246467991473532e-16 -1.2246467991473532e-16
vn -1 1.2246467991473532e-16 1.2246467991473532e-16
vn -0.4797956353764772 -0.7300245166833121 -0.48668301112220813
vn -0.3438144237540671 -0.871874537210931 -0.3487498148843723
vn -0.8944271909999161 -0.4472135954999579 1.0953573965284056e-16
vn -0.5547001962252293 -0.8320502943378436 6.793118197936357e-17
vn -0.2531933167640147 -0.8652829106580286 0.4326414553290144
vn -0.25319331676401463 -0.8652829106580288 0.4326414553290144
vn -0.8944271909999161 -0.4472135954999579 1.0953573965284056e-16
vn -0.5547001962252293 -0.8320502943378436 6.793118197936357e-17
vn 0.4494385524950301 -0.7990018711022759 0.3995009355511379
vn 0.29438285632771105 -0.8547929498540983 0.4273964749270491
vn 0.8944271909999159 -0.44721359549995804 -1.0953573965284051e-16
vn 0.554700196225229 -0.8320502943378439 -6.793118197936355e-17
vn 0.3361968299200139 -0.8744316831971956 -0.34977267327887823
vn 0.4704763188017434 -0.7342116809110427 -0.4894744539406951
vn 0.8944271909999159 -0.44721359549995804 -1.0953573965284051e-16
vn 0.554700196225229 -0.8320502943378438 -6.793118197936355e-17
vn 0.554700196225229 -0.8320502943378437 -6.793118197936355e-17
vn 0.894427190999916 -0.4472135954999581 -1.0953573965284052e-16
vn -0.894427190999916 -0.44721359549995787 1.0953573965284055e-16
vn -0.5547001962252294 -0.8320502943378437 6.793118197936358e-17
vn 0.894427190999916 -0.4472135954999581 -1.0953573965284052e-16
vn 0.554700196225229 -0.8320502943378437 -6.793118197936355e-17
vn 0.8944271909999159 -0.44721359549995804 -1.0953573965284051e-16
vn 0.554700196225229 -0.8320502943378439 -6.793118197936355e-17
vn -0.5547001962252294 -0.8320502943378437 6.793118197936358e-17
vn -0.894427190999916 -0.44721359549995787 1.0953573965284055e-16
vn -0.5547001962252293 -0.8320502943378437 6.793118197936357e-17
vn -0.8944271909999161 -0.4472135954999579 1.0953573965284056e-16
vn 0.7474093186836598 -9.153124297788479e-17 0.6643638388299197
vn -0.7474093186836596 9.153124297788479e-17 0.6643638388299199
vn 0.7474093186836596 -9.153124297788479e-17 -0.6643638388299199
vn -0.7474093186836598 9.153124297788479e-17 -0.6643638388299197
vn -1.2246467991473532e-16 0 -1
vn 1.2246467991473532e-16 0 1
usemtl m_5d9663d1-16d1-2b22-8294-75fc251fb106
f 90/1/1 91/2/1 92/3/1
f 61/4/2 64/5/2 65/6/2 66/7/2
f 61/8/3 63/9/3 62/10/3 64/11/3
f 72/12/4 71/13/4 67/14/4 70/15/4
f 87/16/5 88/17/5 89/18/5
f 23/19/6 24/20/6 25/21/6 26/22/6
f 24/23/7 27/24/7 28/25/7 25/26/7
f 29/27/8 23/28/8 26/29/8 30/30/8
f 27/31/9 31/32/9 32/33/9 28/34/9
f 33/35/10 60/36/10 58/37/10 34/38/10
f 36/39/11 50/40/11 48/41/11 35/42/11
f 37/43/12 33/44/12 34/45/12 38/46/12
f 35/47/13 39/48/13 40/49/13 36/50/13
f 41/51/14 37/52/14 38/53/14 42/54/14
f 39/55/15 41/56/15 42/57/15 40/58/15
f 24/59/16 23/60/16 14/61/16 13/62/16
f 26/63/17 25/64/17 1/65/17 3/66/17
f 27/67/18 24/68/18 13/69/18 15/70/18
f 25/71/19 28/72/19 2/73/19 1/74/19
f 23/75/20 29/76/20 16/77/20 14/78/20
f 30/79/21 26/80/21 3/81/21 4/82/21
f 31/83/22 27/84/22 15/85/22 17/86/22
f 28/87/23 32/88/23 12/89/23 2/90/23
f 18/91/24 45/92/24 60/93/24 33/94/24
f 34/95/25 58/96/25 56/97/25 9/98/25
f 35/99/26 48/100/26 46/101/26 19/102/26
f 11/103/27 52/104/27 50/105/27 36/106/27
f 33/107/28 37/108/28 20/109/28 18/110/28
f 38/111/29 34/112/29 9/113/29 8/114/29
f 39/115/30 35/116/30 19/117/30 21/118/30
f 36/119/31 40/120/31 10/121/31 11/122/31
f 37/123/32 41/124/32 22/125/32 20/126/32
f 42/127/33 38/128/33 8/129/33 6/130/33
f 41/131/34 39/132/34 21/133/34 22/134/34
f 40/135/35 42/136/35 6/137/35 10/138/35
f 67/139/36 68/140/36 69/141/36 70/142/36
f 43/143/37 45/144/37 46/145/37 44/146/37
f 17/147/38 44/148/38 47/149/38 31/150/38
f 44/151/39 46/152/39 48/153/39 47/154/39
f 31/155/40 47/156/40 49/157/40 32/158/40
f 47/159/41 48/160/41 50/161/41 49/162/41
f 32/163/42 49/164/42 51/165/42 12/166/42
f 49/167/43 50/168/43 52/169/43 51/170/43
f 4/171/44 55/172/44 57/173/44 30/174/44
f 55/175/45 56/176/45 58/177/45 57/178/45
f 30/179/46 57/180/46 59/181/46 29/182/46
f 57/183/47 58/184/47 60/185/47 59/186/47
f 29/187/48 59/188/48 43/189/48 16/190/48
f 59/191/49 60/192/49 45/193/49 43/194/49
f 63/195/50 61/196/50 19/197/50 46/198/50
f 62/199/51 63/200/51 46/201/51 45/202/51
f 64/203/52 62/204/52 45/205/52 18/206/52
f 65/207/53 64/208/53 18/209/53 20/210/53
f 61/211/54 66/212/54 21/213/54 19/214/54
f 68/215/55 67/216/55 16/217/55 43/218/55
f 69/219/56 68/220/56 43/221/56 44/222/56
f 70/223/57 69/224/57 44/225/57 17/226/57
f 67/227/58 71/228/58 14/229/58 16/230/58
f 72/231/59 70/232/59 17/233/59 15/234/59
f 1/235/60 73/236/60 74/237/60 3/238/60
f 73/239/61 7/240/61 74/241/61
f 4/242/62 3/243/62 74/244/62 75/245/62
f 74/246/63 7/247/63 75/248/63
f 5/249/64 76/250/64 77/251/64
f 77/252/65 76/253/65 6/254/65 8/255/65
f 77/256/66 8/257/66 9/258/66 78/259/66
f 78/260/67 5/261/67 77/262/67
f 10/263/68 6/264/68 76/265/68 79/266/68
f 76/267/69 5/268/69 79/269/69
f 11/270/70 10/271/70 79/272/70 80/273/70
f 79/274/71 5/275/71 80/276/71
f 7/277/72 73/278/72 81/279/72
f 81/280/73 73/281/73 1/282/73 2/283/73
f 81/284/74 2/285/74 12/286/74 82/287/74
f 82/288/75 7/289/75 81/290/75
f 80/291/76 5/292/76 54/293/76 83/294/76
f 83/295/77 52/296/77 11/297/77 80/298/77
f 78/299/78 9/300/78 56/301/78 84/302/78
f 84/303/79 54/304/79 5/305/79 78/306/79
f 12/307/80 51/308/80 85/309/80 82/310/80
f 82/311/81 85/312/81 53/313/81 7/314/81
f 51/315/82 52/316/82 83/317/82 85/318/82
f 85/319/83 83/320/83 54/321/83 53/322/83
f 75/323/84 7/324/84 53/325/84 86/326/84
f 86/327/85 55/328/85 4/329/85 75/330/85
f 53/331/86 54/332/86 84/333/86 86/334/86
f 86/335/87 84/336/87 56/337/87 55/338/87
f 88/339/88 87/340/88 13/341/88 14/342/88
f 87/343/89 89/344/89 15/345/89 13/346/89
f 91/347/90 90/348/90 20/349/90 22/350/90
f 92/351/91 91/352/91 22/353/91 21/354/91
f 92/355/92 66/356/92 65/357/92 90/358/92
f 72/359/93 89/360/93 88/361/93 71/362/93
o cylinder
v 0 0.125 0
v -0.02588812500000001 0.125 -0.0625
v -0.02588812500000001 1.375 -0.0625
v -0.0625 0.125 -0.025888124999999994
v -0.0625 1.375 -0.025888124999999994
v -0.0625 0.125 0.02588812500000001
v -0.0625 1.375 0.02588812500000001
v -0.025888124999999994 0.125 0.0625
v -0.025888124999999994 1.375 0.0625
v 0.02588812500000001 0.125 0.0625
v 0.02588812500000001 1.375 0.0625
v 0.0625 0.125 0.025888124999999994
v 0.0625 1.375 0.025888124999999994
v 0.0625 0.125 -0.02588812500000001
v 0.0625 1.375 -0.02588812500000001
v 0.025888124999999994 0.125 -0.0625
v 0.025888124999999994 1.375 -0.0625
v -0.0625 1.3125 -0.025888124999999994
v -0.02588812500000001 1.3125 -0.0625
v 0.025888124999999994 1.3125 -0.0625
v 0.0625 1.3125 -0.02588812500000001
v 0.0625 1.3125 0.025888124999999994
v 0.02588812500000001 1.3125 0.0625
v -0.025888124999999994 1.3125 0.0625
v -0.0625 1.3125 0.02588812500000001
v -0.03784750000000001 1.375 -0.09137125
v -0.09137125 1.3125 -0.037847499999999985
v -0.03784750000000001 1.3125 -0.09137125
v -0.09137125 1.375 -0.037847499999999985
v -0.09137125 1.3125 0.03784750000000001
v -0.09137125 1.375 0.03784750000000001
v -0.037847499999999985 1.3125 0.09137125
v -0.037847499999999985 1.375 0.09137125
v 0.03784750000000001 1.3125 0.09137125
v 0.03784750000000001 1.375 0.09137125
v 0.09137125 1.3125 0.037847499999999985
v 0.09137125 1.375 0.037847499999999985
v 0.09137125 1.3125 -0.03784750000000001
v 0.09137125 1.375 -0.03784750000000001
v 0.037847499999999985 1.3125 -0.09137125
v 0.037847499999999985 1.375 -0.09137125
v 0.025888124999999994 1.359375 -0.0625
v -0.02588812500000001 1.359375 -0.0625
v 0 1.359375 0
v 0.0625 1.359375 -0.02588812500000001
v 0.0625 1.359375 0.025888124999999994
v 0.02588812500000001 1.359375 0.0625
v -0.025888124999999994 1.359375 0.0625
v -0.0625 1.359375 0.02588812500000001
v -0.0625 1.359375 -0.025888124999999994
vt 0.015625 0.9954234375
vt 0.0110484375 1
vt 0.0078125 0.9921875
vt 0.1484375 0.9375
vt 0.1484375 0.9296875
vt 0.15625 0.9296875
vt 0.15625 0.9375
vt 0.0422984375 0.875
vt 0.046875 0.8795765625
vt 0.0390625 0.8828125
vt 0.015625 0.9889515625
vt 0.015625 0.9954234375
vt 0.0078125 0.9921875
vt 0 0.9609375
vt 0 0.953125
vt 0.0078125 0.953125
vt 0.0078125 0.9609375
vt 0.046875 0.8795765625
vt 0.046875 0.8860484375
vt 0.0390625 0.8828125
vt 0.0110484375 0.984375
vt 0.015625 0.9889515625
vt 0.0078125 0.9921875
vt 0.140625 0.984375
vt 0.140625 0.9765625
vt 0.1484375 0.9765625
vt 0.1484375 0.984375
vt 0.046875 0.8860484375
vt 0.0422984375 0.890625
vt 0.0390625 0.8828125
vt 0.0045765625 0.984375
vt 0.0110484375 0.984375
vt 0.0078125 0.9921875
vt 0.109375 0.984375
vt 0.109375 0.9765625
vt 0.1171875 0.9765625
vt 0.1171875 0.984375
vt 0.0422984375 0.890625
vt 0.0358265625 0.890625
vt 0.0390625 0.8828125
vt 0 0.9889515625
vt 0.0045765625 0.984375
vt 0.0078125 0.9921875
vt 0.15625 0.96875
vt 0.15625 0.9609375
vt 0.1640625 0.9609375
vt 0.1640625 0.96875
vt 0.0358265625 0.890625
vt 0.03125 0.8860484375
vt 0.0390625 0.8828125
vt 0 0.9954234375
vt 0 0.9889515625
vt 0.0078125 0.9921875
vt 0.0546875 0.90625
vt 0.0546875 0.8984375
vt 0.0625 0.8984375
vt 0.0625 0.90625
vt 0.03125 0.8860484375
vt 0.03125 0.8795765625
vt 0.0390625 0.8828125
vt 0.0045765625 1
vt 0 0.9954234375
vt 0.0078125 0.9921875
vt 0.0390625 0.8671875
vt 0.0390625 0.859375
vt 0.046875 0.859375
vt 0.046875 0.8671875
vt 0.03125 0.8795765625
vt 0.0358265625 0.875
vt 0.0390625 0.8828125
vt 0.0110484375 1
vt 0.0045765625 1
vt 0.0078125 0.9921875
vt 0.0546875 0.875
vt 0.0546875 0.8671875
vt 0.0625 0.8671875
vt 0.0625 0.875
vt 0.0358265625 0.875
vt 0.0422984375 0.875
vt 0.0390625 0.8828125
vt 0.1796875 0.3828125
vt 0.1796875 0.53125
vt 0.171875 0.53125
vt 0.171875 0.3828125
vt 0.1640625 0.453125
vt 0.1640625 0.6015625
vt 0.15625 0.6015625
vt 0.15625 0.453125
vt 0.1328125 0.3828125
vt 0.1328125 0.53125
vt 0.125 0.53125
vt 0.125 0.3828125
vt 0.0234375 0.671875
vt 0.0234375 0.8203125
vt 0.015625 0.8203125
vt 0.015625 0.671875
vt 0.3046875 0.3671875
vt 0.3046875 0.515625
vt 0.296875 0.515625
vt 0.296875 0.3671875
vt 0.1484375 0.4140625
vt 0.1484375 0.5625
vt 0.140625 0.5625
vt 0.140625 0.4140625
vt 0.1171875 0.3828125
vt 0.1171875 0.53125
vt 0.109375 0.53125
vt 0.109375 0.3828125
vt 0.0078125 0.7109375
vt 0.0078125 0.859375
vt 0 0.859375
vt 0 0.7109375
vt 0.06220234375 0.94583984375
vt 0.0555125 0.9525296875
vt 0.0540171875 0.94892109375
vt 0.05859375 0.94434453125
vt 0.0398875 0.8990328125
vt 0.04657734375 0.90572265625
vt 0.04296875 0.90721796875
vt 0.0383921875 0.90264140625
vt 0.06220234375 0.93637734375
vt 0.06220234375 0.94583984375
vt 0.05859375 0.94434453125
vt 0.05859375 0.93787265625
vt 0.04657734375 0.90572265625
vt 0.04657734375 0.91518515625
vt 0.04296875 0.91368984375
vt 0.04296875 0.90721796875
vt 0.0555125 0.9296875
vt 0.06220234375 0.93637734375
vt 0.05859375 0.93787265625
vt 0.0540171875 0.93329609375
vt 0.04657734375 0.91518515625
vt 0.0398875 0.921875
vt 0.0383921875 0.91826640625
vt 0.04296875 0.91368984375
vt 0.04605 0.9296875
vt 0.0555125 0.9296875
vt 0.0540171875 0.93329609375
vt 0.0475453125 0.93329609375
vt 0.0398875 0.921875
vt 0.030425 0.921875
vt 0.0319203125 0.91826640625
vt 0.0383921875 0.91826640625
vt 0.03936015625 0.93637734375
vt 0.04605 0.9296875
vt 0.0475453125 0.93329609375
vt 0.04296875 0.93787265625
vt 0.030425 0.921875
vt 0.02373515625 0.91518515625
vt 0.02734375 0.91368984375
vt 0.0319203125 0.91826640625
vt 0.03936015625 0.94583984375
vt 0.03936015625 0.93637734375
vt 0.04296875 0.93787265625
vt 0.04296875 0.94434453125
vt 0.02373515625 0.91518515625
vt 0.02373515625 0.90572265625
vt 0.02734375 0.90721796875
vt 0.02734375 0.91368984375
vt 0.04605 0.9525296875
vt 0.03936015625 0.94583984375
vt 0.04296875 0.94434453125
vt 0.0475453125 0.94892109375
vt 0.02373515625 0.90572265625
vt 0.030425 0.8990328125
vt 0.0319203125 0.90264140625
vt 0.02734375 0.90721796875
vt 0.0555125 0.9525296875
vt 0.04605 0.9525296875
vt 0.0475453125 0.94892109375
vt 0.0540171875 0.94892109375
vt 0.030425 0.8990328125
vt 0.0398875 0.8990328125
vt 0.0383921875 0.90264140625
vt 0.0319203125 0.90264140625
vt 0.0546875 0.8828125
vt 0.0625 0.8828125
vt 0.0625 0.890625
vt 0.0546875 0.890625
vt 0.140625 0.9609375
vt 0.1484375 0.9609375
vt 0.1484375 0.96875
vt 0.140625 0.96875
vt 0.0546875 0.9140625
vt 0.0625 0.9140625
vt 0.0625 0.921875
vt 0.0546875 0.921875
vt 0.15625 0.9765625
vt 0.1640625 0.9765625
vt 0.1640625 0.984375
vt 0.15625 0.984375
vt 0.125 0.9765625
vt 0.1328125 0.9765625
vt 0.1328125 0.984375
vt 0.125 0.984375
vt 0.140625 0.9453125
vt 0.1484375 0.9453125
vt 0.1484375 0.953125
vt 0.140625 0.953125
vt 0.046875 0.9609375
vt 0.0546875 0.9609375
vt 0.0546875 0.96875
vt 0.046875 0.96875
vt 0.0546875 0.8515625
vt 0.0625 0.8515625
vt 0.0625 0.859375
vt 0.0546875 0.859375
vn 0 -1 0
vn -0.7071067811865477 0 -0.7071067811865475
vn 0 1 0
vn 0 -1 0
vn -1 0 1.2246467991473532e-16
vn 0 1 0
vn 0 -1 0
vn -0.7071067811865475 0 0.7071067811865477
vn 0 1 0
vn 0 -1 0
vn 1.2246467991473532e-16 0 1
vn 0 1 0
vn 0 -1 0
vn 0.7071067811865477 0 0.7071067811865475
vn 0 1 0
vn 0 -1 0
vn 1 0 -1.2246467991473532e-16
vn 0 1 0
vn 0 -1 0
vn 0.7071067811865475 0 -0.7071067811865477
vn 0 1 0
vn 0 -1 0
vn -1.2246467991473532e-16 0 -1
vn 0 1 0
vn -0.7071067811865477 0 -0.7071067811865475
vn -1.2246467991473532e-16 0 -1
vn 0.7071067811865475 0 -0.7071067811865477
vn 1 0 -1.2246467991473532e-16
vn 0.7071067811865477 0 0.7071067811865475
vn 1.2246467991473532e-16 0 1
vn -0.7071067811865475 0 0.7071067811865477
vn -1 0 1.2246467991473532e-16
vn 0 -1 0
vn 0 1 0
vn 0 -1 0
vn 0 1 0
vn 0 -1 0
vn 0 1 0
vn 0 -1 0
vn 0 1 0
vn 0 -1 0
vn 0 1 0
vn 0 -1 0
vn 0 1 0
vn 0 -1 0
vn 0 1 0
vn 0 -1 0
vn 0 1 0
vn 1.2246467991473532e-16 0 1
vn -0.7071067811865475 0 0.7071067811865477
vn -1 0 1.2246467991473532e-16
vn -0.7071067811865477 0 -0.7071067811865475
vn -1.2246467991473532e-16 0 -1
vn 0.7071067811865475 0 -0.7071067811865477
vn 1 0 -1.2246467991473532e-16
vn 0.7071067811865477 0 0.7071067811865475
usemtl m_5d9663d1-16d1-2b22-8294-75fc251fb106
f 96/363/94 94/364/94 93/365/94
f 118/366/95 120/367/95 119/368/95 121/369/95
f 135/370/96 142/371/96 136/372/96
f 98/373/97 96/374/97 93/375/97
f 121/376/98 119/377/98 122/378/98 123/379/98
f 142/380/99 141/381/99 136/382/99
f 100/383/100 98/384/100 93/385/100
f 123/386/101 122/387/101 124/388/101 125/389/101
f 141/390/102 140/391/102 136/392/102
f 102/393/103 100/394/103 93/395/103
f 125/396/104 124/397/104 126/398/104 127/399/104
f 140/400/105 139/401/105 136/402/105
f 104/403/106 102/404/106 93/405/106
f 127/406/107 126/407/107 128/408/107 129/409/107
f 139/410/108 138/411/108 136/412/108
f 106/413/109 104/414/109 93/415/109
f 129/416/110 128/417/110 130/418/110 131/419/110
f 138/420/111 137/421/111 136/422/111
f 108/423/112 106/424/112 93/425/112
f 131/426/113 130/427/113 132/428/113 133/429/113
f 137/430/114 134/431/114 136/432/114
f 94/433/115 108/434/115 93/435/115
f 133/436/116 132/437/116 120/438/116 118/439/116
f 134/440/117 135/441/117 136/442/117
f 96/443/118 110/444/118 111/445/118 94/446/118
f 94/447/119 111/448/119 112/449/119 108/450/119
f 108/451/120 112/452/120 113/453/120 106/454/120
f 106/455/121 113/456/121 114/457/121 104/458/121
f 104/459/122 114/460/122 115/461/122 102/462/122
f 102/463/123 115/464/123 116/465/123 100/466/123
f 100/467/124 116/468/124 117/469/124 98/470/124
f 98/471/125 117/472/125 110/473/125 96/474/125
f 119/475/126 120/476/126 111/477/126 110/478/126
f 118/479/127 121/480/127 97/481/127 95/482/127
f 122/483/128 119/484/128 110/485/128 117/486/128
f 121/487/129 123/488/129 99/489/129 97/490/129
f 124/491/130 122/492/130 117/493/130 116/494/130
f 123/495/131 125/496/131 101/497/131 99/498/131
f 126/499/132 124/500/132 116/501/132 115/502/132
f 125/503/133 127/504/133 103/505/133 101/506/133
f 128/507/134 126/508/134 115/509/134 114/510/134
f 127/511/135 129/512/135 105/513/135 103/514/135
f 130/515/136 128/516/136 114/517/136 113/518/136
f 129/519/137 131/520/137 107/521/137 105/522/137
f 132/523/138 130/524/138 113/525/138 112/526/138
f 131/527/139 133/528/139 109/529/139 107/530/139
f 120/531/140 132/532/140 112/533/140 111/534/140
f 133/535/141 118/536/141 95/537/141 109/538/141
f 135/539/142 134/540/142 109/541/142 95/542/142
f 134/543/143 137/544/143 107/545/143 109/546/143
f 137/547/144 138/548/144 105/549/144 107/550/144
f 138/551/145 139/552/145 103/553/145 105/554/145
f 139/555/146 140/556/146 101/557/146 103/558/146
f 140/559/147 141/560/147 99/561/147 101/562/147
f 141/563/148 142/564/148 97/565/148 99/566/148
f 142/567/149 135/568/149 95/569/149 97/570/149
o plane
v -0.4375 1.25 0.06249999999999978
v -0.4375 0.4375 0.06249999999999996
v 0.4375 1.25 0.06249999999999967
v 0.4375 0.4375 0.06249999999999985
v -0.4375 1.25 0.07812499999999978
v -0.4375 0.4375 0.07812499999999996
v 0.4375 0.4375 0.07812499999999985
v 0.4375 1.25 0.07812499999999967
v -0.4375 1.078125 0.1874999999999998
v 0.4375 1.078125 0.1874999999999997
v -0.43749999999999994 0.625 0.24999999999999992
v 0.43750000000000006 0.625 0.2499999999999998
v -0.4375 0.53125 0.18749999999999994
v 0.4375 0.53125 0.18749999999999983
v 0.4375 1.078125 0.1718749999999997
v 0.43750000000000006 0.625 0.2343749999999998
v 0.4375 0.53125 0.17187499999999983
v -0.4375 1.078125 0.1718749999999998
v -0.43749999999999994 0.625 0.23437499999999992
v -0.4375 0.53125 0.17187499999999994
v 0.4375 0.40625 0.07812499999999986
v -0.4375 0.40625 0.07812499999999997
v -0.4375 0.40625 0.062499999999999965
v 0.4375 0.40625 0.062499999999999854
v 0.453125 0.40625 0.07812499999999986
v 0.453125 0.40625 0.062499999999999854
v 0.453125 0.4375 0.06249999999999985
v 0.453125 0.4375 0.07812499999999985
v -0.453125 0.40625 0.062499999999999965
v -0.453125 0.40625 0.07812499999999997
v -0.453125 0.4375 0.07812499999999996
v -0.453125 0.4375 0.06249999999999996
v 0.453125 0.40625 0.09374999999999986
v 0.453125 0.4375 0.09374999999999985
v 0.4375 0.4375 0.09374999999999985
v 0.4375 0.40625 0.09374999999999986
v -0.4375 0.40625 0.09374999999999997
v -0.4375 0.4375 0.09374999999999996
v -0.453125 0.4375 0.09374999999999996
v -0.453125 0.40625 0.09374999999999997
v -0.4375 1.28125 0.07812499999999978
v 0.4375 1.28125 0.07812499999999967
v 0.4375 1.28125 0.06249999999999966
v -0.4375 1.28125 0.06249999999999977
v 0.4375 1.28125 0.09374999999999967
v -0.4375 1.28125 0.09374999999999978
v -0.4375 1.25 0.09374999999999978
v 0.4375 1.25 0.09374999999999967
v 0.453125 1.28125 0.06249999999999966
v 0.453125 1.28125 0.07812499999999967
v 0.453125 1.25 0.07812499999999967
v 0.453125 1.25 0.06249999999999967
v 0.453125 1.28125 0.09374999999999967
v 0.453125 1.25 0.09374999999999967
v -0.453125 1.28125 0.07812499999999978
v -0.453125 1.28125 0.06249999999999977
v -0.453125 1.25 0.06249999999999978
v -0.453125 1.25 0.07812499999999978
v -0.453125 1.25 0.09374999999999978
v -0.453125 1.28125 0.09374999999999978
v -0.43749999999999994 0.921875 0.24999999999999986
v 0.43750000000000006 0.921875 0.24999999999999975
v 0.43750000000000006 0.921875 0.23437499999999975
v -0.43749999999999994 0.921875 0.23437499999999986
vt 0.5859375 0.7421875
vt 0.5859375 0.7578125
vt 0.4765625 0.7578125
vt 0.4765625 0.7421875
vt 0.3671875 0.876953125
vt 0.35546875 0.890625
vt 0.35546875 0.888671875
vt 0.3671875 0.875
vt 0.62109375 0.880859375
vt 0.51171875 0.880859375
vt 0.51171875 0.87890625
vt 0.62109375 0.87890625
vt 0 0.515625
vt 0.01171875 0.529296875
vt 0.01171875 0.53125
vt 0 0.517578125
vt 0.62109375 0.865234375
vt 0.51171875 0.865234375
vt 0.51171875 0.86328125
vt 0.62109375 0.86328125
vt 0.5859375 0.71875
vt 0.5859375 0.734375
vt 0.4765625 0.734375
vt 0.4765625 0.71875
vt 0.3203125 0.546875
vt 0.3203125 0.521409375
vt 0.4296875 0.521409375
vt 0.4296875 0.546875
vt 0.4296875 0.46326406249999996
vt 0.4296875 0.5003734375
vt 0.3203125 0.5003734375
vt 0.3203125 0.46326406249999996
vt 0.3203125 0.46326406249999996
vt 0.3203125 0.44917968750000004
vt 0.4296875 0.44917968750000004
vt 0.4296875 0.46326406249999996
vt 0.1015625 0.517578125
vt 0.080078125 0.53125
vt 0.080078125 0.529296875
vt 0.1015625 0.515625
vt 0.0234375 0.537109375
vt 0.060546875 0.537109375
vt 0.060546875 0.5390625
vt 0.0234375 0.5390625
vt 0.0234375 0.5390625
vt 0.01171875 0.53125
vt 0.01171875 0.529296875
vt 0.0234375 0.537109375
vt 0.3857421875 0.8867570312499999
vt 0.3857421875 0.86129140625
vt 0.4951171875 0.86129140625
vt 0.4951171875 0.8867570312499999
vt 0.4951171875 0.80314609375
vt 0.4951171875 0.84025546875
vt 0.3857421875 0.84025546875
vt 0.3857421875 0.80314609375
vt 0.3857421875 0.80314609375
vt 0.3857421875 0.7890625
vt 0.4951171875 0.7890625
vt 0.4951171875 0.80314609375
vt 0.265625 0.875
vt 0.287109375 0.888671875
vt 0.287109375 0.890625
vt 0.265625 0.876953125
vt 0.34375 0.8984375
vt 0.306640625 0.8984375
vt 0.306640625 0.896484375
vt 0.34375 0.896484375
vt 0.34375 0.896484375
vt 0.35546875 0.888671875
vt 0.35546875 0.890625
vt 0.34375 0.8984375
vt 0.62109375 0.8515625
vt 0.51171875 0.8515625
vt 0.51171875 0.84765625
vt 0.62109375 0.84765625
vt 0.052734375 0.83984375
vt 0.052734375 0.841796875
vt 0.048828125 0.841796875
vt 0.048828125 0.83984375
vt 0.51171875 0.828125
vt 0.62109375 0.828125
vt 0.62109375 0.83203125
vt 0.51171875 0.83203125
vt 0.158203125 0.951171875
vt 0.158203125 0.94921875
vt 0.162109375 0.94921875
vt 0.162109375 0.951171875
vt 0.623046875 0.87890625
vt 0.623046875 0.880859375
vt 0.62109375 0.880859375
vt 0.62109375 0.87890625
vt 0.509765625 0.83203125
vt 0.509765625 0.828125
vt 0.51171875 0.828125
vt 0.51171875 0.83203125
vt 0.509765625 0.818359375
vt 0.509765625 0.81640625
vt 0.51171875 0.81640625
vt 0.51171875 0.818359375
vt 0.509765625 0.8515625
vt 0.509765625 0.84765625
vt 0.51171875 0.84765625
vt 0.51171875 0.8515625
vt 0.509765625 0.880859375
vt 0.509765625 0.87890625
vt 0.51171875 0.87890625
vt 0.51171875 0.880859375
vt 0.623046875 0.84765625
vt 0.623046875 0.8515625
vt 0.62109375 0.8515625
vt 0.62109375 0.84765625
vt 0.623046875 0.81640625
vt 0.623046875 0.818359375
vt 0.62109375 0.818359375
vt 0.62109375 0.81640625
vt 0.623046875 0.828125
vt 0.623046875 0.83203125
vt 0.62109375 0.83203125
vt 0.62109375 0.828125
vt 0.162109375 0.953125
vt 0.158203125 0.953125
vt 0.158203125 0.951171875
vt 0.162109375 0.951171875
vt 0.51171875 0.8203125
vt 0.509765625 0.8203125
vt 0.509765625 0.818359375
vt 0.51171875 0.818359375
vt 0.623046875 0.8828125
vt 0.62109375 0.8828125
vt 0.62109375 0.880859375
vt 0.623046875 0.880859375
vt 0.62109375 0.8828125
vt 0.51171875 0.8828125
vt 0.51171875 0.880859375
vt 0.62109375 0.880859375
vt 0.62109375 0.8203125
vt 0.51171875 0.8203125
vt 0.51171875 0.818359375
vt 0.62109375 0.818359375
vt 0.052734375 0.84375
vt 0.048828125 0.84375
vt 0.048828125 0.841796875
vt 0.052734375 0.841796875
vt 0.51171875 0.8828125
vt 0.509765625 0.8828125
vt 0.509765625 0.880859375
vt 0.51171875 0.880859375
vt 0.623046875 0.8203125
vt 0.62109375 0.8203125
vt 0.62109375 0.818359375
vt 0.623046875 0.818359375
vt 0.51171875 0.80078125
vt 0.62109375 0.80078125
vt 0.62109375 0.8046875
vt 0.51171875 0.8046875
vt 0.068359375 0.83984375
vt 0.068359375 0.841796875
vt 0.064453125 0.841796875
vt 0.064453125 0.83984375
vt 0.4951171875 0.8906632812499999
vt 0.3857421875 0.8906632812499999
vt 0.3857421875 0.8867570312499999
vt 0.4951171875 0.8867570312499999
vt 0.166015625 0.896484375
vt 0.166015625 0.89453125
vt 0.169921875 0.89453125
vt 0.169921875 0.896484375
vt 0.62109375 0.8671875
vt 0.51171875 0.8671875
vt 0.51171875 0.865234375
vt 0.62109375 0.865234375
vt 0.169921875 0.8984375
vt 0.166015625 0.8984375
vt 0.166015625 0.896484375
vt 0.169921875 0.896484375
vt 0.62890625 0.9609375
vt 0.51953125 0.9609375
vt 0.51953125 0.958984375
vt 0.62890625 0.958984375
vt 0.068359375 0.84375
vt 0.064453125 0.84375
vt 0.064453125 0.841796875
vt 0.068359375 0.841796875
vt 0.509765625 0.865234375
vt 0.509765625 0.86328125
vt 0.51171875 0.86328125
vt 0.51171875 0.865234375
vt 0.630859375 0.95703125
vt 0.630859375 0.958984375
vt 0.62890625 0.958984375
vt 0.62890625 0.95703125
vt 0 0.9765625
vt 0 0.96875
vt 0.0078125 0.96875
vt 0.0078125 0.9765625
vt 0.509765625 0.8046875
vt 0.509765625 0.80078125
vt 0.51171875 0.80078125
vt 0.51171875 0.8046875
vt 0.630859375 0.958984375
vt 0.630859375 0.9609375
vt 0.62890625 0.9609375
vt 0.62890625 0.958984375
vt 0.509765625 0.8671875
vt 0.509765625 0.865234375
vt 0.51171875 0.865234375
vt 0.51171875 0.8671875
vt 0.623046875 0.86328125
vt 0.623046875 0.865234375
vt 0.62109375 0.865234375
vt 0.62109375 0.86328125
vt 0.4970703125 0.8867570312499999
vt 0.4970703125 0.8906632812499999
vt 0.4951171875 0.8906632812499999
vt 0.4951171875 0.8867570312499999
vt 0.517578125 0.958984375
vt 0.517578125 0.95703125
vt 0.51953125 0.95703125
vt 0.51953125 0.958984375
vt 0.623046875 0.80078125
vt 0.623046875 0.8046875
vt 0.62109375 0.8046875
vt 0.62109375 0.80078125
vt 0.623046875 0.865234375
vt 0.623046875 0.8671875
vt 0.62109375 0.8671875
vt 0.62109375 0.865234375
vt 0.517578125 0.9609375
vt 0.517578125 0.958984375
vt 0.51953125 0.958984375
vt 0.51953125 0.9609375
vt 0.3203125 0.521409375
vt 0.3203125 0.5003734375
vt 0.4296875 0.5003734375
vt 0.4296875 0.521409375
vt 0.080078125 0.53125
vt 0.060546875 0.5390625
vt 0.060546875 0.537109375
vt 0.080078125 0.529296875
vt 0.3857421875 0.86129140625
vt 0.3857421875 0.84025546875
vt 0.4951171875 0.84025546875
vt 0.4951171875 0.86129140625
vt 0.287109375 0.888671875
vt 0.306640625 0.896484375
vt 0.306640625 0.8984375
vt 0.287109375 0.890625
vn 7.969895724155618e-17 -0.7592566023652965 0.6507913734559687
vn -1 0 1.2246467991473532e-16
vn 2.719262146893782e-32 -1 2.220446049250313e-16
vn 1 0 -1.2246467991473532e-16
vn -2.719262146893782e-32 1 -2.220446049250313e-16
vn -7.969895724155618e-17 0.7592566023652965 -0.6507913734559687
vn 1.0331873405150194e-16 0.5368754921931596 0.8436614877321075
vn 1.2246467991473532e-16 2.220446049250313e-16 1
vn 1.0189677296904536e-16 -0.5547001962252289 0.8320502943378438
vn 1 0 -1.2246467991473532e-16
vn 1 0 -1.2246467991473532e-16
vn 1 0 -1.2246467991473532e-16
vn -1.0331873405150194e-16 -0.5368754921931596 -0.8436614877321075
vn -1.2246467991473532e-16 -2.220446049250313e-16 -1
vn -1.0189677296904536e-16 0.5547001962252289 -0.8320502943378438
vn -1 0 1.2246467991473532e-16
vn -1 0 1.2246467991473532e-16
vn -1 0 1.2246467991473532e-16
vn 1.2246467991473532e-16 2.220446049250313e-16 1
vn -1 0 1.2246467991473532e-16
vn -1.2246467991473532e-16 -2.220446049250313e-16 -1
vn 1 0 -1.2246467991473532e-16
vn 2.719262146893782e-32 -1 2.220446049250313e-16
vn -1.2246467991473532e-16 -2.220446049250313e-16 -1
vn -2.719262146893782e-32 1 -2.220446049250313e-16
vn 1.2246467991473532e-16 2.220446049250313e-16 1
vn 2.719262146893782e-32 -1 2.220446049250313e-16
vn 1.2246467991473532e-16 2.220446049250313e-16 1
vn -2.719262146893782e-32 1 -2.220446049250313e-16
vn -1.2246467991473532e-16 -2.220446049250313e-16 -1
vn 1 0 -1.2246467991473532e-16
vn -2.719262146893782e-32 1 -2.220446049250313e-16
vn 2.719262146893782e-32 -1 2.220446049250313e-16
vn 2.719262146893782e-32 -1 2.220446049250313e-16
vn -2.719262146893782e-32 1 -2.220446049250313e-16
vn -1 0 1.2246467991473532e-16
vn 2.719262146893782e-32 -1 2.220446049250313e-16
vn -2.719262146893782e-32 1 -2.220446049250313e-16
vn 1.2246467991473532e-16 2.220446049250313e-16 1
vn 1 0 -1.2246467991473532e-16
vn -1.2246467991473532e-16 -2.220446049250313e-16 -1
vn -1 0 1.2246467991473532e-16
vn -2.719262146893782e-32 1 -2.220446049250313e-16
vn -1 0 1.2246467991473532e-16
vn 2.719262146893782e-32 -1 2.220446049250313e-16
vn 1 0 -1.2246467991473532e-16
vn -2.719262146893782e-32 1 -2.220446049250313e-16
vn 2.719262146893782e-32 -1 2.220446049250313e-16
vn -1.2246467991473532e-16 -2.220446049250313e-16 -1
vn 1.2246467991473532e-16 2.220446049250313e-16 1
vn 2.719262146893782e-32 -1 2.220446049250313e-16
vn -2.719262146893782e-32 1 -2.220446049250313e-16
vn -2.719262146893782e-32 1 -2.220446049250313e-16
vn -1.2246467991473532e-16 -2.220446049250313e-16 -1
vn 2.719262146893782e-32 -1 2.220446049250313e-16
vn 1.2246467991473532e-16 2.220446049250313e-16 1
vn -2.719262146893782e-32 1 -2.220446049250313e-16
vn 2.719262146893782e-32 -1 2.220446049250313e-16
vn 1.1370560075755595e-16 0.371390676354104 0.9284766908852594
vn 1 0 -1.2246467991473532e-16
vn -1.1370560075755595e-16 -0.371390676354104 -0.9284766908852594
vn -1 0 1.2246467991473532e-16
usemtl m_5d9663d1-16d1-2b22-8294-75fc251fb106
f 149/571/150 156/572/150 155/573/150 148/574/150
f 148/575/151 155/576/151 162/577/151 144/578/151
f 163/579/152 164/580/152 165/581/152 166/582/152
f 146/583/153 159/584/153 156/585/153 149/586/153
f 183/587/154 184/588/154 185/589/154 186/590/154
f 144/591/155 162/592/155 159/593/155 146/594/155
f 147/595/156 151/596/156 152/597/156 150/598/156
f 154/599/157 204/600/157 203/601/157 153/602/157
f 153/603/158 155/604/158 156/605/158 154/606/158
f 150/607/159 152/608/159 157/609/159 145/610/159
f 158/611/160 205/612/160 204/613/160 154/614/160
f 154/615/161 156/616/161 159/617/161 158/618/161
f 145/619/162 157/620/162 160/621/162 143/622/162
f 161/623/163 206/624/163 205/625/163 158/626/163
f 158/627/164 159/628/164 162/629/164 161/630/164
f 143/631/165 160/632/165 151/633/165 147/634/165
f 153/635/166 203/636/166 206/637/166 161/638/166
f 161/639/167 162/640/167 155/641/167 153/642/167
f 179/643/168 178/644/168 177/645/168 180/646/168
f 171/647/169 172/648/169 173/649/169 174/650/169
f 166/651/170 165/652/170 144/653/170 146/654/170
f 167/655/171 168/656/171 169/657/171 170/658/171
f 168/659/172 167/660/172 163/661/172 166/662/172
f 169/663/173 168/664/173 166/665/173 146/666/173
f 170/667/174 169/668/174 146/669/174 149/670/174
f 175/671/175 176/672/175 177/673/175 178/674/175
f 172/675/176 171/676/176 165/677/176 164/678/176
f 181/679/177 182/680/177 179/681/177 180/682/177
f 174/683/178 173/684/178 148/685/178 144/686/178
f 171/687/179 174/688/179 144/689/179 165/690/179
f 176/691/180 175/692/180 167/693/180 170/694/180
f 177/695/181 176/696/181 170/697/181 149/698/181
f 175/699/182 178/700/182 163/701/182 167/702/182
f 178/703/183 179/704/183 164/705/183 163/706/183
f 180/707/184 177/708/184 149/709/184 148/710/184
f 182/711/185 181/712/185 173/713/185 172/714/185
f 179/715/186 182/716/186 172/717/186 164/718/186
f 181/719/187 180/720/187 148/721/187 173/722/187
f 187/723/188 188/724/188 189/725/188 190/726/188
f 191/727/189 192/728/189 193/729/189 194/730/189
f 186/731/190 185/732/190 145/733/190 143/734/190
f 197/735/191 198/736/191 199/737/191 200/738/191
f 188/739/192 187/740/192 184/741/192 183/742/192
f 201/743/193 202/744/193 197/745/193 200/746/193
f 190/747/194 189/748/194 147/749/194 150/750/194
f 195/751/195 196/752/195 193/753/195 192/754/195
f 192/755/196 191/756/196 185/757/196 184/758/196
f 194/759/197 193/760/197 150/761/197 145/762/197
f 191/763/198 194/764/198 145/765/198 185/766/198
f 196/767/199 195/768/199 187/769/199 190/770/199
f 193/771/200 196/772/200 190/773/200 150/774/200
f 195/775/201 192/776/201 184/777/201 187/778/201
f 198/779/202 197/780/202 183/781/202 186/782/202
f 199/783/203 198/784/203 186/785/203 143/786/203
f 200/787/204 199/788/204 143/789/204 147/790/204
f 202/791/205 201/792/205 189/793/205 188/794/205
f 197/795/206 202/796/206 188/797/206 183/798/206
f 201/799/207 200/800/207 147/801/207 189/802/207
f 151/803/208 203/804/208 204/805/208 152/806/208
f 152/807/209 204/808/209 205/809/209 157/810/209
f 157/811/210 205/812/210 206/813/210 160/814/210
f 160/815/211 206/816/211 203/817/211 151/818/211