# Made in Blockbench 5.1.4
mtllib aviao.mtl

o sphere
v 0 0.46874999999999944 2.375
v 0 3.0531133177191805e-16 -1.375
v 0.0669875 0.2500000000000003 -1.3705125
v 0.116025625 0.43301250000000024 -0.8749999999999999
v 0.196474375 0.5 -0.2499999999999999
v 0.178525625 0.49551249999999986 0.6875000000000001
v 0.0669875 0.46874999999999967 1.4955125
v 0.1830125 0.1830125000000003 -1.3705125
v 0.3169875 0.3169875000000002 -0.8749999999999999
v 0.366025625 0.3660256250000001 -0.24999999999999992
v 0.3169875 0.3794874999999998 0.6875000000000001
v 0.1830125 0.4017624999999997 1.4955125
v 0.25 0.06698750000000031 -1.3705125
v 0.4330125 0.11602562500000019 -0.875
v 0.5 0.13397437500000006 -0.24999999999999997
v 0.4330125 0.17852562499999985 0.6875
v 0.25 0.28573749999999964 1.4955125
v 0.25 -0.0669874999999997 -1.3705125
v 0.4330125 -0.1160256249999998 -0.875
v 0.5 -0.13397437499999995 -0.25000000000000006
v 0.4330125 -0.05352562500000015 0.6875
v 0.25 0.15176249999999966 1.4955125
v 0.1830125 -0.1830124999999997 -1.3705125
v 0.3169875 -0.31698749999999976 -0.8750000000000001
v 0.366025625 -0.36602562499999997 -0.25000000000000006
v 0.3169875 -0.25448750000000014 0.6874999999999999
v 0.1830125 0.035737499999999665 1.4955125
v 0.0669875 -0.2499999999999997 -1.3705125
v 0.116025625 -0.4330124999999998 -0.8750000000000001
v 0.133974375 -0.49999999999999994 -0.2500000000000001
v 0.116025625 -0.3705125000000002 0.6874999999999999
v 0.0669875 -0.03125000000000033 1.4955125
v 0.25 -0.06250000000000011 0.5
v 0.25 -0.06249999999999989 -0.5
v 0.25 -0.1250000000000001 0.5
v 0.25 -0.12499999999999989 -0.5
v 2.0625 -0.06250000000000008 0.375
v 2.0625 -0.06249999999999992 -0.375
v 2.0625 -0.12500000000000008 0.375
v 2.0625 -0.12499999999999992 -0.375
v 1.84375 -0.06250000000000011 0.5
v 1.84375 -0.06249999999999989 -0.5
v 1.84375 -0.12499999999999989 -0.5
v 1.84375 -0.1250000000000001 0.5
v 0.25 0.3749999999999999 0.5000000000000001
v 0.25 0.3750000000000001 -0.4999999999999999
v 0.25 0.3124999999999999 0.5000000000000001
v 0.25 0.3125000000000001 -0.49999999999999994
v 2.0625 0.3749999999999999 0.3750000000000001
v 2.0625 0.3750000000000001 -0.3749999999999999
v 2.0625 0.3124999999999999 0.37500000000000006
v 2.0625 0.3125000000000001 -0.37499999999999994
v 1.84375 0.3749999999999999 0.5000000000000001
v 1.84375 0.3750000000000001 -0.4999999999999999
v 1.84375 0.3125000000000001 -0.49999999999999994
v 1.84375 0.3124999999999999 0.5000000000000001
v 0.625 0.5156249999999994 2.34375
v 0.4375 0.46874999999999967 1.4375
v 0.625 0.4531249999999995 2.34375
v 0.4375 0.40624999999999967 1.4375
v 0.375 0.5156249999999994 2.34375
v 0.375 0.46874999999999967 1.4375
v 0.375 0.40624999999999967 1.4375
v 0.375 0.4531249999999995 2.34375
v 0.375 0.49999999999999956 1.875
v 0.625 0.49999999999999956 1.875
v 0.625 0.43749999999999956 1.875
v 0.375 0.43749999999999956 1.875
v 0.03125 0.9999999999999994 2.34375
v 0.03125 0.9999999999999996 1.8125000000000002
v 0.03125 0.4374999999999995 2.34375
v 0.03125 0.43749999999999967 1.4375
v 1.78125 0.31249999999999994 0.34375000000000006
v 1.78125 0.31249999999999994 0.28125000000000006
v 1.78125 -0.06250000000000008 0.34375
v 1.78125 -0.06250000000000006 0.28125
v 1.84375 0.31249999999999994 0.34375000000000006
v 1.84375 0.31249999999999994 0.28125000000000006
v 1.84375 -0.06250000000000008 0.34375
v 1.84375 -0.06250000000000006 0.28125
v 0.96875 0.31249999999999994 0.34375000000000006
v 0.96875 0.31249999999999994 0.28125000000000006
v 0.96875 -0.06250000000000008 0.34375
v 0.96875 -0.06250000000000006 0.28125
v 1.03125 0.31249999999999994 0.34375000000000006
v 1.03125 0.31249999999999994 0.28125000000000006
v 1.03125 -0.06250000000000008 0.34375
v 1.03125 -0.06250000000000006 0.28125
v 0.96875 0.31250000000000006 -0.21874999999999994
v 0.96875 0.31250000000000006 -0.28124999999999994
v 0.96875 -0.06249999999999995 -0.21875
v 0.96875 -0.06249999999999994 -0.28125
v 1.03125 0.31250000000000006 -0.21874999999999994
v 1.03125 0.31250000000000006 -0.28124999999999994
v 1.03125 -0.06249999999999995 -0.21875
v 1.03125 -0.06249999999999994 -0.28125
v 1.78125 0.31250000000000006 -0.21874999999999994
v 1.78125 0.31250000000000006 -0.28124999999999994
v 1.78125 -0.06249999999999995 -0.21875
v 1.78125 -0.06249999999999994 -0.28125
v 1.84375 0.31250000000000006 -0.21874999999999994
v 1.84375 0.31250000000000006 -0.28124999999999994
v 1.84375 -0.06249999999999995 -0.21875
v 1.84375 -0.06249999999999994 -0.28125
v -0.0669875 0.2500000000000003 -1.3705125
v -0.116025625 0.43301250000000024 -0.8749999999999999
v -0.196474375 0.5 -0.2499999999999999
v -0.178525625 0.49551249999999986 0.6875000000000001
v -0.0669875 0.46874999999999967 1.4955125
v -0.1830125 0.1830125000000003 -1.3705125
v -0.3169875 0.3169875000000002 -0.8749999999999999
v -0.366025625 0.3660256250000001 -0.24999999999999992
v -0.3169875 0.3794874999999998 0.6875000000000001
v -0.1830125 0.4017624999999997 1.4955125
v -0.25 0.06698750000000031 -1.3705125
v -0.4330125 0.11602562500000019 -0.875
v -0.5 0.13397437500000006 -0.24999999999999997
v -0.4330125 0.17852562499999985 0.6875
v -0.25 0.28573749999999964 1.4955125
v -0.25 -0.0669874999999997 -1.3705125
v -0.4330125 -0.1160256249999998 -0.875
v -0.5 -0.13397437499999995 -0.25000000000000006
v -0.4330125 -0.05352562500000015 0.6875
v -0.25 0.15176249999999966 1.4955125
v -0.1830125 -0.1830124999999997 -1.3705125
v -0.3169875 -0.31698749999999976 -0.8750000000000001
v -0.366025625 -0.36602562499999997 -0.25000000000000006
v -0.3169875 -0.25448750000000014 0.6874999999999999
v -0.1830125 0.035737499999999665 1.4955125
v -0.0669875 -0.2499999999999997 -1.3705125
v -0.116025625 -0.4330124999999998 -0.8750000000000001
v -0.133974375 -0.49999999999999994 -0.2500000000000001
v -0.116025625 -0.3705125000000002 0.6874999999999999
v -0.0669875 -0.03125000000000033 1.4955125
v -0.25 -0.06250000000000011 0.5
v -0.25 -0.06249999999999989 -0.5
v -0.25 -0.1250000000000001 0.5
v -0.25 -0.12499999999999989 -0.5
v -2.0625 -0.06250000000000008 0.375
v -2.0625 -0.06249999999999992 -0.375
v -2.0625 -0.12500000000000008 0.375
v -2.0625 -0.12499999999999992 -0.375
v -1.84375 -0.06250000000000011 0.5
v -1.84375 -0.06249999999999989 -0.5
v -1.84375 -0.12499999999999989 -0.5
v -1.84375 -0.1250000000000001 0.5
v -0.25 0.3749999999999999 0.5000000000000001
v -0.25 0.3750000000000001 -0.4999999999999999
v -0.25 0.3124999999999999 0.5000000000000001
v -0.25 0.3125000000000001 -0.49999999999999994
v -2.0625 0.3749999999999999 0.3750000000000001
v -2.0625 0.3750000000000001 -0.3749999999999999
v -2.0625 0.3124999999999999 0.37500000000000006
v -2.0625 0.3125000000000001 -0.37499999999999994
v -1.84375 0.3749999999999999 0.5000000000000001
v -1.84375 0.3750000000000001 -0.4999999999999999
v -1.84375 0.3125000000000001 -0.49999999999999994
v -1.84375 0.3124999999999999 0.5000000000000001
v -0.625 0.5156249999999994 2.34375
v -0.4375 0.46874999999999967 1.4375
v -0.625 0.4531249999999995 2.34375
v -0.4375 0.40624999999999967 1.4375
v -0.375 0.5156249999999994 2.34375
v -0.375 0.46874999999999967 1.4375
v -0.375 0.40624999999999967 1.4375
v -0.375 0.4531249999999995 2.34375
v -0.375 0.49999999999999956 1.875
v -0.625 0.49999999999999956 1.875
v -0.625 0.43749999999999956 1.875
v -0.375 0.43749999999999956 1.875
v -0.03125 0.9999999999999994 2.34375
v -0.03125 0.9999999999999996 1.8125000000000002
v -0.03125 0.4374999999999995 2.34375
v -0.03125 0.43749999999999967 1.4375
v -1.78125 0.31249999999999994 0.34375000000000006
v -1.78125 0.31249999999999994 0.28125000000000006
v -1.78125 -0.06250000000000008 0.34375
v -1.78125 -0.06250000000000006 0.28125
v -1.84375 0.31249999999999994 0.34375000000000006
v -1.84375 0.31249999999999994 0.28125000000000006
v -1.84375 -0.06250000000000008 0.34375
v -1.84375 -0.06250000000000006 0.28125
v -0.96875 0.31249999999999994 0.34375000000000006
v -0.96875 0.31249999999999994 0.28125000000000006
v -0.96875 -0.06250000000000008 0.34375
v -0.96875 -0.06250000000000006 0.28125
v -1.03125 0.31249999999999994 0.34375000000000006
v -1.03125 0.31249999999999994 0.28125000000000006
v -1.03125 -0.06250000000000008 0.34375
v -1.03125 -0.06250000000000006 0.28125
v -0.96875 0.31250000000000006 -0.21874999999999994
v -0.96875 0.31250000000000006 -0.28124999999999994
v -0.96875 -0.06249999999999995 -0.21875
v -0.96875 -0.06249999999999994 -0.28125
v -1.03125 0.31250000000000006 -0.21874999999999994
v -1.03125 0.31250000000000006 -0.28124999999999994
v -1.03125 -0.06249999999999995 -0.21875
v -1.03125 -0.06249999999999994 -0.28125
v -1.78125 0.31250000000000006 -0.21874999999999994
v -1.78125 0.31250000000000006 -0.28124999999999994
v -1.78125 -0.06249999999999995 -0.21875
v -1.78125 -0.06249999999999994 -0.28125
v -1.84375 0.31250000000000006 -0.21874999999999994
v -1.84375 0.31250000000000006 -0.28124999999999994
v -1.84375 -0.06249999999999995 -0.21875
v -1.84375 -0.06249999999999994 -0.28125
vt 0.09207734375 0.9687434765625
vt 0.0993292578125 0.9729296484375
vt 0.087890625 0.9843708203125
vt 0.2047065625 0.9978447265625
vt 0.199170390625 0.9651537890625
vt 0.2136325390625 0.9640643359375
vt 0.213056328125 0.9972157421875
vt 0.199170390625 0.9651537890625
vt 0.1984779296875 0.9255532421875
vt 0.211965859375 0.924857109375
vt 0.213484609375 0.9640754687499999
vt 0.1984779296875 0.9255532421875
vt 0.1947515625 0.86706671875
vt 0.2060265234375 0.8664795703125
vt 0.211960390625 0.9248573828125
vt 0.1947515625 0.86706671875
vt 0.18778046875 0.8165380859375
vt 0.1961487890625 0.8162454296875
vt 0.2058584765625 0.8664883203125
vt 0.1961534765625 0.81645265625
vt 0.18778046875 0.8165380859375
vt 0.18359375 0.7615701171875
vt 0.0993292578125 0.9729296484375
vt 0.10351703125 0.9801806640625
vt 0.087890625 0.9843708203125
vt 0.0979065625 0.9379678515625
vt 0.095810546875 0.904877734375
vt 0.1103074609375 0.9053027734375
vt 0.10627640625 0.938213203125
vt 0.095810546875 0.904877734375
vt 0.09584046875 0.8655758203125
vt 0.1125801171875 0.8660665625
vt 0.1103074609375 0.9053027734375
vt 0.09584046875 0.8655758203125
vt 0.0952988671875 0.8068983984375
vt 0.1097957421875 0.8073234375
vt 0.1125801171875 0.8660665625
vt 0.0952988671875 0.8068983984375
vt 0.0914009765625 0.7558376171875
vt 0.0997708203125 0.7560830078125
vt 0.1097957421875 0.8073234375
vt 0.0997708203125 0.7560830078125
vt 0.0914009765625 0.7558376171875
vt 0.083687109375 0.7000673046875
vt 0.10351703125 0.9801806640625
vt 0.10351890625 0.9885541015625
vt 0.087890625 0.9843708203125
vt 0.1167668359375 0.938366796875
vt 0.1137019921875 0.90535234375
vt 0.1282051171875 0.90535234375
vt 0.1251402734375 0.938366796875
vt 0.1137019921875 0.90535234375
vt 0.1125801171875 0.86606640625
vt 0.1293269921875 0.86606640625
vt 0.1282051171875 0.90535234375
vt 0.1125801171875 0.86606640625
vt 0.1097957421875 0.8073234375
vt 0.1242988671875 0.8073234375
vt 0.1293269921875 0.86606640625
vt 0.1097957421875 0.8073234375
vt 0.1030949609375 0.7555433593750001
vt 0.1114683984375 0.7555433593750001
vt 0.1242988671875 0.8073234375
vt 0.1114683984375 0.7555433593750001
vt 0.1030949609375 0.7555433593750001
vt 0.0916566796875 0.69839765625
vt 0.10351890625 0.9885541015625
vt 0.099334296875 0.9958069140625
vt 0.087890625 0.9843708203125
vt 0.1369080859375 0.938090078125
vt 0.1322945703125 0.9052562109375
vt 0.146781640625 0.904574375
vt 0.145272265625 0.93769640625
vt 0.1322945703125 0.9052562109375
vt 0.1293269921875 0.8660664453125
vt 0.1460553515625 0.865279140625
vt 0.146781640625 0.904574375
vt 0.1293269921875 0.8660664453125
vt 0.1242988671875 0.8073234375
vt 0.1387859765625 0.8066416015625
vt 0.1460553515625 0.865279140625
vt 0.1242988671875 0.8073234375
vt 0.1164171875 0.75456296875
vt 0.1247813671875 0.754169296875
vt 0.1387859765625 0.8066416015625
vt 0.1247813671875 0.754169296875
vt 0.1164171875 0.75456296875
vt 0.104273359375 0.6953125
vt 0.099334296875 0.9958069140625
vt 0.09208421875 0.9999962890625
vt 0.087890625 0.9843708203125
vt 0.0261815625 1
vt 0.0212376953125 0.9672142578125
vt 0.0357171875 0.9663866015625
vt 0.0345413671875 0.9995221484375
vt 0.0212376953125 0.9672142578125
vt 0.0178757421875 0.9280563671875
vt 0.0345953125 0.9271006640625
vt 0.0357171875 0.9663866015625
vt 0.0178757421875 0.9280563671875
vt 0.013674296875 0.869119609375
vt 0.0281537890625 0.868291953125
vt 0.0345953125 0.9271006640625
vt 0.013674296875 0.869119609375
vt 0.0087617578125 0.815032890625
vt 0.0171215625 0.8145550390625
vt 0.0281537890625 0.868291953125
vt 0.0171215625 0.8145550390625
vt 0.0087617578125 0.815032890625
vt 0.00159109375 0.7531189453125
vt 0.09207046875 1
vt 0.08369703125 0.9999962890625
vt 0.087890625 0.9843708203125
vt 0.03878203125 0.9994010546875
vt 0.0357171875 0.9663866015625
vt 0.0502203125 0.9663866015625
vt 0.04715546875 0.9994010546875
vt 0.0357171875 0.9663866015625
vt 0.0345953125 0.9271006640625
vt 0.0513421875 0.9271006640625
vt 0.0502203125 0.9663866015625
vt 0.0345953125 0.9271006640625
vt 0.0357171875 0.8679502734375
vt 0.0502203125 0.8679502734375
vt 0.0513421875 0.9271006640625
vt 0.0357171875 0.8679502734375
vt 0.03878203125 0.8131787890625
vt 0.04715546875 0.8131787890625
vt 0.0502203125 0.8679502734375
vt 0.04715546875 0.8131787890625
vt 0.03878203125 0.8131787890625
vt 0.04296875 0.7499487109375
vt 0.08370390625 0.9687434765625
vt 0.09207734375 0.9687434765625
vt 0.087890625 0.9843708203125
vt 0.196615234375 1
vt 0.1851559375 0.968886796875
vt 0.199170390625 0.9651537890625
vt 0.2047065625 0.9978447265625
vt 0.1851559375 0.968886796875
vt 0.170185234375 0.93221875
vt 0.193917109375 0.9258973046875
vt 0.199170390625 0.9651537890625
vt 0.1724359375 0.8670666015625
vt 0.17940703125 0.8165380859375
vt 0.18778046875 0.8165380859375
vt 0.1947515625 0.8670666015625
vt 0.18778046875 0.8165380859375
vt 0.17940703125 0.8165380859375
vt 0.18359375 0.7615701171875
vt 0.078125 0.890625
vt 0.08203125 0.890625
vt 0.08203125 0.953125
vt 0.078125 0.953125
vt 0.01171875 1
vt 0.01171875 0.953125
vt 0.015625 0.953125
vt 0.015625 1
vt 0.314453125 0.84765625
vt 0.314453125 0.91015625
vt 0.21484375 0.91015625
vt 0.21484375 0.84765625
vt 0.232421875 1
vt 0.232421875 0.9375
vt 0.33203125 0.9375
vt 0.33203125 1
vt 0.5106814453125 0.9921875
vt 0.5106814453125 0.99609375
vt 0.4110720703125 0.99609375
vt 0.4110720703125 0.9921875
vt 0.5145876953125 0.98828125
vt 0.5145876953125 0.9921875
vt 0.4149783203125 0.9921875
vt 0.4149783203125 0.98828125
vt 0.314453125 0.91015625
vt 0.314453125 0.84765625
vt 0.328125 0.85546875
vt 0.328125 0.90234375
vt 0.5145876953125 0.9921875
vt 0.5145876953125 0.98828125
vt 0.5303341796875 0.98828125
vt 0.5303341796875 0.9921875
vt 0.232421875 0.9375
vt 0.232421875 1
vt 0.21875 0.9921875
vt 0.21875 0.9453125
vt 0.5106814453125 0.99609375
vt 0.5106814453125 0.9921875
vt 0.5264279296875 0.9921875
vt 0.5264279296875 0.99609375
vt 0.0859375 0.890625
vt 0.08984375 0.890625
vt 0.08984375 0.953125
vt 0.0859375 0.953125
vt 0 0.8671875
vt 0 0.8203125
vt 0.00390625 0.8203125
vt 0.00390625 0.8671875
vt 0.349609375 0.78125
vt 0.349609375 0.84375
vt 0.25 0.84375
vt 0.25 0.78125
vt 0.263671875 0.77734375
vt 0.263671875 0.71484375
vt 0.36328125 0.71484375
vt 0.36328125 0.77734375
vt 0.5184939453125 0.953125
vt 0.5184939453125 0.95703125
vt 0.4188845703125 0.95703125
vt 0.4188845703125 0.953125
vt 0.5184939453125 0.96875
vt 0.5184939453125 0.97265625
vt 0.4188845703125 0.97265625
vt 0.4188845703125 0.96875
vt 0.349609375 0.84375
vt 0.349609375 0.78125
vt 0.36328125 0.7890625
vt 0.36328125 0.8359375
vt 0.5184939453125 0.97265625
vt 0.5184939453125 0.96875
vt 0.5342404296875 0.96875
vt 0.5342404296875 0.97265625
vt 0.263671875 0.71484375
vt 0.263671875 0.77734375
vt 0.25 0.76953125
vt 0.25 0.72265625
vt 0.5184939453125 0.95703125
vt 0.5184939453125 0.953125
vt 0.5342404296875 0.953125
vt 0.5342404296875 0.95703125
vt 0.43359375 0.5682738281249999
vt 0.43359375 0.59758671875
vt 0.38671875 0.59758671875
vt 0.38671875 0.5682738281249999
vt 0.14453125 0.953125
vt 0.09765625 0.953125
vt 0.09765625 0.94921875
vt 0.14453125 0.94921875
vt 0.3984375 0.94140625
vt 0.3984375 0.970719140625
vt 0.3515625 0.970719140625
vt 0.3515625 0.94140625
vt 0.1328125 0.9609375
vt 0.0859375 0.9609375
vt 0.0859375 0.95703125
vt 0.1328125 0.95703125
vt 0.38671875 0.625
vt 0.38671875 0.59758671875
vt 0.43359375 0.59758671875
vt 0.43359375 0.625
vt 0.3515625 0.998132421875
vt 0.3515625 0.970719140625
vt 0.3984375 0.970719140625
vt 0.3984375 0.998132421875
vt 0.44921875 0.5682738281249999
vt 0.44921875 0.59758671875
vt 0.43359375 0.59758671875
vt 0.43359375 0.5682738281249999
vt 0.3515625 0.94140625
vt 0.3515625 0.970719140625
vt 0.3359375 0.970719140625
vt 0.3359375 0.94140625
vt 0.1484375 0.9609375
vt 0.1328125 0.9609375
vt 0.1328125 0.95703125
vt 0.1484375 0.95703125
vt 0.1484375 0.953125
vt 0.14453125 0.953125
vt 0.14453125 0.94921875
vt 0.1484375 0.94921875
vt 0.00439453125 0.940954296875
vt 0.00537109375 0.970251171875
vt 0.00146484375 0.970251171875
vt 0.00048828125 0.940954296875
vt 0.43359375 0.625
vt 0.43359375 0.59758671875
vt 0.44921875 0.59758671875
vt 0.4375 0.625
vt 0.00341796875 1
vt 0.00146484375 0.970251171875
vt 0.00537109375 0.970251171875
vt 0.00732421875 1
vt 0.34765625 0.998132421875
vt 0.3359375 0.970719140625
vt 0.3515625 0.970719140625
vt 0.3515625 0.998132421875
vt 0.13671875 0.765625
vt 0.13671875 0.73046875
vt 0.171875 0.73046875
vt 0.171875 0.7890625
vt 0.109375 0.96484375
vt 0.11328125 0.96484375
vt 0.11328125 1
vt 0.109375 1
vt 0.02734375 0.83984375
vt 0.02734375 0.78125
vt 0.03125 0.78125
vt 0.03125 0.83984375
vt 0.12109375 0.96484375
vt 0.12109375 1
vt 0.1171875 1
vt 0.1171875 0.96484375
vt 0.01953125 0.76171875
vt 0.0234375 0.76171875
vt 0.0234375 0.8046875
vt 0.01953125 0.8046875
vt 0.125 0.99609375
vt 0.1484375 0.99609375
vt 0.1484375 1
vt 0.125 1
vt 0.125 0.9921875
vt 0.125 0.98828125
vt 0.1484375 0.98828125
vt 0.1484375 0.9921875
vt 0.06640625 1
vt 0.06640625 0.99609375
vt 0.0703125 0.99609375
vt 0.0703125 1
vt 0.140625 0.78515625
vt 0.14453125 0.78515625
vt 0.14453125 0.7890625
vt 0.140625 0.7890625
vt 0.17578125 1
vt 0.171875 1
vt 0.171875 0.9765625
vt 0.17578125 0.9765625
vt 0.08984375 0.796875
vt 0.08984375 0.8203125
vt 0.0859375 0.8203125
vt 0.0859375 0.796875
vt 0.125 0.98046875
vt 0.1484375 0.98046875
vt 0.1484375 0.984375
vt 0.125 0.984375
vt 0.125 0.9765625
vt 0.125 0.97265625
vt 0.1484375 0.97265625
vt 0.1484375 0.9765625
vt 0.16015625 0.828125
vt 0.16015625 0.82421875
vt 0.1640625 0.82421875
vt 0.1640625 0.828125
vt 0.1484375 0.78515625
vt 0.15234375 0.78515625
vt 0.15234375 0.7890625
vt 0.1484375 0.7890625
vt 0.19140625 0.921875
vt 0.1875 0.921875
vt 0.1875 0.8984375
vt 0.19140625 0.8984375
vt 0.06640625 0.78125
vt 0.06640625 0.8046875
vt 0.0625 0.8046875
vt 0.0625 0.78125
vt 0.125 0.96484375
vt 0.1484375 0.96484375
vt 0.1484375 0.96875
vt 0.125 0.96875
vt 0.14453125 0.8046875
vt 0.14453125 0.80078125
vt 0.16796875 0.80078125
vt 0.16796875 0.8046875
vt 0.1796875 1
vt 0.1796875 0.99609375
vt 0.18359375 0.99609375
vt 0.18359375 1
vt 0.1796875 0.98828125
vt 0.18359375 0.98828125
vt 0.18359375 0.9921875
vt 0.1796875 0.9921875
vt 0.03125 0.77734375
vt 0.02734375 0.77734375
vt 0.02734375 0.75390625
vt 0.03125 0.75390625
vt 0.2421875 0.8203125
vt 0.2421875 0.84375
vt 0.23828125 0.84375
vt 0.23828125 0.8203125
vt 0.14453125 0.79296875
vt 0.16796875 0.79296875
vt 0.16796875 0.796875
vt 0.14453125 0.796875
vt 0.203125 0.828125
vt 0.203125 0.82421875
vt 0.2265625 0.82421875
vt 0.2265625 0.828125
vt 0.1796875 0.984375
vt 0.1796875 0.98046875
vt 0.18359375 0.98046875
vt 0.18359375 0.984375
vt 0.16015625 0.81640625
vt 0.1640625 0.81640625
vt 0.1640625 0.8203125
vt 0.16015625 0.8203125
vt 0.1796875 0.75390625
vt 0.17578125 0.75390625
vt 0.17578125 0.73046875
vt 0.1796875 0.73046875
vt 0.1875 0.73046875
vt 0.1875 0.75390625
vt 0.18359375 0.75390625
vt 0.18359375 0.73046875
vt 0.0764519921875 0.9729296484375
vt 0.08370390625 0.9687434765625
vt 0.087890625 0.9843708203125
vt 0.1535549609375 0.9640643359375
vt 0.168017109375 0.9651537890625
vt 0.1624809375 0.9978447265625
vt 0.154131171875 0.9972157421875
vt 0.155221640625 0.924857109375
vt 0.1687095703125 0.9255532421875
vt 0.168017109375 0.9651537890625
vt 0.153702890625 0.9640754687499999
vt 0.1611609765625 0.8664795703125
vt 0.1724359375 0.86706671875
vt 0.1687095703125 0.9255532421875
vt 0.155227109375 0.9248573828125
vt 0.1710387109375 0.8162454296875
vt 0.17940703125 0.8165380859375
vt 0.1724359375 0.86706671875
vt 0.1613290234375 0.8664883203125
vt 0.17940703125 0.8165380859375
vt 0.1710340234375 0.81645265625
vt 0.18359375 0.7615701171875
vt 0.07226421875 0.9801806640625
vt 0.0764519921875 0.9729296484375
vt 0.087890625 0.9843708203125
vt 0.2278102734375 0.7850796875
vt 0.242065546875 0.7877494140625
vt 0.23297578125 0.8196355078124999
vt 0.2247454296875 0.818094140625
vt 0.2289321484375 0.74579375
vt 0.24565171875 0.7467494531250001
vt 0.242289765625 0.7859073437499999
vt 0.2278102734375 0.7850796875
vt 0.2317165234375 0.68705078125
vt 0.2462134375 0.6866257421874999
vt 0.2456718359375 0.7453031640625001
vt 0.2289321484375 0.7457939453125
vt 0.2384173046875 0.635270703125
vt 0.24675390625 0.6344862499999999
vt 0.246155859375 0.6856920703125
vt 0.2317165234375 0.68705078125
vt 0.2467388671875 0.6343401171875
vt 0.2384173046875 0.635270703125
vt 0.249855546875 0.57812515625
vt 0.07226234375 0.9885541015625
vt 0.07226421875 0.9801806640625
vt 0.087890625 0.9843708203125
vt 0.2133071484375 0.7850796875
vt 0.2278102734375 0.7850796875
vt 0.2247454296875 0.818094140625
vt 0.2163719921875 0.818094140625
vt 0.2121852734375 0.74579375
vt 0.2289321484375 0.74579375
vt 0.2278102734375 0.7850796875
vt 0.2133071484375 0.7850796875
vt 0.2172133984375 0.68705078125
vt 0.2317165234375 0.68705078125
vt 0.2289321484375 0.74579375
vt 0.2121852734375 0.74579375
vt 0.2300438671875 0.635270703125
vt 0.2384173046875 0.635270703125
vt 0.2317165234375 0.68705078125
vt 0.2172133984375 0.68705078125
vt 0.2384173046875 0.635270703125
vt 0.2300438671875 0.635270703125
vt 0.2498555859375 0.578125
vt 0.076446953125 0.9958069140625
vt 0.07226234375 0.9885541015625
vt 0.087890625 0.9843708203125
vt 0.199051875 0.7877494140625
vt 0.2133071484375 0.7850796875
vt 0.2163719921875 0.818094140625
vt 0.208141640625 0.8196355078124999
vt 0.195465703125 0.7467494531250001
vt 0.2121852734375 0.74579375
vt 0.2133071484375 0.7850796875
vt 0.19882765625 0.7859073437499999
vt 0.202726328125 0.6863689453124999
vt 0.2172133984375 0.68705078125
vt 0.2121852734375 0.7457937890624999
vt 0.1954569140625 0.7450064843749999
vt 0.221754296875 0.6340886718750001
vt 0.2300438671875 0.635270703125
vt 0.2172134375 0.6870507031249999
vt 0.2028555078125 0.6850033984375
vt 0.2300438671875 0.635270703125
vt 0.2218036328125 0.633783203125
vt 0.24985546875 0.5781253515625
vt 0.08369703125 0.9999962890625
vt 0.076446953125 0.9958069140625
vt 0.087890625 0.9843708203125
vt 0.0502203125 0.9663866015625
vt 0.0646998046875 0.9672142578125
vt 0.0597559375 1
vt 0.0513961328125 0.9995221484375
vt 0.0513421875 0.9271006640625
vt 0.0680617578125 0.9280563671875
vt 0.0646998046875 0.9672142578125
vt 0.0502203125 0.9663866015625
vt 0.0577837109375 0.868291953125
vt 0.072263203125 0.869119609375
vt 0.0680617578125 0.9280563671875
vt 0.0513421875 0.9271006640625
vt 0.0688159375 0.8145550390625
vt 0.0771757421875 0.815032890625
vt 0.072263203125 0.869119609375
vt 0.0577837109375 0.868291953125
vt 0.0771757421875 0.815032890625
vt 0.0688159375 0.8145550390625
vt 0.08434640625 0.7531189453125
vt 0.08203125 0.88671875
vt 0.08203125 0.82421875
vt 0.0859375 0.82421875
vt 0.0859375 0.88671875
vt 0.0546875 0.79296875
vt 0.05859375 0.79296875
vt 0.05859375 0.83984375
vt 0.0546875 0.83984375
vt 0.3671875 0.7109375
vt 0.267578125 0.7109375
vt 0.267578125 0.6484375
vt 0.3671875 0.6484375
vt 0 0.62890625
vt 0.099609375 0.62890625
vt 0.099609375 0.69140625
vt 0 0.69140625
vt 0.5303341796875 0.984375
vt 0.4307248046875 0.984375
vt 0.4307248046875 0.98046875
vt 0.5303341796875 0.98046875
vt 0.5342404296875 0.98046875
vt 0.4346310546875 0.98046875
vt 0.4346310546875 0.9765625
vt 0.5342404296875 0.9765625
vt 0.25390625 0.65625
vt 0.267578125 0.6484375
vt 0.267578125 0.7109375
vt 0.25390625 0.703125
vt 0.4188845703125 0.9765625
vt 0.4346310546875 0.9765625
vt 0.4346310546875 0.98046875
vt 0.4188845703125 0.98046875
vt 0.11328125 0.68359375
vt 0.099609375 0.69140625
vt 0.099609375 0.62890625
vt 0.11328125 0.63671875
vt 0.4149783203125 0.98046875
vt 0.4307248046875 0.98046875
vt 0.4307248046875 0.984375
vt 0.4149783203125 0.984375
vt 0.15234375 0.87109375
vt 0.15234375 0.80859375
vt 0.15625 0.80859375
vt 0.15625 0.87109375
vt 0.1796875 0.875
vt 0.18359375 0.875
vt 0.18359375 0.921875
vt 0.1796875 0.921875
vt 0.4453125 0.9375
vt 0.345703125 0.9375
vt 0.345703125 0.875
vt 0.4453125 0.875
vt 0.25390625 0.58203125
vt 0.353515625 0.58203125
vt 0.353515625 0.64453125
vt 0.25390625 0.64453125
vt 0.5342404296875 0.94921875
vt 0.4346310546875 0.94921875
vt 0.4346310546875 0.9453125
vt 0.5342404296875 0.9453125
vt 0.5342404296875 0.96484375
vt 0.4346310546875 0.96484375
vt 0.4346310546875 0.9609375
vt 0.5342404296875 0.9609375
vt 0.33203125 0.8828125
vt 0.345703125 0.875
vt 0.345703125 0.9375
vt 0.33203125 0.9296875
vt 0.4188845703125 0.9609375
vt 0.4346310546875 0.9609375
vt 0.4346310546875 0.96484375
vt 0.4188845703125 0.96484375
vt 0.3671875 0.63671875
vt 0.353515625 0.64453125
vt 0.353515625 0.58203125
vt 0.3671875 0.58984375
vt 0.4188845703125 0.9453125
vt 0.4346310546875 0.9453125
vt 0.4346310546875 0.94921875
vt 0.4188845703125 0.94921875
vt 0.38671875 0.59758671875
vt 0.37109375 0.59758671875
vt 0.37109375 0.5682738281249999
vt 0.38671875 0.5682738281249999
vt 0.4140625 0.970719140625
vt 0.3984375 0.970719140625
vt 0.3984375 0.94140625
vt 0.4140625 0.94140625
vt 0.0859375 0.95703125
vt 0.0859375 0.9609375
vt 0.0703125 0.9609375
vt 0.0703125 0.95703125
vt 0.09765625 0.94921875
vt 0.09765625 0.953125
vt 0.09375 0.953125
vt 0.09375 0.94921875
vt 0.00634765625 0.903844921875
vt 0.00244140625 0.903844921875
vt 0.00341796875 0.874548046875
vt 0.00732421875 0.874548046875
vt 0.37109375 0.59758671875
vt 0.38671875 0.59758671875
vt 0.38671875 0.625
vt 0.3828125 0.625
vt 0.00244140625 0.903844921875
vt 0.00634765625 0.903844921875
vt 0.00439453125 0.93359375
vt 0.00048828125 0.93359375
vt 0.3984375 0.970719140625
vt 0.4140625 0.970719140625
vt 0.40234375 0.998132421875
vt 0.3984375 0.998132421875
vt 0.0078125 0.69921875
vt 0.04296875 0.69921875
vt 0.04296875 0.734375
vt 0.0078125 0.7578125
vt 0.20703125 0.84375
vt 0.20703125 0.83984375
vt 0.23046875 0.83984375
vt 0.23046875 0.84375
vt 0.20703125 0.83203125
vt 0.23046875 0.83203125
vt 0.23046875 0.8359375
vt 0.20703125 0.8359375
vt 0 0.8125
vt 0.00390625 0.8125
vt 0.00390625 0.81640625
vt 0 0.81640625
vt 0.05078125 0.78125
vt 0.05078125 0.77734375
vt 0.0546875 0.77734375
vt 0.0546875 0.78125
vt 0.1328125 0.7265625
vt 0.1328125 0.75
vt 0.12890625 0.75
vt 0.12890625 0.7265625
vt 0.00390625 0.74609375
vt 0 0.74609375
vt 0 0.72265625
vt 0.00390625 0.72265625
vt 0.21875 0.91796875
vt 0.21875 0.9140625
vt 0.2421875 0.9140625
vt 0.2421875 0.91796875
vt 0.05078125 0.76953125
vt 0.07421875 0.76953125
vt 0.07421875 0.7734375
vt 0.05078125 0.7734375
vt 0.14453125 0.8125
vt 0.1484375 0.8125
vt 0.1484375 0.81640625
vt 0.14453125 0.81640625
vt 0.140625 0.78125
vt 0.140625 0.77734375
vt 0.14453125 0.77734375
vt 0.14453125 0.78125
vt 0.08203125 0.72265625
vt 0.08203125 0.74609375
vt 0.078125 0.74609375
vt 0.078125 0.72265625
vt 0.05078125 0.7421875
vt 0.046875 0.7421875
vt 0.046875 0.71875
vt 0.05078125 0.71875
vt 0.05078125 0.765625
vt 0.05078125 0.76171875
vt 0.07421875 0.76171875
vt 0.07421875 0.765625
vt 0.05078125 0.75390625
vt 0.07421875 0.75390625
vt 0.07421875 0.7578125
vt 0.05078125 0.7578125
vt 0.1875 0.890625
vt 0.19140625 0.890625
vt 0.19140625 0.89453125
vt 0.1875 0.89453125
vt 0.1875 0.88671875
vt 0.1875 0.8828125
vt 0.19140625 0.8828125
vt 0.19140625 0.88671875
vt 0.05859375 0.71875
vt 0.05859375 0.7421875
vt 0.0546875 0.7421875
vt 0.0546875 0.71875
vt 0.06640625 0.7421875
vt 0.0625 0.7421875
vt 0.0625 0.71875
vt 0.06640625 0.71875
vt 0.24609375 0.91796875
vt 0.24609375 0.9140625
vt 0.26953125 0.9140625
vt 0.26953125 0.91796875
vt 0.05078125 0.74609375
vt 0.07421875 0.74609375
vt 0.07421875 0.75
vt 0.05078125 0.75
vt 0.16015625 0.80859375
vt 0.1640625 0.80859375
vt 0.1640625 0.8125
vt 0.16015625 0.8125
vt 0.05078125 0.7890625
vt 0.05078125 0.78515625
vt 0.0546875 0.78515625
vt 0.0546875 0.7890625
vt 0.07421875 0.71875
vt 0.07421875 0.7421875
vt 0.0703125 0.7421875
vt 0.0703125 0.71875
vt 0.00390625 0.71875
vt 0 0.71875
vt 0 0.6953125
vt 0.00390625 0.6953125
vt 0.3984375 0.808593359375
vt 0.399559375 0.8671875
vt 0.375 0.8671875
vt 0.376121875 0.808593359375
vn 0.008973601308484003 0.015542632458546316 -0.9998389375573522
vn 0.46903039064015545 0.8123872159881754 -0.34646428958108344
vn 0.6118179476380713 0.7742861110154053 -0.1617399679627082
vn 0.6421913683229344 0.7663781164991086 0.01596336439464125
vn 0.497632842637038 0.8619197696131718 0.09724127045117244
vn 0.49964024025006626 0.8653966616908222 0.03805585706874911
vn 0.015542632458546094 0.008973601308484225 -0.9998389375573522
vn 0.8123869106424196 0.46903021434929776 -0.3464652442083
vn 0.8610943935731975 0.49715131116498235 -0.10656931623946231
vn 0.8653975994901959 0.4996358462561619 0.03809220304072603
vn 0.8588184198895669 0.49584226591124625 0.12872982946616765
vn 0.8574073906396806 0.49502760250356026 0.14071332288035635
vn 0.01794710893117586 2.2200884190359135e-16 -0.9998389376699693
vn 0.9380632288741348 7.69304861424252e-17 -0.3464641087244572
vn 0.9943052412288026 2.3663212668201933e-17 -0.10656963575490302
vn 0.9974569442738531 -1.5825479487940375e-17 0.0712716235248477
vn 0.975296067304543 -4.9050040774302886e-17 0.2209017453536581
vn 0.961893486350972 -6.071242034615689e-17 0.27342443364771307
vn 0.015542632458546094 -0.008973601308483781 -0.9998389375573522
vn 0.8123872159881753 -0.4690303906401554 -0.3464642895810837
vn 0.8610943961226698 -0.4971513126369157 -0.10656928877273478
vn 0.8613103753839647 -0.4972760943035814 0.1042157535601477
vn 0.8240567901002737 -0.47577249926172865 0.3075238781556354
vn 0.7966308569385996 -0.4599380265388878 0.3922196954728129
vn 0.008973601308484003 -0.015542632458545872 -0.9998389375573522
vn 0.4690302143492978 -0.8123869106424197 -0.3464652442083003
vn 0.49715131116498235 -0.8610943935731975 -0.10656931623946261
vn 0.49587785488696595 -0.8588885454778068 0.12812345405786726
vn 0.46520220423198033 -0.805748620951902 0.3665461349023005
vn 0.4417101206078333 -0.7650594027769937 0.4685896707943136
vn 0 -0.017947108931175636 -0.9998389376699693
vn 0 -0.9380632288741347 -0.34646410872445743
vn 0 -0.9943052412288026 -0.10656963575490325
vn 0 -0.9905957751532561 0.1368210884641675
vn 0 -0.9220239603175642 0.3871328151943657
vn 0 -0.8693329010533406 0.4942269793790931
vn 0 0.01794710893117608 -0.9998389376699693
vn 0 0.938063228874135 -0.346464108724457
vn 0 0.9943052412288027 -0.10656963575490282
vn 0 0.9994519375330645 0.03310324095014476
vn 0 1 2.220446049250313e-16
vn -1 0 0
vn 1 0 0
vn 0 1 2.220446049250313e-16
vn 0 -1 -2.220446049250313e-16
vn 0 -2.220446049250313e-16 1
vn 0 2.220446049250313e-16 -1
vn 0 1 2.220446049250313e-16
vn 0.49613893835683387 1.9278870547189337e-16 -0.8682431421244593
vn 0 -1 -2.220446049250313e-16
vn 0.49613893835683387 -1.9278870547189337e-16 0.8682431421244593
vn -1 0 0
vn 1 0 0
vn 0 1 2.220446049250313e-16
vn 0 -1 -2.220446049250313e-16
vn 0 -2.220446049250313e-16 1
vn 0 2.220446049250313e-16 -1
vn 0 1 2.220446049250313e-16
vn 0.49613893835683387 1.9278870547189337e-16 -0.8682431421244593
vn 0 -1 -2.220446049250313e-16
vn 0.49613893835683387 -1.9278870547189337e-16 0.8682431421244593
vn 0 0.9994449069791543 -0.03331483023263826
vn 0 2.220446049250313e-16 -1
vn 0 -0.9994449069791543 0.03331483023263826
vn 0 -2.220446049250313e-16 1
vn 0 0.997458699830735 -0.07124704998790943
vn 0 -0.997458699830735 0.07124704998790943
vn 0 0.9994449069791543 -0.03331483023263826
vn 0 -0.9994449069791543 0.03331483023263826
vn 0 -2.220446049250313e-16 1
vn 0 2.220446049250313e-16 -1
vn 1 0 0
vn 0 0.9974586998307351 -0.07124704998790943
vn 0.919145030018058 8.746765502535675e-17 -0.39391929857916774
vn 0 -0.9974586998307351 0.07124704998790943
vn 1 0 0
vn 0 1 2.220446049250313e-16
vn 0 -1 -2.220446049250313e-16
vn 0 -2.220446049250313e-16 1
vn 0 0.5547001962252294 -0.8320502943378437
vn -1 0 0
vn 1 0 0
vn 0 1 2.220446049250313e-16
vn 0 -1 -2.220446049250313e-16
vn 0 -2.220446049250313e-16 1
vn 0 2.220446049250313e-16 -1
vn -1 0 0
vn 1 0 0
vn 0 1 2.220446049250313e-16
vn 0 -1 -2.220446049250313e-16
vn 0 -2.220446049250313e-16 1
vn 0 2.220446049250313e-16 -1
vn -1 0 0
vn 1 0 0
vn 0 1 2.220446049250313e-16
vn 0 -1 -2.220446049250313e-16
vn 0 -2.220446049250313e-16 1
vn 0 2.220446049250313e-16 -1
vn -1 0 0
vn 1 0 0
vn 0 1 2.220446049250313e-16
vn 0 -1 -2.220446049250313e-16
vn 0 -2.220446049250313e-16 1
vn 0 2.220446049250313e-16 -1
vn -0.008973601308484003 0.015542632458546316 -0.9998389375573522
vn -0.4690303906401554 0.8123872159881754 -0.34646428958108344
vn -0.6118179476380712 0.7742861110154055 -0.1617399679627082
vn -0.6421913683229344 0.7663781164991086 0.015963364394641247
vn -0.497632842637038 0.8619197696131718 0.09724127045117244
vn -0.49964024025006626 0.8653966616908222 0.03805585706874911
vn -0.015542632458546094 0.008973601308484225 -0.9998389375573522
vn -0.8123869106424199 0.4690302143492979 -0.3464652442083
vn -0.8610943935731973 0.49715131116498235 -0.1065693162394623
vn -0.8653975994901959 0.4996358462561619 0.03809220304072603
vn -0.8588184198895671 0.4958422659112463 0.12872982946616765
vn -0.8574073906396806 0.49502760250356026 0.14071332288035635
vn -0.01794710893117586 2.2200884190359135e-16 -0.9998389376699693
vn -0.9380632288741348 7.69304861424252e-17 -0.3464641087244572
vn -0.9943052412288026 2.3663212668201933e-17 -0.10656963575490302
vn -0.9974569442738531 -1.5825479487940375e-17 0.0712716235248477
vn -0.975296067304543 -4.9050040774302886e-17 0.2209017453536581
vn -0.961893486350972 -6.071242034615689e-17 0.27342443364771307
vn -0.015542632458546094 -0.008973601308483781 -0.9998389375573522
vn -0.8123872159881753 -0.46903039064015534 -0.3464642895810837
vn -0.8610943961226698 -0.4971513126369157 -0.10656928877273478
vn -0.8613103753839647 -0.49727609430358144 0.10421575356014769
vn -0.8240567901002736 -0.4757724992617289 0.3075238781556354
vn -0.7966308569385996 -0.4599380265388878 0.3922196954728128
vn -0.008973601308484003 -0.015542632458545872 -0.9998389375573522
vn -0.46903021434929787 -0.8123869106424197 -0.34646524420830027
vn -0.49715131116498235 -0.8610943935731973 -0.1065693162394626
vn -0.49587785488696595 -0.8588885454778069 0.12812345405786726
vn -0.4652022042319804 -0.8057486209519017 0.3665461349023005
vn -0.4417101206078333 -0.7650594027769937 0.46858967079431363
vn 1 0 0
vn -1 0 0
vn 0 1 2.220446049250313e-16
vn 0 -1 -2.220446049250313e-16
vn 0 -2.220446049250313e-16 1
vn 0 2.220446049250313e-16 -1
vn 0 1 2.220446049250313e-16
vn -0.49613893835683387 1.9278870547189337e-16 -0.8682431421244593
vn 0 -1 -2.220446049250313e-16
vn -0.49613893835683387 -1.9278870547189337e-16 0.8682431421244593
vn 1 0 0
vn -1 0 0
vn 0 1 2.220446049250313e-16
vn 0 -1 -2.220446049250313e-16
vn 0 -2.220446049250313e-16 1
vn 0 2.220446049250313e-16 -1
vn 0 1 2.220446049250313e-16
vn -0.49613893835683387 1.9278870547189337e-16 -0.8682431421244593
vn 0 -1 -2.220446049250313e-16
vn -0.49613893835683387 -1.9278870547189337e-16 0.8682431421244593
vn 0 0.9994449069791543 -0.03331483023263826
vn 0 -0.9994449069791543 0.03331483023263826
vn 0 -2.220446049250313e-16 1
vn 0 2.220446049250313e-16 -1
vn -1 0 0
vn 0 0.9974586998307351 -0.07124704998790943
vn -0.919145030018058 8.746765502535675e-17 -0.39391929857916774
vn 0 -0.9974586998307351 0.07124704998790943
vn -1 0 0
vn 1 0 0
vn -1 0 0
vn 0 1 2.220446049250313e-16
vn 0 -1 -2.220446049250313e-16
vn 0 -2.220446049250313e-16 1
vn 0 2.220446049250313e-16 -1
vn 1 0 0
vn -1 0 0
vn 0 1 2.220446049250313e-16
vn 0 -1 -2.220446049250313e-16
vn 0 -2.220446049250313e-16 1
vn 0 2.220446049250313e-16 -1
vn 1 0 0
vn -1 0 0
vn 0 1 2.220446049250313e-16
vn 0 -1 -2.220446049250313e-16
vn 0 -2.220446049250313e-16 1
vn 0 2.220446049250313e-16 -1
vn 1 0 0
vn -1 0 0
vn 0 1 2.220446049250313e-16
vn 0 -1 -2.220446049250313e-16
vn 0 -2.220446049250313e-16 1
vn 0 2.220446049250313e-16 -1
vn 0 0.9999885441079704 0.00478661183113035
usemtl m_4379f715-ac56-da97-8da2-92f628fb4907
f 3/1/1 8/2/1 2/3/1
f 3/4/2 4/5/2 9/6/2 8/7/2
f 4/8/3 5/9/3 10/10/3 9/11/3
f 5/12/4 6/13/4 11/14/4 10/15/4
f 6/16/5 7/17/5 12/18/5 11/19/5
f 12/20/6 7/21/6 1/22/6
f 8/23/7 13/24/7 2/25/7
f 8/26/8 9/27/8 14/28/8 13/29/8
f 9/30/9 10/31/9 15/32/9 14/33/9
f 10/34/10 11/35/10 16/36/10 15/37/10
f 11/38/11 12/39/11 17/40/11 16/41/11
f 17/42/12 12/43/12 1/44/12
f 13/45/13 18/46/13 2/47/13
f 13/48/14 14/49/14 19/50/14 18/51/14
f 14/52/15 15/53/15 20/54/15 19/55/15
f 15/56/16 16/57/16 21/58/16 20/59/16
f 16/60/17 17/61/17 22/62/17 21/63/17
f 22/64/18 17/65/18 1/66/18
f 18/67/19 23/68/19 2/69/19
f 18/70/20 19/71/20 24/72/20 23/73/20
f 19/74/21 20/75/21 25/76/21 24/77/21
f 20/78/22 21/79/22 26/80/22 25/81/22
f 21/82/23 22/83/23 27/84/23 26/85/23
f 27/86/24 22/87/24 1/88/24
f 23/89/25 28/90/25 2/91/25
f 23/92/26 24/93/26 29/94/26 28/95/26
f 24/96/27 25/97/27 30/98/27 29/99/27
f 25/100/28 26/101/28 31/102/28 30/103/28
f 26/104/29 27/105/29 32/106/29 31/107/29
f 32/108/30 27/109/30 1/110/30
f 28/111/31 130/112/31 2/113/31
f 28/114/32 29/115/32 131/116/32 130/117/32
f 29/118/33 30/119/33 132/120/33 131/121/33
f 30/122/34 31/123/34 133/124/34 132/125/34
f 31/126/35 32/127/35 134/128/35 133/129/35
f 134/130/36 32/131/36 1/132/36
f 105/133/37 3/134/37 2/135/37
f 105/136/38 106/137/38 4/138/38 3/139/38
f 106/140/39 107/141/39 5/142/39 4/143/39
f 108/144/40 109/145/40 7/146/40 6/147/40
f 7/148/41 109/149/41 1/150/41
f 35/151/42 33/152/42 34/153/42 36/154/42
f 38/155/43 37/156/43 39/157/43 40/158/43
f 41/159/44 42/160/44 34/161/44 33/162/44
f 43/163/45 44/164/45 35/165/45 36/166/45
f 44/167/46 41/168/46 33/169/46 35/170/46
f 42/171/47 43/172/47 36/173/47 34/174/47
f 42/175/48 41/176/48 37/177/48 38/178/48
f 43/179/49 42/180/49 38/181/49 40/182/49
f 44/183/50 43/184/50 40/185/50 39/186/50
f 41/187/51 44/188/51 39/189/51 37/190/51
f 47/191/52 45/192/52 46/193/52 48/194/52
f 50/195/53 49/196/53 51/197/53 52/198/53
f 53/199/54 54/200/54 46/201/54 45/202/54
f 55/203/55 56/204/55 47/205/55 48/206/55
f 56/207/56 53/208/56 45/209/56 47/210/56
f 54/211/57 55/212/57 48/213/57 46/214/57
f 54/215/58 53/216/58 49/217/58 50/218/58
f 55/219/59 54/220/59 50/221/59 52/222/59
f 56/223/60 55/224/60 52/225/60 51/226/60
f 53/227/61 56/228/61 51/229/61 49/230/61
f 61/231/62 65/232/62 167/233/62 163/234/62
f 63/235/63 165/236/63 164/237/63 62/238/63
f 166/239/64 170/240/64 68/241/64 64/242/64
f 61/243/65 163/244/65 166/245/65 64/246/65
f 164/247/66 167/248/66 65/249/66 62/250/66
f 63/251/67 68/252/67 170/253/67 165/254/67
f 57/255/68 66/256/68 65/257/68 61/258/68
f 64/259/69 68/260/69 67/261/69 59/262/69
f 57/263/70 61/264/70 64/265/70 59/266/70
f 60/267/71 63/268/71 62/269/71 58/270/71
f 59/271/72 67/272/72 66/273/72 57/274/72
f 62/275/73 65/276/73 66/277/73 58/278/73
f 58/279/74 66/280/74 67/281/74 60/282/74
f 60/283/75 67/284/75 68/285/75 63/286/75
f 70/287/76 69/288/76 71/289/76 72/290/76
f 171/291/77 69/292/77 70/293/77 172/294/77
f 72/295/78 71/296/78 173/297/78 174/298/78
f 71/299/79 69/300/79 171/301/79 173/302/79
f 172/303/80 70/304/80 72/305/80 174/306/80
f 75/307/81 73/308/81 74/309/81 76/310/81
f 78/311/82 77/312/82 79/313/82 80/314/82
f 74/315/83 73/316/83 77/317/83 78/318/83
f 79/319/84 75/320/84 76/321/84 80/322/84
f 77/323/85 73/324/85 75/325/85 79/326/85
f 76/327/86 74/328/86 78/329/86 80/330/86
f 83/331/87 81/332/87 82/333/87 84/334/87
f 86/335/88 85/336/88 87/337/88 88/338/88
f 82/339/89 81/340/89 85/341/89 86/342/89
f 87/343/90 83/344/90 84/345/90 88/346/90
f 85/347/91 81/348/91 83/349/91 87/350/91
f 84/351/92 82/352/92 86/353/92 88/354/92
f 91/355/93 89/356/93 90/357/93 92/358/93
f 94/359/94 93/360/94 95/361/94 96/362/94
f 90/363/95 89/364/95 93/365/95 94/366/95
f 95/367/96 91/368/96 92/369/96 96/370/96
f 93/371/97 89/372/97 91/373/97 95/374/97
f 92/375/98 90/376/98 94/377/98 96/378/98
f 99/379/99 97/380/99 98/381/99 100/382/99
f 102/383/100 101/384/100 103/385/100 104/386/100
f 98/387/101 97/388/101 101/389/101 102/390/101
f 103/391/102 99/392/102 100/393/102 104/394/102
f 101/395/103 97/396/103 99/397/103 103/398/103
f 100/399/104 98/400/104 102/401/104 104/402/104
f 110/403/105 105/404/105 2/405/105
f 111/406/106 106/407/106 105/408/106 110/409/106
f 112/410/107 107/411/107 106/412/107 111/413/107
f 113/414/108 108/415/108 107/416/108 112/417/108
f 114/418/109 109/419/109 108/420/109 113/421/109
f 109/422/110 114/423/110 1/424/110
f 115/425/111 110/426/111 2/427/111
f 116/428/112 111/429/112 110/430/112 115/431/112
f 117/432/113 112/433/113 111/434/113 116/435/113
f 118/436/114 113/437/114 112/438/114 117/439/114
f 119/440/115 114/441/115 113/442/115 118/443/115
f 114/444/116 119/445/116 1/446/116
f 120/447/117 115/448/117 2/449/117
f 121/450/118 116/451/118 115/452/118 120/453/118
f 122/454/119 117/455/119 116/456/119 121/457/119
f 123/458/120 118/459/120 117/460/120 122/461/120
f 124/462/121 119/463/121 118/464/121 123/465/121
f 119/466/122 124/467/122 1/468/122
f 125/469/123 120/470/123 2/471/123
f 126/472/124 121/473/124 120/474/124 125/475/124
f 127/476/125 122/477/125 121/478/125 126/479/125
f 128/480/126 123/481/126 122/482/126 127/483/126
f 129/484/127 124/485/127 123/486/127 128/487/127
f 124/488/128 129/489/128 1/490/128
f 130/491/129 125/492/129 2/493/129
f 131/494/130 126/495/130 125/496/130 130/497/130
f 132/498/131 127/499/131 126/500/131 131/501/131
f 133/502/132 128/503/132 127/504/132 132/505/132
f 134/506/133 129/507/133 128/508/133 133/509/133
f 129/510/134 134/511/134 1/512/134
f 136/513/135 135/514/135 137/515/135 138/516/135
f 141/517/136 139/518/136 140/519/136 142/520/136
f 136/521/137 144/522/137 143/523/137 135/524/137
f 137/525/138 146/526/138 145/527/138 138/528/138
f 135/529/139 143/530/139 146/531/139 137/532/139
f 138/533/140 145/534/140 144/535/140 136/536/140
f 139/537/141 143/538/141 144/539/141 140/540/141
f 140/541/142 144/542/142 145/543/142 142/544/142
f 142/545/143 145/546/143 146/547/143 141/548/143
f 141/549/144 146/550/144 143/551/144 139/552/144
f 148/553/145 147/554/145 149/555/145 150/556/145
f 153/557/146 151/558/146 152/559/146 154/560/146
f 148/561/147 156/562/147 155/563/147 147/564/147
f 149/565/148 158/566/148 157/567/148 150/568/148
f 147/569/149 155/570/149 158/571/149 149/572/149
f 150/573/150 157/574/150 156/575/150 148/576/150
f 151/577/151 155/578/151 156/579/151 152/580/151
f 152/581/152 156/582/152 157/583/152 154/584/152
f 154/585/153 157/586/153 158/587/153 153/588/153
f 153/589/154 158/590/154 155/591/154 151/592/154
f 167/593/155 168/594/155 159/595/155 163/596/155
f 169/597/156 170/598/156 166/599/156 161/600/156
f 166/601/157 163/602/157 159/603/157 161/604/157
f 164/605/158 165/606/158 162/607/158 160/608/158
f 168/609/159 169/610/159 161/611/159 159/612/159
f 168/613/160 167/614/160 164/615/160 160/616/160
f 169/617/161 168/618/161 160/619/161 162/620/161
f 170/621/162 169/622/162 162/623/162 165/624/162
f 173/625/163 171/626/163 172/627/163 174/628/163
f 176/629/164 175/630/164 177/631/164 178/632/164
f 181/633/165 179/634/165 180/635/165 182/636/165
f 179/637/166 175/638/166 176/639/166 180/640/166
f 178/641/167 177/642/167 181/643/167 182/644/167
f 177/645/168 175/646/168 179/647/168 181/648/168
f 180/649/169 176/650/169 178/651/169 182/652/169
f 184/653/170 183/654/170 185/655/170 186/656/170
f 189/657/171 187/658/171 188/659/171 190/660/171
f 187/661/172 183/662/172 184/663/172 188/664/172
f 186/665/173 185/666/173 189/667/173 190/668/173
f 185/669/174 183/670/174 187/671/174 189/672/174
f 188/673/175 184/674/175 186/675/175 190/676/175
f 192/677/176 191/678/176 193/679/176 194/680/176
f 197/681/177 195/682/177 196/683/177 198/684/177
f 195/685/178 191/686/178 192/687/178 196/688/178
f 194/689/179 193/690/179 197/691/179 198/692/179
f 193/693/180 191/694/180 195/695/180 197/696/180
f 196/697/181 192/698/181 194/699/181 198/700/181
f 200/701/182 199/702/182 201/703/182 202/704/182
f 205/705/183 203/706/183 204/707/183 206/708/183
f 203/709/184 199/710/184 200/711/184 204/712/184
f 202/713/185 201/714/185 205/715/185 206/716/185
f 201/717/186 199/718/186 203/719/186 205/720/186
f 204/721/187 200/722/187 202/723/187 206/724/187
f 6/725/188 5/726/188 107/727/188 108/728/188
o cube
v 0 -0.1875 2.5
v 0 -0.1875 0.875
v 0 -0.25 2.5
v 0 -0.25 0.875
v 0 -0.1875 0.875
v 0 -0.1875 2.5
v 0 -0.25 0.875
v 0 -0.25 2.5
vt 0.01953125 1
vt 0.01953125 1
vt 0.01953125 0.99609375
vt 0.01953125 0.99609375
vt 0.21875 0.93359375
vt 0.3203125 0.93359375
vt 0.3203125 0.9296875
vt 0.21875 0.9296875
vt 0.01953125 0.9921875
vt 0.01953125 0.9921875
vt 0.01953125 0.98828125
vt 0.01953125 0.98828125
vt 0.21875 0.92578125
vt 0.3203125 0.92578125
vt 0.3203125 0.921875
vt 0.21875 0.921875
vt 0.28125 0.4765625
vt 0.28125 0.4765625
vt 0.28125 0.578125
vt 0.28125 0.578125
vt 0.28515625 0.578125
vt 0.28515625 0.578125
vt 0.28515625 0.4765625
vt 0.28515625 0.4765625
vn 0 0 -1
vn 1 0 0
vn 0 0 1
vn -1 0 0
vn 0 1 0
vn 0 -1 0
usemtl m_4379f715-ac56-da97-8da2-92f628fb4907
f 210/732/189 213/731/189 211/730/189 208/729/189
f 209/736/190 210/735/190 208/734/190 207/733/190
f 214/740/191 209/739/191 207/738/191 212/737/191
f 213/744/192 214/743/192 212/742/192 211/741/192
f 212/748/193 207/747/193 208/746/193 211/745/193
f 213/752/194 210/751/194 209/750/194 214/749/194
o cube
v 0 0.4375 2.5
v 0 0.4375 2.1875
v 0 0.375 2.5
v 0 0.375 2.1875
v 0 0.4375 2.1875
v 0 0.4375 2.5
v 0 0.375 2.1875
v 0 0.375 2.5
vt 0.01171875 0.94921875
vt 0.01171875 0.94921875
vt 0.01171875 0.9453125
vt 0.01171875 0.9453125
vt 0.2734375 0.91796875
vt 0.29296875 0.91796875
vt 0.29296875 0.9140625
vt 0.2734375 0.9140625
vt 0.01171875 0.94140625
vt 0.01171875 0.94140625
vt 0.01171875 0.9375
vt 0.01171875 0.9375
vt 0.13671875 0.7265625
vt 0.15625 0.7265625
vt 0.15625 0.72265625
vt 0.13671875 0.72265625
vt 0.01171875 0.9140625
vt 0.01171875 0.9140625
vt 0.01171875 0.93359375
vt 0.01171875 0.93359375
vt 0.07421875 0.953125
vt 0.07421875 0.953125
vt 0.07421875 0.93359375
vt 0.07421875 0.93359375
vn 0 0 -1
vn 1 0 0
vn 0 0 1
vn -1 0 0
vn 0 1 0
vn 0 -1 0
usemtl m_4379f715-ac56-da97-8da2-92f628fb4907
f 218/756/195 221/755/195 219/754/195 216/753/195
f 217/760/196 218/759/196 216/758/196 215/757/196
f 222/764/197 217/763/197 215/762/197 220/761/197
f 221/768/198 222/767/198 220/766/198 219/765/198
f 220/772/199 215/771/199 216/770/199 219/769/199
f 221/776/200 218/775/200 217/774/200 222/773/200