# Made in Blockbench 5.1.4
mtllib faixa1.mtl

o 1
v 0 0.625 1.25
v 0 0.625 0
v 0 -0.625 1.25
v 0 -0.625 0
v 0 0.625 0
v 0 0.625 1.25
v 0 -0.625 0
v 0 -0.625 1.25
vt 0.23046875 0.6015625
vt 0.23046875 0.6015625
vt 0.23046875 0.5234375
vt 0.23046875 0.5234375
vt 0.15625 0.48046875
vt 0.234375 0.48046875
vt 0.234375 0.40234375
vt 0.15625 0.40234375
vt 0.234375 0.59375
vt 0.234375 0.59375
vt 0.234375 0.515625
vt 0.234375 0.515625
vt 0 0.48046875
vt 0.078125 0.48046875
vt 0.078125 0.40234375
vt 0 0.40234375
vt 0.23828125 0.5078125
vt 0.23828125 0.5078125
vt 0.23828125 0.5859375
vt 0.23828125 0.5859375
vt 0.3671875 0.58203125
vt 0.3671875 0.58203125
vt 0.3671875 0.50390625
vt 0.3671875 0.50390625
vn 0 0 -1
vn 1 0 0
vn 0 0 1
vn -1 0 0
vn 0 1 0
vn 0 -1 0
usemtl m_4379f715-ac56-da97-8da2-92f628fb4907
f 4/4/1 7/3/1 5/2/1 2/1/1
f 3/8/2 4/7/2 2/6/2 1/5/2
f 8/12/3 3/11/3 1/10/3 6/9/3
f 7/16/4 8/15/4 6/14/4 5/13/4
f 6/20/5 1/19/5 2/18/5 5/17/5
f 7/24/6 4/23/6 3/22/6 8/21/6