# Made in Blockbench 5.1.4
mtllib helice.mtl

o helice
v 0 0 -0.015625
v -0.133974375 -0.5 -0.01562500000000011
v -0.366025625 -0.366025625 -0.01562500000000008
v -0.5 -0.133974375 -0.01562500000000003
v -0.5 0.133974375 -0.01562499999999997
v -0.366025625 0.366025625 -0.015624999999999918
v -0.133974375 0.5 -0.015624999999999889
v 0.133974375 -0.5 -0.01562500000000011
v 0.366025625 -0.366025625 -0.01562500000000008
v 0.5 -0.133974375 -0.01562500000000003
v 0.5 0.133974375 -0.01562499999999997
v 0.366025625 0.366025625 -0.015624999999999918
v 0.133974375 0.5 -0.015624999999999889
vt 0.2036859375 0.625
vt 0.1869390625 0.625
vt 0.1953125 0.59375
vt 0.1869390625 0.5625
vt 0.2036859375 0.5625
vt 0.1953125 0.59375
vt 0.1869390625 0.625
vt 0.1724359375 0.6166265625
vt 0.1953125 0.59375
vt 0.1724359375 0.6166265625
vt 0.1640625 0.6021234375
vt 0.1953125 0.59375
vt 0.1640625 0.6021234375
vt 0.1640625 0.5853765625
vt 0.1953125 0.59375
vt 0.1640625 0.5853765625
vt 0.1724359375 0.5708734375
vt 0.1953125 0.59375
vt 0.1724359375 0.5708734375
vt 0.1869390625 0.5625
vt 0.1953125 0.59375
vt 0.2181890625 0.6166265625
vt 0.2036859375 0.625
vt 0.1953125 0.59375
vt 0.2265625 0.6021234375
vt 0.2181890625 0.6166265625
vt 0.1953125 0.59375
vt 0.2265625 0.5853765625
vt 0.2265625 0.6021234375
vt 0.1953125 0.59375
vt 0.2181890625 0.5708734375
vt 0.2265625 0.5853765625
vt 0.1953125 0.59375
vt 0.2036859375 0.5625
vt 0.2181890625 0.5708734375
vt 0.1953125 0.59375
vn 0 2.220446049250313e-16 -1
vn 0 2.220446049250313e-16 -1
vn 0 2.220446049250313e-16 -1
vn 0 2.220446049250313e-16 -1
vn 0 2.220446049250313e-16 -1
vn 0 2.220446049250313e-16 -1
vn 0 2.220446049250313e-16 -1
vn 0 2.220446049250313e-16 -1
vn 0 2.220446049250313e-16 -1
vn 0 2.220446049250313e-16 -1
vn 0 2.220446049250313e-16 -1
vn 0 2.220446049250313e-16 -1
usemtl m_4379f715-ac56-da97-8da2-92f628fb4907
f 8/1/1 2/2/1 1/3/1
f 7/4/2 13/5/2 1/6/2
f 2/7/3 3/8/3 1/9/3
f 3/10/4 4/11/4 1/12/4
f 4/13/5 5/14/5 1/15/5
f 5/16/6 6/17/6 1/18/6
f 6/19/7 7/20/7 1/21/7
f 9/22/8 8/23/8 1/24/8
f 10/25/9 9/26/9 1/27/9
f 11/28/10 10/29/10 1/30/10
f 12/31/11 11/32/11 1/33/11
f 13/34/12 12/35/12 1/36/12
o helice
v 4.270088556250602e-18 8.888907435633449e-35 -0.015625
v 0.13397437500000003 -0.5 -0.015625000000001072
v 0.366025625 -0.366025625 -0.015625000000000815
v 0.5 -0.13397437499999998 -0.015625000000000343
v 0.5 0.13397437500000003 -0.015624999999999778
v 0.366025625 0.366025625 -0.015624999999999273
v 0.13397437499999998 0.5 -0.015624999999998961
v -0.13397437499999998 -0.5 -0.015625000000001037
v -0.366025625 -0.366025625 -0.01562500000000073
v -0.5 -0.13397437500000003 -0.015625000000000222
v -0.5 0.13397437499999998 -0.015624999999999657
v -0.366025625 0.366025625 -0.015624999999999183
v -0.13397437500000003 0.5 -0.01562499999999893
vt 0.2036859375 0.625
vt 0.1869390625 0.625
vt 0.1953125 0.59375
vt 0.1869390625 0.5625
vt 0.2036859375 0.5625
vt 0.1953125 0.59375
vt 0.1869390625 0.625
vt 0.1724359375 0.6166265625
vt 0.1953125 0.59375
vt 0.1724359375 0.6166265625
vt 0.1640625 0.6021234375
vt 0.1953125 0.59375
vt 0.1640625 0.6021234375
vt 0.1640625 0.5853765625
vt 0.1953125 0.59375
vt 0.1640625 0.5853765625
vt 0.1724359375 0.5708734375
vt 0.1953125 0.59375
vt 0.1724359375 0.5708734375
vt 0.1869390625 0.5625
vt 0.1953125 0.59375
vt 0.2181890625 0.6166265625
vt 0.2036859375 0.625
vt 0.1953125 0.59375
vt 0.2265625 0.6021234375
vt 0.2181890625 0.6166265625
vt 0.1953125 0.59375
vt 0.2265625 0.5853765625
vt 0.2265625 0.6021234375
vt 0.1953125 0.59375
vt 0.2181890625 0.5708734375
vt 0.2265625 0.5853765625
vt 0.1953125 0.59375
vt 0.2036859375 0.5625
vt 0.2181890625 0.5708734375
vt 0.1953125 0.59375
vn 1.2246467991473535e-16 -2.1094237467877974e-15 1
vn 1.2246467991473535e-16 -2.1094237467877974e-15 1
vn 1.2246467991473535e-16 -2.1094237467877974e-15 1
vn 1.2246467991473535e-16 -2.1094237467877974e-15 1
vn 1.2246467991473535e-16 -2.1094237467877974e-15 1
vn 1.2246467991473535e-16 -2.1094237467877974e-15 1
vn 1.2246467991473535e-16 -2.1094237467877974e-15 1
vn 1.2246467991473535e-16 -2.1094237467877974e-15 1
vn 1.2246467991473535e-16 -2.1094237467877974e-15 1
vn 1.2246467991473535e-16 -2.1094237467877974e-15 1
vn 1.2246467991473535e-16 -2.1094237467877974e-15 1
vn 1.2246467991473535e-16 -2.1094237467877974e-15 1
usemtl m_4379f715-ac56-da97-8da2-92f628fb4907
f 21/37/13 15/38/13 14/39/13
f 20/40/14 26/41/14 14/42/14
f 15/43/15 16/44/15 14/45/15
f 16/46/16 17/47/16 14/48/16
f 17/49/17 18/50/17 14/51/17
f 18/52/18 19/53/18 14/54/18
f 19/55/19 20/56/19 14/57/19
f 22/58/20 21/59/20 14/60/20
f 23/61/21 22/62/21 14/63/21
f 24/64/22 23/65/22 14/66/22
f 25/67/23 24/68/23 14/69/23
f 26/70/24 25/71/24 14/72/24