# Made in Blockbench 5.1.4
mtllib vidro.mtl

o vidro
v 0.21875 0.8976857259461097 -0.027305624999999972
v 0.21875 0.4646730240538904 -0.277305625
v -0.21875 0.8976857259461097 -0.027305624999999972
v -0.21875 0.4646730240538904 -0.277305625
vt 0.0625 0.51171875
vt 0.0625 0.57421875
vt 0 0.57421875
vt 0 0.51171875
vn 0 0.5000000000000001 -0.8660254037844386
usemtl m_4379f715-ac56-da97-8da2-92f628fb4907
f 1/1/1 2/2/1 4/3/1 3/4/1
o vidro
v -0.21875000000000003 0.8976857259461095 -0.027305624999999834
v -0.21874999999999997 0.46467302405389044 -0.27730562500000017
v 0.21874999999999997 0.8976857259461096 -0.027305624999999834
v 0.21875000000000003 0.4646730240538905 -0.27730562500000017
vt 0.0625 0.51171875
vt 0.0625 0.57421875
vt 0 0.57421875
vt 0 0.51171875
vn 1.2246467991473535e-16 -0.5000000000000007 0.8660254037844383
usemtl m_4379f715-ac56-da97-8da2-92f628fb4907
f 5/5/2 6/6/2 8/7/2 7/8/2