# Made in Blockbench 5.1.4
mtllib leftbraco.mtl

o cube
v 0 0.0625 0.125
v 0 0.0625 -0.125
v 0 -0.25 0.125
v 0 -0.25 -0.125
v -0.1875 0.0625 -0.125
v -0.1875 0.0625 0.125
v -0.1875 -0.25 -0.125
v -0.1875 -0.25 0.125
vt 0.11428571428571428 0.1428571428571429
vt 0.2 0.1428571428571429
vt 0.2 0
vt 0.11428571428571428 0
vt 0 0.1428571428571429
vt 0.11428571428571428 0.1428571428571429
vt 0.11428571428571428 0
vt 0 0
vt 0.3142857142857143 0.1428571428571429
vt 0.4 0.1428571428571429
vt 0.4 0
vt 0.3142857142857143 0
vt 0.2 0.1428571428571429
vt 0.3142857142857143 0.1428571428571429
vt 0.3142857142857143 0
vt 0.2 0
vt 0.2 0.1428571428571429
vt 0.11428571428571428 0.1428571428571429
vt 0.11428571428571428 0.2571428571428571
vt 0.2 0.2571428571428571
vt 0.2857142857142857 0.2571428571428571
vt 0.2 0.2571428571428571
vt 0.2 0.1428571428571429
vt 0.2857142857142857 0.1428571428571429
vn 0 0 -1
vn 1 0 0
vn 0 0 1
vn -1 0 0
vn 0 1 0
vn 0 -1 0
usemtl m_cbc67a15-650d-c70d-58fa-9db99cbe3e66
f 4/4/1 7/3/1 5/2/1 2/1/1
f 3/8/2 4/7/2 2/6/2 1/5/2
f 8/12/3 3/11/3 1/10/3 6/9/3
f 7/16/4 8/15/4 6/14/4 5/13/4
f 6/20/5 1/19/5 2/18/5 5/17/5
f 7/24/6 4/23/6 3/22/6 8/21/6