# Made in Blockbench 5.1.4
mtllib tronco.mtl

o cube
v 0.25 1 0.25
v 0.25 1 -0.25
v 0.25 0 0.25
v 0.25 0 -0.25
v -0.25 1 -0.25
v -0.25 1 0.25
v -0.25 0 -0.25
v -0.25 0 0.25
vt 0.22857142857142856 0.7714285714285715
vt 0.45714285714285713 0.7714285714285715
vt 0.45714285714285713 0.3142857142857143
vt 0.22857142857142856 0.3142857142857143
vt 0 0.7714285714285715
vt 0.22857142857142856 0.7714285714285715
vt 0.22857142857142856 0.3142857142857143
vt 0 0.3142857142857143
vt 0.6857142857142857 0.7714285714285715
vt 0.9142857142857143 0.7714285714285715
vt 0.9142857142857143 0.3142857142857143
vt 0.6857142857142857 0.3142857142857143
vt 0.45714285714285713 0.7714285714285715
vt 0.6857142857142857 0.7714285714285715
vt 0.6857142857142857 0.3142857142857143
vt 0.45714285714285713 0.3142857142857143
vt 0.45714285714285713 0.7714285714285715
vt 0.22857142857142856 0.7714285714285715
vt 0.22857142857142856 1
vt 0.45714285714285713 1
vt 0.6857142857142857 1
vt 0.45714285714285713 1
vt 0.45714285714285713 0.7714285714285715
vt 0.6857142857142857 0.7714285714285715
vn 0 0 -1
vn 1 0 0
vn 0 0 1
vn -1 0 0
vn 0 1 0
vn 0 -1 0
usemtl m_cbc67a15-650d-c70d-58fa-9db99cbe3e66
f 4/4/1 7/3/1 5/2/1 2/1/1
f 3/8/2 4/7/2 2/6/2 1/5/2
f 8/12/3 3/11/3 1/10/3 6/9/3
f 7/16/4 8/15/4 6/14/4 5/13/4
f 6/20/5 1/19/5 2/18/5 5/17/5
f 7/24/6 4/23/6 3/22/6 8/21/6