# Made in Blockbench 5.1.4
mtllib helice_moinho.mtl

o plane
v -4.970456366970834e-16 3.121201938253052 -0.8315879555832674
v 4.193300249733225e-16 2.628798061746948 -0.9184120444167326
v -1.5 3.1212019382530496 -0.8315879555832685
v -1.4999999999999991 2.6287980617469455 -0.9184120444167336
vt 0.390625 0.5234375
vt 0.453125 0.5234375
vt 0.453125 0.7109375
vt 0.390625 0.7109375
vn 4.078322968724535e-16 0.17364817766693053 -0.9848077530122081
usemtl m_aa5851b5-c824-27ab-774f-81579bcd1f6d
f 1/1/1 2/2/1 4/3/1 3/4/1
o plane
v 0.24620193825305195 2.8750000000000004 -0.8315879555832673
v -0.246201938253052 2.8749999999999996 -0.9184120444167327
v 0.24620193825304895 4.375 -0.8315879555832671
v -0.246201938253055 4.375 -0.9184120444167326
vt 0.390625 0.5234375
vt 0.453125 0.5234375
vt 0.453125 0.7109375
vt 0.390625 0.7109375
vn 0.17364817766693091 4.0168658116522383e-16 -0.9848077530122081
usemtl m_aa5851b5-c824-27ab-774f-81579bcd1f6d
f 5/5/2 6/6/2 8/7/2 7/8/2
o plane
v 4.869749813040823e-16 2.628798061746948 -0.8315879555832674
v -5.646905930278432e-16 3.121201938253052 -0.9184120444167326
v 1.5 2.6287980617469517 -0.8315879555832664
v 1.4999999999999991 3.1212019382530554 -0.9184120444167315
vt 0.390625 0.5234375
vt 0.453125 0.5234375
vt 0.453125 0.7109375
vt 0.390625 0.7109375
vn 1.1018698349805474e-15 -0.17364817766693041 -0.9848077530122081
usemtl m_aa5851b5-c824-27ab-774f-81579bcd1f6d
f 9/9/3 10/10/3 12/11/3 11/12/3
o plane
v -0.2462019382530521 2.8749999999999996 -0.8315879555832675
v 0.24620193825305203 2.8750000000000004 -0.9184120444167325
v -0.24620193825304906 1.3749999999999996 -0.8315879555832674
v 0.24620193825305506 1.3750000000000004 -0.9184120444167324
vt 0.390625 0.5234375
vt 0.453125 0.5234375
vt 0.453125 0.7109375
vt 0.390625 0.7109375
vn -0.17364817766693016 -4.148156368576058e-16 -0.9848077530122082
usemtl m_aa5851b5-c824-27ab-774f-81579bcd1f6d
f 13/13/4 14/14/4 16/15/4 15/16/4
o plane
v 0.17409106008000433 3.049091060080005 -0.8315879555832673
v -0.17409106008000438 2.700908939919995 -0.9184120444167327
v -0.8865691116998184 4.109751231859824 -0.831587955583268
v -1.234751231859827 3.7615691116998144 -0.9184120444167334
vt 0.390625 0.5234375
vt 0.453125 0.5234375
vt 0.453125 0.7109375
vt 0.390625 0.7109375
vn 0.12278780396897337 0.12278780396897308 -0.9848077530122081
usemtl m_aa5851b5-c824-27ab-774f-81579bcd1f6d
f 17/17/5 18/18/5 20/19/5 19/20/5
o plane
v 0.17409106008000502 2.7009089399199957 -0.8315879555832674
v -0.17409106008000508 3.0490910600800043 -0.9184120444167326
v 1.2347512318598242 3.761569111699819 -0.8315879555832667
v 0.8865691116998141 4.1097512318598275 -0.9184120444167321
vt 0.390625 0.5234375
vt 0.453125 0.5234375
vt 0.453125 0.7109375
vt 0.390625 0.7109375
vn 0.12278780396897367 -0.12278780396897257 -0.9848077530122081
usemtl m_aa5851b5-c824-27ab-774f-81579bcd1f6d
f 21/21/6 22/22/6 24/23/6 23/24/6
o plane
v -0.17409106008000438 2.700908939919995 -0.8315879555832675
v 0.17409106008000433 3.049091060080005 -0.9184120444167325
v 0.8865691116998191 1.6402487681401765 -0.8315879555832667
v 1.2347512318598277 1.9884308883001864 -0.9184120444167317
vt 0.390625 0.5234375
vt 0.453125 0.5234375
vt 0.453125 0.7109375
vt 0.390625 0.7109375
vn -0.12278780396897201 -0.12278780396897326 -0.9848077530122082
usemtl m_aa5851b5-c824-27ab-774f-81579bcd1f6d
f 25/25/7 26/26/7 28/27/7 27/28/7
o plane
v -0.17409106008000513 3.0490910600800043 -0.8315879555832674
v 0.17409106008000508 2.7009089399199957 -0.9184120444167326
v -1.2347512318598244 1.988430888300181 -0.8315879555832679
v -0.8865691116998141 1.640248768140172 -0.9184120444167331
vt 0.390625 0.5234375
vt 0.453125 0.5234375
vt 0.453125 0.7109375
vt 0.390625 0.7109375
vn -0.12278780396897288 0.12278780396897283 -0.9848077530122081
usemtl m_aa5851b5-c824-27ab-774f-81579bcd1f6d
f 29/29/8 30/30/8 32/31/8 31/32/8
o plane
v -3.940784197871531e-16 3.121201938253052 -0.9184120444167326
v 7.604520179134548e-16 2.628798061746948 -0.8315879555832674
v 1.499999999999999 3.1212019382530554 -0.9184120444167325
v 1.5000000000000002 2.6287980617469517 -0.8315879555832673
vt 0.453125 0.5234375
vt 0.390625 0.5234375
vt 0.390625 0.7109375
vt 0.453125 0.7109375
vn -4.554954998979383e-16 0.17364817766693055 0.984807753012208
usemtl m_aa5851b5-c824-27ab-774f-81579bcd1f6d
f 33/33/9 34/34/9 36/35/9 35/36/9
o plane
v -0.24620193825305178 2.8749999999999996 -0.9184120444167325
v 0.24620193825305217 2.8750000000000004 -0.8315879555832675
v -0.24620193825305495 4.375 -0.9184120444167327
v 0.246201938253049 4.375 -0.8315879555832676
vt 0.453125 0.5234375
vt 0.390625 0.5234375
vt 0.390625 0.7109375
vt 0.453125 0.7109375
vn -0.17364817766693025 -2.5696196533469734e-16 0.9848077530122081
usemtl m_aa5851b5-c824-27ab-774f-81579bcd1f6d
f 37/37/10 38/38/10 40/39/10 39/40/10
o plane
v 6.446100103251884e-16 2.628798061746948 -0.9184120444167325
v -2.7823641219888673e-16 3.121201938253052 -0.8315879555832675
v -1.4999999999999987 2.6287980617469455 -0.9184120444167326
v -1.4999999999999996 3.1212019382530496 -0.8315879555832675
vt 0.453125 0.5234375
vt 0.390625 0.5234375
vt 0.390625 0.7109375
vt 0.453125 0.7109375
vn 2.5782085871315823e-16 -0.17364817766693036 0.984807753012208
usemtl m_aa5851b5-c824-27ab-774f-81579bcd1f6d
f 41/41/11 42/42/11 44/43/11 43/44/11
o plane
v 0.2462019382530522 2.8750000000000004 -0.9184120444167327
v -0.2462019382530518 2.8749999999999996 -0.8315879555832673
v 0.24620193825305534 1.3750000000000004 -0.9184120444167327
v -0.24620193825304867 1.3749999999999996 -0.8315879555832673
vt 0.453125 0.5234375
vt 0.390625 0.5234375
vt 0.390625 0.7109375
vt 0.453125 0.7109375
vn 0.17364817766693083 3.531685338646668e-16 0.984807753012208
usemtl m_aa5851b5-c824-27ab-774f-81579bcd1f6d
f 45/45/12 46/46/12 48/47/12 47/48/12
o plane
v -0.17409106008000486 3.0490910600800043 -0.9184120444167326
v 0.17409106008000524 2.7009089399199957 -0.8315879555832674
v 0.8865691116998135 4.109751231859828 -0.9184120444167326
v 1.2347512318598235 3.7615691116998193 -0.8315879555832674
vt 0.453125 0.5234375
vt 0.390625 0.5234375
vt 0.390625 0.7109375
vt 0.453125 0.7109375
vn -0.12278780396897326 0.12278780396897265 0.9848077530122081
usemtl m_aa5851b5-c824-27ab-774f-81579bcd1f6d
f 49/49/13 50/50/13 52/51/13 51/52/13
o plane
v -0.17409106008000413 2.700908939919995 -0.9184120444167325
v 0.17409106008000452 3.049091060080005 -0.8315879555832675
v -1.2347512318598275 3.761569111699814 -0.9184120444167325
v -0.8865691116998189 4.109751231859824 -0.8315879555832675
vt 0.453125 0.5234375
vt 0.390625 0.5234375
vt 0.390625 0.7109375
vt 0.453125 0.7109375
vn -0.12278780396897249 -0.12278780396897299 0.9848077530122081
usemtl m_aa5851b5-c824-27ab-774f-81579bcd1f6d
f 53/53/14 54/54/14 56/55/14 55/56/14
o plane
v 0.1740910600800052 2.7009089399199957 -0.9184120444167326
v -0.1740910600800048 3.0490910600800043 -0.8315879555832674
v -0.8865691116998136 1.640248768140173 -0.9184120444167326
v -1.2347512318598235 1.9884308883001816 -0.8315879555832674
vt 0.453125 0.5234375
vt 0.390625 0.5234375
vt 0.390625 0.7109375
vt 0.453125 0.7109375
vn 0.12278780396897315 -0.1227878039689727 0.984807753012208
usemtl m_aa5851b5-c824-27ab-774f-81579bcd1f6d
f 57/57/15 58/58/15 60/59/15 59/60/15
o plane
v 0.17409106008000455 3.049091060080005 -0.9184120444167327
v -0.17409106008000416 2.700908939919995 -0.8315879555832673
v 1.234751231859828 1.988430888300186 -0.9184120444167329
v 0.8865691116998193 1.6402487681401758 -0.8315879555832675
vt 0.453125 0.5234375
vt 0.390625 0.5234375
vt 0.390625 0.7109375
vt 0.453125 0.7109375
vn 0.12278780396897308 0.12278780396897342 0.9848077530122081
usemtl m_aa5851b5-c824-27ab-774f-81579bcd1f6d
f 61/61/16 62/62/16 64/63/16 63/64/16