# Made in Blockbench 5.1.4
mtllib moinho.mtl

o cylinder
v 0 -1 0
v 0.323604375 -1 0.78125
v 0.29771625 3.3125 0.71875
v 0.78125 -1 0.323604375
v 0.71875 3.3125 0.29771625
v 0.78125 -1 -0.323604375
v 0.71875 3.3125 -0.29771625
v 0.323604375 -1 -0.78125
v 0.29771625 3.3125 -0.71875
v -0.323604375 -1 -0.78125
v -0.29771625 3.3125 -0.71875
v -0.78125 -1 -0.323604375
v -0.71875 3.3125 -0.29771625
v -0.78125 -1 0.323604375
v -0.71875 3.3125 0.29771625
v -0.323604375 -1 0.78125
v -0.29771625 3.3125 0.71875
v -0.2718275 2.2291668749999998 -0.65625
v 0.2718275 2.2291668749999998 -0.65625
v -0.29771625 2.4583331250000002 -0.71875
v 0.29771625 2.4583331250000002 -0.71875
v 0.65625 2.2291668749999998 -0.2718275
v 0.71875 2.4583331250000002 -0.29771625
v 0.65625 2.2291668749999998 0.2718275
v 0.71875 2.4583331250000002 0.29771625
v 0.2718275 2.2291668749999998 0.65625
v 0.29771625 2.4583331250000002 0.71875
v -0.2718275 2.2291668749999998 0.65625
v -0.29771625 2.4583331250000002 0.71875
v -0.65625 2.2291668749999998 0.2718275
v -0.71875 2.4583331250000002 0.29771625
v -0.65625 2.2291668749999998 -0.2718275
v -0.71875 2.4583331250000002 -0.29771625
v -0.323604375 1.0763875 -0.78125
v 0.323604375 1.0763875 -0.78125
v -0.2718275 1.090275625 -0.65625
v 0.2718275 1.090275625 -0.65625
v 0.78125 1.0763875 -0.323604375
v 0.65625 1.090275625 -0.2718275
v 0.78125 1.0763875 0.323604375
v 0.65625 1.090275625 0.2718275
v 0.323604375 1.0763875 0.78125
v 0.2718275 1.090275625 0.65625
v -0.323604375 1.0763875 0.78125
v -0.2718275 1.090275625 0.65625
v -0.78125 1.0763875 0.323604375
v -0.65625 1.090275625 0.2718275
v -0.78125 1.0763875 -0.323604375
v -0.65625 1.090275625 -0.2718275
v 0.342901875 3.286923125 0.82783875
v 0.82783875 3.286923125 0.342901875
v 0 4.5 0
v 0.82783875 3.286923125 -0.342901875
v 0.342901875 3.286923125 -0.82783875
v -0.342901875 3.286923125 -0.82783875
v -0.82783875 3.286923125 -0.342901875
v -0.82783875 3.286923125 0.342901875
v -0.342901875 3.286923125 0.82783875
vt 0.1953125 0.63810703125
vt 0.13810703125 0.6953125
vt 0.09765625 0.59765625
vt 0.3828125 1
vt 0.3828125 0.890625
vt 0.4609375 0.890625
vt 0.4609375 1
vt 0.5625 0.8086086067526124
vt 0.6482249905475423 0.8086086067526123
vt 0.6053624670124441 0.9921875
vt 0.1953125 0.55720546875
vt 0.1953125 0.63810703125
vt 0.09765625 0.59765625
vt 0.3828125 1
vt 0.3828125 0.890625
vt 0.4609375 0.890625
vt 0.4609375 1
vt 0.5625 0.8086085978710675
vt 0.6482250666263707 0.8086085978710675
vt 0.6053625811306779 0.9921875
vt 0.13810703125 0.5
vt 0.1953125 0.55720546875
vt 0.09765625 0.59765625
vt 0.3828125 1
vt 0.3828125 0.890625
vt 0.4609375 0.890625
vt 0.4609375 1
vt 0.5625 0.8086086067526123
vt 0.6482249905475423 0.8086086067526123
vt 0.6053625235350986 0.9921875
vt 0.05720546875 0.5
vt 0.13810703125 0.5
vt 0.09765625 0.59765625
vt 0.3828125 1
vt 0.3828125 0.890625
vt 0.4609375 0.890625
vt 0.4609375 1
vt 0.5625 0.8086085978710675
vt 0.6482250666263707 0.8086085978710675
vt 0.6053625811306779 0.9921875
vt 0 0.55720546875
vt 0.05720546875 0.5
vt 0.09765625 0.59765625
vt 0.3828125 1
vt 0.3828125 0.890625
vt 0.4609375 0.890625
vt 0.4609375 1
vt 0.5625 0.8086086067526123
vt 0.6482249905475423 0.8086086067526121
vt 0.605362467012444 0.9921875
vt 0 0.63810703125
vt 0 0.55720546875
vt 0.09765625 0.59765625
vt 0.3828125 1
vt 0.3828125 0.890625
vt 0.4609375 0.890625
vt 0.4609375 1
vt 0.5625 0.8086085978710675
vt 0.6482250666263707 0.8086085978710675
vt 0.6053625811306779 0.9921875
vt 0.05720546875 0.6953125
vt 0 0.63810703125
vt 0.09765625 0.59765625
vt 0.3828125 1
vt 0.3828125 0.890625
vt 0.4609375 0.890625
vt 0.4609375 1
vt 0.5625 0.8086086067526123
vt 0.6482249905475423 0.8086086067526123
vt 0.6053625235350986 0.9921875
vt 0.13810703125 0.6953125
vt 0.05720546875 0.6953125
vt 0.09765625 0.59765625
vt 0.3828125 1
vt 0.3828125 0.890625
vt 0.4609375 0.890625
vt 0.4609375 1
vt 0.5625 0.8086085978710675
vt 0.6482250666263707 0.8086085978710675
vt 0.6053625811306779 0.9921875
vt 0.38671875 0.86328125
vt 0.38671875 0.72265625
vt 0.45703125 0.72265625
vt 0.45703125 0.86328125
vt 0.45754008344704544 0.8632812499999998
vt 0.4609375000000002 0.8945312499999998
vt 0.3828125000000002 0.8945312499999998
vt 0.38620991655295495 0.8632812499999998
vt 0.38671875 0.86328125
vt 0.38671875 0.72265625
vt 0.45703125 0.72265625
vt 0.45703125 0.86328125
vt 0.45754008344704544 0.8632812499999998
vt 0.4609375000000002 0.8945312499999998
vt 0.3828125000000002 0.8945312499999998
vt 0.38620991655295495 0.8632812499999998
vt 0.38671875 0.86328125
vt 0.38671875 0.72265625
vt 0.45703125 0.72265625
vt 0.45703125 0.86328125
vt 0.45754008344704544 0.8632812499999998
vt 0.4609375000000002 0.8945312499999998
vt 0.3828125000000002 0.8945312499999998
vt 0.38620991655295495 0.8632812499999998
vt 0.38671875 0.86328125
vt 0.38671875 0.72265625
vt 0.45703125 0.72265625
vt 0.45703125 0.86328125
vt 0.45754008344704544 0.8632812499999998
vt 0.4609375000000002 0.8945312499999998
vt 0.3828125000000002 0.8945312499999998
vt 0.38620991655295495 0.8632812499999998
vt 0.38671875 0.86328125
vt 0.38671875 0.72265625
vt 0.45703125 0.72265625
vt 0.45703125 0.86328125
vt 0.45754008344704544 0.8632812499999998
vt 0.4609375000000002 0.8945312499999998
vt 0.38281250000000017 0.8945312499999998
vt 0.38620991655295495 0.8632812499999998
vt 0.38671875 0.86328125
vt 0.38671875 0.72265625
vt 0.45703125 0.72265625
vt 0.45703125 0.86328125
vt 0.45754008344704544 0.8632812499999998
vt 0.4609375000000002 0.8945312499999998
vt 0.3828125000000002 0.8945312499999998
vt 0.38620991655295495 0.8632812499999998
vt 0.38671875 0.86328125
vt 0.38671875 0.72265625
vt 0.45703125 0.72265625
vt 0.45703125 0.86328125
vt 0.45754008344704544 0.8632812499999998
vt 0.4609375000000002 0.8945312499999998
vt 0.3828125000000002 0.8945312499999998
vt 0.38620991655295495 0.8632812499999998
vt 0.38671875 0.86328125
vt 0.38671875 0.72265625
vt 0.45703125 0.72265625
vt 0.45703125 0.86328125
vt 0.45754008344704544 0.8632812499999998
vt 0.4609375000000002 0.8945312499999998
vt 0.3828125000000002 0.8945312499999998
vt 0.38620991655295495 0.8632812499999998
vt 0.5546875 0.734375
vt 0.5546875 0.9921875
vt 0.4765625 0.9921875
vt 0.4765625 0.734375
vt 0.31388828125 0.630951875
vt 0.307415625 0.64667296875
vt 0.239459375 0.64667296875
vt 0.23298671875 0.630951875
vt 0.5546875 0.734375
vt 0.5546875 0.9921875
vt 0.4765625 0.9921875
vt 0.4765625 0.734375
vt 0.23298671875 0.630951875
vt 0.239459375 0.64667296875
vt 0.191202578125 0.694519921875
vt 0.175537265625 0.6879134375
vt 0.5546875 0.734375
vt 0.5546875 0.9921875
vt 0.4765625 0.9921875
vt 0.4765625 0.734375
vt 0.175537265625 0.6879134375
vt 0.191202578125 0.694519921875
vt 0.190623046875 0.762473671875
vt 0.17484734375 0.76881203125
vt 0.5546875 0.734375
vt 0.5546875 0.9921875
vt 0.4765625 0.9921875
vt 0.4765625 0.734375
vt 0.17484734375 0.76881203125
vt 0.190623046875 0.762473671875
vt 0.238056796875 0.8111367968750001
vt 0.231316953125 0.82674515625
vt 0.5546875 0.734375
vt 0.5546875 0.9921875
vt 0.4765625 0.9921875
vt 0.4765625 0.734375
vt 0.231316953125 0.82674515625
vt 0.238056796875 0.8111367968750001
vt 0.306003125 0.81229578125
vt 0.31220671875 0.828125
vt 0.5546875 0.734375
vt 0.5546875 0.9921875
vt 0.4765625 0.9921875
vt 0.4765625 0.734375
vt 0.315558046875 0.82674515625
vt 0.308818203125 0.8111367968750001
vt 0.356251953125 0.762473671875
vt 0.37202765625 0.76881203125
vt 0.5546875 0.734375
vt 0.5546875 0.9921875
vt 0.4765625 0.9921875
vt 0.4765625 0.734375
vt 0.37202765625 0.76881203125
vt 0.356251953125 0.762473671875
vt 0.355672421875 0.694519921875
vt 0.371337734375 0.6879134375
vt 0.5546875 0.734375
vt 0.5546875 0.9921875
vt 0.4765625 0.9921875
vt 0.4765625 0.734375
vt 0.371337734375 0.6879134375
vt 0.355672421875 0.694519921875
vt 0.307415625 0.64667296875
vt 0.31388828125 0.630951875
vt 0.217208671875 0.92638
vt 0.160107890625 0.990319609375
vt 0.153423515625 0.97677828125
vt 0.203000546875 0.9212634375
vt 0.213983828125 0.840715625
vt 0.217208671875 0.92638
vt 0.202999921875 0.921263203125
vt 0.2002 0.846886171875
vt 0.1522375 0.78125
vt 0.213983828125 0.840715625
vt 0.200200625 0.8468859375
vt 0.146590078125 0.795255546875
vt 0.0665125 0.78125
vt 0.1522375 0.78125
vt 0.14658984375 0.79525625
vt 0.07216015625 0.79525625
vt 0.004766171875 0.840715625
vt 0.0665125 0.78125
vt 0.072159921875 0.795255546875
vt 0.018549375 0.8468859375
vt 0.001541328125 0.92638
vt 0.004766171875 0.840715625
vt 0.01855 0.846886171875
vt 0.015750078125 0.921263203125
vt 0.058642109375 0.990319609375
vt 0.001541328125 0.92638
vt 0.015749453125 0.9212634375
vt 0.065326484375 0.97677828125
vt 0.144124453125 0.9967646875
vt 0.058642109375 0.990319609375
vt 0.065326796875 0.97677765625
vt 0.13954578125 0.982373515625
vn 0 -1 0
vn 0.7071067811865476 0 0.7071067811865476
vn 0.5840649011128504 0.5636811000699535 0.5840649011128504
vn 0 -1 0
vn 1 0 0
vn 0.8259924679852342 0.5636811535182477 0
vn 0 -1 0
vn 0.7071067811865476 0 -0.7071067811865476
vn 0.5840649011128504 0.5636811000699535 -0.5840649011128504
vn 0 -1 0
vn 0 0 -1
vn 0 0.5636811535182477 -0.8259924679852342
vn 0 -1 0
vn -0.7071067811865476 0 -0.7071067811865476
vn -0.5840649011128504 0.5636811000699535 -0.5840649011128504
vn 0 -1 0
vn -1 0 0
vn -0.8259924679852342 0.5636811535182477 0
vn 0 -1 0
vn -0.7071067811865476 0 0.7071067811865476
vn -0.5840649011128504 0.5636811000699535 0.5840649011128504
vn 0 -1 0
vn 0 0 1
vn 0 0.5636811535182477 0.8259924679852342
vn 0 0 -1
vn 0 -0.2631178510684441 -0.9647636997986212
vn 0.7071067811865476 0 -0.7071067811865476
vn 0.682190739380271 -0.2631189658834926 -0.682190739380271
vn 1 0 0
vn 0.9647636997986212 -0.2631178510684441 0
vn 0.7071067811865476 0 0.7071067811865476
vn 0.682190739380271 -0.2631189658834926 0.682190739380271
vn 0 0 1
vn 0 -0.2631178510684441 0.9647636997986212
vn -0.7071067811865476 0 0.7071067811865476
vn -0.682190739380271 -0.2631189658834926 0.682190739380271
vn -1 0 0
vn -0.9647636997986212 -0.2631178510684441 0
vn -0.7071067811865476 0 -0.7071067811865476
vn -0.682190739380271 -0.2631189658834926 -0.682190739380271
vn 0 0 -1
vn 0 0.9938844012852915 -0.11042552640480233
vn 0.7071067811865476 0 -0.7071067811865476
vn 0.07808256012954119 0.9938844136051401 -0.07808256012954119
vn 1 0 0
vn 0.11042552640480233 0.9938844012852915 0
vn 0.7071067811865476 0 0.7071067811865476
vn 0.07808256012954119 0.9938844136051401 0.07808256012954119
vn 0 0 1
vn 0 0.9938844012852915 0.11042552640480233
vn -0.7071067811865476 0 0.7071067811865476
vn -0.07808256012954119 0.9938844136051401 0.07808256012954119
vn -1 0 0
vn -0.11042552640480233 0.9938844012852915 0
vn -0.7071067811865476 0 -0.7071067811865476
vn -0.07808256012954119 0.9938844136051401 -0.07808256012954119
vn -0.16141107406529284 -0.9735979305330189 -0.16141107406529284
vn -0.22826914835698875 -0.9735980669189802 0
vn -0.16141107406529284 -0.9735979305330189 0.16141107406529284
vn 0 -0.9735980669189802 0.22826914835698875
vn 0.16141107406529284 -0.9735979305330189 0.16141107406529284
vn 0.22826914835698875 -0.9735980669189802 0
vn 0.16141107406529284 -0.9735979305330189 -0.16141107406529284
vn 0 -0.9735980669189802 -0.22826914835698875
usemtl m_aa5851b5-c824-27ab-774f-81579bcd1f6d
f 4/1/1 2/2/1 1/3/1
f 3/4/2 27/5/2 25/6/2 5/7/2
f 50/8/3 51/9/3 52/10/3
f 6/11/4 4/12/4 1/13/4
f 5/14/5 25/15/5 23/16/5 7/17/5
f 51/18/6 53/19/6 52/20/6
f 8/21/7 6/22/7 1/23/7
f 7/24/8 23/25/8 21/26/8 9/27/8
f 53/28/9 54/29/9 52/30/9
f 10/31/10 8/32/10 1/33/10
f 9/34/11 21/35/11 20/36/11 11/37/11
f 54/38/12 55/39/12 52/40/12
f 12/41/13 10/42/13 1/43/13
f 11/44/14 20/45/14 33/46/14 13/47/14
f 55/48/15 56/49/15 52/50/15
f 14/51/16 12/52/16 1/53/16
f 13/54/17 33/55/17 31/56/17 15/57/17
f 56/58/18 57/59/18 52/60/18
f 16/61/19 14/62/19 1/63/19
f 15/64/20 31/65/20 29/66/20 17/67/20
f 57/68/21 58/69/21 52/70/21
f 2/71/22 16/72/22 1/73/22
f 17/74/23 29/75/23 27/76/23 3/77/23
f 58/78/24 50/79/24 52/80/24
f 19/81/25 37/82/25 36/83/25 18/84/25
f 18/85/26 20/86/26 21/87/26 19/88/26
f 22/89/27 39/90/27 37/91/27 19/92/27
f 19/93/28 21/94/28 23/95/28 22/96/28
f 24/97/29 41/98/29 39/99/29 22/100/29
f 22/101/30 23/102/30 25/103/30 24/104/30
f 26/105/31 43/106/31 41/107/31 24/108/31
f 24/109/32 25/110/32 27/111/32 26/112/32
f 28/113/33 45/114/33 43/115/33 26/116/33
f 26/117/34 27/118/34 29/119/34 28/120/34
f 30/121/35 47/122/35 45/123/35 28/124/35
f 28/125/36 29/126/36 31/127/36 30/128/36
f 32/129/37 49/130/37 47/131/37 30/132/37
f 30/133/38 31/134/38 33/135/38 32/136/38
f 18/137/39 36/138/39 49/139/39 32/140/39
f 32/141/40 33/142/40 20/143/40 18/144/40
f 10/145/41 34/146/41 35/147/41 8/148/41
f 34/149/42 36/150/42 37/151/42 35/152/42
f 8/153/43 35/154/43 38/155/43 6/156/43
f 35/157/44 37/158/44 39/159/44 38/160/44
f 6/161/45 38/162/45 40/163/45 4/164/45
f 38/165/46 39/166/46 41/167/46 40/168/46
f 4/169/47 40/170/47 42/171/47 2/172/47
f 40/173/48 41/174/48 43/175/48 42/176/48
f 2/177/49 42/178/49 44/179/49 16/180/49
f 42/181/50 43/182/50 45/183/50 44/184/50
f 16/185/51 44/186/51 46/187/51 14/188/51
f 44/189/52 45/190/52 47/191/52 46/192/52
f 14/193/53 46/194/53 48/195/53 12/196/53
f 46/197/54 47/198/54 49/199/54 48/200/54
f 12/201/55 48/202/55 34/203/55 10/204/55
f 48/205/56 49/206/56 36/207/56 34/208/56
f 51/209/57 50/210/57 3/211/57 5/212/57
f 53/213/58 51/214/58 5/215/58 7/216/58
f 54/217/59 53/218/59 7/219/59 9/220/59
f 55/221/60 54/222/60 9/223/60 11/224/60
f 56/225/61 55/226/61 11/227/61 13/228/61
f 57/229/62 56/230/62 13/231/62 15/232/62
f 58/233/63 57/234/63 15/235/63 17/236/63
f 50/237/64 58/238/64 17/239/64 3/240/64
o cube
v 0.06250000000000006 2.9375 -0.9375
v -0.06249999999999995 2.9375 -0.9375
v 0.06250000000000006 2.8125 -0.9375
v -0.06249999999999995 2.8125 -0.9375
v -0.06250000000000001 2.9375 -0.625
v 0.06249999999999998 2.9375 -0.625
v -0.06250000000000001 2.8125 -0.625
v 0.06249999999999998 2.8125 -0.625
vt 0.0546875 0.9453125
vt 0.09375 0.9453125
vt 0.09375 0.9296875
vt 0.0546875 0.9296875
vt 0 1
vt 0.015625 1
vt 0.015625 0.984375
vt 0 0.984375
vt 0.03125 0.921875
vt 0.0703125 0.921875
vt 0.0703125 0.90625
vt 0.03125 0.90625
vt 0 0.9765625
vt 0.015625 0.9765625
vt 0.015625 0.9609375
vt 0 0.9609375
vt 0.1171875 0.953125
vt 0.078125 0.953125
vt 0.078125 0.96875
vt 0.1171875 0.96875
vt 0.1171875 0.921875
vt 0.078125 0.921875
vt 0.078125 0.90625
vt 0.1171875 0.90625
vn -1 0 -2.220446049250313e-16
vn 2.220446049250313e-16 0 -1
vn 1 0 2.220446049250313e-16
vn -2.220446049250313e-16 0 1
vn 0 1 0
vn 0 -1 0
usemtl m_aa5851b5-c824-27ab-774f-81579bcd1f6d
f 62/244/65 65/243/65 63/242/65 60/241/65
f 61/248/66 62/247/66 60/246/66 59/245/66
f 66/252/67 61/251/67 59/250/67 64/249/67
f 65/256/68 66/255/68 64/254/68 63/253/68
f 64/260/69 59/259/69 60/258/69 63/257/69
f 65/264/70 62/263/70 61/262/70 66/261/70