# Made in Blockbench 5.1.4
mtllib snowman.mtl

o cube
v 0.15625 0 -0.15625
v -0.15625 0 -0.15625
v -0.15625 0.3125 -0.15625
v 0.15625 0.3125 -0.15625
v 0.15625 0 0.15625
v 0.15625 0.3125 0.15625
v -0.15625 0 0.15625
v -0.15625 0.3125 0.15625
vt 0 0.84375
vt 0.15625 0.84375
vt 0.15625 1
vt 0 1
vt 0 0.65625
vt 0.15625 0.65625
vt 0.15625 0.8125
vt 0 0.8125
vt 0.1875 0.84375
vt 0.34375 0.84375
vt 0.34375 1
vt 0.1875 1
vt 0.1875 0.65625
vt 0.34375 0.65625
vt 0.34375 0.8125
vt 0.1875 0.8125
vt 0.15625 0.625
vt 0 0.625
vt 0 0.46875
vt 0.15625 0.46875
vn 0 0 -1
vn 1 0 0
vn 0 0 1
vn -1 0 0
vn 0 1 0
usemtl m_7b0e953d-34b4-2016-7b19-5cb9e24ccd30
f 1/1/1 2/2/1 3/3/1 4/4/1
f 5/5/2 1/6/2 4/7/2 6/8/2
f 7/9/3 5/10/3 6/11/3 8/12/3
f 2/13/4 7/14/4 8/15/4 3/16/4
f 8/17/5 6/18/5 4/19/5 3/20/5
o cube
v 0.125 0.3125 -0.125
v -0.125 0.3125 -0.125
v -0.125 0.5 -0.125
v 0.125 0.5 -0.125
v 0.125 0.3125 0.125
v 0.125 0.5 0.125
v -0.125 0.3125 0.125
v -0.125 0.5 0.125
vt 0.5 0.40625
vt 0.625 0.40625
vt 0.625 0.5
vt 0.5 0.5
vt 0.1875 0.375
vt 0.3125 0.375
vt 0.3125 0.46875
vt 0.1875 0.46875
vt 0.53125 0.71875
vt 0.65625 0.71875
vt 0.65625 0.8125
vt 0.53125 0.8125
vt 0.34375 0.375
vt 0.46875 0.375
vt 0.46875 0.46875
vt 0.34375 0.46875
vt 0.3125 0.625
vt 0.1875 0.625
vt 0.1875 0.5
vt 0.3125 0.5
vn 0 0 -1
vn 1 0 0
vn 0 0 1
vn -1 0 0
vn 0 1 0
usemtl m_7b0e953d-34b4-2016-7b19-5cb9e24ccd30
f 9/21/6 10/22/6 11/23/6 12/24/6
f 13/25/7 9/26/7 12/27/7 14/28/7
f 15/29/8 13/30/8 14/31/8 16/32/8
f 10/33/9 15/34/9 16/35/9 11/36/9
f 16/37/10 14/38/10 12/39/10 11/40/10
o cube
v 0.09375 0.5 -0.09375
v -0.09375 0.5 -0.09375
v -0.09375 0.6875 -0.09375
v 0.09375 0.6875 -0.09375
v 0.09375 0.5 0.09375
v 0.09375 0.6875 0.09375
v -0.09375 0.5 0.09375
v -0.09375 0.6875 0.09375
vt 0.5 0.28125
vt 0.59375 0.28125
vt 0.59375 0.375
vt 0.5 0.375
vt 0.625 0.28125
vt 0.71875 0.28125
vt 0.71875 0.375
vt 0.625 0.375
vt 0.15625 0.25
vt 0.25 0.25
vt 0.25 0.34375
vt 0.15625 0.34375
vt 0.28125 0.25
vt 0.375 0.25
vt 0.375 0.34375
vt 0.28125 0.34375
vn 0 0 -1
vn 1 0 0
vn 0 0 1
vn -1 0 0
usemtl m_7b0e953d-34b4-2016-7b19-5cb9e24ccd30
f 17/41/11 18/42/11 19/43/11 20/44/11
f 21/45/12 17/46/12 20/47/12 22/48/12
f 23/49/13 21/50/13 22/51/13 24/52/13
f 18/53/14 23/54/14 24/55/14 19/56/14
o cube
v 0.0625 0.6875 -0.0625
v -0.0625 0.6875 -0.0625
v -0.0625 0.875 -0.0625
v 0.0625 0.875 -0.0625
v 0.0625 0.6875 0.0625
v 0.0625 0.875 0.0625
v -0.0625 0.6875 0.0625
v -0.0625 0.875 0.0625
vt 0.40625 0.25
vt 0.46875 0.25
vt 0.46875 0.34375
vt 0.40625 0.34375
vt 0 0.21875
vt 0.0625 0.21875
vt 0.0625 0.3125
vt 0 0.3125
vt 0.6875 0.78125
vt 0.75 0.78125
vt 0.75 0.875
vt 0.6875 0.875
vt 0.71875 0.90625
vt 0.78125 0.90625
vt 0.78125 1
vt 0.71875 1
vt 0.5625 0.25
vt 0.5 0.25
vt 0.5 0.1875
vt 0.5625 0.1875
vt 0.8125 0.375
vt 0.75 0.375
vt 0.75 0.4375
vt 0.8125 0.4375
vn 0 0 -1
vn 1 0 0
vn 0 0 1
vn -1 0 0
vn 0 1 0
vn 0 -1 0
usemtl m_7b0e953d-34b4-2016-7b19-5cb9e24ccd30
f 25/57/15 26/58/15 27/59/15 28/60/15
f 29/61/16 25/62/16 28/63/16 30/64/16
f 31/65/17 29/66/17 30/67/17 32/68/17
f 26/69/18 31/70/18 32/71/18 27/72/18
f 32/73/19 30/74/19 28/75/19 27/76/19
f 26/77/20 25/78/20 29/79/20 31/80/20
o cube
v 0.125 0.6875 -0.125
v -0.125 0.6875 -0.125
v -0.125 0.6875 -0.125
v 0.125 0.6875 -0.125
v 0.125 0.6875 0.125
v 0.125 0.6875 0.125
v -0.125 0.6875 0.125
v -0.125 0.6875 0.125
vt 0.75 0.75
vt 0.875 0.75
vt 0.875 0.75
vt 0.75 0.75
vt 0.75 0.71875
vt 0.875 0.71875
vt 0.875 0.71875
vt 0.75 0.71875
vt 0.59375 0.25
vt 0.71875 0.25
vt 0.71875 0.25
vt 0.59375 0.25
vt 0.75 0.34375
vt 0.875 0.34375
vt 0.875 0.34375
vt 0.75 0.34375
vt 0.46875 0.625
vt 0.34375 0.625
vt 0.34375 0.5
vt 0.46875 0.5
vt 0.625 0.53125
vt 0.5 0.53125
vt 0.5 0.65625
vt 0.625 0.65625
vn 0 0 0
vn 0 0 0
vn 0 0 0
vn 0 0 0
vn 0 1 0
vn 0 -1 0
usemtl m_7b0e953d-34b4-2016-7b19-5cb9e24ccd30
f 33/81/21 34/82/21 35/83/21 36/84/21
f 37/85/22 33/86/22 36/87/22 38/88/22
f 39/89/23 37/90/23 38/91/23 40/92/23
f 34/93/24 39/94/24 40/95/24 35/96/24
f 40/97/25 38/98/25 36/99/25 35/100/25
f 34/101/26 33/102/26 37/103/26 39/104/26
o cube
v 0.015625 0.578125 -0.15625
v -0.015625 0.578125 -0.15625
v -0.015625 0.609375 -0.15625
v 0.015625 0.609375 -0.15625
v 0.015625 0.578125 -0.09375
v 0.015625 0.609375 -0.09375
v -0.015625 0.578125 -0.09375
v -0.015625 0.609375 -0.09375
vt 0.5625 0.84375
vt 0.59375 0.84375
vt 0.59375 0.875
vt 0.5625 0.875
vt 0.625 0.84375
vt 0.65625 0.84375
vt 0.65625 0.875
vt 0.625 0.875
vt 0.09375 0.28125
vt 0.125 0.28125
vt 0.125 0.3125
vt 0.09375 0.3125
vt 0.71875 0.75
vt 0.6875 0.75
vt 0.6875 0.71875
vt 0.71875 0.71875
vt 0.125 0.21875
vt 0.09375 0.21875
vt 0.09375 0.25
vt 0.125 0.25
vn 0 0 -1
vn 1 0 0
vn -1 0 0
vn 0 1 0
vn 0 -1 0
usemtl m_7b0e953d-34b4-2016-7b19-5cb9e24ccd30
f 41/105/27 42/106/27 43/107/27 44/108/27
f 45/109/28 41/110/28 44/111/28 46/112/28
f 42/113/29 47/114/29 48/115/29 43/116/29
f 48/117/30 46/118/30 44/119/30 43/120/30
f 42/121/31 41/122/31 45/123/31 47/124/31
o cube
v 0.3551157282861335 0.3761023806378151 0
v 0.11363427171386646 0.3113976193621849 0
v 0.06510570075714384 0.4925087117913852 0
v 0.3065871573294109 0.5572134730670154 0
v 0.3551157282861335 0.3761023806378151 0
v 0.3065871573294109 0.5572134730670154 0
v 0.11363427171386646 0.3113976193621849 0
v 0.06510570075714384 0.4925087117913852 0
vt 0 0.34375
vt 0.125 0.34375
vt 0.125 0.4375
vt 0 0.4375
vt 0.75 0.21875
vt 0.75 0.21875
vt 0.75 0.3125
vt 0.75 0.3125
vt 0.5625 0.90625
vt 0.6875 0.90625
vt 0.6875 1
vt 0.5625 1
vt 0.78125 0.78125
vt 0.78125 0.78125
vt 0.78125 0.875
vt 0.78125 0.875
vt 0.28125 0.21875
vt 0.15625 0.21875
vt 0.15625 0.21875
vt 0.28125 0.21875
vt 0.4375 0.21875
vt 0.3125 0.21875
vt 0.3125 0.21875
vt 0.4375 0.21875
vn 0 0 -1
vn 0 0 0
vn 0 0 1
vn 0 0 0
vn 0 0 0
vn 0 0 0
usemtl m_7b0e953d-34b4-2016-7b19-5cb9e24ccd30
f 49/125/32 50/126/32 51/127/32 52/128/32
f 53/129/33 49/130/33 52/131/33 54/132/33
f 55/133/34 53/134/34 54/135/34 56/136/34
f 50/137/35 55/138/35 56/139/35 51/140/35
f 56/141/36 54/142/36 52/143/36 51/144/36
f 50/145/37 49/146/37 53/147/37 55/148/37
o cube
v -0.11363427171386646 0.3113976193621849 0
v -0.3551157282861335 0.3761023806378151 0
v -0.3065871573294109 0.5572134730670154 0
v -0.06510570075714384 0.4925087117913852 0
v -0.11363427171386646 0.3113976193621849 0
v -0.06510570075714384 0.4925087117913852 0
v -0.3551157282861335 0.3761023806378151 0
v -0.3065871573294109 0.5572134730670154 0
vt 0.125 0.34375
vt 0 0.34375
vt 0 0.4375
vt 0.125 0.4375
vt 0.78125 0.78125
vt 0.78125 0.78125
vt 0.78125 0.875
vt 0.78125 0.875
vt 0.6875 0.90625
vt 0.5625 0.90625
vt 0.5625 1
vt 0.6875 1
vt 0.75 0.21875
vt 0.75 0.21875
vt 0.75 0.3125
vt 0.75 0.3125
vt 0.15625 0.21875
vt 0.28125 0.21875
vt 0.28125 0.21875
vt 0.15625 0.21875
vt 0.3125 0.21875
vt 0.4375 0.21875
vt 0.4375 0.21875
vt 0.3125 0.21875
vn 0 0 -1
vn 0 0 0
vn 0 0 1
vn 0 0 0
vn 0 0 0
vn 0 0 0
usemtl m_7b0e953d-34b4-2016-7b19-5cb9e24ccd30
f 57/149/38 58/150/38 59/151/38 60/152/38
f 61/153/39 57/154/39 60/155/39 62/156/39
f 63/157/40 61/158/40 62/159/40 64/160/40
f 58/161/41 63/162/41 64/163/41 59/164/41
f 64/165/42 62/166/42 60/167/42 59/168/42
f 58/169/43 61/170/43 57/171/43 63/172/43