# Made in Blockbench 5.1.4
mtllib fog_sphere.mtl

o sphere
v 0.06406785193355728 0.29389262614623657 0.4045084971874737
v 0.07531627702520555 0.15450849718747373 0.4755282581475767
v 0.07919222016226814 3.061616997868383e-17 0.5
v 0.07531627702520556 -0.15450849718747367 0.47552825814757677
v 0.1859321480664427 0.29389262614623657 0.36491238710633966
v 0.21857634912103094 0.15450849718747373 0.42898023903989685
v 0.22982477421267924 3.061616997868383e-17 0.45105651629515353
v 0.21857634912103097 -0.15450849718747367 0.4289802390398969
v 0.28959611008113406 0.29389262614623657 0.2895961100811341
v 0.3404406452539163 0.15450849718747373 0.3404406452539164
v 0.3579604780797938 3.061616997868383e-17 0.35796047807979386
v 0.3404406452539164 -0.15450849718747367 0.34044064525391643
v 0.3649123871063396 0.29389262614623657 0.18593214806644273
v 0.4289802390398968 0.15450849718747373 0.21857634912103097
v 0.4510565162951535 3.061616997868383e-17 0.22982477421267927
v 0.42898023903989685 -0.15450849718747367 0.218576349121031
v 0.4045084971874737 0.29389262614623657 0.06406785193355731
v 0.4755282581475767 0.15450849718747373 0.07531627702520557
v 0.5 3.061616997868383e-17 0.07919222016226816
v 0.47552825814757677 -0.15450849718747367 0.07531627702520559
v 0.40450849718747367 0.29389262614623657 -0.06406785193355735
v 0.47552825814757665 0.15450849718747373 -0.07531627702520563
v 0.49999999999999994 3.061616997868383e-17 -0.07919222016226822
v 0.4755282581475767 -0.15450849718747367 -0.07531627702520564
v 0.36491238710633966 0.29389262614623657 -0.18593214806644268
v 0.42898023903989685 0.15450849718747373 -0.2185763491210309
v 0.45105651629515353 3.061616997868383e-17 -0.22982477421267922
v 0.4289802390398969 -0.15450849718747367 -0.21857634912103094
v 0.2895961100811341 0.29389262614623657 -0.28959611008113406
v 0.3404406452539164 0.15450849718747373 -0.3404406452539163
v 0.35796047807979386 3.061616997868383e-17 -0.3579604780797938
v 0.34044064525391643 -0.15450849718747367 -0.3404406452539164
v 0.18593214806644273 0.29389262614623657 -0.3649123871063396
v 0.218576349121031 0.15450849718747373 -0.4289802390398968
v 0.2298247742126793 3.061616997868383e-17 -0.4510565162951535
v 0.21857634912103102 -0.15450849718747367 -0.42898023903989685
v 0.06406785193355734 0.29389262614623657 -0.40450849718747367
v 0.0753162770252056 0.15450849718747373 -0.47552825814757665
v 0.07919222016226819 3.061616997868383e-17 -0.49999999999999994
v 0.07531627702520562 -0.15450849718747367 -0.4755282581475767
v -0.06406785193355723 0.29389262614623657 -0.4045084971874737
v -0.07531627702520549 0.15450849718747373 -0.4755282581475767
v -0.07919222016226807 3.061616997868383e-17 -0.5
v -0.07531627702520549 -0.15450849718747367 -0.47552825814757677
v -0.18593214806644248 0.29389262614623657 -0.3649123871063398
v -0.2185763491210307 0.15450849718747373 -0.42898023903989696
v -0.229824774212679 3.061616997868383e-17 -0.45105651629515364
v -0.21857634912103072 -0.15450849718747367 -0.428980239039897
v -0.28959611008113406 0.29389262614623657 -0.2895961100811341
v -0.3404406452539163 0.15450849718747373 -0.34044064525391643
v -0.3579604780797938 3.061616997868383e-17 -0.3579604780797939
v -0.3404406452539164 -0.15450849718747367 -0.3404406452539165
v -0.3649123871063396 0.29389262614623657 -0.18593214806644276
v -0.4289802390398968 0.15450849718747373 -0.21857634912103102
v -0.4510565162951535 3.061616997868383e-17 -0.22982477421267933
v -0.42898023903989685 -0.15450849718747367 -0.21857634912103105
v -0.40450849718747367 0.29389262614623657 -0.06406785193355735
v -0.47552825814757665 0.15450849718747373 -0.07531627702520563
v -0.49999999999999994 3.061616997868383e-17 -0.07919222016226822
v -0.4755282581475767 -0.15450849718747367 -0.07531627702520564
v -0.4045084971874737 0.29389262614623657 0.06406785193355721
v -0.4755282581475767 0.15450849718747373 0.07531627702520546
v -0.5 3.061616997868383e-17 0.07919222016226804
v -0.47552825814757677 -0.15450849718747367 0.07531627702520546
v -0.36491238710633966 0.29389262614623657 0.18593214806644265
v -0.42898023903989685 0.15450849718747373 0.21857634912103088
v -0.45105651629515353 3.061616997868383e-17 0.2298247742126792
v -0.4289802390398969 -0.15450849718747367 0.2185763491210309
v -0.2895961100811341 0.29389262614623657 0.289596110081134
v -0.34044064525391643 0.15450849718747373 0.34044064525391626
v -0.3579604780797939 3.061616997868383e-17 0.35796047807979375
v -0.3404406452539165 -0.15450849718747367 0.3404406452539163
v -0.1859321480664428 0.29389262614623657 0.3649123871063396
v -0.21857634912103105 0.15450849718747373 0.4289802390398968
v -0.22982477421267936 3.061616997868383e-17 0.4510565162951535
v -0.21857634912103108 -0.15450849718747367 0.42898023903989685
v -0.0640678519335574 0.29389262614623657 0.40450849718747367
v -0.07531627702520567 0.15450849718747373 0.47552825814757665
v -0.07919222016226826 3.061616997868383e-17 0.49999999999999994
v -0.07531627702520569 -0.15450849718747367 0.4755282581475767
v 0.06406785193355728 -0.2938926261462365 0.4045084971874737
v 0.1859321480664427 -0.2938926261462365 0.36491238710633966
v 0.28959611008113406 -0.2938926261462365 0.2895961100811341
v 0.3649123871063396 -0.2938926261462365 0.18593214806644273
v 0.4045084971874737 -0.2938926261462365 0.06406785193355731
v -0.4045084971874737 -0.2938926261462365 0.06406785193355721
v -0.36491238710633966 -0.2938926261462365 0.18593214806644265
v -0.2895961100811341 -0.2938926261462365 0.289596110081134
v -0.1859321480664428 -0.2938926261462365 0.3649123871063396
v -0.0640678519335574 -0.2938926261462365 0.40450849718747367
v 0 -0.5 0
v 0.04654801910767987 -0.40450849718747367 0.2938926261462366
v 0.024471741852423217 -0.47552825814757677 0.15450849718747375
v 0.13508761289366036 -0.40450849718747367 0.2651243682287109
v 0.07101976096010308 -0.47552825814757677 0.13938412895876287
v 0.21040388991886594 -0.40450849718747367 0.21040388991886597
v 0.11061587104123716 -0.47552825814757677 0.11061587104123717
v 0.2651243682287109 -0.40450849718747367 0.1350876128936604
v 0.13938412895876287 -0.47552825814757677 0.0710197609601031
v 0.2938926261462366 -0.40450849718747367 0.04654801910767988
v 0.15450849718747375 -0.47552825814757677 0.024471741852423227
v 0.40450849718747367 -0.2938926261462365 -0.06406785193355735
v 0.29389262614623657 -0.40450849718747367 -0.04654801910767992
v 0.15450849718747373 -0.47552825814757677 -0.024471741852423245
v 0.36491238710633966 -0.2938926261462365 -0.18593214806644268
v 0.2651243682287109 -0.40450849718747367 -0.13508761289366036
v 0.13938412895876287 -0.47552825814757677 -0.07101976096010307
v 0.2895961100811341 -0.2938926261462365 -0.28959611008113406
v 0.21040388991886597 -0.40450849718747367 -0.21040388991886594
v 0.11061587104123717 -0.47552825814757677 -0.11061587104123716
v 0.18593214806644273 -0.2938926261462365 -0.3649123871063396
v 0.1350876128936604 -0.40450849718747367 -0.2651243682287109
v 0.0710197609601031 -0.47552825814757677 -0.13938412895876287
v 0.06406785193355734 -0.2938926261462365 -0.40450849718747367
v 0.0465480191076799 -0.40450849718747367 -0.29389262614623657
v 0.024471741852423234 -0.47552825814757677 -0.15450849718747373
v -0.06406785193355723 -0.2938926261462365 -0.4045084971874737
v -0.046548019107679826 -0.40450849718747367 -0.2938926261462366
v -0.024471741852423196 -0.47552825814757677 -0.15450849718747375
v -0.18593214806644248 -0.2938926261462365 -0.3649123871063398
v -0.13508761289366022 -0.40450849718747367 -0.265124368228711
v -0.071019760960103 -0.47552825814757677 -0.13938412895876293
v -0.28959611008113406 -0.2938926261462365 -0.2895961100811341
v -0.21040388991886594 -0.40450849718747367 -0.210403889918866
v -0.11061587104123716 -0.47552825814757677 -0.1106158710412372
v -0.3649123871063396 -0.2938926261462365 -0.18593214806644276
v -0.2651243682287109 -0.40450849718747367 -0.13508761289366042
v -0.13938412895876287 -0.47552825814757677 -0.07101976096010311
v -0.40450849718747367 -0.2938926261462365 -0.06406785193355735
v -0.29389262614623657 -0.40450849718747367 -0.04654801910767992
v -0.15450849718747373 -0.47552825814757677 -0.024471741852423245
v -0.2938926261462366 -0.40450849718747367 0.046548019107679806
v -0.15450849718747375 -0.47552825814757677 0.02447174185242319
v -0.2651243682287109 -0.40450849718747367 0.13508761289366034
v -0.13938412895876287 -0.47552825814757677 0.07101976096010307
v -0.210403889918866 -0.40450849718747367 0.2104038899188659
v -0.1106158710412372 -0.47552825814757677 0.11061587104123714
v -0.13508761289366045 -0.40450849718747367 0.2651243682287109
v -0.07101976096010311 -0.47552825814757677 0.13938412895876287
v -0.04654801910767994 -0.40450849718747367 0.29389262614623657
v -0.02447174185242326 -0.47552825814757677 0.15450849718747373
v 0 0.5 0
v 0.02447174185242321 0.47552825814757677 0.1545084971874737
v 0.04654801910767986 0.4045084971874737 0.29389262614623657
v 0.07101976096010305 0.47552825814757677 0.13938412895876284
v 0.13508761289366034 0.4045084971874737 0.2651243682287109
v 0.11061587104123712 0.47552825814757677 0.11061587104123713
v 0.2104038899188659 0.4045084971874737 0.21040388991886594
v 0.13938412895876282 0.47552825814757677 0.07101976096010307
v 0.2651243682287108 0.4045084971874737 0.13508761289366036
v 0.1545084971874737 0.47552825814757677 0.024471741852423217
v 0.29389262614623657 0.4045084971874737 0.046548019107679875
v 0.15450849718747367 0.47552825814757677 -0.024471741852423234
v 0.2938926261462365 0.4045084971874737 -0.04654801910767991
v 0.13938412895876284 0.47552825814757677 -0.07101976096010304
v 0.2651243682287109 0.4045084971874737 -0.13508761289366034
v 0.11061587104123713 0.47552825814757677 -0.11061587104123712
v 0.21040388991886594 0.4045084971874737 -0.2104038899188659
v 0.07101976096010307 0.47552825814757677 -0.13938412895876282
v 0.13508761289366036 0.4045084971874737 -0.2651243682287108
v 0.024471741852423227 0.47552825814757677 -0.15450849718747367
v 0.04654801910767989 0.4045084971874737 -0.2938926261462365
v -0.02447174185242319 0.47552825814757677 -0.1545084971874737
v -0.04654801910767982 0.4045084971874737 -0.29389262614623657
v -0.07101976096010297 0.47552825814757677 -0.13938412895876287
v -0.1350876128936602 0.4045084971874737 -0.26512436822871094
v -0.11061587104123712 0.47552825814757677 -0.11061587104123716
v -0.2104038899188659 0.4045084971874737 -0.21040388991886597
v -0.13938412895876282 0.47552825814757677 -0.07101976096010308
v -0.2651243682287108 0.4045084971874737 -0.1350876128936604
v -0.15450849718747367 0.47552825814757677 -0.024471741852423234
v -0.2938926261462365 0.4045084971874737 -0.04654801910767991
v -0.1545084971874737 0.47552825814757677 0.02447174185242318
v -0.29389262614623657 0.4045084971874737 0.0465480191076798
v -0.13938412895876284 0.47552825814757677 0.07101976096010304
v -0.2651243682287109 0.4045084971874737 0.1350876128936603
v -0.11061587104123716 0.47552825814757677 0.1106158710412371
v -0.21040388991886597 0.4045084971874737 0.21040388991886586
v -0.0710197609601031 0.47552825814757677 0.13938412895876282
v -0.13508761289366042 0.4045084971874737 0.2651243682287108
v -0.02447174185242325 0.47552825814757677 0.15450849718747367
v -0.04654801910767993 0.4045084971874737 0.2938926261462365
vt 0.234375 0.984375
vt 0.203125 0.984375
vt 0.203125 0.953125
vt 0.234375 0.953125
vt 0.296875 0.984375
vt 0.265625 0.984375
vt 0.265625 0.953125
vt 0.296875 0.953125
vt 0.359375 0.984375
vt 0.328125 0.984375
vt 0.328125 0.953125
vt 0.359375 0.953125
vt 0.859375 0.984375
vt 0.828125 0.984375
vt 0.828125 0.953125
vt 0.859375 0.953125
vt 0.921875 0.984375
vt 0.890625 0.984375
vt 0.890625 0.953125
vt 0.921875 0.953125
vt 0.984375 0.984375
vt 0.953125 0.984375
vt 0.953125 0.953125
vt 0.984375 0.953125
vt 0.484375 0.921875
vt 0.453125 0.921875
vt 0.453125 0.890625
vt 0.484375 0.890625
vt 0.546875 0.921875
vt 0.515625 0.921875
vt 0.515625 0.890625
vt 0.546875 0.890625
vt 0.609375 0.921875
vt 0.578125 0.921875
vt 0.578125 0.890625
vt 0.609375 0.890625
vt 0.109375 0.859375
vt 0.078125 0.859375
vt 0.078125 0.828125
vt 0.109375 0.828125
vt 0.171875 0.859375
vt 0.140625 0.859375
vt 0.140625 0.828125
vt 0.171875 0.828125
vt 0.234375 0.859375
vt 0.203125 0.859375
vt 0.203125 0.828125
vt 0.234375 0.828125
vt 0.734375 0.859375
vt 0.703125 0.859375
vt 0.703125 0.828125
vt 0.734375 0.828125
vt 0.796875 0.859375
vt 0.765625 0.859375
vt 0.765625 0.828125
vt 0.796875 0.828125
vt 0.859375 0.859375
vt 0.828125 0.859375
vt 0.828125 0.828125
vt 0.859375 0.828125
vt 0.359375 0.796875
vt 0.328125 0.796875
vt 0.328125 0.765625
vt 0.359375 0.765625
vt 0.421875 0.796875
vt 0.390625 0.796875
vt 0.390625 0.765625
vt 0.421875 0.765625
vt 0.484375 0.796875
vt 0.453125 0.796875
vt 0.453125 0.765625
vt 0.484375 0.765625
vt 0.984375 0.796875
vt 0.953125 0.796875
vt 0.953125 0.765625
vt 0.984375 0.765625
vt 0.046875 0.734375
vt 0.015625 0.734375
vt 0.015625 0.703125
vt 0.046875 0.703125
vt 0.109375 0.734375
vt 0.078125 0.734375
vt 0.078125 0.703125
vt 0.109375 0.703125
vt 0.609375 0.734375
vt 0.578125 0.734375
vt 0.578125 0.703125
vt 0.609375 0.703125
vt 0.671875 0.734375
vt 0.640625 0.734375
vt 0.640625 0.703125
vt 0.671875 0.703125
vt 0.734375 0.734375
vt 0.703125 0.734375
vt 0.703125 0.703125
vt 0.734375 0.703125
vt 0.234375 0.671875
vt 0.203125 0.671875
vt 0.203125 0.640625
vt 0.234375 0.640625
vt 0.296875 0.671875
vt 0.265625 0.671875
vt 0.265625 0.640625
vt 0.296875 0.640625
vt 0.359375 0.671875
vt 0.328125 0.671875
vt 0.328125 0.640625
vt 0.359375 0.640625
vt 0.859375 0.671875
vt 0.828125 0.671875
vt 0.828125 0.640625
vt 0.859375 0.640625
vt 0.921875 0.671875
vt 0.890625 0.671875
vt 0.890625 0.640625
vt 0.921875 0.640625
vt 0.984375 0.671875
vt 0.953125 0.671875
vt 0.953125 0.640625
vt 0.984375 0.640625
vt 0.484375 0.609375
vt 0.453125 0.609375
vt 0.453125 0.578125
vt 0.484375 0.578125
vt 0.546875 0.609375
vt 0.515625 0.609375
vt 0.515625 0.578125
vt 0.546875 0.578125
vt 0.609375 0.609375
vt 0.578125 0.609375
vt 0.578125 0.578125
vt 0.609375 0.578125
vt 0.109375 0.546875
vt 0.078125 0.546875
vt 0.078125 0.515625
vt 0.109375 0.515625
vt 0.171875 0.546875
vt 0.140625 0.546875
vt 0.140625 0.515625
vt 0.171875 0.515625
vt 0.234375 0.546875
vt 0.203125 0.546875
vt 0.203125 0.515625
vt 0.234375 0.515625
vt 0.734375 0.546875
vt 0.703125 0.546875
vt 0.703125 0.515625
vt 0.734375 0.515625
vt 0.796875 0.546875
vt 0.765625 0.546875
vt 0.765625 0.515625
vt 0.796875 0.515625
vt 0.859375 0.546875
vt 0.828125 0.546875
vt 0.828125 0.515625
vt 0.859375 0.515625
vt 0.359375 0.484375
vt 0.328125 0.484375
vt 0.328125 0.453125
vt 0.359375 0.453125
vt 0.421875 0.484375
vt 0.390625 0.484375
vt 0.390625 0.453125
vt 0.421875 0.453125
vt 0.484375 0.484375
vt 0.453125 0.484375
vt 0.453125 0.453125
vt 0.484375 0.453125
vt 0.984375 0.484375
vt 0.953125 0.484375
vt 0.953125 0.453125
vt 0.984375 0.453125
vt 0.046875 0.421875
vt 0.015625 0.421875
vt 0.015625 0.390625
vt 0.046875 0.390625
vt 0.109375 0.421875
vt 0.078125 0.421875
vt 0.078125 0.390625
vt 0.109375 0.390625
vt 0.609375 0.421875
vt 0.578125 0.421875
vt 0.578125 0.390625
vt 0.609375 0.390625
vt 0.671875 0.421875
vt 0.640625 0.421875
vt 0.640625 0.390625
vt 0.671875 0.390625
vt 0.734375 0.421875
vt 0.703125 0.421875
vt 0.703125 0.390625
vt 0.734375 0.390625
vt 0.234375 0.359375
vt 0.203125 0.359375
vt 0.203125 0.328125
vt 0.234375 0.328125
vt 0.296875 0.359375
vt 0.265625 0.359375
vt 0.265625 0.328125
vt 0.296875 0.328125
vt 0.359375 0.359375
vt 0.328125 0.359375
vt 0.328125 0.328125
vt 0.359375 0.328125
vt 0.859375 0.359375
vt 0.828125 0.359375
vt 0.828125 0.328125
vt 0.859375 0.328125
vt 0.921875 0.359375
vt 0.890625 0.359375
vt 0.890625 0.328125
vt 0.921875 0.328125
vt 0.984375 0.359375
vt 0.953125 0.359375
vt 0.953125 0.328125
vt 0.984375 0.328125
vt 0.484375 0.296875
vt 0.453125 0.296875
vt 0.453125 0.265625
vt 0.484375 0.265625
vt 0.546875 0.296875
vt 0.515625 0.296875
vt 0.515625 0.265625
vt 0.546875 0.265625
vt 0.609375 0.296875
vt 0.578125 0.296875
vt 0.578125 0.265625
vt 0.609375 0.265625
vt 0.109375 0.234375
vt 0.078125 0.234375
vt 0.078125 0.203125
vt 0.109375 0.203125
vt 0.171875 0.234375
vt 0.140625 0.234375
vt 0.140625 0.203125
vt 0.171875 0.203125
vt 0.234375 0.234375
vt 0.203125 0.234375
vt 0.203125 0.203125
vt 0.234375 0.203125
vt 0.421875 0.984375
vt 0.390625 0.984375
vt 0.390625 0.953125
vt 0.421875 0.953125
vt 0.046875 0.921875
vt 0.015625 0.921875
vt 0.015625 0.890625
vt 0.046875 0.890625
vt 0.671875 0.921875
vt 0.640625 0.921875
vt 0.640625 0.890625
vt 0.671875 0.890625
vt 0.296875 0.859375
vt 0.265625 0.859375
vt 0.265625 0.828125
vt 0.296875 0.828125
vt 0.796875 0.421875
vt 0.765625 0.421875
vt 0.765625 0.390625
vt 0.796875 0.390625
vt 0.421875 0.359375
vt 0.390625 0.359375
vt 0.390625 0.328125
vt 0.421875 0.328125
vt 0.046875 0.296875
vt 0.015625 0.296875
vt 0.015625 0.265625
vt 0.046875 0.265625
vt 0.671875 0.296875
vt 0.640625 0.296875
vt 0.640625 0.265625
vt 0.671875 0.265625
vt 0.296875 0.234375
vt 0.265625 0.234375
vt 0.265625 0.203125
vt 0.296875 0.203125
vt 0.484375 0.984375
vt 0.453125 0.984375
vt 0.453125 0.953125
vt 0.484375 0.953125
vt 0.546875 0.984375
vt 0.515625 0.984375
vt 0.515625 0.953125
vt 0.546875 0.953125
vt 0.609375 0.984375
vt 0.578125 0.984375
vt 0.578125 0.953125
vt 0.109375 0.921875
vt 0.078125 0.921875
vt 0.078125 0.890625
vt 0.109375 0.890625
vt 0.171875 0.921875
vt 0.140625 0.921875
vt 0.140625 0.890625
vt 0.171875 0.890625
vt 0.234375 0.921875
vt 0.203125 0.921875
vt 0.203125 0.890625
vt 0.734375 0.921875
vt 0.703125 0.921875
vt 0.703125 0.890625
vt 0.734375 0.890625
vt 0.796875 0.921875
vt 0.765625 0.921875
vt 0.765625 0.890625
vt 0.796875 0.890625
vt 0.859375 0.921875
vt 0.828125 0.921875
vt 0.828125 0.890625
vt 0.359375 0.859375
vt 0.328125 0.859375
vt 0.328125 0.828125
vt 0.359375 0.828125
vt 0.421875 0.859375
vt 0.390625 0.859375
vt 0.390625 0.828125
vt 0.421875 0.828125
vt 0.484375 0.859375
vt 0.453125 0.859375
vt 0.453125 0.828125
vt 0.921875 0.859375
vt 0.890625 0.859375
vt 0.890625 0.828125
vt 0.921875 0.828125
vt 0.984375 0.859375
vt 0.953125 0.859375
vt 0.953125 0.828125
vt 0.984375 0.828125
vt 0.046875 0.796875
vt 0.015625 0.796875
vt 0.015625 0.765625
vt 0.046875 0.765625
vt 0.109375 0.796875
vt 0.078125 0.796875
vt 0.078125 0.765625
vt 0.546875 0.796875
vt 0.515625 0.796875
vt 0.515625 0.765625
vt 0.546875 0.765625
vt 0.609375 0.796875
vt 0.578125 0.796875
vt 0.578125 0.765625
vt 0.609375 0.765625
vt 0.671875 0.796875
vt 0.640625 0.796875
vt 0.640625 0.765625
vt 0.671875 0.765625
vt 0.734375 0.796875
vt 0.703125 0.796875
vt 0.703125 0.765625
vt 0.171875 0.734375
vt 0.140625 0.734375
vt 0.140625 0.703125
vt 0.171875 0.703125
vt 0.234375 0.734375
vt 0.203125 0.734375
vt 0.203125 0.703125
vt 0.234375 0.703125
vt 0.296875 0.734375
vt 0.265625 0.734375
vt 0.265625 0.703125
vt 0.296875 0.703125
vt 0.359375 0.734375
vt 0.328125 0.734375
vt 0.328125 0.703125
vt 0.796875 0.734375
vt 0.765625 0.734375
vt 0.765625 0.703125
vt 0.796875 0.703125
vt 0.859375 0.734375
vt 0.828125 0.734375
vt 0.828125 0.703125
vt 0.859375 0.703125
vt 0.921875 0.734375
vt 0.890625 0.734375
vt 0.890625 0.703125
vt 0.921875 0.703125
vt 0.984375 0.734375
vt 0.953125 0.734375
vt 0.953125 0.703125
vt 0.421875 0.671875
vt 0.390625 0.671875
vt 0.390625 0.640625
vt 0.421875 0.640625
vt 0.484375 0.671875
vt 0.453125 0.671875
vt 0.453125 0.640625
vt 0.484375 0.640625
vt 0.546875 0.671875
vt 0.515625 0.671875
vt 0.515625 0.640625
vt 0.546875 0.640625
vt 0.609375 0.671875
vt 0.578125 0.671875
vt 0.578125 0.640625
vt 0.046875 0.609375
vt 0.015625 0.609375
vt 0.015625 0.578125
vt 0.046875 0.578125
vt 0.109375 0.609375
vt 0.078125 0.609375
vt 0.078125 0.578125
vt 0.109375 0.578125
vt 0.171875 0.609375
vt 0.140625 0.609375
vt 0.140625 0.578125
vt 0.171875 0.578125
vt 0.234375 0.609375
vt 0.203125 0.609375
vt 0.203125 0.578125
vt 0.671875 0.609375
vt 0.640625 0.609375
vt 0.640625 0.578125
vt 0.671875 0.578125
vt 0.734375 0.609375
vt 0.703125 0.609375
vt 0.703125 0.578125
vt 0.734375 0.578125
vt 0.796875 0.609375
vt 0.765625 0.609375
vt 0.765625 0.578125
vt 0.796875 0.578125
vt 0.859375 0.609375
vt 0.828125 0.609375
vt 0.828125 0.578125
vt 0.296875 0.546875
vt 0.265625 0.546875
vt 0.265625 0.515625
vt 0.296875 0.515625
vt 0.359375 0.546875
vt 0.328125 0.546875
vt 0.328125 0.515625
vt 0.359375 0.515625
vt 0.421875 0.546875
vt 0.390625 0.546875
vt 0.390625 0.515625
vt 0.421875 0.515625
vt 0.484375 0.546875
vt 0.453125 0.546875
vt 0.453125 0.515625
vt 0.921875 0.546875
vt 0.890625 0.546875
vt 0.890625 0.515625
vt 0.921875 0.515625
vt 0.984375 0.546875
vt 0.953125 0.546875
vt 0.953125 0.515625
vt 0.984375 0.515625
vt 0.046875 0.484375
vt 0.015625 0.484375
vt 0.015625 0.453125
vt 0.046875 0.453125
vt 0.109375 0.484375
vt 0.078125 0.484375
vt 0.078125 0.453125
vt 0.546875 0.484375
vt 0.515625 0.484375
vt 0.515625 0.453125
vt 0.546875 0.453125
vt 0.609375 0.484375
vt 0.578125 0.484375
vt 0.578125 0.453125
vt 0.609375 0.453125
vt 0.671875 0.484375
vt 0.640625 0.484375
vt 0.640625 0.453125
vt 0.671875 0.453125
vt 0.734375 0.484375
vt 0.703125 0.484375
vt 0.703125 0.453125
vt 0.171875 0.421875
vt 0.140625 0.421875
vt 0.140625 0.390625
vt 0.171875 0.390625
vt 0.234375 0.421875
vt 0.203125 0.421875
vt 0.203125 0.390625
vt 0.234375 0.390625
vt 0.296875 0.421875
vt 0.265625 0.421875
vt 0.265625 0.390625
vt 0.296875 0.390625
vt 0.359375 0.421875
vt 0.328125 0.421875
vt 0.328125 0.390625
vt 0.859375 0.421875
vt 0.828125 0.421875
vt 0.828125 0.390625
vt 0.859375 0.390625
vt 0.921875 0.421875
vt 0.890625 0.421875
vt 0.890625 0.390625
vt 0.921875 0.390625
vt 0.984375 0.421875
vt 0.953125 0.421875
vt 0.953125 0.390625
vt 0.484375 0.359375
vt 0.453125 0.359375
vt 0.453125 0.328125
vt 0.484375 0.328125
vt 0.546875 0.359375
vt 0.515625 0.359375
vt 0.515625 0.328125
vt 0.546875 0.328125
vt 0.609375 0.359375
vt 0.578125 0.359375
vt 0.578125 0.328125
vt 0.109375 0.296875
vt 0.078125 0.296875
vt 0.078125 0.265625
vt 0.109375 0.265625
vt 0.171875 0.296875
vt 0.140625 0.296875
vt 0.140625 0.265625
vt 0.171875 0.265625
vt 0.234375 0.296875
vt 0.203125 0.296875
vt 0.203125 0.265625
vt 0.734375 0.296875
vt 0.703125 0.296875
vt 0.703125 0.265625
vt 0.734375 0.265625
vt 0.796875 0.296875
vt 0.765625 0.296875
vt 0.765625 0.265625
vt 0.796875 0.265625
vt 0.859375 0.296875
vt 0.828125 0.296875
vt 0.828125 0.265625
vt 0.359375 0.234375
vt 0.328125 0.234375
vt 0.328125 0.203125
vt 0.359375 0.203125
vt 0.421875 0.234375
vt 0.390625 0.234375
vt 0.390625 0.203125
vt 0.421875 0.203125
vt 0.484375 0.234375
vt 0.453125 0.234375
vt 0.453125 0.203125
vt 0.046875 0.984375
vt 0.015625 0.984375
vt 0.015625 0.953125
vt 0.109375 0.984375
vt 0.078125 0.984375
vt 0.078125 0.953125
vt 0.109375 0.953125
vt 0.171875 0.984375
vt 0.140625 0.984375
vt 0.140625 0.953125
vt 0.171875 0.953125
vt 0.671875 0.984375
vt 0.640625 0.984375
vt 0.640625 0.953125
vt 0.734375 0.984375
vt 0.703125 0.984375
vt 0.703125 0.953125
vt 0.734375 0.953125
vt 0.796875 0.984375
vt 0.765625 0.984375
vt 0.765625 0.953125
vt 0.796875 0.953125
vt 0.296875 0.921875
vt 0.265625 0.921875
vt 0.265625 0.890625
vt 0.359375 0.921875
vt 0.328125 0.921875
vt 0.328125 0.890625
vt 0.359375 0.890625
vt 0.421875 0.921875
vt 0.390625 0.921875
vt 0.390625 0.890625
vt 0.421875 0.890625
vt 0.921875 0.921875
vt 0.890625 0.921875
vt 0.890625 0.890625
vt 0.984375 0.921875
vt 0.953125 0.921875
vt 0.953125 0.890625
vt 0.984375 0.890625
vt 0.046875 0.859375
vt 0.015625 0.859375
vt 0.015625 0.828125
vt 0.046875 0.828125
vt 0.546875 0.859375
vt 0.515625 0.859375
vt 0.515625 0.828125
vt 0.609375 0.859375
vt 0.578125 0.859375
vt 0.578125 0.828125
vt 0.609375 0.828125
vt 0.671875 0.859375
vt 0.640625 0.859375
vt 0.640625 0.828125
vt 0.671875 0.828125
vt 0.171875 0.796875
vt 0.140625 0.796875
vt 0.140625 0.765625
vt 0.234375 0.796875
vt 0.203125 0.796875
vt 0.203125 0.765625
vt 0.234375 0.765625
vt 0.296875 0.796875
vt 0.265625 0.796875
vt 0.265625 0.765625
vt 0.296875 0.765625
vt 0.796875 0.796875
vt 0.765625 0.796875
vt 0.765625 0.765625
vt 0.859375 0.796875
vt 0.828125 0.796875
vt 0.828125 0.765625
vt 0.859375 0.765625
vt 0.921875 0.796875
vt 0.890625 0.796875
vt 0.890625 0.765625
vt 0.921875 0.765625
vt 0.421875 0.734375
vt 0.390625 0.734375
vt 0.390625 0.703125
vt 0.484375 0.734375
vt 0.453125 0.734375
vt 0.453125 0.703125
vt 0.484375 0.703125
vt 0.546875 0.734375
vt 0.515625 0.734375
vt 0.515625 0.703125
vt 0.546875 0.703125
vt 0.046875 0.671875
vt 0.015625 0.671875
vt 0.015625 0.640625
vt 0.109375 0.671875
vt 0.078125 0.671875
vt 0.078125 0.640625
vt 0.109375 0.640625
vt 0.171875 0.671875
vt 0.140625 0.671875
vt 0.140625 0.640625
vt 0.171875 0.640625
vt 0.671875 0.671875
vt 0.640625 0.671875
vt 0.640625 0.640625
vt 0.734375 0.671875
vt 0.703125 0.671875
vt 0.703125 0.640625
vt 0.734375 0.640625
vt 0.796875 0.671875
vt 0.765625 0.671875
vt 0.765625 0.640625
vt 0.796875 0.640625
vt 0.296875 0.609375
vt 0.265625 0.609375
vt 0.265625 0.578125
vt 0.359375 0.609375
vt 0.328125 0.609375
vt 0.328125 0.578125
vt 0.359375 0.578125
vt 0.421875 0.609375
vt 0.390625 0.609375
vt 0.390625 0.578125
vt 0.421875 0.578125
vt 0.921875 0.609375
vt 0.890625 0.609375
vt 0.890625 0.578125
vt 0.984375 0.609375
vt 0.953125 0.609375
vt 0.953125 0.578125
vt 0.984375 0.578125
vt 0.046875 0.546875
vt 0.015625 0.546875
vt 0.015625 0.515625
vt 0.046875 0.515625
vt 0.546875 0.546875
vt 0.515625 0.546875
vt 0.515625 0.515625
vt 0.609375 0.546875
vt 0.578125 0.546875
vt 0.578125 0.515625
vt 0.609375 0.515625
vt 0.671875 0.546875
vt 0.640625 0.546875
vt 0.640625 0.515625
vt 0.671875 0.515625
vt 0.171875 0.484375
vt 0.140625 0.484375
vt 0.140625 0.453125
vt 0.234375 0.484375
vt 0.203125 0.484375
vt 0.203125 0.453125
vt 0.234375 0.453125
vt 0.296875 0.484375
vt 0.265625 0.484375
vt 0.265625 0.453125
vt 0.296875 0.453125
vt 0.796875 0.484375
vt 0.765625 0.484375
vt 0.765625 0.453125
vt 0.859375 0.484375
vt 0.828125 0.484375
vt 0.828125 0.453125
vt 0.859375 0.453125
vt 0.921875 0.484375
vt 0.890625 0.484375
vt 0.890625 0.453125
vt 0.921875 0.453125
vt 0.421875 0.421875
vt 0.390625 0.421875
vt 0.390625 0.390625
vt 0.484375 0.421875
vt 0.453125 0.421875
vt 0.453125 0.390625
vt 0.484375 0.390625
vt 0.546875 0.421875
vt 0.515625 0.421875
vt 0.515625 0.390625
vt 0.546875 0.390625
vt 0.046875 0.359375
vt 0.015625 0.359375
vt 0.015625 0.328125
vt 0.109375 0.359375
vt 0.078125 0.359375
vt 0.078125 0.328125
vt 0.109375 0.328125
vt 0.171875 0.359375
vt 0.140625 0.359375
vt 0.140625 0.328125
vt 0.171875 0.328125
vt 0.671875 0.359375
vt 0.640625 0.359375
vt 0.640625 0.328125
vt 0.734375 0.359375
vt 0.703125 0.359375
vt 0.703125 0.328125
vt 0.734375 0.328125
vt 0.796875 0.359375
vt 0.765625 0.359375
vt 0.765625 0.328125
vt 0.796875 0.328125
vt 0.296875 0.296875
vt 0.265625 0.296875
vt 0.265625 0.265625
vt 0.359375 0.296875
vt 0.328125 0.296875
vt 0.328125 0.265625
vt 0.359375 0.265625
vt 0.421875 0.296875
vt 0.390625 0.296875
vt 0.390625 0.265625
vt 0.421875 0.265625
vt 0.921875 0.296875
vt 0.890625 0.296875
vt 0.890625 0.265625
vt 0.984375 0.296875
vt 0.953125 0.296875
vt 0.953125 0.265625
vt 0.984375 0.265625
vt 0.046875 0.234375
vt 0.015625 0.234375
vt 0.015625 0.203125
vt 0.046875 0.203125
vn 0.2753361580731584 0.45399049973954636 0.8473975608908428
vn 0.3052124823898891 0.15643446504023134 0.9393474323917527
vn 0.3052124823898889 -0.15643446504023098 0.9393474323917528
vn 0.5237204946142996 0.4539904997395463 0.7208394201673425
vn 0.5805486404630469 0.15643446504023117 0.7990566526874578
vn 0.5805486404630471 -0.15643446504023079 0.7990566526874577
vn 0.7208394201673426 0.45399049973954625 0.5237204946142996
vn 0.7990566526874578 0.15643446504023142 0.5805486404630469
vn 0.7990566526874577 -0.15643446504023092 0.5805486404630471
vn 0.8473975608908428 0.45399049973954636 0.2753361580731588
vn 0.9393474323917526 0.15643446504023117 0.30521248238988946
vn 0.9393474323917527 -0.15643446504023079 0.3052124823898893
vn 0.8910065241883682 0.45399049973954647 -2.9446858263341683e-16
vn 0.9876883405951377 0.1564344650402314 -3.5007033044713615e-16
vn 0.9876883405951378 -0.156434465040231 -3.680857282917709e-16
vn 0.8473975608908428 0.4539904997395464 -0.2753361580731584
vn 0.9393474323917528 0.15643446504023137 -0.305212482389889
vn 0.9393474323917528 -0.15643446504023098 -0.30521248238988874
vn 0.7208394201673426 0.4539904997395462 -0.5237204946142995
vn 0.7990566526874578 0.15643446504023117 -0.5805486404630469
vn 0.7990566526874577 -0.1564344650402308 -0.5805486404630471
vn 0.5237204946142996 0.45399049973954625 -0.7208394201673426
vn 0.5805486404630469 0.15643446504023142 -0.7990566526874578
vn 0.5805486404630472 -0.15643446504023095 -0.7990566526874578
vn 0.27533615807315853 0.4539904997395463 -0.847397560890843
vn 0.3052124823898892 0.15643446504023117 -0.9393474323917527
vn 0.30521248238988896 -0.15643446504023079 -0.9393474323917528
vn 3.6808572829177127e-16 0.45399049973954636 -0.8910065241883681
vn 3.500703304471364e-16 0.1564344650402314 -0.9876883405951377
vn 3.6808572829177127e-16 -0.15643446504023106 -0.9876883405951378
vn -0.2753361580731582 0.45399049973954636 -0.8473975608908428
vn -0.30521248238988885 0.15643446504023134 -0.9393474323917529
vn -0.30521248238988863 -0.156434465040231 -0.9393474323917529
vn -0.523720494614299 0.4539904997395462 -0.7208394201673428
vn -0.5805486404630464 0.1564344650402312 -0.7990566526874583
vn -0.5805486404630466 -0.1564344650402308 -0.7990566526874582
vn -0.7208394201673426 0.4539904997395463 -0.5237204946142995
vn -0.7990566526874578 0.15643446504023142 -0.5805486404630469
vn -0.7990566526874577 -0.15643446504023092 -0.5805486404630471
vn -0.847397560890843 0.4539904997395463 -0.27533615807315853
vn -0.9393474323917528 0.15643446504023117 -0.3052124823898892
vn -0.9393474323917528 -0.15643446504023079 -0.30521248238988896
vn -0.8910065241883681 0.45399049973954636 -3.680857282917713e-16
vn -0.9876883405951377 0.1564344650402314 -3.500703304471364e-16
vn -0.9876883405951378 -0.15643446504023106 -3.6808572829177127e-16
vn -0.8473975608908428 0.4539904997395463 0.27533615807315837
vn -0.9393474323917527 0.1564344650402313 0.305212482389889
vn -0.9393474323917528 -0.156434465040231 0.30521248238988885
vn -0.7208394201673426 0.45399049973954625 0.5237204946142994
vn -0.7990566526874582 0.1564344650402312 0.5805486404630468
vn -0.799056652687458 -0.1564344650402308 0.5805486404630469
vn -0.5237204946142997 0.4539904997395463 0.7208394201673424
vn -0.5805486404630472 0.15643446504023142 0.7990566526874576
vn -0.5805486404630473 -0.15643446504023095 0.7990566526874576
vn -0.2753361580731586 0.4539904997395464 0.847397560890843
vn -0.3052124823898892 0.15643446504023117 0.9393474323917527
vn -0.30521248238988896 -0.15643446504023079 0.9393474323917528
vn -3.6808572829177102e-16 0.45399049973954647 0.8910065241883682
vn -3.5007033044713605e-16 0.15643446504023137 0.9876883405951377
vn -3.6808572829177083e-16 -0.15643446504023104 0.9876883405951378
vn 0.2753361580731582 -0.4539904997395467 0.8473975608908428
vn 0.5237204946142994 -0.4539904997395467 0.7208394201673425
vn 0.7208394201673426 -0.4539904997395465 0.5237204946142993
vn 0.8473975608908428 -0.45399049973954664 0.2753361580731587
vn -0.8473975608908428 -0.4539904997395467 0.2753361580731582
vn -0.7208394201673425 -0.4539904997395467 0.5237204946142994
vn -0.5237204946142996 -0.4539904997395467 0.7208394201673421
vn -0.27533615807315837 -0.4539904997395466 0.8473975608908427
vn -4.3271072533847453e-16 -0.45399049973954664 0.8910065241883679
vn 0.21850801222441088 -0.7071067811865474 0.6724985119639575
vn 0.14029077970429535 -0.8910065241883678 0.43177062311338926
vn 0.04834090820338503 -0.9876883405951378 0.14877801734965804
vn 0.41562693777745335 -0.7071067811865476 0.5720614028176845
vn 0.2668489204277955 -0.8910065241883678 0.36728602957406853
vn 0.09194987150091022 -0.9876883405951378 0.12655814072350047
vn 0.5720614028176843 -0.7071067811865475 0.41562693777745346
vn 0.3672860295740686 -0.891006524188368 0.26684892042779557
vn 0.12655814072350044 -0.9876883405951378 0.09194987150091023
vn 0.6724985119639576 -0.7071067811865474 0.2185080122244109
vn 0.4317706231133893 -0.891006524188368 0.14029077970429538
vn 0.14877801734965804 -0.9876883405951378 0.048340908203385026
vn 0.8910065241883679 -0.45399049973954664 -3.4616858027077963e-16
vn 0.7071067811865478 -0.7071067811865474 -3.573451314899065e-16
vn 0.4539904997395469 -0.8910065241883678 -2.265702772465493e-16
vn 0.15643446504023095 -0.9876883405951378 -8.871310937935223e-17
vn 0.8473975608908428 -0.45399049973954664 -0.2753361580731581
vn 0.6724985119639575 -0.7071067811865474 -0.21850801222441055
vn 0.4317706231133894 -0.8910065241883679 -0.1402907797042953
vn 0.14877801734965806 -0.9876883405951379 -0.048340908203385
vn 0.7208394201673426 -0.4539904997395467 -0.5237204946142993
vn 0.5720614028176845 -0.7071067811865474 -0.41562693777745335
vn 0.3672860295740686 -0.8910065241883678 -0.26684892042779546
vn 0.12655814072350047 -0.9876883405951378 -0.09194987150091019
vn 0.5237204946142993 -0.4539904997395465 -0.7208394201673426
vn 0.4156269377774536 -0.7071067811865476 -0.5720614028176844
vn 0.2668489204277955 -0.8910065241883678 -0.36728602957406853
vn 0.09194987150091023 -0.9876883405951378 -0.12655814072350044
vn 0.27533615807315837 -0.4539904997395466 -0.8473975608908427
vn 0.21850801222441052 -0.7071067811865472 -0.6724985119639576
vn 0.14029077970429515 -0.8910065241883678 -0.4317706231133893
vn 0.04834090820338496 -0.9876883405951378 -0.1487780173496581
vn 4.327107253384749e-16 -0.4539904997395468 -0.891006524188368
vn 4.764601753198755e-16 -0.7071067811865474 -0.7071067811865477
vn 2.265702772465495e-16 -0.8910065241883679 -0.4539904997395469
vn 8.87131093793523e-17 -0.9876883405951378 -0.15643446504023095
vn -0.2753361580731579 -0.45399049973954675 -0.8473975608908428
vn -0.21850801222441033 -0.7071067811865472 -0.6724985119639576
vn -0.14029077970429513 -0.891006524188368 -0.4317706231133894
vn -0.048340908203384936 -0.9876883405951379 -0.14877801734965806
vn -0.5237204946142993 -0.4539904997395465 -0.7208394201673426
vn -0.4156269377774534 -0.7071067811865474 -0.5720614028176846
vn -0.2668489204277952 -0.891006524188368 -0.36728602957406886
vn -0.09194987150091014 -0.9876883405951378 -0.1265581407235005
vn -0.7208394201673424 -0.4539904997395468 -0.5237204946142994
vn -0.5720614028176845 -0.7071067811865475 -0.4156269377774537
vn -0.36728602957406864 -0.891006524188368 -0.26684892042779546
vn -0.12655814072350044 -0.9876883405951378 -0.09194987150091022
vn -0.8473975608908427 -0.4539904997395466 -0.27533615807315837
vn -0.6724985119639576 -0.7071067811865472 -0.21850801222441052
vn -0.4317706231133895 -0.8910065241883679 -0.14029077970429515
vn -0.14877801734965806 -0.9876883405951378 -0.04834090820338495
vn -0.891006524188368 -0.4539904997395467 -4.327107253384749e-16
vn -0.7071067811865477 -0.7071067811865474 -4.764601753198755e-16
vn -0.4539904997395469 -0.891006524188368 -2.2657027724654944e-16
vn -0.15643446504023098 -0.9876883405951378 -8.87131093793523e-17
vn -0.6724985119639575 -0.7071067811865474 0.2185080122244108
vn -0.43177062311338926 -0.8910065241883678 0.14029077970429532
vn -0.14877801734965804 -0.9876883405951378 0.04834090820338502
vn -0.5720614028176846 -0.7071067811865475 0.4156269377774532
vn -0.3672860295740688 -0.8910065241883678 0.2668489204277953
vn -0.12655814072350055 -0.9876883405951379 0.09194987150091018
vn -0.41562693777745385 -0.7071067811865474 0.5720614028176841
vn -0.26684892042779546 -0.8910065241883679 0.36728602957406853
vn -0.09194987150091025 -0.9876883405951378 0.12655814072350044
vn -0.21850801222441052 -0.7071067811865472 0.6724985119639576
vn -0.14029077970429518 -0.8910065241883679 0.4317706231133892
vn -0.04834090820338498 -0.9876883405951379 0.14877801734965806
vn -4.764601753198751e-16 -0.7071067811865475 0.7071067811865476
vn -2.2657027724654925e-16 -0.8910065241883677 0.4539904997395469
vn -8.871310937935223e-17 -0.9876883405951378 0.15643446504023098
vn 0.04834090820338499 0.9876883405951379 0.14877801734965812
vn 0.14029077970429496 0.891006524188368 0.431770623113389
vn 0.21850801222441046 0.7071067811865476 0.6724985119639574
vn 0.09194987150091032 0.9876883405951379 0.1265581407235005
vn 0.2668489204277954 0.8910065241883681 0.3672860295740683
vn 0.4156269377774534 0.7071067811865476 0.5720614028176844
vn 0.12655814072350052 0.9876883405951379 0.09194987150091029
vn 0.36728602957406836 0.891006524188368 0.26684892042779534
vn 0.5720614028176844 0.7071067811865476 0.4156269377774533
vn 0.14877801734965812 0.9876883405951379 0.048340908203385075
vn 0.431770623113389 0.891006524188368 0.14029077970429518
vn 0.6724985119639572 0.7071067811865476 0.21850801222441077
vn 0.15643446504023104 0.9876883405951378 -8.871310937935229e-17
vn 0.45399049973954664 0.891006524188368 -3.5734513148990647e-16
vn 0.7071067811865476 0.7071067811865476 -2.596264352030847e-16
vn 0.14877801734965812 0.9876883405951378 -0.04834090820338494
vn 0.4317706231133891 0.891006524188368 -0.14029077970429485
vn 0.6724985119639574 0.7071067811865477 -0.21850801222441033
vn 0.1265581407235005 0.9876883405951378 -0.09194987150091027
vn 0.36728602957406825 0.891006524188368 -0.2668489204277953
vn 0.5720614028176844 0.7071067811865476 -0.41562693777745335
vn 0.09194987150091029 0.9876883405951379 -0.12655814072350052
vn 0.26684892042779534 0.891006524188368 -0.36728602957406836
vn 0.4156269377774533 0.7071067811865476 -0.5720614028176844
vn 0.048340908203385 0.9876883405951379 -0.14877801734965812
vn 0.140290779704295 0.8910065241883681 -0.4317706231133891
vn 0.21850801222441057 0.7071067811865475 -0.6724985119639574
vn 8.871310937935239e-17 0.9876883405951379 -0.15643446504023104
vn 2.3823008765993786e-16 0.891006524188368 -0.45399049973954664
vn 3.4616858027077983e-16 0.7071067811865476 -0.7071067811865476
vn -0.04834090820338498 0.9876883405951379 -0.14877801734965812
vn -0.14029077970429493 0.8910065241883681 -0.4317706231133891
vn -0.21850801222441016 0.7071067811865476 -0.6724985119639575
vn -0.09194987150091018 0.9876883405951378 -0.12655814072350055
vn -0.26684892042779507 0.8910065241883681 -0.3672860295740684
vn -0.4156269377774533 0.7071067811865476 -0.5720614028176846
vn -0.1265581407235005 0.9876883405951378 -0.09194987150091023
vn -0.36728602957406836 0.891006524188368 -0.26684892042779534
vn -0.5720614028176845 0.7071067811865476 -0.41562693777745335
vn -0.14877801734965815 0.9876883405951379 -0.048340908203385
vn -0.43177062311338904 0.891006524188368 -0.14029077970429496
vn -0.6724985119639574 0.7071067811865476 -0.21850801222441057
vn -0.15643446504023104 0.9876883405951379 -8.871310937935239e-17
vn -0.4539904997395465 0.891006524188368 -2.3823008765993776e-16
vn -0.7071067811865476 0.7071067811865476 -3.461685802707799e-16
vn -0.14877801734965815 0.9876883405951379 0.04834090820338498
vn -0.4317706231133891 0.8910065241883681 0.14029077970429493
vn -0.6724985119639574 0.7071067811865476 0.21850801222441046
vn -0.12655814072350052 0.9876883405951379 0.09194987150091025
vn -0.36728602957406825 0.891006524188368 0.26684892042779534
vn -0.5720614028176844 0.7071067811865476 0.4156269377774534
vn -0.09194987150091032 0.9876883405951379 0.1265581407235005
vn -0.26684892042779557 0.8910065241883681 0.36728602957406825
vn -0.41562693777745363 0.7071067811865476 0.5720614028176843
vn -0.048340908203385 0.9876883405951379 0.14877801734965815
vn -0.14029077970429496 0.891006524188368 0.43177062311338904
vn -0.21850801222441057 0.7071067811865475 0.6724985119639574
vn -8.871310937935229e-17 0.9876883405951378 0.15643446504023104
vn -2.382300876599376e-16 0.891006524188368 0.45399049973954664
vn -3.4616858027077953e-16 0.7071067811865476 0.7071067811865476
usemtl m_ca267671-482f-e74b-5706-139d64301588
f 1/1/1 2/2/1 6/3/1 5/4/1
f 2/5/2 3/6/2 7/7/2 6/8/2
f 3/9/3 4/10/3 8/11/3 7/12/3
f 5/13/4 6/14/4 10/15/4 9/16/4
f 6/17/5 7/18/5 11/19/5 10/20/5
f 7/21/6 8/22/6 12/23/6 11/24/6
f 9/25/7 10/26/7 14/27/7 13/28/7
f 10/29/8 11/30/8 15/31/8 14/32/8
f 11/33/9 12/34/9 16/35/9 15/36/9
f 13/37/10 14/38/10 18/39/10 17/40/10
f 14/41/11 15/42/11 19/43/11 18/44/11
f 15/45/12 16/46/12 20/47/12 19/48/12
f 17/49/13 18/50/13 22/51/13 21/52/13
f 18/53/14 19/54/14 23/55/14 22/56/14
f 19/57/15 20/58/15 24/59/15 23/60/15
f 21/61/16 22/62/16 26/63/16 25/64/16
f 22/65/17 23/66/17 27/67/17 26/68/17
f 23/69/18 24/70/18 28/71/18 27/72/18
f 25/73/19 26/74/19 30/75/19 29/76/19
f 26/77/20 27/78/20 31/79/20 30/80/20
f 27/81/21 28/82/21 32/83/21 31/84/21
f 29/85/22 30/86/22 34/87/22 33/88/22
f 30/89/23 31/90/23 35/91/23 34/92/23
f 31/93/24 32/94/24 36/95/24 35/96/24
f 33/97/25 34/98/25 38/99/25 37/100/25
f 34/101/26 35/102/26 39/103/26 38/104/26
f 35/105/27 36/106/27 40/107/27 39/108/27
f 37/109/28 38/110/28 42/111/28 41/112/28
f 38/113/29 39/114/29 43/115/29 42/116/29
f 39/117/30 40/118/30 44/119/30 43/120/30
f 41/121/31 42/122/31 46/123/31 45/124/31
f 42/125/32 43/126/32 47/127/32 46/128/32
f 43/129/33 44/130/33 48/131/33 47/132/33
f 45/133/34 46/134/34 50/135/34 49/136/34
f 46/137/35 47/138/35 51/139/35 50/140/35
f 47/141/36 48/142/36 52/143/36 51/144/36
f 49/145/37 50/146/37 54/147/37 53/148/37
f 50/149/38 51/150/38 55/151/38 54/152/38
f 51/153/39 52/154/39 56/155/39 55/156/39
f 53/157/40 54/158/40 58/159/40 57/160/40
f 54/161/41 55/162/41 59/163/41 58/164/41
f 55/165/42 56/166/42 60/167/42 59/168/42
f 57/169/43 58/170/43 62/171/43 61/172/43
f 58/173/44 59/174/44 63/175/44 62/176/44
f 59/177/45 60/178/45 64/179/45 63/180/45
f 61/181/46 62/182/46 66/183/46 65/184/46
f 62/185/47 63/186/47 67/187/47 66/188/47
f 63/189/48 64/190/48 68/191/48 67/192/48
f 65/193/49 66/194/49 70/195/49 69/196/49
f 66/197/50 67/198/50 71/199/50 70/200/50
f 67/201/51 68/202/51 72/203/51 71/204/51
f 69/205/52 70/206/52 74/207/52 73/208/52
f 70/209/53 71/210/53 75/211/53 74/212/53
f 71/213/54 72/214/54 76/215/54 75/216/54
f 73/217/55 74/218/55 78/219/55 77/220/55
f 74/221/56 75/222/56 79/223/56 78/224/56
f 75/225/57 76/226/57 80/227/57 79/228/57
f 77/229/58 78/230/58 2/231/58 1/232/58
f 78/233/59 79/234/59 3/235/59 2/236/59
f 79/237/60 80/238/60 4/239/60 3/240/60
f 4/241/61 81/242/61 82/243/61 8/244/61
f 8/245/62 82/246/62 83/247/62 12/248/62
f 12/249/63 83/250/63 84/251/63 16/252/63
f 16/253/64 84/254/64 85/255/64 20/256/64
f 64/257/65 86/258/65 87/259/65 68/260/65
f 68/261/66 87/262/66 88/263/66 72/264/66
f 72/265/67 88/266/67 89/267/67 76/268/67
f 76/269/68 89/270/68 90/271/68 80/272/68
f 80/273/69 90/274/69 81/275/69 4/276/69
f 81/277/70 92/278/70 94/279/70 82/280/70
f 92/281/71 93/282/71 95/283/71 94/284/71
f 95/285/72 93/286/72 91/287/72
f 82/288/73 94/289/73 96/290/73 83/291/73
f 94/292/74 95/293/74 97/294/74 96/295/74
f 97/296/75 95/297/75 91/298/75
f 83/299/76 96/300/76 98/301/76 84/302/76
f 96/303/77 97/304/77 99/305/77 98/306/77
f 99/307/78 97/308/78 91/309/78
f 84/310/79 98/311/79 100/312/79 85/313/79
f 98/314/80 99/315/80 101/316/80 100/317/80
f 101/318/81 99/319/81 91/320/81
f 20/321/82 85/322/82 102/323/82 24/324/82
f 85/325/83 100/326/83 103/327/83 102/328/83
f 100/329/84 101/330/84 104/331/84 103/332/84
f 104/333/85 101/334/85 91/335/85
f 24/336/86 102/337/86 105/338/86 28/339/86
f 102/340/87 103/341/87 106/342/87 105/343/87
f 103/344/88 104/345/88 107/346/88 106/347/88
f 107/348/89 104/349/89 91/350/89
f 28/351/90 105/352/90 108/353/90 32/354/90
f 105/355/91 106/356/91 109/357/91 108/358/91
f 106/359/92 107/360/92 110/361/92 109/362/92
f 110/363/93 107/364/93 91/365/93
f 32/366/94 108/367/94 111/368/94 36/369/94
f 108/370/95 109/371/95 112/372/95 111/373/95
f 109/374/96 110/375/96 113/376/96 112/377/96
f 113/378/97 110/379/97 91/380/97
f 36/381/98 111/382/98 114/383/98 40/384/98
f 111/385/99 112/386/99 115/387/99 114/388/99
f 112/389/100 113/390/100 116/391/100 115/392/100
f 116/393/101 113/394/101 91/395/101
f 40/396/102 114/397/102 117/398/102 44/399/102
f 114/400/103 115/401/103 118/402/103 117/403/103
f 115/404/104 116/405/104 119/406/104 118/407/104
f 119/408/105 116/409/105 91/410/105
f 44/411/106 117/412/106 120/413/106 48/414/106
f 117/415/107 118/416/107 121/417/107 120/418/107
f 118/419/108 119/420/108 122/421/108 121/422/108
f 122/423/109 119/424/109 91/425/109
f 48/426/110 120/427/110 123/428/110 52/429/110
f 120/430/111 121/431/111 124/432/111 123/433/111
f 121/434/112 122/435/112 125/436/112 124/437/112
f 125/438/113 122/439/113 91/440/113
f 52/441/114 123/442/114 126/443/114 56/444/114
f 123/445/115 124/446/115 127/447/115 126/448/115
f 124/449/116 125/450/116 128/451/116 127/452/116
f 128/453/117 125/454/117 91/455/117
f 56/456/118 126/457/118 129/458/118 60/459/118
f 126/460/119 127/461/119 130/462/119 129/463/119
f 127/464/120 128/465/120 131/466/120 130/467/120
f 131/468/121 128/469/121 91/470/121
f 60/471/122 129/472/122 86/473/122 64/474/122
f 129/475/123 130/476/123 132/477/123 86/478/123
f 130/479/124 131/480/124 133/481/124 132/482/124
f 133/483/125 131/484/125 91/485/125
f 86/486/126 132/487/126 134/488/126 87/489/126
f 132/490/127 133/491/127 135/492/127 134/493/127
f 135/494/128 133/495/128 91/496/128
f 87/497/129 134/498/129 136/499/129 88/500/129
f 134/501/130 135/502/130 137/503/130 136/504/130
f 137/505/131 135/506/131 91/507/131
f 88/508/132 136/509/132 138/510/132 89/511/132
f 136/512/133 137/513/133 139/514/133 138/515/133
f 139/516/134 137/517/134 91/518/134
f 89/519/135 138/520/135 140/521/135 90/522/135
f 138/523/136 139/524/136 141/525/136 140/526/136
f 141/527/137 139/528/137 91/529/137
f 90/530/138 140/531/138 92/532/138 81/533/138
f 140/534/139 141/535/139 93/536/139 92/537/139
f 93/538/140 141/539/140 91/540/140
f 143/541/141 145/542/141 142/543/141
f 143/544/142 144/545/142 146/546/142 145/547/142
f 144/548/143 1/549/143 5/550/143 146/551/143
f 145/552/144 147/553/144 142/554/144
f 145/555/145 146/556/145 148/557/145 147/558/145
f 146/559/146 5/560/146 9/561/146 148/562/146
f 147/563/147 149/564/147 142/565/147
f 147/566/148 148/567/148 150/568/148 149/569/148
f 148/570/149 9/571/149 13/572/149 150/573/149
f 149/574/150 151/575/150 142/576/150
f 149/577/151 150/578/151 152/579/151 151/580/151
f 150/581/152 13/582/152 17/583/152 152/584/152
f 151/585/153 153/586/153 142/587/153
f 151/588/154 152/589/154 154/590/154 153/591/154
f 152/592/155 17/593/155 21/594/155 154/595/155
f 153/596/156 155/597/156 142/598/156
f 153/599/157 154/600/157 156/601/157 155/602/157
f 154/603/158 21/604/158 25/605/158 156/606/158
f 155/607/159 157/608/159 142/609/159
f 155/610/160 156/611/160 158/612/160 157/613/160
f 156/614/161 25/615/161 29/616/161 158/617/161
f 157/618/162 159/619/162 142/620/162
f 157/621/163 158/622/163 160/623/163 159/624/163
f 158/625/164 29/626/164 33/627/164 160/628/164
f 159/629/165 161/630/165 142/631/165
f 159/632/166 160/633/166 162/634/166 161/635/166
f 160/636/167 33/637/167 37/638/167 162/639/167
f 161/640/168 163/641/168 142/642/168
f 161/643/169 162/644/169 164/645/169 163/646/169
f 162/647/170 37/648/170 41/649/170 164/650/170
f 163/651/171 165/652/171 142/653/171
f 163/654/172 164/655/172 166/656/172 165/657/172
f 164/658/173 41/659/173 45/660/173 166/661/173
f 165/662/174 167/663/174 142/664/174
f 165/665/175 166/666/175 168/667/175 167/668/175
f 166/669/176 45/670/176 49/671/176 168/672/176
f 167/673/177 169/674/177 142/675/177
f 167/676/178 168/677/178 170/678/178 169/679/178
f 168/680/179 49/681/179 53/682/179 170/683/179
f 169/684/180 171/685/180 142/686/180
f 169/687/181 170/688/181 172/689/181 171/690/181
f 170/691/182 53/692/182 57/693/182 172/694/182
f 171/695/183 173/696/183 142/697/183
f 171/698/184 172/699/184 174/700/184 173/701/184
f 172/702/185 57/703/185 61/704/185 174/705/185
f 173/706/186 175/707/186 142/708/186
f 173/709/187 174/710/187 176/711/187 175/712/187
f 174/713/188 61/714/188 65/715/188 176/716/188
f 175/717/189 177/718/189 142/719/189
f 175/720/190 176/721/190 178/722/190 177/723/190
f 176/724/191 65/725/191 69/726/191 178/727/191
f 177/728/192 179/729/192 142/730/192
f 177/731/193 178/732/193 180/733/193 179/734/193
f 178/735/194 69/736/194 73/737/194 180/738/194
f 179/739/195 181/740/195 142/741/195
f 179/742/196 180/743/196 182/744/196 181/745/196
f 180/746/197 73/747/197 77/748/197 182/749/197
f 181/750/198 143/751/198 142/752/198
f 181/753/199 182/754/199 144/755/199 143/756/199
f 182/757/200 77/758/200 1/759/200 144/760/200